<svg xmlns="http://www.w3.org/2000/svg" xmlns:xlink="http://www.w3.org/1999/xlink" width="505" height="299.089" viewBox="0 0 505 299.089">
  <defs>
    <clipPath id="clip-path">
      <path id="Trazado_103901" data-name="Trazado 103901" d="M156.641,336.884c-4.252-13.142-27.045-22.234-43.4-27.177,3.5,5.549,6.757,10.309,7.416,12.416,1.537,4.92,1.23,7.073,1.23,7.073s-7.381,9.225-11.686,10.763S62.849,313.2,49.011,296.907c0,0-15.375,3.69-21.321,19.681s-14.555,71.343-14.555,71.343H166.5S163.406,357.8,156.641,336.884Z" fill="none"/>
    </clipPath>
    <clipPath id="clip-path-2">
      <path id="Trazado_103912" data-name="Trazado 103912" d="M53.009,171.442S37.326,190.508,38.556,222.8s6.458,65.192,10.455,74.11L121.892,329.2s1.23,7.688,0,14.146c0,0-7.227-3.537-11.224,1.23s-1.077,21.064,17.374,22.755,34.9-21.679,36.133-40.284-11.686-36.132-13.838-41.206-6.81-12.043-6.557-27.317,3.048-59.1,3.048-59.1,7.2-2.3,5.046-15.212-19.6-27.562-39.976-31.059C91.294,149.609,71.306,151.146,53.009,171.442Z" fill="none"/>
    </clipPath>
  </defs>
  <g id="Grupo_58216" data-name="Grupo 58216" transform="translate(-180 -9827)">
    <path id="Rectángulo_12234" data-name="Rectángulo 12234" d="M0,0H439a66,66,0,0,1,66,66V91a0,0,0,0,1,0,0H0a0,0,0,0,1,0,0V0A0,0,0,0,1,0,0Z" transform="translate(180 10035)" fill="#ffb74d"/>
    <g id="Grupo_57292" data-name="Grupo 57292" transform="translate(354.496 9738.158)">
      <path id="Trazado_103898" data-name="Trazado 103898" d="M156.641,336.884c-4.252-13.142-27.045-22.234-43.4-27.177,3.5,5.549,6.757,10.309,7.416,12.416,1.537,4.92,1.23,7.073,1.23,7.073s-7.381,9.225-11.686,10.763S62.849,313.2,49.011,296.907c0,0-15.375,3.69-21.321,19.681s-14.555,71.343-14.555,71.343h152.7S163.406,357.8,156.641,336.884Z" fill="#f24f71"/>
      <g id="Grupo_57279" data-name="Grupo 57279">
        <g id="Grupo_57278" data-name="Grupo 57278" clip-path="url(#clip-path)">
          <g id="Grupo_57277" data-name="Grupo 57277">
            <g id="Grupo_57275" data-name="Grupo 57275">
              <path id="Trazado_103899" data-name="Trazado 103899" d="M47.782,400.288h0a.473.473,0,0,1-.468-.476c.2-23.569,7.728-53.721,7.8-54.023a.472.472,0,1,1,.915.231c-.075.3-7.571,30.345-7.775,53.8A.471.471,0,0,1,47.782,400.288Z" fill="#bc3556"/>
            </g>
            <g id="Grupo_57276" data-name="Grupo 57276">
              <path id="Trazado_103900" data-name="Trazado 103900" d="M150.966,399.473a.472.472,0,0,1-.388-.74c.033-.049,3.336-5.009,3.336-18.183,0-13.224-5.121-21.719-5.172-21.8a.471.471,0,0,1,.8-.494c.053.086,5.313,8.79,5.313,22.3,0,13.523-3.362,18.515-3.505,18.72A.469.469,0,0,1,150.966,399.473Z" fill="#bc3556"/>
            </g>
          </g>
        </g>
      </g>
      <path id="Trazado_103902" data-name="Trazado 103902" d="M53.009,171.442S37.326,190.508,38.556,222.8s6.458,65.192,10.455,74.11L121.892,329.2s1.23,7.688,0,14.146c0,0-7.227-3.537-11.224,1.23s-1.077,21.064,17.374,22.755,34.9-21.679,36.133-40.284-11.686-36.132-13.838-41.206-6.81-12.043-6.557-27.317,3.048-59.1,3.048-59.1,7.2-2.3,5.046-15.212-19.6-27.562-39.976-31.059C91.294,149.609,71.306,151.146,53.009,171.442Z" fill="#162655"/>
      <g id="Grupo_57291" data-name="Grupo 57291">
        <g id="Grupo_57290" data-name="Grupo 57290" clip-path="url(#clip-path-2)">
          <g id="Grupo_57289" data-name="Grupo 57289">
            <g id="Grupo_57280" data-name="Grupo 57280">
              <path id="Trazado_103903" data-name="Trazado 103903" d="M80.378,215.273a.473.473,0,0,1-.4-.222c-.123-.2-12.284-20.032-8.439-45.428a.472.472,0,0,1,.933.141c-3.791,25.039,8.185,44.593,8.307,44.787a.472.472,0,0,1-.4.722Z" fill="#2c3f70"/>
            </g>
            <g id="Grupo_57281" data-name="Grupo 57281">
              <path id="Trazado_103904" data-name="Trazado 103904" d="M97.287,202.067a.473.473,0,0,1-.311-.117c-17.488-15.32-17.99-41.4-17.993-41.663a.471.471,0,0,1,.466-.477h.006a.472.472,0,0,1,.472.466c0,.258.5,25.926,17.671,40.964a.472.472,0,0,1-.311.827Z" fill="#2c3f70"/>
            </g>
            <g id="Grupo_57282" data-name="Grupo 57282">
              <path id="Trazado_103905" data-name="Trazado 103905" d="M119.605,192.277a.471.471,0,0,1-.45-.331c-7.966-25.445-34.417-35.96-34.684-36.063a.472.472,0,0,1,.341-.881c.271.1,27.139,10.775,35.243,36.662a.471.471,0,0,1-.309.591A.465.465,0,0,1,119.605,192.277Z" fill="#2c3f70"/>
            </g>
            <g id="Grupo_57283" data-name="Grupo 57283">
              <path id="Trazado_103906" data-name="Trazado 103906" d="M137.832,187.327a.473.473,0,0,1-.448-.323c-11.394-34.3-47.269-34.874-47.63-34.876a.472.472,0,0,1,0-.944h0c.368,0,36.916.586,48.521,35.522a.472.472,0,0,1-.3.6A.479.479,0,0,1,137.832,187.327Z" fill="#2c3f70"/>
            </g>
            <g id="Grupo_57284" data-name="Grupo 57284">
              <path id="Trazado_103907" data-name="Trazado 103907" d="M62.409,292.857a.471.471,0,0,1-.443-.31c-16.185-44.514-8.133-90.576-8.05-91.036a.472.472,0,0,1,.929.168c-.083.458-8.087,46.277,8.007,90.545a.471.471,0,0,1-.282.605A.479.479,0,0,1,62.409,292.857Z" fill="#2c3f70"/>
            </g>
            <g id="Grupo_57285" data-name="Grupo 57285">
              <path id="Trazado_103908" data-name="Trazado 103908" d="M74.885,287.2a.471.471,0,0,1-.452-.336,164.758,164.758,0,0,1-6.514-38.739.472.472,0,0,1,.462-.482.451.451,0,0,1,.482.461A163.764,163.764,0,0,0,75.337,286.6a.472.472,0,0,1-.317.588A.489.489,0,0,1,74.885,287.2Z" fill="#2c3f70"/>
            </g>
            <g id="Grupo_57286" data-name="Grupo 57286">
              <path id="Trazado_103909" data-name="Trazado 103909" d="M128.042,367.8a.471.471,0,0,1-.343-.8c6.255-6.641,11.528-18.819,9.207-31.057a214.442,214.442,0,0,0-5.868-21.653c-2-6.535-4.26-13.942-6.221-21.794-4.294-17.189-1.45-24.233-1.327-24.524a.472.472,0,0,1,.87.366c-.029.069-2.831,7.1,1.372,23.929,1.956,7.829,4.215,15.223,6.209,21.748a214.822,214.822,0,0,1,5.892,21.752c2.384,12.565-3.028,25.065-9.448,31.88A.471.471,0,0,1,128.042,367.8Z" fill="#2c3f70"/>
            </g>
            <g id="Grupo_57287" data-name="Grupo 57287">
              <path id="Trazado_103910" data-name="Trazado 103910" d="M153.035,354.687a.48.48,0,0,1-.144-.022.473.473,0,0,1-.306-.594c7.547-23.654-.483-39.083-7.568-52.7-1.831-3.519-3.561-6.842-5.006-10.229-7.141-16.732-6.29-25.833-6.25-26.212a.465.465,0,0,1,.518-.42.472.472,0,0,1,.421.518c-.01.09-.852,9.27,6.179,25.744,1.431,3.353,3.153,6.661,4.975,10.163,7.171,13.775,15.3,29.389,7.631,53.419A.473.473,0,0,1,153.035,354.687Z" fill="#2c3f70"/>
            </g>
            <g id="Grupo_57288" data-name="Grupo 57288">
              <path id="Trazado_103911" data-name="Trazado 103911" d="M118.363,349.451a.472.472,0,0,1-.208-.9c2.284-1.116,3.267-5.277,3.277-5.319a.472.472,0,1,1,.92.212c-.044.188-1.093,4.641-3.782,5.956A.48.48,0,0,1,118.363,349.451Z" fill="#2c3f70"/>
            </g>
          </g>
        </g>
      </g>
      <path id="Trazado_103913" data-name="Trazado 103913" d="M140.957,186.2s7.381,12.3,10.763,31.981,2.461,45.512-30.443,50.432c-13.223,2.153-16.3,0-16.3,0a126.166,126.166,0,0,0-1.538,19.066c0,10.148,15.683,29.521,17.221,34.441s1.23,7.073,1.23,7.073-7.381,9.225-11.686,10.763S62.849,313.2,49.011,296.907c0,0,13.223-4,20.3-7.38s11.071-4.613,11.686-14.761-1.538-23.678-1.538-23.678-8.61,1.23-15.683-7.073,1.538-17.836,8.3-17.221S81.3,239.837,81.3,239.837l6.15-3.51S81.3,222.182,80.378,214.8C80.378,214.8,94.831,195.428,140.957,186.2Z" fill="#ffb78c"/>
      <path id="Trazado_103914" data-name="Trazado 103914" d="M67.975,237.147a4.1,4.1,0,0,1,1.253-1.53,3.449,3.449,0,0,1,2.06-.713,3.6,3.6,0,0,1,2.164.77A6.4,6.4,0,0,1,74.9,237.19a12.547,12.547,0,0,1,2.1,7.338c-.681-1.1-1.257-2.182-1.832-3.243a31.719,31.719,0,0,0-1.8-3,7.472,7.472,0,0,0-1.027-1.221,2.584,2.584,0,0,0-1.176-.7A4.741,4.741,0,0,0,67.975,237.147Z" fill="#ce734e"/>
      <path id="Trazado_103915" data-name="Trazado 103915" d="M116.664,206.088a8.761,8.761,0,0,1-3.28,2.358c-2.05.82-2.87,3.075-4.715,3.28s-3.178-3.587,1.435-6.765S117.279,203.526,116.664,206.088Z" fill="#162655"/>
      <path id="Trazado_103916" data-name="Trazado 103916" d="M143.11,196.966a12.17,12.17,0,0,0-6.253,0c-3.28.922-3.382,4.92,0,4.612s3.69-1.025,6.253-.82S145.678,197.359,143.11,196.966Z" fill="#162655"/>
      <path id="Trazado_103917" data-name="Trazado 103917" d="M134.359,212.239c.8.929,1.59,1.826,2.42,2.664a19.55,19.55,0,0,0,2.609,2.249,10.5,10.5,0,0,0,3.011,1.382c.558.187,1.115.375,1.665.543l.815.229.387.088.17.029.067.009s.071,0-.05.01l1.008.993a10.919,10.919,0,0,1-.7,2.335,9.55,9.55,0,0,1-1.249,2.054,6.457,6.457,0,0,1-1.84,1.537,5.254,5.254,0,0,1-2.224.638,7.374,7.374,0,0,0,1.789-1.24,6.951,6.951,0,0,0,1.244-1.649,9.263,9.263,0,0,0,.783-1.9,9.4,9.4,0,0,0,.408-1.973l1.008.992a1.614,1.614,0,0,1-.276.009l-.158-.011-.276-.033c-.172-.026-.336-.056-.5-.089-.32-.065-.627-.143-.929-.23-.6-.168-1.189-.364-1.766-.575a16.162,16.162,0,0,1-1.76-.729,9.69,9.69,0,0,1-1.634-1.122,13.025,13.025,0,0,1-2.441-2.881A13.9,13.9,0,0,1,134.359,212.239Z" fill="#ce734e"/>
      <path id="Trazado_103918" data-name="Trazado 103918" d="M120.218,218.052c1.216,2.959.886,5.9-.737,6.565s-3.925-1.19-5.141-4.149-.886-5.9.737-6.564S119,215.094,120.218,218.052Z" fill="#59313e"/>
      <path id="Trazado_103919" data-name="Trazado 103919" d="M145.9,209.174c1.216,2.958.886,5.9-.737,6.564s-3.925-1.19-5.141-4.148-.886-5.9.737-6.565S144.68,206.215,145.9,209.174Z" fill="#59313e"/>
      <path id="Trazado_103920" data-name="Trazado 103920" d="M138.087,237.045s-3.69,1.154-9.43-1.422-8.713-1.65-10.045,1.68S121.19,248,132.655,248.115s10.455-8,9.738-9.738S140.047,236.792,138.087,237.045Z" fill="#932047"/>
      <path id="Trazado_103921" data-name="Trazado 103921" d="M138.087,237.045s-3.69,1.154-9.43-1.422c-4.606-2.067-7.427-1.875-9.052,0,11.038,8.316,18.38,5.506,18.38,5.506l1.539-4.224C139.073,236.926,138.593,236.979,138.087,237.045Z" fill="#fff"/>
      <path id="Trazado_103922" data-name="Trazado 103922" d="M129.486,247.86c-2.092-7.891-10.874-10.557-10.874-10.557C117.411,240.3,120.487,246.558,129.486,247.86Z" fill="#ed8470"/>
      <path id="Trazado_103923" data-name="Trazado 103923" d="M67.975,227.536s-13.428-14.544-14.966-34.261,6.408-26.956,10.507-31.39,13.939-10.467,26.241-10.229c0,0-16.452,9.946-23.217,29.165s5.535,45.973,5.535,45.973A5.432,5.432,0,0,0,67.975,227.536Z" fill="#ffdc5e"/>
      <path id="Trazado_103924" data-name="Trazado 103924" d="M140.957,186.2a16.232,16.232,0,0,1,6.971.512c3.485,1.128-4.488,4.35-4.488,4.35A31.063,31.063,0,0,0,140.957,186.2Z" fill="#101d3d"/>
      <path id="Trazado_103925" data-name="Trazado 103925" d="M104.979,268.616a43.017,43.017,0,0,1-25.524-17.528s1.082,7.042,1.343,12.023c0,0,3.066,14.529,22.695,21.292C103.493,284.4,103.133,279.686,104.979,268.616Z" fill="#ff9360"/>
      <path id="Trazado_103926" data-name="Trazado 103926" d="M161.15,164.862s9.84-6.151,3.9-14.556-14.959-2.87-30.748-9.02-24.194-25.216-4.308-41.207,63.962-13.941,84.053,0,12.5,37.927-12.916,46.742c-17.587,6.1-18.245,3.69-18.245,3.69S177.756,162.4,161.15,164.862Z" fill="#8c6df2"/>
    </g>
  </g>
</svg>
