<svg xmlns="http://www.w3.org/2000/svg" xmlns:xlink="http://www.w3.org/1999/xlink" width="505" height="658" viewBox="0 0 505 658">
  <defs>
    <clipPath id="clip-path">
      <rect id="Rectángulo_12515" data-name="Rectángulo 12515" width="505" height="658" transform="translate(915 397)" fill="#72d8ff"/>
    </clipPath>
    <clipPath id="clip-path-2">
      <rect id="Rectángulo_12514" data-name="Rectángulo 12514" width="666" height="666" fill="none"/>
    </clipPath>
  </defs>
  <g id="Grupo_58214" data-name="Grupo 58214" transform="translate(-915 -397)">
    <path id="Rectángulo_12283" data-name="Rectángulo 12283" d="M308,0H505a0,0,0,0,1,0,0V658a0,0,0,0,1,0,0H0a0,0,0,0,1,0,0V308A308,308,0,0,1,308,0Z" transform="translate(915 397)" fill="#72d8ff"/>
    <g id="Enmascarar_grupo_63" data-name="Enmascarar grupo 63" clip-path="url(#clip-path)">
      <g id="Grupo_57657" data-name="Grupo 57657" transform="translate(832 389)">
        <g id="Grupo_57614" data-name="Grupo 57614" transform="translate(39.935 197.346)">
          <path id="Trazado_104549" data-name="Trazado 104549" d="M455.2,220.935H395.355A11.836,11.836,0,0,1,383.519,209.1h0a11.835,11.835,0,0,1,11.836-11.836H455.2A11.835,11.835,0,0,1,467.041,209.1h0A11.836,11.836,0,0,1,455.2,220.935Z" transform="translate(50.775 -258.855)" fill="#fff"/>
          <path id="Trazado_104550" data-name="Trazado 104550" d="M459.81,214.364H421.845A11.835,11.835,0,0,0,410.009,226.2h0a11.835,11.835,0,0,0,11.836,11.836H459.81A11.836,11.836,0,0,0,471.646,226.2h0A11.836,11.836,0,0,0,459.81,214.364Z" transform="translate(59.57 -253.178)" fill="#fff"/>
          <rect id="Rectángulo_12513" data-name="Rectángulo 12513" width="61.637" height="23.672" rx="8.886" transform="translate(369.256 34.937)" fill="#fff"/>
          <path id="Trazado_104551" data-name="Trazado 104551" d="M151.351,204.5H113.386a11.835,11.835,0,0,0-11.836,11.836h0a11.836,11.836,0,0,0,11.836,11.836h37.965a11.836,11.836,0,0,0,11.836-11.836h0A11.835,11.835,0,0,0,151.351,204.5Z" transform="translate(-6.22 -129.451)" fill="#fff"/>
          <path id="Trazado_104552" data-name="Trazado 104552" d="M168.121,183.785h-6.708a11.835,11.835,0,0,0-11.836,11.836h0a11.836,11.836,0,0,0,11.836,11.836h6.708a11.837,11.837,0,0,0,11.836-11.836h0A11.836,11.836,0,0,0,168.121,183.785Z" transform="translate(9.725 -136.33)" fill="#fff"/>
          <path id="Trazado_104554" data-name="Trazado 104554" d="M374.57,238.416h-6.708a11.835,11.835,0,0,0-11.835,11.836h0a11.836,11.836,0,0,0,11.835,11.836h6.708a11.836,11.836,0,0,0,11.836-11.836h0A11.835,11.835,0,0,0,374.57,238.416Z" transform="translate(78.266 -118.192)" fill="#fff"/>
          <path id="Trazado_104557" data-name="Trazado 104557" d="M129.648,222.293H86.226A11.835,11.835,0,0,0,74.39,234.129h0a11.835,11.835,0,0,0,11.836,11.836h43.422a11.835,11.835,0,0,0,11.836-11.836h0A11.835,11.835,0,0,0,129.648,222.293Z" transform="translate(-15.237 -123.545)" fill="#fff"/>
        </g>
        <g id="Grupo_57656" data-name="Grupo 57656">
          <g id="Grupo_57655" data-name="Grupo 57655" clip-path="url(#clip-path-2)">
            <g id="Grupo_57654" data-name="Grupo 57654" transform="translate(-22.017 137.067)">
              <g id="Grupo_57616" data-name="Grupo 57616" transform="translate(347.466 168.583)">
                <path id="Trazado_104558" data-name="Trazado 104558" d="M244.331,229.467l9.383,67.375H288.6c4.781,0,7.775-5.464,5.4-9.849l-31.166-57.526Z" transform="translate(-244.331 -229.467)" fill="#985e4b"/>
                <g id="Grupo_57615" data-name="Grupo 57615">
                  <path id="Trazado_104559" data-name="Trazado 104559" d="M288.131,276.171l-25.3-46.7h-18.5l.738,5.3,12.353,22.647c6.331,11.607,18.038,18.757,30.709,18.757Z" transform="translate(-244.331 -229.467)" fill="#7d3820"/>
                </g>
              </g>
              <g id="Grupo_57618" data-name="Grupo 57618" transform="translate(391.473 220.762)">
                <g id="Grupo_57617" data-name="Grupo 57617">
                  <path id="Trazado_104560" data-name="Trazado 104560" d="M358.049,366.6l71.088,29.328,10.435,20.651-26.853,3.591,1.914-17.634-62.585-7.953Z" transform="translate(-252.576 -236.117)" fill="#985e4b"/>
                  <path id="Trazado_104561" data-name="Trazado 104561" d="M277.369,271.827l15.6-2.836a21.641,21.641,0,0,1,24.256,14.022L354.01,386.2l65.412,26.316s-19.779.16-24.225,20.444S372.56,448.7,372.56,448.7L327.4,400.91l-44.374-91.386Z" transform="translate(-277.369 -268.64)" fill="#d9a600"/>
                  <line id="Línea_185" data-name="Línea 185" x1="12.071" y1="5.108" transform="translate(64.471 112.311)" fill="none" stroke="#a15800" stroke-linecap="round" stroke-miterlimit="10" stroke-width="1.912"/>
                </g>
                <line id="Línea_186" data-name="Línea 186" x2="33.844" y2="33.844" transform="translate(68.445 137.16)" fill="none" stroke="#a15800" stroke-linecap="round" stroke-miterlimit="10" stroke-width="1.912"/>
              </g>
              <g id="Grupo_57623" data-name="Grupo 57623" transform="translate(0 221.29)">
                <g id="Grupo_57621" data-name="Grupo 57621" transform="translate(0 157.613)">
                  <g id="Grupo_57619" data-name="Grupo 57619">
                    <path id="Trazado_104562" data-name="Trazado 104562" d="M304.49,602.714c172.827,0,209.822-158.82,216.8-203.325L507.064,403.5c-13.247,59.981-57.971,182.465-202.349,182.465-149.562,0-186.818-136.422-195.952-195.831L95.94,387.365C99.54,426.391,125.743,602.714,304.49,602.714Z" transform="translate(53.869 -387.365)" fill="#dd3142"/>
                    <path id="Trazado_104563" data-name="Trazado 104563" d="M301.519,585.273c144.378,0,189.1-122.484,202.349-182.465l-98.5,28.451L248.492,420.386,105.567,389.442C114.7,448.851,151.957,585.273,301.519,585.273Z" transform="translate(57.065 -386.675)" fill="#1f62ce"/>
                    <path id="Trazado_104564" data-name="Trazado 104564" d="M305.879,769.11c212.249,0,288.273-251.126,287.367-344.871l-57.49-24.85c-6.974,44.5-43.969,203.325-216.8,203.325-178.746,0-204.95-176.322-208.55-215.349L70.528,400.752,54.791,406.7C39.32,506.218,94.7,769.11,305.879,769.11Z" transform="translate(39.4 -387.365)" fill="#ffd300"/>
                    <path id="Trazado_104565" data-name="Trazado 104565" d="M309.4,786.94c233.285,0,308.662-277.869,307.306-358.978l-18.949-8.541c.906,93.745-75.118,344.871-287.367,344.871C99.218,764.292,43.836,501.4,59.307,401.877l-18.278,6.9C26.541,495.525,77.386,786.94,309.4,786.94Z" transform="translate(34.885 -382.547)" fill="#1f62ce"/>
                    <path id="Trazado_104566" data-name="Trazado 104566" d="M317.431,899.533c353.633,0,379.215-369.167,359.319-452.125l-44.563-21.167c1.356,81.109-74.021,358.978-307.306,358.978-232.018,0-282.864-291.415-268.375-378.16L-5.046,430.305C-19.955,497.73,15.692,899.533,317.431,899.533Z" transform="translate(19.408 -380.827)" fill="#dd3142"/>
                    <path id="Trazado_104567" data-name="Trazado 104567" d="M695.791,447.82l-16.162-6.206c19.9,82.958-5.686,452.125-359.319,452.125-301.739,0-337.386-401.8-322.477-469.228l-13.588,5.131S-49.673,918.834,331.41,918.834C724.026,918.834,695.791,447.82,695.791,447.82Z" transform="translate(16.529 -375.033)" fill="#ffd300"/>
                  </g>
                  <g id="Grupo_57620" data-name="Grupo 57620" transform="translate(83.7 18.684)">
                    <line id="Línea_187" data-name="Línea 187" x1="186.78" y2="185.547" transform="translate(0 44.251)" fill="none" stroke="#074193" stroke-linecap="round" stroke-miterlimit="10" stroke-width="1.912" opacity="0.5" style="mix-blend-mode: multiply;isolation: isolate"/>
                    <line id="Línea_188" data-name="Línea 188" x2="105.064" y2="328.572" transform="translate(320.38 48.117)" fill="none" stroke="#074193" stroke-linecap="round" stroke-miterlimit="10" stroke-width="1.912" opacity="0.5" style="mix-blend-mode: multiply;isolation: isolate"/>
                    <line id="Línea_189" data-name="Línea 189" x2="53.181" y2="159.776" transform="translate(345.025 50.694)" fill="none" stroke="#074193" stroke-linecap="round" stroke-miterlimit="10" stroke-width="1.912" opacity="0.5" style="mix-blend-mode: multiply;isolation: isolate"/>
                    <line id="Línea_190" data-name="Línea 190" x2="182.889" y2="56.695" transform="translate(374.858 35.231)" fill="none" stroke="#074193" stroke-linecap="round" stroke-miterlimit="10" stroke-width="1.912" opacity="0.5" style="mix-blend-mode: multiply;isolation: isolate"/>
                    <line id="Línea_191" data-name="Línea 191" x2="92.093" y2="29.636" transform="translate(415.067 66.156)" fill="none" stroke="#074193" stroke-linecap="round" stroke-miterlimit="10" stroke-width="1.912" opacity="0.5" style="mix-blend-mode: multiply;isolation: isolate"/>
                    <line id="Línea_192" data-name="Línea 192" x1="169.809" y1="19.769" transform="translate(27.348)" fill="none" stroke="#074193" stroke-linecap="round" stroke-miterlimit="10" stroke-width="1.912" opacity="0.5" style="mix-blend-mode: multiply;isolation: isolate"/>
                    <line id="Línea_193" data-name="Línea 193" x1="133.6" y1="3.866" transform="translate(11.674 23.635)" fill="none" stroke="#074193" stroke-linecap="round" stroke-miterlimit="10" stroke-width="1.912" opacity="0.5" style="mix-blend-mode: multiply;isolation: isolate"/>
                  </g>
                </g>
                <g id="Grupo_57622" data-name="Grupo 57622" transform="translate(283.029)">
                  <path id="Trazado_104568" data-name="Trazado 104568" d="M195.955,455.167l62.8-45.4-38.3-97.959c-4.741-13.676,4.984-28.093,20.539-30.451l81.275-12.318L357.509,339.7s4.18,8.942-3.02,20.408-27.9,53.577-14.33,81.81l36.665,26.559A77.592,77.592,0,0,1,360.306,481.4l-5.653,3.251c-45.219,26.017-103.64,21.562-143.017-10.9h0C204.026,467.469,195.955,455.167,195.955,455.167Z" transform="translate(-195.955 -269.037)" fill="#ffd300"/>
                  <path id="Trazado_104569" data-name="Trazado 104569" d="M238.48,277.91l-3.3.5c-15.555,2.358-25.28,16.775-20.539,30.451l23.619,60.4v-90.4h.216Z" transform="translate(-190.15 -266.091)" fill="#d9a600"/>
                  <line id="Línea_194" data-name="Línea 194" x2="70.295" y2="80.776" transform="translate(56.135 93.708)" fill="none" stroke="#a15800" stroke-linecap="round" stroke-miterlimit="10" stroke-width="1.912"/>
                  <line id="Línea_195" data-name="Línea 195" x2="30.796" y2="34.613" transform="translate(65.507 139.471)" fill="none" stroke="#a15800" stroke-linecap="round" stroke-miterlimit="10" stroke-width="1.912"/>
                  <line id="Línea_196" data-name="Línea 196" y1="59.73" x2="32.802" transform="translate(127.97 86.213)" fill="none" stroke="#a15800" stroke-linecap="round" stroke-miterlimit="10" stroke-width="1.912"/>
                </g>
              </g>
              <g id="Grupo_57635" data-name="Grupo 57635" transform="translate(327.584 79.357)">
                <g id="Grupo_57624" data-name="Grupo 57624" transform="translate(79.054 89.598)">
                  <line id="Línea_197" data-name="Línea 197" y2="16.427" transform="translate(5.979)" fill="none" stroke="#3b2323" stroke-linecap="round" stroke-miterlimit="10" stroke-width="1.912"/>
                  <path id="Trazado_104570" data-name="Trazado 104570" d="M296.562,236.393a2.657,2.657,0,1,1-2.657-2.657A2.657,2.657,0,0,1,296.562,236.393Z" transform="translate(-287.926 -228.422)" fill="#dd3142"/>
                  <path id="Trazado_104571" data-name="Trazado 104571" d="M296.562,244.554A2.657,2.657,0,1,1,293.9,241.9,2.657,2.657,0,0,1,296.562,244.554Z" transform="translate(-287.926 -225.712)" fill="#ffd300"/>
                  <path id="Trazado_104572" data-name="Trazado 104572" d="M296.562,257.794a2.657,2.657,0,1,1-2.657-2.657A2.657,2.657,0,0,1,296.562,257.794Z" transform="translate(-287.926 -221.317)" fill="#ffd300"/>
                  <path id="Trazado_104573" data-name="Trazado 104573" d="M300.711,252.047a5.979,5.979,0,1,1-5.979-5.978A5.979,5.979,0,0,1,300.711,252.047Z" transform="translate(-288.754 -224.327)" fill="#dd3142"/>
                </g>
                <g id="Grupo_57626" data-name="Grupo 57626" transform="translate(5.543 4.798)">
                  <path id="Trazado_104574" data-name="Trazado 104574" d="M319.209,194.866s14.3,35.949-16.4,86.243a11.4,11.4,0,0,1-11.546,4.743c-13.075-2.976-39.061-11.04-52.213-43.927-17.52-43.8,12.5-68.3,12.5-68.3S292.534,146.592,319.209,194.866Z" transform="translate(-233.565 -166.083)" fill="#985e4b"/>
                  <path id="Trazado_104575" data-name="Trazado 104575" d="M243.432,251.176c14.474-8.793,25.05-22.074,35.179-35.534,5.189-6.9,9.991-14.243,13.056-22.355a60.448,60.448,0,0,0,3.722-23.145c-22.11-10.838-43.832,3.486-43.832,3.486s-30.023,24.491-12.5,68.3A82.4,82.4,0,0,0,243.432,251.176Z" transform="translate(-233.565 -166.081)" fill="#7d3820"/>
                  <path id="Trazado_104576" data-name="Trazado 104576" d="M258.808,232.268a17.751,17.751,0,0,1-5.64-13" transform="translate(-227.057 -148.425)" fill="none" stroke="#854a38" stroke-linecap="round" stroke-miterlimit="10" stroke-width="1.912"/>
                  <g id="Grupo_57625" data-name="Grupo 57625" transform="translate(2.843 66.326)">
                    <path id="Trazado_104577" data-name="Trazado 104577" d="M246.5,237.99h0a10.8,10.8,0,0,1-10.8-10.8v-6.922a4.391,4.391,0,0,1,4.392-4.392H246.5Z" transform="translate(-235.7 -215.877)" fill="#985e4b"/>
                    <path id="Trazado_104578" data-name="Trazado 104578" d="M240.3,236.022c2.051-1.32,4.127-2.608,6.2-3.873V215.877h-6.408a4.391,4.391,0,0,0-4.392,4.392v6.922A10.778,10.778,0,0,0,240.3,236.022Z" transform="translate(-235.7 -215.877)" fill="#7d3820"/>
                  </g>
                </g>
                <g id="Grupo_57627" data-name="Grupo 57627" transform="translate(38.434 49.465)">
                  <line id="Línea_198" data-name="Línea 198" x1="8.317" transform="translate(10.051 27.031)" fill="none" stroke="#854a38" stroke-linecap="round" stroke-miterlimit="10" stroke-width="1.912"/>
                  <line id="Línea_199" data-name="Línea 199" x2="23.311" fill="none" stroke="#3b2323" stroke-linecap="round" stroke-miterlimit="10" stroke-width="1.912"/>
                  <path id="Trazado_104579" data-name="Trazado 104579" d="M277.838,214.946a14.767,14.767,0,0,0-14.786-.036" transform="translate(-256.667 -195.192)" fill="none" stroke="#3b2323" stroke-linecap="round" stroke-miterlimit="10" stroke-width="1.912"/>
                </g>
                <g id="Grupo_57628" data-name="Grupo 57628" transform="translate(76.093 49.465)">
                  <line id="Línea_200" data-name="Línea 200" x2="15.661" transform="translate(1.846)" fill="none" stroke="#3b2323" stroke-linecap="round" stroke-miterlimit="10" stroke-width="1.912"/>
                  <line id="Línea_201" data-name="Línea 201" x2="8.144" transform="translate(0 27.031)" fill="none" stroke="#854a38" stroke-linecap="round" stroke-miterlimit="10" stroke-width="1.912"/>
                  <path id="Trazado_104580" data-name="Trazado 104580" d="M286.727,215.257a13.145,13.145,0,0,1,13.841-.365" transform="translate(-286.466 -195.14)" fill="none" stroke="#3b2323" stroke-linecap="round" stroke-miterlimit="10" stroke-width="1.912"/>
                </g>
                <g id="Grupo_57629" data-name="Grupo 57629" transform="translate(55.721 95.688)">
                  <path id="Trazado_104581" data-name="Trazado 104581" d="M272.872,236.909a9.989,9.989,0,0,0,2.065,5.332,9.8,9.8,0,0,0,7.654,3.612c4.043,0,7.912-3.182,6.536-8.085C289.126,237.768,277.663,238.84,272.872,236.909Z" transform="translate(-270.694 -233.458)" fill="#db4f4f"/>
                  <path id="Trazado_104582" data-name="Trazado 104582" d="M271.584,237.132s7.933-1.189,10.358-2.577,1.641,3.78,1.641,3.78S275.074,238.335,271.584,237.132Z" transform="translate(-271.122 -234.318)" fill="#db4f4f"/>
                  <path id="Trazado_104583" data-name="Trazado 104583" d="M287.652,237.828c-2.2-.2-4.056-3.447-4.943-3.481-1.451-.053-2.155,4.024-2.155,4.024Z" transform="translate(-268.144 -234.309)" fill="#db4f4f"/>
                  <path id="Trazado_104584" data-name="Trazado 104584" d="M273.853,236.5s-1.052.673.883,3.025A9.364,9.364,0,0,0,282.215,243c2.355.028,6.327-.511,6.849-5.82C289.065,237.176,278.644,238.434,273.853,236.5Z" transform="translate(-270.463 -233.593)" fill="#3b2323"/>
                  <path id="Trazado_104585" data-name="Trazado 104585" d="M273.97,246.586A11.877,11.877,0,0,1,286,246.7" transform="translate(-270.33 -230.769)" fill="none" stroke="#854a38" stroke-linecap="round" stroke-miterlimit="10" stroke-width="1.912"/>
                  <path id="Trazado_104586" data-name="Trazado 104586" d="M271.237,236.2s7.089,2.1,12.248,2.1a82.212,82.212,0,0,0,9.111-.876" transform="translate(-271.237 -233.694)" fill="none" stroke="#3b2323" stroke-linecap="round" stroke-miterlimit="10" stroke-width="1.6"/>
                </g>
                <g id="Grupo_57632" data-name="Grupo 57632">
                  <g id="Grupo_57630" data-name="Grupo 57630" transform="translate(24.972 4.798)">
                    <path id="Trazado_104587" data-name="Trazado 104587" d="M314.366,194.866c-23.718-42.922-58.74-26.306-66.214-22.094l40.5,15.369c16.976,7.073,26.788,21.737,29.036,30.3C317.83,203.586,314.366,194.866,314.366,194.866Z" transform="translate(-248.152 -166.083)" fill="#ffd300"/>
                    <path id="Trazado_104588" data-name="Trazado 104588" d="M255.18,168.671l31.137,11.818c16.236,6.764,25.9,20.458,28.681,29.128a58.361,58.361,0,0,0-2.965-14.751C293.9,162.055,269.166,164.036,255.18,168.671Z" transform="translate(-245.819 -166.083)" fill="#1f62ce"/>
                  </g>
                  <g id="Grupo_57631" data-name="Grupo 57631">
                    <path id="Trazado_104589" data-name="Trazado 104589" d="M301.931,173.9c-25.083-17.637-51.967.093-51.967.093s-31.487,25.685-13.114,71.623q1.251,3.129,2.647,5.974C255.31,237.231,291.354,203.569,301.931,173.9Z" transform="translate(-228.843 -161.282)" fill="#ffd300"/>
                    <path id="Trazado_104590" data-name="Trazado 104590" d="M302.772,173.088l-69.091,65.143s-16.831-46.2,16.285-68.1C278.374,151.338,302.772,173.088,302.772,173.088Z" transform="translate(-229.404 -162.48)" fill="#1f62ce"/>
                    <path id="Trazado_104591" data-name="Trazado 104591" d="M249.966,170.125c-17.622,11.656-21.1,30.192-20.5,44.986l54.513-51.4C274.684,161.434,262.734,161.68,249.966,170.125Z" transform="translate(-229.404 -162.479)" fill="#dd3142"/>
                  </g>
                </g>
                <g id="Grupo_57633" data-name="Grupo 57633" transform="translate(8.14 89.598)">
                  <line id="Línea_202" data-name="Línea 202" y2="16.427" transform="translate(5.98)" fill="none" stroke="#3b2323" stroke-linecap="round" stroke-miterlimit="10" stroke-width="1.912"/>
                  <path id="Trazado_104592" data-name="Trazado 104592" d="M243.324,236.393a2.657,2.657,0,1,1-2.657-2.657A2.657,2.657,0,0,1,243.324,236.393Z" transform="translate(-234.687 -228.422)" fill="#dd3142"/>
                  <path id="Trazado_104593" data-name="Trazado 104593" d="M243.324,244.554a2.657,2.657,0,1,1-2.657-2.657A2.657,2.657,0,0,1,243.324,244.554Z" transform="translate(-234.687 -225.712)" fill="#ffd300"/>
                  <path id="Trazado_104594" data-name="Trazado 104594" d="M243.324,257.794a2.657,2.657,0,1,1-2.657-2.657A2.657,2.657,0,0,1,243.324,257.794Z" transform="translate(-234.687 -221.317)" fill="#ffd300"/>
                  <path id="Trazado_104595" data-name="Trazado 104595" d="M247.474,252.047a5.979,5.979,0,1,1-5.979-5.978A5.979,5.979,0,0,1,247.474,252.047Z" transform="translate(-235.515 -224.327)" fill="#dd3142"/>
                </g>
                <g id="Grupo_57634" data-name="Grupo 57634" transform="translate(59.917 67.166)">
                  <path id="Trazado_104596" data-name="Trazado 104596" d="M274.387,229.652l2.576,2.28a8.637,8.637,0,0,0,5.726,2.17h0a8.637,8.637,0,0,0,5.726-2.17l2.577-2.28Z" transform="translate(-274.387 -207.345)" fill="#854a38"/>
                  <path id="Trazado_104597" data-name="Trazado 104597" d="M282.059,231.449h6.548a4.452,4.452,0,0,0-2.752-4.115,8.578,8.578,0,0,1-3.8-3.1Z" transform="translate(-271.84 -209.142)" fill="#a57463"/>
                  <path id="Trazado_104598" data-name="Trazado 104598" d="M274.387,233.395h9.493V218.378l-1.873,5.664a8.585,8.585,0,0,1-4.87,5.239h0a4.451,4.451,0,0,0-2.751,4.115Z" transform="translate(-274.387 -211.088)" fill="#a57463"/>
                  <path id="Trazado_104599" data-name="Trazado 104599" d="M284.669,235.212h-4.578V215.195a2.289,2.289,0,0,1,2.288-2.29h0a2.29,2.29,0,0,1,2.29,2.29Z" transform="translate(-272.493 -212.905)" fill="#a57463"/>
                  <line id="Línea_203" data-name="Línea 203" y2="21.565" transform="translate(11.972 0.457)" fill="none" stroke="#854a38" stroke-linecap="round" stroke-miterlimit="10" stroke-width="1.912"/>
                </g>
              </g>
              <g id="Grupo_57638" data-name="Grupo 57638" transform="translate(120.628 229.955)">
                <g id="Grupo_57637" data-name="Grupo 57637">
                  <path id="Trazado_104600" data-name="Trazado 104600" d="M164.125,365.59,89.574,384.455,76.294,403.4l26.169-8.806.521-1.527,63.079,1.076Z" transform="translate(-73.281 -245.646)" fill="#985e4b"/>
                  <g id="Grupo_57636" data-name="Grupo 57636" transform="translate(0 145.432)">
                    <path id="Trazado_104601" data-name="Trazado 104601" d="M96.512,387.059s-2.274,9.62-6.288,11.255l-7.215,6.135s-6.143,4.951-8.976,3.289l6.565-9.986,6.157-13.027Z" transform="translate(-74.032 -384.725)" fill="#985e4b"/>
                    <path id="Trazado_104602" data-name="Trazado 104602" d="M93.656,384.76a27.4,27.4,0,0,1-6.812,13.508,29,29,0,0,1-2.795,2.347" transform="translate(-70.706 -384.713)" fill="none" stroke="#663323" stroke-linecap="round" stroke-miterlimit="10" stroke-width="1.912"/>
                  </g>
                  <path id="Trazado_104603" data-name="Trazado 104603" d="M297.279,275.542l-24.662,3.55a35.019,35.019,0,0,0-25.353,17.176l-51.355,89.105-88.839,19.651s19.261,4.083,12.91,22.559,14.809,28.8,14.809,28.8l93.485-59.547Z" transform="translate(-63.064 -275.542)" fill="#ffd300"/>
                  <line id="Línea_204" data-name="Línea 204" x1="14.796" y2="3.428" transform="translate(128.301 107.485)" fill="none" stroke="#a15800" stroke-linecap="round" stroke-miterlimit="10" stroke-width="1.912"/>
                </g>
                <line id="Línea_205" data-name="Línea 205" y1="36.228" x2="68.642" transform="translate(67.581 128.444)" fill="none" stroke="#a15800" stroke-linecap="round" stroke-miterlimit="10" stroke-width="1.912"/>
              </g>
              <g id="Grupo_57639" data-name="Grupo 57639" transform="translate(556.398 380.907)">
                <path id="Trazado_104604" data-name="Trazado 104604" d="M401.187,394.254s4.272,8.914,8.543,9.657l8.357,4.457s7.056,3.529,9.471,1.3l-8.542-8.357-6.129-12.442Z" transform="translate(-401.187 -388.869)" fill="#985e4b"/>
                <path id="Trazado_104605" data-name="Trazado 104605" d="M401.777,394.13c2.68,5.022,6.756,8.649,12.312,9.885" transform="translate(-400.991 -387.122)" fill="none" stroke="#663323" stroke-linecap="round" stroke-miterlimit="10" stroke-width="1.912"/>
              </g>
              <g id="Grupo_57646" data-name="Grupo 57646" transform="translate(317.208 214.198)">
                <g id="Grupo_57640" data-name="Grupo 57640" transform="translate(17.726 6.667)">
                  <path id="Trazado_104606" data-name="Trazado 104606" d="M305.86,268.718l-66.954,10.6a30.442,30.442,0,0,0-3.984.914l42.56,45.781,36.534-5.785Z" transform="translate(-234.922 -268.718)" fill="#1f62ce"/>
                  <path id="Trazado_104607" data-name="Trazado 104607" d="M304.96,313.371l-6.967-44-23.822,3.442-32.2,5.429,35.15,39.533Z" transform="translate(-232.582 -268.5)" fill="#985e4b"/>
                  <line id="Línea_206" data-name="Línea 206" y1="3.251" x2="20.533" transform="translate(16.761 11.564)" fill="none" stroke="#854a38" stroke-linecap="round" stroke-miterlimit="10" stroke-width="1.912"/>
                  <line id="Línea_207" data-name="Línea 207" y1="1.909" x2="12.054" transform="translate(50.335 7.59)" fill="none" stroke="#854a38" stroke-linecap="round" stroke-miterlimit="10" stroke-width="1.912"/>
                </g>
                <g id="Grupo_57645" data-name="Grupo 57645">
                  <g id="Grupo_57641" data-name="Grupo 57641" transform="translate(31.049 26.356)">
                    <path id="Trazado_104608" data-name="Trazado 104608" d="M246.715,288.611a11.175,11.175,0,1,0,15.451-3.321A11.176,11.176,0,0,0,246.715,288.611Z" transform="translate(-244.925 -283.5)" fill="#bf2a39"/>
                    <path id="Trazado_104609" data-name="Trazado 104609" d="M245.343,290.117a10.766,10.766,0,0,0,8.221,12.815,8.613,8.613,0,0,0,10.252-6.577,6.891,6.891,0,0,0-5.261-8.2,5.513,5.513,0,0,0-6.561,4.209,4.41,4.41,0,0,0,3.367,5.249,3.529,3.529,0,0,0,4.2-2.695,2.824,2.824,0,0,0-2.155-3.359,2.259,2.259,0,0,0-2.688,1.725,1.807,1.807,0,0,0,1.38,2.15" transform="translate(-244.869 -281.997)" fill="none" stroke="#9e232f" stroke-linecap="round" stroke-miterlimit="10" stroke-width="1.912"/>
                  </g>
                  <g id="Grupo_57642" data-name="Grupo 57642">
                    <path id="Trazado_104610" data-name="Trazado 104610" d="M223.405,268.823a11.175,11.175,0,1,0,15.451-3.319A11.177,11.177,0,0,0,223.405,268.823Z" transform="translate(-221.615 -263.713)" fill="#bf2a39"/>
                    <path id="Trazado_104611" data-name="Trazado 104611" d="M222.033,270.33a10.768,10.768,0,0,0,8.222,12.815,8.614,8.614,0,0,0,10.251-6.577,6.889,6.889,0,0,0-5.261-8.2,5.512,5.512,0,0,0-6.561,4.209,4.409,4.409,0,0,0,3.367,5.248,3.528,3.528,0,0,0,4.2-2.693,2.823,2.823,0,0,0-2.155-3.359,2.258,2.258,0,0,0-2.688,1.724,1.805,1.805,0,0,0,1.38,2.15" transform="translate(-221.559 -262.21)" fill="none" stroke="#9e232f" stroke-linecap="round" stroke-miterlimit="10" stroke-width="1.912"/>
                  </g>
                  <g id="Grupo_57643" data-name="Grupo 57643" transform="translate(12.7 3.405)">
                    <path id="Trazado_104612" data-name="Trazado 104612" d="M231.149,282.055a15.786,15.786,0,1,0,15.786-15.786A15.786,15.786,0,0,0,231.149,282.055Z" transform="translate(-231.149 -266.269)" fill="#dd3142"/>
                    <path id="Trazado_104613" data-name="Trazado 104613" d="M231.709,284.818a15.209,15.209,0,0,0,19.579,8.9,12.167,12.167,0,0,0,7.12-15.663,9.732,9.732,0,0,0-12.53-5.7,7.786,7.786,0,0,0-4.557,10.023,6.229,6.229,0,0,0,8.02,3.646,4.982,4.982,0,0,0,2.916-6.415,3.986,3.986,0,0,0-5.132-2.334,3.19,3.19,0,0,0-1.866,4.107,2.552,2.552,0,0,0,3.285,1.493" transform="translate(-230.963 -264.453)" fill="none" stroke="#9e232f" stroke-linecap="round" stroke-miterlimit="10" stroke-width="1.912"/>
                  </g>
                  <g id="Grupo_57644" data-name="Grupo 57644" transform="translate(39.041 33.472)">
                    <circle id="Elipse_4181" data-name="Elipse 4181" cx="15.786" cy="15.786" r="15.786" transform="matrix(0.38, -0.925, 0.925, 0.38, 0, 29.204)" fill="#dd3142"/>
                    <path id="Trazado_104614" data-name="Trazado 104614" d="M255.1,311.005a15.208,15.208,0,0,0,19.579,8.9,12.167,12.167,0,0,0,7.12-15.663,9.732,9.732,0,0,0-12.53-5.7,7.786,7.786,0,0,0-4.557,10.023,6.229,6.229,0,0,0,8.02,3.646,4.983,4.983,0,0,0,2.916-6.416,3.987,3.987,0,0,0-5.132-2.332,3.19,3.19,0,0,0-1.866,4.107,2.552,2.552,0,0,0,3.285,1.493" transform="translate(-249.538 -285.827)" fill="none" stroke="#9e232f" stroke-linecap="round" stroke-miterlimit="10" stroke-width="1.912"/>
                  </g>
                </g>
              </g>
              <g id="Grupo_57650" data-name="Grupo 57650" transform="translate(277.592)">
                <g id="Grupo_57648" data-name="Grupo 57648">
                  <g id="Grupo_57647" data-name="Grupo 57647">
                    <path id="Trazado_104615" data-name="Trazado 104615" d="M198.16,125.272a31.892,31.892,0,0,1,17.629-.473" transform="translate(-189.786 -95.972)" fill="none" stroke="#006837" stroke-miterlimit="10" stroke-width="1.912"/>
                    <path id="Trazado_104616" data-name="Trazado 104616" d="M191.873,120.28a26.741,26.741,0,0,1,26.644,5.165" transform="translate(-191.873 -97.648)" fill="none" stroke="#006837" stroke-miterlimit="10" stroke-width="1.912"/>
                    <path id="Trazado_104617" data-name="Trazado 104617" d="M193.1,110.535A72.1,72.1,0,0,1,216.737,125.9" transform="translate(-191.466 -100.369)" fill="none" stroke="#006837" stroke-miterlimit="10" stroke-width="1.912"/>
                    <path id="Trazado_104618" data-name="Trazado 104618" d="M198.488,102.9A110.949,110.949,0,0,0,214.3,130.05" transform="translate(-189.677 -102.903)" fill="none" stroke="#006837" stroke-miterlimit="10" stroke-width="1.912"/>
                    <path id="Trazado_104619" data-name="Trazado 104619" d="M207.108,104.664a35.455,35.455,0,0,0,7.044,26.668" transform="translate(-186.935 -102.318)" fill="none" stroke="#006837" stroke-miterlimit="10" stroke-width="1.912"/>
                    <path id="Trazado_104620" data-name="Trazado 104620" d="M214.821,110.533q-.729,10.987-1.46,21.974" transform="translate(-184.739 -100.37)" fill="none" stroke="#006837" stroke-miterlimit="10" stroke-width="1.912"/>
                  </g>
                  <path id="Trazado_104621" data-name="Trazado 104621" d="M238.727,161.027h0a17.956,17.956,0,0,1-24.8-5.481l-4.458-6.988a17.958,17.958,0,0,1,5.482-24.8h0a17.957,17.957,0,0,1,24.8,5.481l4.457,6.988A17.956,17.956,0,0,1,238.727,161.027Z" transform="translate(-186.966 -96.914)" fill="#fa0"/>
                </g>
                <path id="Trazado_104622" data-name="Trazado 104622" d="M331.375,113.965a123.14,123.14,0,0,1-54.505,45.256" transform="translate(-163.654 -99.23)" fill="none" stroke="#c46b21" stroke-miterlimit="10" stroke-width="7.648"/>
                <path id="Trazado_104623" data-name="Trazado 104623" d="M307.371,112.912a123.125,123.125,0,0,1-52.048,48.061" transform="translate(-170.808 -99.58)" fill="none" stroke="#c46b21" stroke-miterlimit="10" stroke-width="7.648"/>
                <path id="Trazado_104624" data-name="Trazado 104624" d="M320.69,112.817a123.126,123.126,0,0,1-54.505,45.256" transform="translate(-167.201 -99.612)" fill="none" stroke="#fa0" stroke-miterlimit="10" stroke-width="7.648"/>
                <path id="Trazado_104625" data-name="Trazado 104625" d="M345.922,118.105c-14.384,27.189-45.133,44.842-75.867,43.554" transform="translate(-165.917 -97.856)" fill="none" stroke="#fa0" stroke-miterlimit="10" stroke-width="7.648"/>
                <circle id="Elipse_4182" data-name="Elipse 4182" cx="23.022" cy="23.022" r="23.022" transform="translate(74.517 41.175) rotate(-45)" fill="#f56200"/>
                <circle id="Elipse_4183" data-name="Elipse 4183" cx="23.022" cy="23.022" r="23.022" transform="translate(51.737 29.904)" fill="#f56200"/>
                <g id="Grupo_57649" data-name="Grupo 57649" transform="translate(9.83 43.13)">
                  <path id="Trazado_104626" data-name="Trazado 104626" d="M340.148,180.8H236.02a20.986,20.986,0,0,1-20.986-20.986h0a20.987,20.987,0,0,0-14.154-19.844h0a2.408,2.408,0,0,1,.785-4.685H374.5a2.408,2.408,0,0,1,.783,4.685h0a20.987,20.987,0,0,0-14.154,19.844h0A20.986,20.986,0,0,1,340.148,180.8Z" transform="translate(-199.253 -135.283)" fill="#5e3131"/>
                  <line id="Línea_208" data-name="Línea 208" x2="111.889" transform="translate(48.695 11.533)" fill="none" stroke="#a15800" stroke-linecap="round" stroke-miterlimit="10" stroke-width="1.912"/>
                </g>
              </g>
              <g id="Grupo_57653" data-name="Grupo 57653" transform="translate(388.492 76.567)">
                <g id="Grupo_57651" data-name="Grupo 57651" transform="translate(18.527 20.899)">
                  <path id="Trazado_104627" data-name="Trazado 104627" d="M290.831,181.187a11.175,11.175,0,1,0,15.451-3.321A11.175,11.175,0,0,0,290.831,181.187Z" transform="translate(-289.041 -176.076)" fill="#bf2a39"/>
                  <path id="Trazado_104628" data-name="Trazado 104628" d="M289.46,182.693a10.765,10.765,0,0,0,8.221,12.815,8.612,8.612,0,0,0,10.251-6.577,6.889,6.889,0,0,0-5.261-8.2,5.512,5.512,0,0,0-6.561,4.209,4.411,4.411,0,0,0,3.367,5.249,3.528,3.528,0,0,0,4.2-2.695,2.822,2.822,0,0,0-2.155-3.359,2.258,2.258,0,0,0-2.688,1.724,1.808,1.808,0,0,0,1.38,2.151" transform="translate(-288.984 -174.573)" fill="none" stroke="#9e232f" stroke-linecap="round" stroke-miterlimit="10" stroke-width="1.912"/>
                </g>
                <g id="Grupo_57652" data-name="Grupo 57652">
                  <circle id="Elipse_4184" data-name="Elipse 4184" cx="15.786" cy="15.786" r="15.786" fill="#dd3142"/>
                  <path id="Trazado_104629" data-name="Trazado 104629" d="M275.692,178.936a15.207,15.207,0,0,0,19.579,8.9,12.166,12.166,0,0,0,7.12-15.663,9.733,9.733,0,0,0-12.53-5.7A7.786,7.786,0,0,0,285.3,176.5a6.229,6.229,0,0,0,8.019,3.646,4.985,4.985,0,0,0,2.917-6.416,3.987,3.987,0,0,0-5.134-2.332,3.189,3.189,0,0,0-1.866,4.105A2.551,2.551,0,0,0,292.525,177" transform="translate(-274.945 -158.57)" fill="none" stroke="#9e232f" stroke-linecap="round" stroke-miterlimit="10" stroke-width="1.912"/>
                </g>
              </g>
            </g>
          </g>
        </g>
      </g>
    </g>
  </g>
</svg>
