<svg xmlns="http://www.w3.org/2000/svg" width="394.334" height="457.112" viewBox="0 0 394.334 457.112">
  <g id="Grupo_57807" data-name="Grupo 57807" transform="translate(-89.865 -68.271)">
    <ellipse id="Elipse_4201" data-name="Elipse 4201" cx="197.167" cy="10.933" rx="197.167" ry="10.933" transform="translate(89.865 503.517)" fill="#c0d1e0" opacity="0.5"/>
    <g id="Grupo_57778" data-name="Grupo 57778" transform="translate(103.289 297.63)">
      <g id="Grupo_57774" data-name="Grupo 57774">
        <path id="Trazado_105006" data-name="Trazado 105006" d="M210,316.917V435.706a19.8,19.8,0,0,1-19.8,19.8h-69.6a19.8,19.8,0,0,1-19.8-19.8V316.917a19.8,19.8,0,0,1,19.328-19.791c.158,0,.31,0,.467,0h69.6A19.8,19.8,0,0,1,210,316.917Z" transform="translate(-100.81 -245.796)" fill="#0096d0"/>
        <g id="Grupo_57771" data-name="Grupo 57771" transform="translate(21.124 51.325)">
          <g id="Grupo_57768" data-name="Grupo 57768">
            <g id="Grupo_57767" data-name="Grupo 57767">
              <rect id="Rectángulo_12537" data-name="Rectángulo 12537" width="8.52" height="158.384" transform="translate(2.864)" fill="#2d1c64"/>
              <rect id="Rectángulo_12538" data-name="Rectángulo 12538" width="14.248" height="6.529" transform="translate(0 28.539)" fill="#f9a833"/>
            </g>
          </g>
          <g id="Grupo_57770" data-name="Grupo 57770" transform="translate(52.697)">
            <g id="Grupo_57769" data-name="Grupo 57769">
              <rect id="Rectángulo_12539" data-name="Rectángulo 12539" width="8.52" height="158.384" transform="translate(2.864)" fill="#2d1c64"/>
              <rect id="Rectángulo_12540" data-name="Rectángulo 12540" width="14.248" height="6.529" transform="translate(0 28.539)" fill="#f9a833"/>
            </g>
          </g>
        </g>
        <path id="Trazado_105007" data-name="Trazado 105007" d="M120.138,297.125l-19.328,23.1v-3.3A19.8,19.8,0,0,1,120.138,297.125Z" transform="translate(-100.81 -245.795)" fill="#f9a833"/>
        <path id="Trazado_105008" data-name="Trazado 105008" d="M174.067,297.125l19.328,23.1v-3.3A19.8,19.8,0,0,0,174.067,297.125Z" transform="translate(-84.217 -245.795)" fill="#f9a833"/>
        <path id="Trazado_105009" data-name="Trazado 105009" d="M120.138,430.513l-19.328-23.1v3.3A19.8,19.8,0,0,0,120.138,430.513Z" transform="translate(-100.81 -220.813)" fill="#f9a833"/>
        <path id="Trazado_105010" data-name="Trazado 105010" d="M174.067,430.513l19.328-23.1v3.3A19.8,19.8,0,0,1,174.067,430.513Z" transform="translate(-84.217 -220.813)" fill="#f9a833"/>
        <g id="Grupo_57772" data-name="Grupo 57772" transform="translate(40.283 95.889)">
          <path id="Trazado_105011" data-name="Trazado 105011" d="M149.853,333.455,134.8,347.789h5.6l15.049-14.333Z" transform="translate(-133.394 -333.455)" fill="#f9a833"/>
          <path id="Trazado_105012" data-name="Trazado 105012" d="M135.064,333.455a1.411,1.411,0,0,0-1.41,1.41v10.364l12.362-11.774Z" transform="translate(-133.654 -333.455)" fill="#f9a833"/>
          <path id="Trazado_105013" data-name="Trazado 105013" d="M159.141,333.455H156.33l-15.049,14.334h17.86a1.411,1.411,0,0,0,1.41-1.41V334.866A1.411,1.411,0,0,0,159.141,333.455Z" transform="translate(-131.926 -333.455)" fill="#f9a833"/>
          <path id="Trazado_105014" data-name="Trazado 105014" d="M146.016,333.455l-12.362,11.774v1.149a1.411,1.411,0,0,0,1.41,1.41h0l15.049-14.334Z" transform="translate(-133.654 -333.455)" fill="#ffd129"/>
          <path id="Trazado_105015" data-name="Trazado 105015" d="M154.421,333.455l-15.049,14.333h2.342l15.049-14.333Z" transform="translate(-132.359 -333.455)" fill="#ffd129"/>
        </g>
        <path id="Rectángulo_12541" data-name="Rectángulo 12541" d="M0,0H16.248a0,0,0,0,1,0,0V3.461A2.839,2.839,0,0,1,13.409,6.3H2.839A2.839,2.839,0,0,1,0,3.461V0A0,0,0,0,1,0,0Z" transform="translate(20.079 209.709)" fill="#2d1c64"/>
        <path id="Rectángulo_12542" data-name="Rectángulo 12542" d="M0,0H16.248a0,0,0,0,1,0,0V3.461A2.839,2.839,0,0,1,13.409,6.3H2.839A2.839,2.839,0,0,1,0,3.461V0A0,0,0,0,1,0,0Z" transform="translate(72.802 209.709)" fill="#2d1c64"/>
        <g id="Grupo_57773" data-name="Grupo 57773" transform="translate(36.255)">
          <path id="Trazado_105016" data-name="Trazado 105016" d="M161.323,255.274H136.1c-3.158,0-5.728,2.918-5.728,6.505V268.8h5.506v-7.018a.24.24,0,0,1,.222-.255h25.225a.244.244,0,0,1,.224.255V268.8h5.5v-7.018C167.051,258.192,164.481,255.274,161.323,255.274Z" transform="translate(-130.37 -255.274)" fill="#2d1c64"/>
          <rect id="Rectángulo_12543" data-name="Rectángulo 12543" width="2.487" height="37.853" transform="translate(1.564 13.523)" fill="#403384"/>
          <rect id="Rectángulo_12544" data-name="Rectángulo 12544" width="2.487" height="37.853" transform="translate(32.733 13.523)" fill="#403384"/>
          <rect id="Rectángulo_12545" data-name="Rectángulo 12545" width="2.487" height="3.367" transform="translate(1.564 13.523)" fill="#2d1c64"/>
          <rect id="Rectángulo_12546" data-name="Rectángulo 12546" width="2.487" height="3.367" transform="translate(32.733 13.523)" fill="#2d1c64"/>
        </g>
        <path id="Trazado_105017" data-name="Trazado 105017" d="M206.711,445.368a19.778,19.778,0,0,1-16.506,8.868h-69.6a19.8,19.8,0,0,1-19.8-19.8V315.646a19.717,19.717,0,0,1,4.8-12.916c-.941,26.565,1.348,83.083,34.267,113.878C164.338,439.495,189.33,445,206.711,445.368Z" transform="translate(-100.81 -244.525)" fill="#0071b6" opacity="0.5" style="mix-blend-mode: multiply;isolation: isolate"/>
      </g>
      <g id="Grupo_57777" data-name="Grupo 57777" transform="translate(230.066 106.827)">
        <path id="Trazado_105018" data-name="Trazado 105018" d="M419.794,368.358v65.815a12.234,12.234,0,0,1-4.419,9.348c-.151.118-.305.24-.461.358s-.312.231-.477.339q-.362.241-.741.466c-.086.049-.177.1-.258.145-.177.092-.348.183-.52.269s-.359.167-.536.242c-.274.113-.553.22-.832.316-.1.032-.193.064-.289.091-.188.059-.375.118-.569.167a11.969,11.969,0,0,1-3.018.386H300.509a11.972,11.972,0,0,1-3.02-.386c-.193-.049-.386-.108-.574-.167-.1-.027-.188-.059-.285-.091-.278-.1-.557-.2-.825-.316-.183-.075-.359-.161-.536-.242s-.354-.177-.526-.269l-.258-.145c-.251-.15-.5-.305-.744-.466-.156-.108-.316-.226-.472-.339s-.307-.24-.456-.358a12.123,12.123,0,0,1-4.424-9.348V368.358a12.151,12.151,0,0,1,12.12-12.12H407.674A12.156,12.156,0,0,1,419.794,368.358Z" transform="translate(-288.389 -339.233)" fill="#f5345a"/>
        <rect id="Rectángulo_12547" data-name="Rectángulo 12547" width="9.152" height="90.445" transform="translate(24.554 17.003)" fill="#2d1c64"/>
        <rect id="Rectángulo_12548" data-name="Rectángulo 12548" width="9.151" height="90.443" transform="translate(95.956 17.004)" fill="#2d1c64"/>
        <rect id="Rectángulo_12549" data-name="Rectángulo 12549" width="15.303" height="7.013" transform="translate(21.478 37.192)" fill="#f9a833"/>
        <rect id="Rectángulo_12550" data-name="Rectángulo 12550" width="15.303" height="7.013" transform="translate(92.88 37.192)" fill="#f9a833"/>
        <path id="Trazado_105019" data-name="Trazado 105019" d="M300.512,356.237l-12.123,14.486V368.36A12.158,12.158,0,0,1,300.512,356.237Z" transform="translate(-288.389 -339.233)" fill="#f9a833"/>
        <path id="Trazado_105020" data-name="Trazado 105020" d="M397.767,368.359v2.365l-12.122-14.486A12.16,12.16,0,0,1,397.767,368.359Z" transform="translate(-266.36 -339.233)" fill="#f9a833"/>
        <path id="Trazado_105021" data-name="Trazado 105021" d="M300.512,432.34l-12.123-14.485v2.363A12.157,12.157,0,0,0,300.512,432.34Z" transform="translate(-288.389 -325.276)" fill="#f9a833"/>
        <path id="Trazado_105022" data-name="Trazado 105022" d="M397.767,417.854v2.365a12.129,12.129,0,0,1-4.422,9.346c-.151.121-.3.243-.461.361s-.313.228-.475.338c-.243.162-.489.32-.743.465-.086.047-.174.1-.259.143-.173.1-.346.184-.519.269s-.357.166-.537.243c-.273.118-.549.221-.829.316-.1.033-.191.063-.287.092-.188.059-.379.114-.57.166a11.97,11.97,0,0,1-3.02.383Z" transform="translate(-266.36 -325.276)" fill="#f9a833"/>
        <path id="Trazado_105023" data-name="Trazado 105023" d="M417.8,440.384a12.05,12.05,0,0,1-2.43,2.725c-.151.118-.305.24-.461.358s-.312.231-.477.339q-.362.241-.741.466c-.086.049-.177.1-.258.145-.177.092-.348.183-.52.269s-.359.167-.536.242c-.274.113-.553.22-.832.316-.1.032-.193.064-.289.091-.188.059-.375.118-.569.167a11.969,11.969,0,0,1-3.018.386H300.509a11.972,11.972,0,0,1-3.02-.386c-.193-.049-.386-.108-.574-.167-.1-.027-.188-.059-.285-.091-.278-.1-.557-.2-.825-.316-.183-.075-.359-.161-.536-.242s-.354-.177-.526-.269l-.258-.145c-.251-.15-.5-.305-.744-.466-.156-.108-.316-.226-.472-.339s-.307-.24-.456-.358a12.123,12.123,0,0,1-4.424-9.348V367.945a12.127,12.127,0,0,1,5.127-9.884C314.628,401.6,357.147,428.181,417.8,440.384Z" transform="translate(-288.389 -338.82)" fill="#f5345a" opacity="0.5" style="mix-blend-mode: multiply;isolation: isolate"/>
        <g id="Grupo_57775" data-name="Grupo 57775" transform="translate(52.553 34.114)">
          <path id="Trazado_105024" data-name="Trazado 105024" d="M346.12,370.187l-13.827,13.169h5.147l13.827-13.169Z" transform="translate(-330.998 -370.187)" fill="#f9a833"/>
          <path id="Trazado_105025" data-name="Trazado 105025" d="M332.533,370.187a1.3,1.3,0,0,0-1.3,1.3V381l11.357-10.817Z" transform="translate(-331.237 -370.187)" fill="#f9a833"/>
          <path id="Trazado_105026" data-name="Trazado 105026" d="M354.654,370.187h-2.583l-13.826,13.169h16.409a1.3,1.3,0,0,0,1.3-1.3V371.483A1.3,1.3,0,0,0,354.654,370.187Z" transform="translate(-329.65 -370.187)" fill="#f9a833"/>
          <path id="Trazado_105027" data-name="Trazado 105027" d="M342.594,370.187,331.237,381v1.057a1.3,1.3,0,0,0,1.3,1.3h0l13.826-13.169Z" transform="translate(-331.237 -370.187)" fill="#ffd129"/>
          <path id="Trazado_105028" data-name="Trazado 105028" d="M350.317,370.187l-13.827,13.169h2.152l13.826-13.169Z" transform="translate(-330.047 -370.187)" fill="#ffd129"/>
        </g>
        <g id="Grupo_57776" data-name="Grupo 57776" transform="translate(40.207)">
          <path id="Trazado_105029" data-name="Trazado 105029" d="M364.21,342.373H327.133a5.968,5.968,0,0,0-5.962,5.962V359.38h4.944V348.335a1.03,1.03,0,0,1,1.018-1.018H364.21a1.032,1.032,0,0,1,1.018,1.018V359.38h4.944V348.335A5.968,5.968,0,0,0,364.21,342.373Z" transform="translate(-321.171 -342.373)" fill="#2d1c64"/>
        </g>
      </g>
    </g>
    <g id="Grupo_57806" data-name="Grupo 57806" transform="translate(154.603 68.271)">
      <g id="Grupo_57792" data-name="Grupo 57792">
        <g id="Grupo_57782" data-name="Grupo 57782" transform="translate(4.943 53.802)">
          <g id="Grupo_57779" data-name="Grupo 57779" transform="translate(3.179 99.06)">
            <path id="Trazado_105030" data-name="Trazado 105030" d="M154.5,192.9l1.971,22.512.112,1.288,1.186,13.557s-4.586-1.012-5.517-4.331c-.2-.706-.953-4.731-1.652-9.383-.064-.424-.128-.855-.19-1.289a98.562,98.562,0,0,1-1.135-11.468C149.2,197.153,154.5,192.9,154.5,192.9Z" transform="translate(-149.27 -192.904)" fill="#2d1c64"/>
            <path id="Trazado_105031" data-name="Trazado 105031" d="M156.257,211.288l.112,1.288a46.519,46.519,0,0,1-5.983-.157c-.064-.424-.128-.855-.19-1.289A28.6,28.6,0,0,0,156.257,211.288Z" transform="translate(-149.061 -188.776)" fill="#403384"/>
          </g>
          <g id="Grupo_57780" data-name="Grupo 57780" transform="translate(0 54.282)">
            <path id="Trazado_105032" data-name="Trazado 105032" d="M154.58,156.4l-.932,25.173,0,1.439-.027,15.153s-4.986-1.576-5.69-5.35c-.148-.8-.588-5.34-.9-10.57-.029-.476-.058-.96-.083-1.449a109.777,109.777,0,0,1-.124-12.829C147.4,160.595,154.58,156.4,154.58,156.4Z" transform="translate(-146.678 -156.395)" fill="#2d1c64"/>
            <path id="Trazado_105033" data-name="Trazado 105033" d="M153.6,177.062l0,1.439a51.549,51.549,0,0,1-6.618-.767c-.029-.476-.058-.96-.083-1.449A31.78,31.78,0,0,0,153.6,177.062Z" transform="translate(-146.629 -151.89)" fill="#403384"/>
          </g>
          <path id="Trazado_105034" data-name="Trazado 105034" d="M244.56,146.3s2.9,91.872-2.481,112.233a8.4,8.4,0,0,1-1.58,3.567c-7.483,7.43-66.216,15.271-78.744-3.932-15.092-23.135-8.508-101.9-7.506-111.926a21.064,21.064,0,0,1,6.188-12.708l.069-.069c.04-.043.085-.088.129-.13l.147-.151c.059-.06.12-.12.183-.178l.009-.009c15.2-14.892,51.778-18.053,67.792-14.016C248.735,124.016,244.56,146.3,244.56,146.3Z" transform="translate(-145.482 -110.952)" fill="#2d1c64"/>
          <path id="Trazado_105035" data-name="Trazado 105035" d="M242.079,256.3a8.4,8.4,0,0,1-1.58,3.567c-7.483,7.43-66.216,15.271-78.744-3.932-15.092-23.135-8.508-101.9-7.506-111.926a21.064,21.064,0,0,1,6.188-12.708l.069-.069.12-.118.009-.012.147-.151c.05-.05.109-.112.183-.178l.009-.009c1.526-1.455,7.962-6.67,16.565-.727,9.884,6.83-4.306,29.044-2.974,67.155s3.218,62.316,14.535,62.18C196.837,259.276,222.2,258.413,242.079,256.3Z" transform="translate(-145.482 -108.713)" fill="#403384"/>
          <g id="Grupo_57781" data-name="Grupo 57781" transform="translate(41.908)">
            <path id="Trazado_105036" data-name="Trazado 105036" d="M183.069,125.267l-2.222-.86c.188-.483,4.684-11.868,12.881-12.258,6.776-.319,9.646,6.027,10.213,9.431l-2.35.391c-.054-.314-1.4-7.749-7.75-7.441C187.177,114.846,183.11,125.162,183.069,125.267Z" transform="translate(-180.847 -112.138)" fill="#2d1c64"/>
          </g>
        </g>
        <path id="Trazado_105037" data-name="Trazado 105037" d="M238.629,129.272s19.315,15.9,21.7,35.854l-19.807,2.531Z" transform="translate(-120.908 -54.455)" fill="#0071b6"/>
        <g id="Grupo_57787" data-name="Grupo 57787" transform="translate(0 209.531)">
          <g id="Grupo_57784" data-name="Grupo 57784" transform="translate(0 203.379)">
            <path id="Trazado_105038" data-name="Trazado 105038" d="M173.583,405.934l-.955,12.634a20.732,20.732,0,0,0,10.814.939l3-12.288S178.44,403.076,173.583,405.934Z" transform="translate(-135.858 -404.928)" fill="#fcb38f"/>
            <g id="Grupo_57783" data-name="Grupo 57783" transform="translate(0 9.476)">
              <path id="Trazado_105039" data-name="Trazado 105039" d="M191.051,433.9c-.145,1.033-.278,2.058-.39,3.074H142.648a11.79,11.79,0,0,1,5.825-10.171c7.339-4.309,18.171-6.314,18.171-6.314,3.117-2.928,12.4-7.836,12.4-7.836,7.694,3.117,12.023,1.7,12.023,1.7C193.071,421.167,191.908,427.679,191.051,433.9Z" transform="translate(-142.648 -412.654)" fill="#f5345a"/>
              <path id="Trazado_105040" data-name="Trazado 105040" d="M191.051,429.978c-.145,1.033-.278,2.058-.39,3.074H142.648a11.843,11.843,0,0,1,.407-3.074Z" transform="translate(-142.648 -408.73)" fill="#bd185a"/>
            </g>
          </g>
          <g id="Grupo_57786" data-name="Grupo 57786" transform="translate(121.935 205.346)">
            <path id="Trazado_105041" data-name="Trazado 105041" d="M252.519,407.59l2.762,9.758L244.2,420.99l-1.487-12.42S247.661,404.733,252.519,407.59Z" transform="translate(-241.919 -406.533)" fill="#fcb38f"/>
            <g id="Grupo_57785" data-name="Grupo 57785" transform="translate(0 8.352)">
              <path id="Trazado_105042" data-name="Trazado 105042" d="M278.937,436.82H243.766a26.022,26.022,0,0,1-.8-3.074,44.409,44.409,0,0,1,.4-19.547s8.544,1.175,11.269-.857c0,0,3.3.974,10.588,7.262,0,0,12.332,2.751,13.648,13.142A14.833,14.833,0,0,1,278.937,436.82Z" transform="translate(-242.065 -413.342)" fill="#f5345a"/>
              <path id="Trazado_105043" data-name="Trazado 105043" d="M278.771,433.052H243.6a26.03,26.03,0,0,1-.8-3.074h35.9A14.833,14.833,0,0,1,278.771,433.052Z" transform="translate(-241.899 -409.574)" fill="#bd185a"/>
            </g>
          </g>
          <path id="Trazado_105044" data-name="Trazado 105044" d="M185.939,246.228,171.878,447.506h15.167l9.4-43.65c6.158-13.216,13.964-43.473,12.375-60.549,4.238-17.611,7.094-41.136,9.662-65.9a32.918,32.918,0,0,0,10.943.115A311.785,311.785,0,0,0,241.064,345.4c-1.332,14.771,3.232,39.836,7.517,51.936l7.262,50.169c4.51,1.749,9.494,1.547,14.805,0l-9.94-207.85S203.056,236.293,185.939,246.228Z" transform="translate(-136.027 -239.108)" fill="#2d1c64"/>
        </g>
        <g id="Grupo_57788" data-name="Grupo 57788" transform="translate(40.228 68.647)">
          <path id="Trazado_105045" data-name="Trazado 105045" d="M210.179,124.241l-34.732,16.254,15.185,74.439-5.5,57.312s53.468,3.256,74.77-6.572l-6.96-135.262-23.821-2.084Z" transform="translate(-175.447 -124.241)" fill="#0096d0"/>
          <path id="Trazado_105046" data-name="Trazado 105046" d="M226.056,128.424s19.341,77.644,20.663,103.33c0,0,4.527-20.066,2.6-40.061s-11.391-62.136-11.391-62.136S232.386,123.668,226.056,128.424Z" transform="translate(-163.984 -123.714)" fill="#2d1c64"/>
          <path id="Trazado_105047" data-name="Trazado 105047" d="M183.953,134.673a10.82,10.82,0,0,1,6.482-5.659c4.836-1.6,5.814-.071,5.814-.071s23.1,32.587,8.5,91.561c-5.536,22.37-19.547,30.036-19.547,30.036l1.88-21S209.533,180.765,183.953,134.673Z" transform="translate(-173.52 -123.325)" fill="#2d1c64"/>
        </g>
        <g id="Grupo_57790" data-name="Grupo 57790" transform="translate(66.718)">
          <path id="Trazado_105048" data-name="Trazado 105048" d="M223.662,129.138l-2.243,8.059-.235.854c-8.333,1.786-17.419-10.406-17.419-10.406L205,109.3c4.035-.974,9.6,5.733,13.6,11.609C221.558,125.253,223.662,129.138,223.662,129.138Z" transform="translate(-195.523 -58.999)" fill="#fcb38f"/>
          <path id="Trazado_105049" data-name="Trazado 105049" d="M222.7,128.056l-2.243,8.059c-10.322-3.987-12.424-22.127-12.424-22.127l9.606,5.843C220.592,124.17,222.7,128.056,222.7,128.056Z" transform="translate(-194.558 -57.916)" fill="#fd8471"/>
          <path id="Trazado_105050" data-name="Trazado 105050" d="M203.816,92.9s-.532,14.458,1.387,25.129,14.739,22.511,20.919,22.048,14.086-13.548,16.07-16.928,4.529-21.656,4.327-25.184S239.853,79.5,224.7,76.291,203.816,92.9,203.816,92.9Z" transform="translate(-195.527 -66.535)" fill="#fcb38f"/>
          <path id="Trazado_105051" data-name="Trazado 105051" d="M200.538,101.438s-.722-9.21,1.43-14.652A11.2,11.2,0,0,1,208.9,80.1s8.045-13.314,18.886-11.692,19.867,3.526,22.163,9.266-.374,15.66-2.229,16.653c0,0,.671,6.673-.6,8.972a11.5,11.5,0,0,0-2.958-5.859c-2.7-3.087-6.792-2.021-9.358-.406s-5.874.947-10.174-1.576-12.355.958-12.5,3.182-6.612,8.958-6.612,8.958Z" transform="translate(-196.281 -68.271)" fill="#2d1c64"/>
          <g id="Grupo_57789" data-name="Grupo 57789" transform="translate(0 30.899)">
            <path id="Trazado_105052" data-name="Trazado 105052" d="M205.231,97.113s-1.673-5.029-5.589-3.28-4.667,19.574,6.878,19.037Z" transform="translate(-197.045 -93.464)" fill="#fcb38f"/>
            <path id="Trazado_105053" data-name="Trazado 105053" d="M203.561,108.636a58.956,58.956,0,0,0-.652-5.974,4.386,4.386,0,0,0-2.623-.083,1.9,1.9,0,0,1,2.359-1.195,5.513,5.513,0,0,0-.771-1.981c-1.28-1.591-2.579-1.093-2.579-1.093s.644-1.885,2.333-1.391S204.61,105.652,203.561,108.636Z" transform="translate(-196.536 -92.7)" fill="#fd8471"/>
          </g>
          <path id="Trazado_105054" data-name="Trazado 105054" d="M209.33,102.525s12.948.422,18.234,1.673l4.734.318s12.794-2.274,15.819-2.35c0,0,1.634.67.909,1.46s-.188.294-.188.294l-4.542,7.763a2.072,2.072,0,0,1-1.148.926c-1.62.527-5.522,1.612-8.647,1.007a1.863,1.863,0,0,1-1.3-.97c-.651-1.247-1.873-3.786-1.928-5.393l-2.289-.153s-2.81,4.58-5.832,6.667a3.006,3.006,0,0,1-1.613.526c-1.946.065-6.992.055-10.878-1.525a2.1,2.1,0,0,1-1.311-2.1l.443-5.926S207.821,103.319,209.33,102.525Z" transform="translate(-194.391 -60.594)" fill="#2d1c64"/>
          <path id="Trazado_105055" data-name="Trazado 105055" d="M202.156,93.941c2.934,1.864,6.526,6.186,10.117,10.5l-.981,2.157-7.1-8.135A10.381,10.381,0,0,0,202.156,93.941Z" transform="translate(-195.888 -62.457)" fill="#2d1c64"/>
          <path id="Trazado_105056" data-name="Trazado 105056" d="M242.349,103.664l-3.926-5.627-.372,3.1,2.745,3.535S241.585,104.881,242.349,103.664Z" transform="translate(-187.757 -61.529)" fill="#2d1c64"/>
          <path id="Trazado_105057" data-name="Trazado 105057" d="M222.509,114.471s1.852,1.923,3.63,1.834a3.8,3.8,0,0,0,2.768-1.637s-.3,2.117-1.987,2.42S223.569,116.55,222.509,114.471Z" transform="translate(-191.278 -57.807)" fill="#fd8471"/>
          <path id="Trazado_105058" data-name="Trazado 105058" d="M216.8,116.963a30.872,30.872,0,0,0,15.215,1.42s-2.928,6.532-8.035,5.621C219.765,123.253,216.533,118.909,216.8,116.963Z" transform="translate(-192.574 -57.243)" fill="#fff"/>
        </g>
        <g id="Grupo_57791" data-name="Grupo 57791" transform="translate(27.297 84.9)">
          <path id="Trazado_105059" data-name="Trazado 105059" d="M194.75,212.821s-16.8,7.252-23.852,5.246l-4.869-32c-1.131-9.683-1.435-17.383-.795-23.793,1.138-11.384,1.786-18.578,12.6-24.779l.953,2.827c1.016,4.867,2.388,12.521,3.595,18.043,3.163,14.479,5.709,25.737,7.661,34.192.429,1.874.834,3.607,1.206,5.213C193.24,206.325,194.4,211.109,194.75,212.821Z" transform="translate(-164.904 -137.493)" fill="#0071b6"/>
          <path id="Trazado_105060" data-name="Trazado 105060" d="M189.515,187.6s-13.7,10.211-16.953,15.6c0,0,3.872-11.238,9.085-15.6,2.841-2.373,5.149-4.119,6.662-5.213C188.738,184.261,189.143,185.994,189.515,187.6Z" transform="translate(-163.169 -127.324)" fill="#0071b6" opacity="0.5" style="mix-blend-mode: multiply;isolation: isolate"/>
          <path id="Trazado_105061" data-name="Trazado 105061" d="M169.478,206.829s1.7,15.183,11.427,18.665,21.115-15.594,29.654-36.442L200.229,177.1C189.364,192.488,184.45,191.761,169.478,206.829Z" transform="translate(-163.868 -128.523)" fill="#0071b6"/>
          <path id="Trazado_105062" data-name="Trazado 105062" d="M202.575,172.888l-.808-6.991s-8.043,9.364-7.206,13.734,1.62,18.6,8.519,17.173,10.889-6.254,9.938-13.044C211.474,172.718,202.575,172.888,202.575,172.888Z" transform="translate(-158.2 -131.059)" fill="#fcb38f"/>
        </g>
      </g>
      <g id="Grupo_57802" data-name="Grupo 57802" transform="translate(104.801 22.037)">
        <g id="Grupo_57797" data-name="Grupo 57797" transform="translate(26.972 187.403)">
          <g id="Grupo_57794" data-name="Grupo 57794" transform="translate(0 203.47)">
            <path id="Trazado_105063" data-name="Trazado 105063" d="M281.02,405.934l-.954,12.634a20.732,20.732,0,0,0,10.814.939l3-12.288S285.878,403.076,281.02,405.934Z" transform="translate(-243.296 -404.928)" fill="#fcb38f"/>
            <g id="Grupo_57793" data-name="Grupo 57793" transform="translate(0 9.476)">
              <path id="Trazado_105064" data-name="Trazado 105064" d="M298.489,433.9c-.146,1.033-.278,2.058-.39,3.074H250.086a11.79,11.79,0,0,1,5.825-10.171c7.338-4.309,18.171-6.314,18.171-6.314,3.117-2.928,12.4-7.836,12.4-7.836,7.7,3.117,12.025,1.7,12.025,1.7C300.507,421.167,299.346,427.679,298.489,433.9Z" transform="translate(-250.086 -412.654)" fill="#0096d0"/>
              <path id="Trazado_105065" data-name="Trazado 105065" d="M298.489,429.978c-.146,1.033-.278,2.058-.39,3.074H250.086a11.841,11.841,0,0,1,.407-3.074Z" transform="translate(-250.086 -408.73)" fill="#0071b6"/>
            </g>
          </g>
          <g id="Grupo_57796" data-name="Grupo 57796" transform="translate(90.163 202.013)">
            <path id="Trazado_105066" data-name="Trazado 105066" d="M338.665,405.277l5.078,12.7,11.084,3.641-2.681-17.2S343.523,402.419,338.665,405.277Z" transform="translate(-320.185 -403.741)" fill="#fcb38f"/>
            <g id="Grupo_57795" data-name="Grupo 57795" transform="translate(0 11.718)">
              <path id="Trazado_105067" data-name="Trazado 105067" d="M323.647,436.83h35.17a26.006,26.006,0,0,0,.8-3.074c.818-3.9-.249-12.064-2.341-20.462,0,0-8.046,2.377-10.772.345,0,0-1.854.687-9.142,6.975,0,0-12.332,2.751-13.649,13.142A14.84,14.84,0,0,0,323.647,436.83Z" transform="translate(-323.598 -413.295)" fill="#0096d0"/>
              <path id="Trazado_105068" data-name="Trazado 105068" d="M323.647,433.052h35.17a26.006,26.006,0,0,0,.8-3.074h-35.9A14.84,14.84,0,0,0,323.647,433.052Z" transform="translate(-323.598 -409.516)" fill="#0071b6"/>
            </g>
          </g>
          <path id="Trazado_105069" data-name="Trazado 105069" d="M365.4,242.964s-47.16-3.928-65.829-3.93c-4.529,34.5-10.066,69.711-9.795,100.82l-10.461,107.67h15.166l9.4-43.65c6.157-13.216,13.964-43.473,12.375-60.549,4.238-17.611,7.094-41.136,9.661-65.9,0,0,2.327,1.558,7.272.527,0,0-4.842,67.678-4.4,77.954l22.875,88.564,14.522-1.967s-2.615-36.984-1.656-55.324c1.263-24.152-8.615-40.932-8.615-40.932s8.479-55.843,10.271-73.266A109.008,109.008,0,0,0,365.4,242.964Z" transform="translate(-243.465 -239.034)" fill="#2d1c64"/>
        </g>
        <path id="Trazado_105070" data-name="Trazado 105070" d="M304.514,116.9c-1.466-6.281,5.568-34.018,23.086-30.323,16.052,3.386,27.534,5.207,31.916,14.138s5.1,11.642,7.061,21.738c2.681,13.8-10.651,22.9,2.1,27.575,13.357,4.891,16.879,24.184,11.446,33.782s.731,11.692-2.26,23.68-33.161,20.418-40.991,8.495c-5.133-7.816-40.595-16.872-42.611-45.168-2.536-35.6,23.983-39,22.37-44.191S304.514,116.9,304.514,116.9Z" transform="translate(-213.146 -86.239)" fill="#2d1c64"/>
        <g id="Grupo_57798" data-name="Grupo 57798" transform="translate(78.026 64.561)">
          <path id="Trazado_105071" data-name="Trazado 105071" d="M364.217,172.018c-5.064,8.208-14,34.418-13.106,44.545s8.708,33.954,16.007,52.884c0,0-33.905,13.039-75.405,0,0,0,12.075-39.587,12.075-59.623s-5.884-46.395-.936-53.989a134.269,134.269,0,0,0,15.374-8,29.8,29.8,0,0,0,6.19-4.858s9.006.423,16.312-4.1c0,0,2.922,2.2,7.05,5.015,6.359,4.333,12.567,9.125,18.4,10.585C366.175,154.477,369.28,163.806,364.217,172.018Z" transform="translate(-291.712 -138.877)" fill="#f5345a"/>
          <path id="Trazado_105072" data-name="Trazado 105072" d="M342.882,143.892c-2.561,4.575-9.954,16.333-19.187,18.245-7.661,1.588-9.792-7.83-10.365-14.3a29.8,29.8,0,0,0,6.19-4.858s9.006.423,16.312-4.1C335.832,138.877,338.753,141.077,342.882,143.892Z" transform="translate(-286.816 -138.877)" fill="#fcb38f"/>
        </g>
        <g id="Grupo_57799" data-name="Grupo 57799" transform="translate(84.576 5.214)">
          <path id="Trazado_105073" data-name="Trazado 105073" d="M336.515,144.033c-4.219,6.259-17.568,8.038-17.568,8.038.369-2.994-.167-7.775-.819-11.909-.694-4.4-1.521-8.062-1.521-8.062L329.3,129.91l.667-.114Z" transform="translate(-292.623 -81.587)" fill="#fcb38f"/>
          <path id="Trazado_105074" data-name="Trazado 105074" d="M329.3,129.889c-2.194,3.332-6.168,8.349-11.17,10.252-.694-4.4-1.521-8.062-1.521-8.062Z" transform="translate(-292.623 -81.566)" fill="#fd8471"/>
          <path id="Trazado_105075" data-name="Trazado 105075" d="M317.543,94.1s-11.043,10.971-11.864,13.966-1.469,7.025-1.469,7.025l-6.632,5.484a1.442,1.442,0,0,0-.158,2.075,11.744,11.744,0,0,0,3.727,2.852,14.328,14.328,0,0,0-.454,4.361c.26,1.555-.213,9.822-.733,11.4s2.928,5.843,8.474,4.484,27.655-5.119,33.6-13.181,5.687-23.562,5.375-27.347S328.208,89.046,317.543,94.1Z" transform="translate(-297.052 -89.943)" fill="#fcb38f"/>
          <path id="Trazado_105076" data-name="Trazado 105076" d="M300.816,124.518a25.537,25.537,0,0,0,12.326-1.559s-2.545,8.849-8.817,8.5C300.3,131.229,300.816,124.518,300.816,124.518Z" transform="translate(-296.205 -83.135)" fill="#fff"/>
          <path id="Trazado_105077" data-name="Trazado 105077" d="M299.088,102.541s4.261.4,5.211,1.853a12.346,12.346,0,0,0,1.666,2.113,24.492,24.492,0,0,1,5.184.719c1.6.576,4.827,3.757,4.827,3.757L324.843,112l-.208,2.049-8.9.289s-1.971,9.039-5.092,9.5-6.61-4.56-5.148-12.984l-.714-.661-.682,2.711s-4.083,3.277-5.593,4.633C298.5,117.537,296.035,107.95,299.088,102.541Z" transform="translate(-296.937 -87.76)" fill="#2d1c64"/>
          <path id="Trazado_105078" data-name="Trazado 105078" d="M306.676,102.331s6.247-4.618,8.036-4.561,1.587,12.476,5.576,17.346,4.3,26.315,10.922,29.136,12.984-5.274,15.521-15.464,3.981-24.724,3.981-24.724-9.746-8.9-10.35-9.287S318.16,81.518,306.676,102.331Z" transform="translate(-294.872 -90.49)" fill="#2d1c64"/>
        </g>
        <g id="Grupo_57800" data-name="Grupo 57800" transform="translate(79.181 80.161)">
          <path id="Trazado_105079" data-name="Trazado 105079" d="M349.758,217.653l-15.687-4.766s1.352-3.466,3.243-8.633c.417-1.138.859-2.36,1.32-3.643,4.012-11.184,9.358-27.2,10.33-35.575,0,0,2.582-11.22,7.619-13.44A28.3,28.3,0,0,1,364.65,170C365.222,181.6,355.1,206.537,349.758,217.653Z" transform="translate(-283.273 -151.596)" fill="#fcb38f"/>
          <path id="Trazado_105080" data-name="Trazado 105080" d="M347.3,199.775c-2.936-2.757-9.052-4.235-10.588-4.574.417-1.138.859-2.36,1.32-3.643C346.115,194.283,347.3,199.775,347.3,199.775Z" transform="translate(-282.674 -142.544)" fill="#fd8471"/>
          <path id="Trazado_105081" data-name="Trazado 105081" d="M344.175,197.031s-6.543-2.073-15.694-3.888c-5.262-1.044-17.608-8.355-17.608-8.355l-3.255,10.282s25.366,18.839,35.492,22.214,13.975-10,13.975-10Z" transform="translate(-289.264 -144.078)" fill="#fcb38f"/>
          <path id="Trazado_105082" data-name="Trazado 105082" d="M315.884,194.36c-.834,4.141-5.29,4.791-9.1,2.96-4.854-2.335-10.039-4.918-11.714-8.935-2.7-6.47-3.249-13.836-1.093-13.7s14.958,3.76,14.958,3.76l1.332-5.892c4.135,5.755,6.147,17.115,6.147,17.115A28.69,28.69,0,0,1,315.884,194.36Z" transform="translate(-292.654 -146.849)" fill="#fcb38f"/>
        </g>
        <g id="Grupo_57801" data-name="Grupo 57801" transform="translate(0 145.475)">
          <path id="Trazado_105083" data-name="Trazado 105083" d="M235.154,226.789c-4.211-.33-8.144-6.234-6.785-10.233,1.734-5.1,3.964-7.983,7.75-10.131,6.1-3.459,12.014-.459,12.14,1.7s-.283,9.721-.283,9.721l5.9,1.776c-5.216,4.8-9.393,6.274-9.393,6.274S237.692,226.987,235.154,226.789Z" transform="translate(-228.095 -204.849)" fill="#fcb38f"/>
          <path id="Trazado_105084" data-name="Trazado 105084" d="M244.3,219.881s17.638,1.192,27.567-.794a47.425,47.425,0,0,0,17.72-8.073l-43.93,7.209Z" transform="translate(-224.424 -203.452)" fill="#fcb38f"/>
        </g>
      </g>
      <g id="Grupo_57805" data-name="Grupo 57805" transform="translate(66.543 86.998)">
        <g id="Grupo_57804" data-name="Grupo 57804">
          <g id="Grupo_57803" data-name="Grupo 57803">
            <path id="Trazado_105085" data-name="Trazado 105085" d="M339.036,148.819l-7.074,31.292,0,0L330.626,186s-12.8-3.628-14.958-3.76-1.608,7.231,1.093,13.7c1.456,3.5,5.571,5.9,9.813,8.012l-4.369,19.326L260.944,234.49l-.115-.036-5.769-1.734-.018-.006s.408-7.565.285-9.721-6.044-5.159-12.141-1.7a14.834,14.834,0,0,0-6,6.047l-30.077-9.052-2.083-16.147c5.346-1.976,8.276-6.41,7.45-12.336-1.545-11.042-10.446-10.87-10.446-10.87l-.889-6.9L196.9,139.2l71.07,21.086Z" transform="translate(-196.902 -139.203)" fill="#c0d1e0"/>
          </g>
        </g>
        <path id="Trazado_105086" data-name="Trazado 105086" d="M327.21,147.043l-7.074,31.292,0,0-1.333,5.893s-12.8-3.628-14.958-3.76-1.608,7.231,1.093,13.7c1.456,3.5,5.571,5.9,9.813,8.012L310.378,221.5l-61.261,11.214,7.126-74.338Z" transform="translate(-185.075 -137.427)" fill="#c0d1e0" opacity="0.5" style="mix-blend-mode: multiply;isolation: isolate"/>
      </g>
    </g>
  </g>
</svg>
