<svg xmlns="http://www.w3.org/2000/svg" xmlns:xlink="http://www.w3.org/1999/xlink" width="85" height="85" viewBox="0 0 85 85">
  <defs>
    <clipPath id="clip-path">
      <rect id="Rectángulo_12179" data-name="Rectángulo 12179" width="85" height="85" transform="translate(390 5274)" fill="#fff" stroke="#707070" stroke-width="1"/>
    </clipPath>
  </defs>
  <g id="Enmascarar_grupo_48" data-name="Enmascarar grupo 48" transform="translate(-390 -5274)" clip-path="url(#clip-path)">
    <g id="customer-service" transform="translate(390 5274)">
      <g id="Grupo_57187" data-name="Grupo 57187">
        <g id="Grupo_57179" data-name="Grupo 57179">
          <g id="Grupo_57178" data-name="Grupo 57178">
            <path id="Trazado_103680" data-name="Trazado 103680" d="M1.245,14.439A13.194,13.194,0,1,1,23.11,24.382a.573.573,0,0,0,.084.925l2.486,1.471a.459.459,0,0,1-.234.854l-11.258,0A13.193,13.193,0,0,1,1.245,14.439Z" fill="#7acaa6"/>
          </g>
        </g>
        <path id="Trazado_103681" data-name="Trazado 103681" d="M25.68,26.778l-2.486-1.471a.572.572,0,0,1-.088-.922A13.193,13.193,0,0,0,14.832,1.251a13.3,13.3,0,0,0-2.9.232A13.244,13.244,0,0,1,22.652,14.354a13.135,13.135,0,0,1-2.774,8.179,2.849,2.849,0,0,0,.77,4.215l.052.031a.458.458,0,0,1-.219.853h4.966a.459.459,0,0,0,.234-.854Z" fill="#57be92"/>
        <g id="Grupo_57185" data-name="Grupo 57185">
          <g id="Grupo_57182" data-name="Grupo 57182">
            <path id="Trazado_103682" data-name="Trazado 103682" d="M65.531,49.135H35.6a8.827,8.827,0,0,1-6.792-14.464l.265-.32a14.118,14.118,0,0,0,3.255-9.017V19.562a18.317,18.317,0,1,1,36.634,0v5.967a14.119,14.119,0,0,0,3.319,9.094A8.827,8.827,0,0,1,65.531,49.135Z" fill="#c59191"/>
            <path id="Trazado_103683" data-name="Trazado 103683" d="M81.265,63.967V83.755h-61.4V64.117a11.048,11.048,0,0,1,6.763-10.183l9.909-4.31,3.339-1.451a6.934,6.934,0,0,0,4.17-6.358V40.533H57.084v1.215a6.935,6.935,0,0,0,4.2,6.373l13.406,5.746a11.049,11.049,0,0,1,6.573,10.1Z" fill="#fff"/>
            <path id="Trazado_103684" data-name="Trazado 103684" d="M36.54,54.343a47.476,47.476,0,0,0,28.053-.263l1.616-3.849-4.922-2.109a6.935,6.935,0,0,1-4.2-6.374V40.534H44.048v1.28a6.935,6.935,0,0,1-4.17,6.36l-3.986,1.733Z" fill="#ffcebf"/>
            <path id="Trazado_103685" data-name="Trazado 103685" d="M74.693,53.868l-10.1-4.328h0V83.755H81.265V63.968A11.048,11.048,0,0,0,74.693,53.868Z" fill="#8795de"/>
            <path id="Trazado_103686" data-name="Trazado 103686" d="M36.54,49.624V83.755H19.867V64.117a11.048,11.048,0,0,1,6.763-10.183Z" fill="#8795de"/>
            <g id="Grupo_57180" data-name="Grupo 57180">
              <path id="Trazado_103687" data-name="Trazado 103687" d="M54.27,37.878H51.352a2.4,2.4,0,0,1,0-4.809H54.27a2.4,2.4,0,0,1,0,4.809Z" fill="#fff"/>
              <path id="Trazado_103688" data-name="Trazado 103688" d="M51.352,34.313a1.16,1.16,0,0,0,0,2.319H54.27a1.16,1.16,0,0,0,0-2.319Z"/>
            </g>
            <g id="Grupo_57181" data-name="Grupo 57181">
              <circle id="Elipse_4056" data-name="Elipse 4056" cx="1.202" cy="1.202" r="1.202" transform="translate(49.364 62.006)"/>
            </g>
          </g>
          <g id="Grupo_57184" data-name="Grupo 57184">
            <path id="Trazado_103689" data-name="Trazado 103689" d="M55.085,47.688a10.964,10.964,0,0,0,4.232-.845,6.934,6.934,0,0,1-2.232-5.1V40.534H44.048v1.28a6.922,6.922,0,0,1-.607,2.835,10.96,10.96,0,0,0,7.587,3.039Z" fill="#ffb09e"/>
            <path id="Trazado_103690" data-name="Trazado 103690" d="M63.6,20.923V31.707a11,11,0,0,1-11,11H48.538a11,11,0,0,1-11-11V20.923a7.157,7.157,0,0,1,7.156-7.156H56.439A7.157,7.157,0,0,1,63.6,20.923Z" fill="#ffcebf"/>
            <path id="Trazado_103691" data-name="Trazado 103691" d="M54.27,37.878H51.352a2.4,2.4,0,0,1,0-4.809H54.27a2.4,2.4,0,0,1,0,4.809Z" fill="#685e68"/>
            <g id="Grupo_57183" data-name="Grupo 57183">
              <path id="Trazado_103692" data-name="Trazado 103692" d="M53.166,10.913c.279-3.524,3.653-5.862,6.881-7.073a18.307,18.307,0,0,1,8.917,15.723v1.259c-.3.062-.589.116-.88.16a14.829,14.829,0,0,1-4.328,0c-6.668-.888-10.927-5.813-10.59-10.069Z" fill="#b98080"/>
              <path id="Trazado_103693" data-name="Trazado 103693" d="M50.647,1.245A18.236,18.236,0,0,1,61.666,4.93,32.671,32.671,0,0,1,50.037,16.75,32.418,32.418,0,0,1,37.7,20.981H32.33V19.562A18.317,18.317,0,0,1,50.647,1.245Z" fill="#c59191"/>
            </g>
          </g>
        </g>
        <path id="Trazado_103694" data-name="Trazado 103694" d="M71.123,83.755H31.265l-2.2-20.738a2.49,2.49,0,0,1,2.476-2.753h39.3a2.49,2.49,0,0,1,2.476,2.753Z" fill="#efedef"/>
        <path id="Trazado_103695" data-name="Trazado 103695" d="M70.844,60.264h-4.98a2.49,2.49,0,0,1,2.476,2.753l-2.2,20.738h4.98l2.2-20.738A2.49,2.49,0,0,0,70.844,60.264Z" fill="#e5e1e5"/>
        <g id="Grupo_57186" data-name="Grupo 57186">
          <path id="Trazado_103696" data-name="Trazado 103696" d="M83.755,85H1.245a1.245,1.245,0,0,1,0-2.49h82.51a1.245,1.245,0,0,1,0,2.49Z" fill="#c9bfc8"/>
        </g>
        <circle id="Elipse_4057" data-name="Elipse 4057" cx="3.486" cy="3.486" r="3.486" transform="translate(47.707 68.523)" fill="#c9bfc8"/>
      </g>
      <path id="Trazado_103697" data-name="Trazado 103697" d="M19.419,15.684a1.245,1.245,0,1,0-1.245-1.245A1.245,1.245,0,0,0,19.419,15.684Zm-9.961,0a1.245,1.245,0,1,0-1.245-1.245A1.245,1.245,0,0,0,9.458,15.684Zm4.98,0a1.245,1.245,0,1,0-1.245-1.245A1.245,1.245,0,0,0,14.439,15.684Zm-.273,13.19h.023l11.257,0h0a1.7,1.7,0,0,0,.868-3.17L24.6,24.694A14.438,14.438,0,1,0,0,14.439,14.593,14.593,0,0,0,14.166,28.874ZM6.051,5.929a11.862,11.862,0,0,1,8.564-3.438,11.948,11.948,0,0,1,7.676,20.952,1.818,1.818,0,0,0,.269,2.935l.012.007-8.371,0A11.948,11.948,0,0,1,6.051,5.929Zm77.7,76.581H82.51V63.967a12.308,12.308,0,0,0-7.327-11.245L68.621,49.91a9.829,9.829,0,0,0,4.213-2.649,10.315,10.315,0,0,0,2.786-7,9.9,9.9,0,0,0-2.384-6.442,12.891,12.891,0,0,1-3.026-8.292V19.562a19.562,19.562,0,0,0-39.125,0v5.772a13.457,13.457,0,0,1-3.234,8.542,10.084,10.084,0,0,0,4.813,16.077l-6.516,2.834a12.268,12.268,0,0,0-7.526,11.331V78.775a1.245,1.245,0,0,0,2.49,0V64.117a9.788,9.788,0,0,1,6.015-9.042L35.3,51.524v7.495H31.543a3.735,3.735,0,0,0-3.714,4.129L29.881,82.51H1.245a1.245,1.245,0,0,0,0,2.49h82.51a1.245,1.245,0,0,0,0-2.49ZM71.33,35.424a7.445,7.445,0,0,1,1.8,4.838,7.8,7.8,0,0,1-2.109,5.292,7.454,7.454,0,0,1-5.489,2.336H63.909l-2.131-.914a5.682,5.682,0,0,1-3.4-4.481,12.255,12.255,0,0,0,6.459-10.789v-9.36c.364.025.728.038,1.092.038a15.87,15.87,0,0,0,1.787-.1v3.244a15.383,15.383,0,0,0,3.611,9.9ZM50.949,55.08a46.129,46.129,0,0,1-13.164-1.675V50.441l.36-.157.009,0,2.221-.966a8.176,8.176,0,0,0,4.75-5.85,12.2,12.2,0,0,0,3.413.488H52.6a12.2,12.2,0,0,0,3.426-.491,8.172,8.172,0,0,0,4.775,5.8l2.371,1.016,0,0,.176.075v2.8a46.219,46.219,0,0,1-12.4,1.92Zm12.4.673v3.266H37.785V55.984a48.666,48.666,0,0,0,12.353,1.594q.427,0,.854-.007a48.7,48.7,0,0,0,12.354-1.817Zm4.373-35.98a13.83,13.83,0,0,1-9.959-2.519,1.245,1.245,0,0,0-1.525,1.968A15.044,15.044,0,0,0,62.351,22v6.779a9.109,9.109,0,0,1-2.766,3.737,9.547,9.547,0,0,1-2.065,1.3,3.653,3.653,0,0,0-3.25-1.991H51.352a3.65,3.65,0,0,0,0,7.3H54.27A3.656,3.656,0,0,0,57.8,36.4a22.219,22.219,0,0,0,4.382-2.9A9.769,9.769,0,0,1,52.6,41.462H48.538a9.766,9.766,0,0,1-9.755-9.755V22.082a33.389,33.389,0,0,0,11.888-4.261A33.823,33.823,0,0,0,61.988,6.8a17.062,17.062,0,0,1,5.732,12.971Zm-12.29,15.7a1.161,1.161,0,0,1-1.159,1.156H51.352a1.16,1.16,0,0,1,0-2.319H54.27a1.161,1.161,0,0,1,1.159,1.156ZM33.575,19.562A17.078,17.078,0,0,1,60.005,5.279a31.351,31.351,0,0,1-10.6,10.4,30.96,30.96,0,0,1-11.786,4.058H33.575ZM28.738,43.531a7.514,7.514,0,0,1,1.027-8.063,15.9,15.9,0,0,0,3.81-10.134V22.226h2.718v9.481A12.256,12.256,0,0,0,42.759,42.5a5.685,5.685,0,0,1-3.377,4.531l-1.977.86H35.6a7.514,7.514,0,0,1-6.862-4.36ZM72.083,62.885,70,82.51H32.385L30.3,62.885a1.245,1.245,0,0,1,1.238-1.376h39.3a1.245,1.245,0,0,1,1.238,1.376ZM80.02,82.51H72.506l2.052-19.362a3.735,3.735,0,0,0-3.714-4.129H65.837V54.1c0-.015,0-.03,0-.045V51.426l8.351,3.579a9.811,9.811,0,0,1,5.832,8.962ZM51.193,67.278a4.731,4.731,0,1,0,4.731,4.731A4.737,4.737,0,0,0,51.193,67.278Zm0,6.973a2.241,2.241,0,1,1,2.241-2.241A2.244,2.244,0,0,1,51.193,74.25Z" fill="#12263f"/>
    </g>
  </g>
</svg>
