<svg xmlns="http://www.w3.org/2000/svg" width="48.675" height="62" viewBox="0 0 48.675 62">
  <path id="bandera-nacional" d="M48.831,37.166V9.352H13.07V7.527l1.136-3.41L10.09,0,5.973,4.117,7.11,7.527V52.067H2.143V56.04H.156V62H20.023V56.04H18.037V52.067H13.07v-14.9ZM24,35.18V11.339h11.92V35.18Zm22.847,0H37.9V11.339h8.94ZM22.01,11.339V35.18H13.07V11.339ZM10.09,2.81l1.844,1.844L11.36,6.372H8.819L8.246,4.654Zm7.947,57.2H2.143V58.027H18.037ZM16.05,56.04H4.13V54.054H16.05ZM9.1,52.067V8.359h1.987V52.067Zm0,0" transform="translate(-0.156 -0.001)" fill="#5038a1"/>
</svg>
