<svg xmlns="http://www.w3.org/2000/svg" width="505" height="244.333" viewBox="0 0 505 244.333">
  <g id="Grupo_58213" data-name="Grupo 58213" transform="translate(-915 -1206.667)">
    <rect id="Rect치ngulo_12258" data-name="Rect치ngulo 12258" width="505" height="131" transform="translate(915 1320)" fill="#8c6df2" opacity="0.5"/>
    <g id="Grupo_58192" data-name="Grupo 58192" transform="translate(1005.017 1150.857)">
      <rect id="Rect치ngulo_12729" data-name="Rect치ngulo 12729" width="271.958" height="53.917" rx="26.959" transform="translate(35.189 246.225)" fill="#00bfbd"/>
      <path id="Trazado_105977" data-name="Trazado 105977" d="M85.612,396.706H303.974a26.537,26.537,0,0,0,6.09-.714l-7.688-53.2H93.4Z" transform="translate(-23.765 -96.563)" fill="#009695"/>
      <g id="Grupo_58167" data-name="Grupo 58167" transform="translate(77.38 112.332)">
        <path id="Trazado_105978" data-name="Trazado 105978" d="M149.147,228.183c-7.1.572-17.749-.855-20.613-17.2-3.987-22.757-3.539-21.857-3.418-21.868-.228-.107-3.069-1.327-9.227,1.889,0,0-1.118,13.432,4.97,31.757,5.384,16.2,19.23,24.272,32.355,21.932C151.682,238.39,149.983,234.6,149.147,228.183Z" transform="translate(-111.306 -157.081)" fill="#ffc78f"/>
        <g id="Grupo_58162" data-name="Grupo 58162" transform="translate(0 9.567)">
          <path id="Trazado_105979" data-name="Trazado 105979" d="M128.867,172.9a80.9,80.9,0,0,1,2.18-9.345c1.773-5.965-.65-6.261-1.533-4.162s-3.294,12.418-3.294,12.418Z" transform="translate(-114.809 -156.356)" fill="#ffc78f"/>
          <path id="Trazado_105980" data-name="Trazado 105980" d="M124.943,170.165s.072-5.055.13-10.335-2.141-5.215-2.531-2.972-.423,12.841-.423,12.841Z" transform="translate(-113.43 -155.415)" fill="#ffc78f"/>
          <path id="Trazado_105981" data-name="Trazado 105981" d="M119.437,170.578s-.782-5-1.614-10.21-2.99-4.779-3-2.5,1.748,12.728,1.748,12.728Z" transform="translate(-110.976 -155.697)" fill="#ffc78f"/>
          <path id="Trazado_105982" data-name="Trazado 105982" d="M114.934,175.624s-1.291-4.888-2.656-9.989-3.466-4.447-3.237-2.181,3.048,12.481,3.048,12.481Z" transform="translate(-109.023 -157.547)" fill="#ffc78f"/>
          <path id="Trazado_105983" data-name="Trazado 105983" d="M118.622,185.871c4.89,1.134,6.435-1.049,6.465-5.124s-1.742-7.694-5.459-8.506-7.183,1.357-6.921,8.256S115.15,185.066,118.622,185.871Z" transform="translate(-110.258 -161.022)" fill="#ffc78f"/>
          <path id="Trazado_105984" data-name="Trazado 105984" d="M127.032,187.411a12.735,12.735,0,0,0,4.263-4.022c2.093-2.918,3.182-2.277,3.418-3.2s-2.107-2.673-5.183.766c-1.228,1.372-1.223.77-1.223.77s-4.759-1.045-5.818,2S123.767,188.737,127.032,187.411Z" transform="translate(-113.467 -163.324)" fill="#ffc78f"/>
        </g>
        <g id="Grupo_58163" data-name="Grupo 58163" transform="translate(21.443 53.667)">
          <path id="Trazado_105985" data-name="Trazado 105985" d="M216.628,265.822c-.529-13.927-2.475-26.273-16.743-27.683s-11.626-16.261-11.626-16.261l-8.518,2.157-8.518-2.157s2.762,14.693-11.568,14.226c-6.264-.2-9.265-.977-12.917-4.232-6,7.78-5.448,24.031-5.333,22.905,2.923,3.723,9.468,6.664,16.892,6.747V323.1h58.331S217.157,279.749,216.628,265.822Z" transform="translate(-141.339 -221.878)" fill="#ffc78f"/>
        </g>
        <path id="Trazado_105986" data-name="Trazado 105986" d="M194.293,224.035l-8.518-2.157s.956,5.1-1.19,9.2a15.514,15.514,0,0,0,19.3.084,18.144,18.144,0,0,1-1.072-9.283Z" transform="translate(-134.448 -168.211)" fill="#d6a778"/>
        <path id="Trazado_105987" data-name="Trazado 105987" d="M216.628,270.89c-.529-13.927-2.475-26.273-16.743-27.683a14.366,14.366,0,0,1-6.36-2.018,27.793,27.793,0,0,1-28.685-.678,14.707,14.707,0,0,1-5.183.662c-6.264-.2-9.265-.977-12.917-4.232-6,7.78-5.448,24.031-5.333,22.905,2.923,3.723,9.468,6.664,16.892,6.747v61.572h58.331S217.157,284.818,216.628,270.89Z" transform="translate(-119.897 -173.279)" fill="#00bfbd"/>
        <path id="Trazado_105988" data-name="Trazado 105988" d="M232.331,343.275h14.914s.529-43.347,0-57.274c-.053-1.4-.122-2.789-.216-4.152a22.171,22.171,0,0,0-14.7,5.548Z" transform="translate(-150.514 -188.39)" fill="#ffc78f"/>
        <g id="Grupo_58166" data-name="Grupo 58166" transform="translate(31.47)">
          <g id="Grupo_58164" data-name="Grupo 58164" transform="translate(0 27.05)">
            <path id="Trazado_105989" data-name="Trazado 105989" d="M163.836,185.759s-2.018-5.842-5.629-3.4c-4.071,2.754-.8,20.072,7.155,16.887Z" transform="translate(-156.452 -181.763)" fill="#d6a778"/>
            <path id="Trazado_105990" data-name="Trazado 105990" d="M164.314,188.927s-4.036-4.249-4.673-.85.09-1.275,2.063.85-1.638,2.408-1,3.753,2.533.92,1,2.832,2.238,3.946,3.46,1.949S164.314,188.927,164.314,188.927Z" transform="translate(-157.449 -183.444)" fill="#ad8762"/>
          </g>
          <g id="Grupo_58165" data-name="Grupo 58165" transform="translate(47.839 27.05)">
            <path id="Trazado_105991" data-name="Trazado 105991" d="M230.077,185.759s2.018-5.842,5.629-3.4c4.07,2.754.8,20.072-7.155,16.887Z" transform="translate(-228.551 -181.763)" fill="#d6a778"/>
            <path id="Trazado_105992" data-name="Trazado 105992" d="M231.007,188.927s4.036-4.249,4.673-.85-.09-1.275-2.064.85,1.638,2.408,1,3.753-2.533.92-1,2.832-2.237,3.946-3.46,1.949S231.007,188.927,231.007,188.927Z" transform="translate(-228.962 -183.444)" fill="#ad8762"/>
          </g>
          <path id="Trazado_105993" data-name="Trazado 105993" d="M210.642,177.219c0,15.528-11.893,30.241-23.182,30.241s-23.182-14.712-23.182-30.241,11.893-25.991,23.182-25.991S210.642,161.691,210.642,177.219Z" transform="translate(-159.085 -144.439)" fill="#ffc78f"/>
          <path id="Trazado_105994" data-name="Trazado 105994" d="M231.528,166.654c2.479,6.97,1.68,19.733-.315,20.356-2.344.732,1.071-11.994-5-19.269Z" transform="translate(-179.926 -149.629)" fill="#ff7136"/>
          <path id="Trazado_105995" data-name="Trazado 105995" d="M179.54,197.9c0,2.109-2.422,3.818-5.41,3.818s-5.41-1.709-5.41-3.818,2.422-3.819,5.41-3.819S179.54,195.787,179.54,197.9Z" transform="translate(-160.58 -158.857)" fill="#faa371"/>
          <path id="Trazado_105996" data-name="Trazado 105996" d="M224.225,197.9c0,2.109-2.423,3.818-5.411,3.818s-5.41-1.709-5.41-3.818,2.422-3.819,5.41-3.819S224.225,195.787,224.225,197.9Z" transform="translate(-175.615 -158.857)" fill="#faa371"/>
          <path id="Trazado_105997" data-name="Trazado 105997" d="M196.789,201.789a20.361,20.361,0,0,0,2.393-.129c1.962-.366.762-3.288.762-3.288s2.348,2.241,1.409,3.651c-.8,1.2-3.537,1.55-4.34,1.526q-.223-.007-.447,0c-.8.024-3.541-.328-4.34-1.526-.94-1.409,1.409-3.651,1.409-3.651s-1.2,2.923.762,3.288A20.354,20.354,0,0,0,196.789,201.789Z" transform="translate(-168.414 -160.301)" fill="#d6a778"/>
          <path id="Trazado_105998" data-name="Trazado 105998" d="M202.873,211.006a1.572,1.572,0,0,1,1.551,1.831,10.747,10.747,0,0,1-21.18,0,1.571,1.571,0,0,1,1.551-1.831Z" transform="translate(-165.459 -164.553)" fill="#ff5761"/>
          <path id="Trazado_105999" data-name="Trazado 105999" d="M195.45,224.167a10.7,10.7,0,0,0,7.426-2.99,10.714,10.714,0,0,0-14.852,0A10.7,10.7,0,0,0,195.45,224.167Z" transform="translate(-167.075 -166.968)" fill="#bf4149"/>
          <path id="Trazado_106000" data-name="Trazado 106000" d="M188.94,223.511a10.719,10.719,0,0,0,13.636,0Z" transform="translate(-167.384 -168.76)" fill="#fff"/>
          <path id="Trazado_106001" data-name="Trazado 106001" d="M183.382,213.471h20.9c.05-.21.1-.419.139-.634a1.572,1.572,0,0,0-1.551-1.831H184.8a1.571,1.571,0,0,0-1.551,1.831C183.281,213.052,183.333,213.261,183.382,213.471Z" transform="translate(-165.459 -164.553)" fill="#fff"/>
          <path id="Trazado_106002" data-name="Trazado 106002" d="M183.38,179.578a5.971,5.971,0,0,0-8.6,0" transform="translate(-162.618 -153.362)" fill="none" stroke="#ff7136" stroke-miterlimit="10" stroke-width="2"/>
          <path id="Trazado_106003" data-name="Trazado 106003" d="M219.292,179.578a5.971,5.971,0,0,0-8.6,0" transform="translate(-174.701 -153.362)" fill="none" stroke="#ff7136" stroke-miterlimit="10" stroke-width="2"/>
          <path id="Trazado_106004" data-name="Trazado 106004" d="M178.518,184.279c0,1.565.815,2.833,1.819,2.833s1.819-1.268,1.819-2.833-.814-2.832-1.819-2.832S178.518,182.715,178.518,184.279Z" transform="translate(-163.877 -154.607)" fill="#664f39"/>
          <path id="Trazado_106005" data-name="Trazado 106005" d="M179.919,184.321c0,.382.2.692.445.692s.445-.31.445-.692-.2-.693-.445-.693S179.919,183.938,179.919,184.321Z" transform="translate(-164.348 -155.341)" fill="#fff"/>
          <path id="Trazado_106006" data-name="Trazado 106006" d="M214.43,184.279c0,1.565.815,2.833,1.819,2.833s1.819-1.268,1.819-2.833-.814-2.832-1.819-2.832S214.43,182.715,214.43,184.279Z" transform="translate(-175.961 -154.607)" fill="#664f39"/>
          <path id="Trazado_106007" data-name="Trazado 106007" d="M215.831,184.321c0,.382.2.692.445.692s.445-.31.445-.692-.2-.693-.445-.693S215.831,183.938,215.831,184.321Z" transform="translate(-176.432 -155.341)" fill="#fff"/>
          <path id="Trazado_106008" data-name="Trazado 106008" d="M164.486,164.99s5.335-11.837,18.273-8.257c12.707,3.517,33.455,10.058,35.236-10.261,0,0-3.17,6.077-15.327-.425-12.562-6.719-32.719-8.841-35.219,7.106C167.449,153.153,161.468,156.934,164.486,164.99Z" transform="translate(-158.869 -140.995)" fill="#ff7136"/>
          <path id="Trazado_106009" data-name="Trazado 106009" d="M163.439,166.654c-2.453,6.97-1.606,19.733.391,20.356,2.346.732-1.115-11.994,4.925-19.269Z" transform="translate(-158.297 -149.629)" fill="#ff7136"/>
        </g>
        <path id="Trazado_106010" data-name="Trazado 106010" d="M169.538,313.89c0-13.638-2.05-26.695-2.8-26.695s.083,13.057.083,26.695c0,2.385.019,29,.054,31.185h2.61C169.519,342.892,169.538,316.275,169.538,313.89Z" transform="translate(-128.337 -190.189)" fill="#008f8d"/>
        <path id="Trazado_106011" data-name="Trazado 106011" d="M233,314.9c0-13.638-.608-24.694-1.359-24.694s-1.36,11.056-1.36,24.694c0,2.385.019,29,.054,31.185h2.611C232.981,343.907,233,317.29,233,314.9Z" transform="translate(-149.824 -191.204)" fill="#008f8d"/>
      </g>
      <g id="Grupo_58171" data-name="Grupo 58171" transform="translate(66.74 172.419)">
        <path id="Trazado_106012" data-name="Trazado 106012" d="M151.286,324.565l.043-.041-.358-.087a18.212,18.212,0,0,0-5.134-1.22c-.307-.031-.6-.074-.885-.117l-.375-.069c-11.666-2.081-9.394-14.848-9.394-14.848l-.1.025,0-.025-7.828,1.983-7.828-1.983,0,.025-.1-.025s2.272,12.767-9.394,14.848l-.375.069c-.289.043-.579.087-.885.117a18.212,18.212,0,0,0-5.134,1.22l-.358.087.043.041c-8.278,3.61-9.62,13.41-10.031,24.248-.168,4.426-.221,9.411-.217,14.046,0,.843,0,1.674.007,2.488.016,3.274.056,11.415.1,19.715h68.34c.04-8.3.081-16.441.1-19.715,0-.814.007-1.646.007-2.488,0-4.635-.049-9.62-.218-14.046C160.906,337.975,159.564,328.175,151.286,324.565Z" transform="translate(-92.987 -257.337)" fill="#c28bbc"/>
        <path id="Trazado_106013" data-name="Trazado 106013" d="M104.937,362.167c-.443-5.684,1.935-5.693,4.016-14.854,1.248-5.5-2.416-11.03-5.548-14.581l-.213.052.043.041c-8.278,3.61-9.62,13.41-10.031,24.248-.168,4.426-.221,9.411-.217,14.046,0,.843,0,1.674.007,2.488.016,3.274.056,11.415.1,19.715H108.2C108.476,370.453,105.358,367.568,104.937,362.167Z" transform="translate(-92.987 -265.598)" fill="#cfab81"/>
        <path id="Trazado_106014" data-name="Trazado 106014" d="M176.123,362.167c.443-5.684-1.935-5.693-4.017-14.854-1.248-5.5,2.416-11.03,5.548-14.581l.213.052-.043.041c8.278,3.61,9.62,13.41,10.031,24.248.169,4.426.221,9.411.218,14.046,0,.843,0,1.674-.007,2.488-.016,3.274-.056,11.415-.1,19.715H172.86C172.583,370.453,175.7,367.568,176.123,362.167Z" transform="translate(-119.525 -265.598)" fill="#cfab81"/>
        <path id="Trazado_106015" data-name="Trazado 106015" d="M123.91,321.885l0,0s2.709,10.254,13.706,17.843c11-7.589,13.707-17.843,13.707-17.843l.03-.035c-7.52-3.793-5.767-13.671-5.767-13.671l-.1.025,0-.025-7.828,1.983-7.828-1.983,0,.025-.1-.025S131.505,318.116,123.91,321.885Z" transform="translate(-103.392 -257.337)" fill="#966c92"/>
        <path id="Trazado_106016" data-name="Trazado 106016" d="M126.5,320.821a34.258,34.258,0,0,0,11.988,16.055,34.24,34.24,0,0,0,12.01-16.115c-5.5-4.314-4.04-12.578-4.04-12.578l-.1.025,0-.025-7.828,1.983-7.828-1.983,0,.025-.1-.025S132.1,316.524,126.5,320.821Z" transform="translate(-104.264 -257.337)" fill="#cfab81"/>
        <path id="Trazado_106017" data-name="Trazado 106017" d="M148.011,308.208l0-.025-7.828,1.983-7.828-1.983,0,.025-.1-.025a16.9,16.9,0,0,1-.861,8.273,14.3,14.3,0,0,0,17.547-.054,16.92,16.92,0,0,1-.841-8.219Z" transform="translate(-105.913 -257.337)" fill="#ad8f6c"/>
        <path id="Trazado_106018" data-name="Trazado 106018" d="M115.224,400.716c-1.08-13.394-2.635-25.605-3.359-28.963-1.359-6.292,1.007-6.451,2.639-13.513a11.789,11.789,0,0,0,.209-3.533,88.11,88.11,0,0,0-4.222,11.231c-1.2,4.614.652,9.208,2.111,14.15.485,1.642.626,10.979.6,20.628Z" transform="translate(-98.746 -272.992)" fill="#966c92"/>
        <path id="Trazado_106019" data-name="Trazado 106019" d="M171.462,400.716h2.024c-.027-9.649.113-18.986.6-20.628,1.458-4.942,3.314-9.536,2.111-14.15a88.11,88.11,0,0,0-4.222-11.231,11.789,11.789,0,0,0,.209,3.533c1.632,7.062,4,7.221,2.639,13.513C174.1,375.111,172.543,387.322,171.462,400.716Z" transform="translate(-119.392 -272.992)" fill="#966c92"/>
        <g id="Grupo_58170" data-name="Grupo 58170" transform="translate(7.731)">
          <g id="Grupo_58168" data-name="Grupo 58168" transform="translate(0 28.77)">
            <path id="Trazado_106020" data-name="Trazado 106020" d="M111.6,277.581s-1.687-3.894-5.11-2.274c-3.889,1.841-1.549,13.784,6.147,11.539Z" transform="translate(-104.638 -274.912)" fill="#ad8f6c"/>
            <path id="Trazado_106021" data-name="Trazado 106021" d="M112,279.707s-3.61-2.852-4.327-.573c-.725,2.3.131-.857,1.892.573s-1.618,1.633-1.07,2.551,2.346.63.839,1.944,1.981,2.738,3.2,1.348S112,279.707,112,279.707Z" transform="translate(-105.573 -276.036)" fill="#997b58"/>
          </g>
          <g id="Grupo_58169" data-name="Grupo 58169" transform="translate(44.996 28.77)">
            <path id="Trazado_106022" data-name="Trazado 106022" d="M173.488,277.581s1.687-3.894,5.11-2.274c3.889,1.841,1.549,13.784-6.147,11.539Z" transform="translate(-172.452 -274.912)" fill="#ad8f6c"/>
            <path id="Trazado_106023" data-name="Trazado 106023" d="M174.323,279.707s3.61-2.852,4.327-.573c.725,2.3-.131-.857-1.892.573s1.618,1.633,1.07,2.551-2.346.63-.839,1.944-1.982,2.738-3.2,1.348S174.323,279.707,174.323,279.707Z" transform="translate(-172.757 -276.036)" fill="#997b58"/>
          </g>
          <path id="Trazado_106024" data-name="Trazado 106024" d="M155.135,265.257c0,14.357-11,27.959-21.434,27.959s-21.433-13.6-21.433-27.959,11-25.327,21.433-25.327S155.135,250.9,155.135,265.257Z" transform="translate(-107.205 -234.372)" fill="#cfab81"/>
          <path id="Trazado_106025" data-name="Trazado 106025" d="M128.516,274.7v-1.541a3.049,3.049,0,0,0-3.04-3.041h0a3.05,3.05,0,0,0-3.041,3.041V274.7a2.154,2.154,0,0,1-2.158-1.4" transform="translate(-109.9 -244.529)" fill="none" stroke="#664f39" stroke-linecap="round" stroke-linejoin="round" stroke-width="1"/>
          <path id="Trazado_106026" data-name="Trazado 106026" d="M142.326,288.193s1.582,0,2.212-.1c1.814-.269.7-2.424.7-2.424s2.172,1.653,1.3,2.692c-.739.883-3.27,1.143-4.013,1.125-.137,0-.275,0-.413,0-.743.018-3.274-.242-4.013-1.125-.869-1.039,1.3-2.692,1.3-2.692s-1.11,2.155.7,2.424C140.745,288.191,142.326,288.193,142.326,288.193Z" transform="translate(-115.831 -249.763)" fill="#ad8f6c"/>
          <path id="Trazado_106027" data-name="Trazado 106027" d="M126.379,283.681c0,1.95-2.239,3.531-5,3.531s-5-1.58-5-3.531,2.239-3.53,5-3.53S126.379,281.732,126.379,283.681Z" transform="translate(-108.587 -247.905)" fill="#ad8f6c"/>
          <path id="Trazado_106028" data-name="Trazado 106028" d="M167.693,283.681c0,1.95-2.24,3.531-5,3.531s-5-1.58-5-3.531,2.24-3.53,5-3.53S167.693,281.732,167.693,283.681Z" transform="translate(-122.488 -247.905)" fill="#ad8f6c"/>
          <path id="Trazado_106029" data-name="Trazado 106029" d="M147.952,295.448a1.453,1.453,0,0,1,1.433,1.693,9.937,9.937,0,0,1-19.582,0,1.453,1.453,0,0,1,1.434-1.693Z" transform="translate(-113.099 -253.052)" fill="#ff5761"/>
          <path id="Trazado_106030" data-name="Trazado 106030" d="M141.088,307.616a9.894,9.894,0,0,0,6.866-2.766,9.908,9.908,0,0,0-13.732,0A9.9,9.9,0,0,0,141.088,307.616Z" transform="translate(-114.592 -255.286)" fill="#bf4149"/>
          <path id="Trazado_106031" data-name="Trazado 106031" d="M129.931,297.727h19.326c.046-.194.094-.387.128-.586a1.453,1.453,0,0,0-1.433-1.693H131.237a1.453,1.453,0,0,0-1.434,1.693C129.838,297.34,129.886,297.533,129.931,297.727Z" transform="translate(-113.099 -253.052)" fill="#fff"/>
          <path id="Trazado_106032" data-name="Trazado 106032" d="M156.446,274.7v-1.541a3.05,3.05,0,0,1,3.041-3.041h0a3.049,3.049,0,0,1,3.04,3.041V274.7a2.154,2.154,0,0,0,2.158-1.4" transform="translate(-122.07 -244.529)" fill="none" stroke="#664f39" stroke-linecap="round" stroke-linejoin="round" stroke-width="1"/>
          <path id="Trazado_106033" data-name="Trazado 106033" d="M129.929,265.725a5.521,5.521,0,0,0-7.955,0" transform="translate(-110.471 -242.482)" fill="none" stroke="#664f39" stroke-linecap="round" stroke-linejoin="round" stroke-width="2"/>
          <path id="Trazado_106034" data-name="Trazado 106034" d="M163.132,267a5.521,5.521,0,0,0-7.955,0" transform="translate(-121.643 -242.911)" fill="none" stroke="#664f39" stroke-linecap="round" stroke-linejoin="round" stroke-width="2"/>
          <path id="Trazado_106035" data-name="Trazado 106035" d="M157.389,254.492a4.527,4.527,0,0,0-1.278-3.477c.634-.767.7-2.332.06-3.919a4.514,4.514,0,0,0-2.492-2.756c.01-.008.023-.011.033-.019.9-.763.528-2.678-.829-4.278a4.392,4.392,0,0,0-3.32-1.812c.171-1.031-.85-2.413-2.5-3.276-1.843-.965-3.772-.912-4.337.107a1.251,1.251,0,0,0,.113-.395c.126-1.172-1.462-2.3-3.548-2.529a4.913,4.913,0,0,0-3.333.674,3.5,3.5,0,0,0-.819-.591,5.893,5.893,0,0,0-5.449,0,3.5,3.5,0,0,0-.82.591,4.913,4.913,0,0,0-3.333-.674c-2.085.224-3.674,1.356-3.548,2.529a1.247,1.247,0,0,0,.113.395c-.565-1.02-2.494-1.072-4.337-.107-1.648.863-2.667,2.245-2.5,3.276a4.391,4.391,0,0,0-3.32,1.812c-1.358,1.6-1.728,3.515-.829,4.278.01.009.023.011.033.019a4.513,4.513,0,0,0-2.491,2.756c-.636,1.588-.574,3.152.06,3.919a4.524,4.524,0,0,0-1.279,3.477c0,1.771.683,3.255,1.605,3.675a5.725,5.725,0,0,0-.54,2.519c0,2.1.955,3.8,2.135,3.8s2.135-1.7,2.135-3.8c0-1.771-.683-3.255-1.605-3.675a5.725,5.725,0,0,0,.54-2.519,4.861,4.861,0,0,0-1.061-3.279,5.138,5.138,0,0,0,1.973-2.529c.682-1.7.573-3.393-.2-4.085a5.033,5.033,0,0,0,2.776-1.794,4.54,4.54,0,0,0,1.276-3.454,5.006,5.006,0,0,0,3.266-.614c1.829-.957,2.884-2.555,2.4-3.6.489.9,2.061,1.44,3.852,1.248a5.081,5.081,0,0,0,3.014-1.257,4.935,4.935,0,0,0,3.309.705l.1-.012.1.012a4.935,4.935,0,0,0,3.309-.705,5.081,5.081,0,0,0,3.014,1.257c1.791.192,3.363-.348,3.852-1.248-.488,1.046.567,2.645,2.4,3.6a5.006,5.006,0,0,0,3.266.614,4.542,4.542,0,0,0,1.275,3.454A5.035,5.035,0,0,0,152.4,244.6c-.769.692-.878,2.383-.2,4.085a5.138,5.138,0,0,0,1.973,2.529,4.864,4.864,0,0,0-1.061,3.279,5.725,5.725,0,0,0,.54,2.519c-.922.42-1.6,1.9-1.6,3.675,0,2.1.955,3.8,2.135,3.8s2.135-1.7,2.135-3.8a5.734,5.734,0,0,0-.54-2.519C156.706,257.747,157.389,256.263,157.389,254.492Z" transform="translate(-105.583 -231.553)" fill="#664f39"/>
          <path id="Trazado_106036" data-name="Trazado 106036" d="M154.555,265.776s-2.373.945-2.261-3.63-1.131-10.168-4.805-12.274c0,0-2.691,2.431-14.367,2.431s-14.367-2.431-14.367-2.431c-3.674,2.107-4.917,7.7-4.805,12.274s-2.261,3.63-2.261,3.63-8.613-30.142,21.433-30.142S154.555,265.776,154.555,265.776Z" transform="translate(-106.625 -232.926)" fill="#664f39"/>
          <path id="Trazado_106037" data-name="Trazado 106037" d="M160.84,239.08a2.727,2.727,0,1,1-2.711-2.439A2.586,2.586,0,0,1,160.84,239.08Z" transform="translate(-121.724 -233.265)" fill="#664f39"/>
          <path id="Trazado_106038" data-name="Trazado 106038" d="M132.937,238.693a2.727,2.727,0,1,1-2.711-2.439A2.586,2.586,0,0,1,132.937,238.693Z" transform="translate(-112.335 -233.135)" fill="#664f39"/>
        </g>
      </g>
      <g id="Grupo_58177" data-name="Grupo 58177" transform="translate(176.768 123.073)">
        <path id="Trazado_106039" data-name="Trazado 106039" d="M296.077,247.142s-18.709,6.808-26.342-31.085c-11.5-57.1,26.342-54.638,26.342-54.638s37.845-2.466,26.342,54.638C314.786,253.951,296.077,247.142,296.077,247.142Z" transform="translate(-261.755 -158.603)" fill="#451a29"/>
        <path id="Trazado_106040" data-name="Trazado 106040" d="M340.8,234.611s15.812,6.351,13.107-19.036-3.33-23.906-3.33-23.906,3.5-3.182,10.5-1.75c0,0,7.467,17.845,6.671,37.138S350.361,254.6,335.67,252.811C322.658,251.227,336.605,233.906,340.8,234.611Z" transform="translate(-282.848 -168.073)" fill="#ff964f"/>
        <g id="Grupo_58172" data-name="Grupo 58172" transform="translate(58.973 0)">
          <path id="Trazado_106041" data-name="Trazado 106041" d="M354.831,177.337a81,81,0,0,0-4.674-8.38c-3.35-5.244-1.1-6.2.325-4.423s6.593,11.027,6.593,11.027Z" transform="translate(-347.933 -159.381)" fill="#f7d8a8"/>
          <path id="Trazado_106042" data-name="Trazado 106042" d="M359.25,173.2s-1.464-4.84-2.977-9.9.618-5.6,1.612-3.554,3.95,12.225,3.95,12.225Z" transform="translate(-350.402 -157.67)" fill="#f7d8a8"/>
          <path id="Trazado_106043" data-name="Trazado 106043" d="M364.8,171.994s-.628-5.018-1.265-10.258,1.555-5.42,2.189-3.232,1.832,12.716,1.832,12.716Z" transform="translate(-352.984 -157.183)" fill="#f7d8a8"/>
          <path id="Trazado_106044" data-name="Trazado 106044" d="M370.421,175.589s-.107-5.055-.2-10.334,2.1-5.231,2.51-2.99.514,12.838.514,12.838Z" transform="translate(-355.27 -158.41)" fill="#f7d8a8"/>
          <path id="Trazado_106045" data-name="Trazado 106045" d="M365.658,187.012c-4.388,2.44-6.474.768-7.628-3.141s-.449-7.875,2.9-9.681,7.278-.678,8.93,6.025S368.773,185.28,365.658,187.012Z" transform="translate(-350.997 -162.647)" fill="#f7d8a8"/>
          <path id="Trazado_106046" data-name="Trazado 106046" d="M357.144,191.613a12.736,12.736,0,0,1-5.207-2.689c-2.817-2.227-3.686-1.311-4.168-2.129s1.287-3.15,5.194-.694c1.558.979,1.388.4,1.388.4s4.286-2.318,6.142.314S360.648,191.986,357.144,191.613Z" transform="translate(-347.691 -166.545)" fill="#f7d8a8"/>
        </g>
        <path id="Trazado_106047" data-name="Trazado 106047" d="M317.155,249.384l-3.418-.827c-1.1-.267-2.217-.466-3.333-.666-11.666-2.081-9.394-14.848-9.394-14.848l-7.875,1.995-7.875-1.995s2.443,13.73-10.749,15.034-14.991,12.719-15.48,25.6c-.169,4.426-.221,9.411-.218,14.046,0,.843,0,1.674.007,2.488.038,7.736.21,42.636.21,42.636h50.737c0-.016,0-.031,0-.046.159-19.251,3.364-46.544,4.507-51.837,1.359-6.293-1.07-6.437-2.639-13.513C309.259,256.732,317.155,249.384,317.155,249.384Z" transform="translate(-258.812 -182.709)" fill="#f7d8a8"/>
        <path id="Trazado_106048" data-name="Trazado 106048" d="M297.05,241.812a14.35,14.35,0,0,0,17.9,0,16.672,16.672,0,0,1-1.074-8.769L306,235.038l-7.875-1.994A16.685,16.685,0,0,1,297.05,241.812Z" transform="translate(-271.678 -182.709)" fill="#debd87"/>
        <g id="Grupo_58173" data-name="Grupo 58173" transform="translate(0 64.659)">
          <path id="Trazado_106049" data-name="Trazado 106049" d="M317.155,256.648l-3.418-.827c-1.1-.267-2.217-.466-3.333-.666a14.408,14.408,0,0,1-2.057-.52c.331,1.287-.048,2.986-2.931,4.616-3.991,2.258-12.282,2.258-12.282,2.258s-8.291,0-12.282-2.258c-2.884-1.632-3.263-3.332-2.931-4.619a15.422,15.422,0,0,1-3.412.71c-13.191,1.3-14.991,12.719-15.48,25.6-.169,4.426-.221,9.411-.218,14.046,0,.843,0,1.674.007,2.488.038,7.736.21,42.636.21,42.636h50.737c0-.016,0-.031,0-.046.159-19.251,3.364-46.544,4.507-51.837,1.359-6.293-1.07-6.437-2.639-13.513C309.259,264,317.155,256.648,317.155,256.648Z" transform="translate(-258.812 -254.632)" fill="#ff964f"/>
        </g>
        <path id="Trazado_106050" data-name="Trazado 106050" d="M280.539,279.568a11.79,11.79,0,0,1-.209,3.533c-1.632,7.062-4,7.22-2.639,13.513,1.143,5.293,4.349,32.585,4.508,51.837,0,.016,0,.031,0,.046H278.58c.389-4.245.844-40.171-.153-43.548-1.458-4.942-3.314-9.536-2.111-14.15A88.108,88.108,0,0,1,280.539,279.568Z" transform="translate(-264.572 -198.363)" fill="#bf713b"/>
        <path id="Trazado_106051" data-name="Trazado 106051" d="M317.985,254.208c.334,1.287-.042,2.99-2.929,4.623-3.991,2.258-12.282,2.258-12.282,2.258s-8.291,0-12.282-2.258c-2.888-1.634-3.264-3.336-2.929-4.623a11.872,11.872,0,0,0,1.9-.825c-.368,1.147-.132,2.719,2.527,4.224,3.5,1.983,10.786,1.983,10.786,1.983s7.281,0,10.786-1.983c2.659-1.5,2.9-3.077,2.527-4.224A11.88,11.88,0,0,0,317.985,254.208Z" transform="translate(-268.452 -189.553)" fill="#fff"/>
        <g id="Grupo_58176" data-name="Grupo 58176" transform="translate(7.826 2.816)">
          <g id="Grupo_58174" data-name="Grupo 58174" transform="translate(44.996 26.092)">
            <path id="Trazado_106052" data-name="Trazado 106052" d="M339.457,203.419s1.687-3.894,5.11-2.274c3.889,1.841,1.549,13.784-6.147,11.539Z" transform="translate(-338.421 -200.75)" fill="#debd87"/>
            <path id="Trazado_106053" data-name="Trazado 106053" d="M340.292,205.544s3.61-2.852,4.327-.574c.725,2.3-.132-.857-1.893.574s1.618,1.633,1.07,2.551-2.346.63-.839,1.944-1.981,2.738-3.2,1.348S340.292,205.544,340.292,205.544Z" transform="translate(-338.726 -201.873)" fill="#c49f64"/>
          </g>
          <g id="Grupo_58175" data-name="Grupo 58175" transform="translate(0 26.092)">
            <path id="Trazado_106054" data-name="Trazado 106054" d="M277.566,203.419s-1.687-3.894-5.11-2.274c-3.889,1.841-1.549,13.784,6.147,11.539Z" transform="translate(-270.607 -200.75)" fill="#debd87"/>
            <path id="Trazado_106055" data-name="Trazado 106055" d="M277.972,205.544s-3.61-2.852-4.327-.574c-.725,2.3.132-.857,1.893.574s-1.618,1.633-1.07,2.551,2.346.63.839,1.944,1.981,2.738,3.2,1.348S277.972,205.544,277.972,205.544Z" transform="translate(-271.542 -201.873)" fill="#c49f64"/>
          </g>
          <path id="Trazado_106056" data-name="Trazado 106056" d="M278.237,191.753c0,14.357,11,27.959,21.433,27.959s21.433-13.6,21.433-27.959-11-24.03-21.433-24.03S278.237,177.4,278.237,191.753Z" transform="translate(-273.174 -163.545)" fill="#f7d8a8"/>
          <path id="Trazado_106057" data-name="Trazado 106057" d="M329.349,201.782a.946.946,0,0,0,1.181.091" transform="translate(-290.373 -175.006)" fill="none" stroke="#451a29" stroke-linecap="round" stroke-linejoin="round" stroke-width="1"/>
          <path id="Trazado_106058" data-name="Trazado 106058" d="M326.218,199.7a2.583,2.583,0,0,1,1.49.475,3.976,3.976,0,0,0,.33-1.619c0-1.565-.814-2.833-1.819-2.833s-1.819,1.268-1.819,2.833a3.976,3.976,0,0,0,.33,1.619A2.582,2.582,0,0,1,326.218,199.7Z" transform="translate(-288.707 -172.968)" fill="#451a29"/>
          <path id="Trazado_106059" data-name="Trazado 106059" d="M325.8,198.6c0,.383.2.693.445.693s.445-.31.445-.693-.2-.693-.445-.693S325.8,198.219,325.8,198.6Z" transform="translate(-289.178 -173.702)" fill="#fff"/>
          <path id="Trazado_106060" data-name="Trazado 106060" d="M308.3,214.031s-1.582,0-2.212-.1c-1.814-.269-.7-2.424-.7-2.424s-2.172,1.653-1.3,2.692c.739.883,3.27,1.143,4.013,1.125.137,0,.275,0,.413,0,.743.018,3.274-.242,4.013-1.125.869-1.039-1.3-2.692-1.3-2.692s1.11,2.155-.7,2.424C309.877,214.029,308.3,214.031,308.3,214.031Z" transform="translate(-281.8 -178.279)" fill="#debd87"/>
          <ellipse id="Elipse_4216" data-name="Elipse 4216" cx="5.002" cy="3.53" rx="5.002" ry="3.53" transform="translate(35.2 29.568)" fill="#f7a285"/>
          <ellipse id="Elipse_4217" data-name="Elipse 4217" cx="5.002" cy="3.53" rx="5.002" ry="3.53" transform="translate(7.787 29.568)" fill="#f7a285"/>
          <path id="Trazado_106061" data-name="Trazado 106061" d="M297.205,221.286a1.453,1.453,0,0,0-1.433,1.693,9.937,9.937,0,0,0,19.582,0,1.454,1.454,0,0,0-1.434-1.693Z" transform="translate(-279.068 -181.568)" fill="#ff5761"/>
          <ellipse id="Elipse_4218" data-name="Elipse 4218" cx="6.866" cy="2.765" rx="6.866" ry="2.765" transform="translate(19.63 44.122)" fill="#bf4149"/>
          <path id="Trazado_106062" data-name="Trazado 106062" d="M315.226,223.565H295.9c-.046-.194-.094-.387-.128-.586a1.453,1.453,0,0,1,1.433-1.693H313.92a1.454,1.454,0,0,1,1.434,1.693C315.32,223.178,315.272,223.371,315.226,223.565Z" transform="translate(-279.068 -181.568)" fill="#fff"/>
          <path id="Trazado_106063" data-name="Trazado 106063" d="M294.342,200.536v-1.541a3.05,3.05,0,0,0-3.041-3.041h0a3.049,3.049,0,0,0-3.04,3.041v1.541a2.154,2.154,0,0,1-2.158-1.4" transform="translate(-275.821 -173.045)" fill="none" stroke="#451a29" stroke-linecap="round" stroke-linejoin="round" stroke-width="1"/>
          <path id="Trazado_106064" data-name="Trazado 106064" d="M321.146,191.563a5.521,5.521,0,0,1,7.955,0" transform="translate(-287.612 -170.998)" fill="none" stroke="#000" stroke-miterlimit="10" stroke-width="2.076"/>
          <path id="Trazado_106065" data-name="Trazado 106065" d="M287.943,192.838a5.521,5.521,0,0,1,7.955,0" transform="translate(-276.44 -171.427)" fill="none" stroke="#000" stroke-miterlimit="10" stroke-width="2.076"/>
          <path id="Trazado_106066" data-name="Trazado 106066" d="M277.657,191.6s2.372.945,2.261-3.63,1.131-10.167,4.805-12.274c0,0,2.691,2.431,14.367,2.431s14.367-2.431,14.367-2.431c3.674,2.107,4.917,7.7,4.805,12.274s2.261,3.63,2.261,3.63,8.613-30.172-21.433-30.172S277.657,191.6,277.657,191.6Z" transform="translate(-272.594 -161.427)" fill="#5f2438"/>
        </g>
        <path id="Trazado_106067" data-name="Trazado 106067" d="M278.213,176.774s-6.98,11.4-4.14,33.939,5.232,24.961,14.156,27.845c0,0-7.991-.787-9.123-21.5s-.414-27.416,4.568-36.2Z" transform="translate(-263.718 -163.775)" fill="#5f2438"/>
        <path id="Trazado_106068" data-name="Trazado 106068" d="M331.415,182.141s9.872,12.224-1.533,43.742c0,0,16.644-20.606,8.228-45.3Z" transform="translate(-282.726 -165.058)" fill="#5f2438"/>
      </g>
      <g id="Grupo_58181" data-name="Grupo 58181" transform="translate(134.798 167.99)">
        <path id="Trazado_106069" data-name="Trazado 106069" d="M269.566,385.048s.529-19.034,0-32.961-2.475-26.273-16.743-27.684-11.626-16.26-11.626-16.26L232.68,310.3l-8.518-2.157s2.642,14.85-11.626,16.26-16.214,13.757-16.743,27.684,0,32.961,0,32.961Z" transform="translate(-195.558 -252.895)" fill="#f7d8a8"/>
        <path id="Trazado_106070" data-name="Trazado 106070" d="M246.642,310.3l-8.518-2.157a18.142,18.142,0,0,1-1.072,9.283,15.495,15.495,0,0,0,19.18,0,18.141,18.141,0,0,1-1.072-9.283Z" transform="translate(-209.52 -252.895)" fill="#debd87"/>
        <path id="Trazado_106071" data-name="Trazado 106071" d="M269.566,359.489c-.529-13.927-2.475-26.273-16.743-27.684a14.826,14.826,0,0,1-5.744-1.664c.4,1.241.143,2.941-2.733,4.569-3.791,2.145-11.666,2.145-11.666,2.145s-7.875,0-11.666-2.145c-2.876-1.628-3.131-3.328-2.733-4.569a14.826,14.826,0,0,1-5.745,1.664c-14.268,1.411-16.214,13.757-16.743,27.684s0,32.961,0,32.961h73.773S270.1,373.416,269.566,359.489Z" transform="translate(-195.558 -260.297)" fill="#a5d2af"/>
        <path id="Trazado_106072" data-name="Trazado 106072" d="M226.654,331.033c-.362,1.393.045,3.234,3.168,5,4.316,2.442,13.284,2.442,13.284,2.442s8.967,0,13.284-2.442c3.123-1.767,3.53-3.608,3.168-5a12.81,12.81,0,0,1-2.053-.892c.4,1.241.143,2.941-2.733,4.569-3.791,2.145-11.666,2.145-11.666,2.145s-7.875,0-11.666-2.145c-2.876-1.628-3.131-3.328-2.733-4.569A12.812,12.812,0,0,1,226.654,331.033Z" transform="translate(-205.984 -260.297)" fill="#79a683"/>
        <g id="Grupo_58180" data-name="Grupo 58180" transform="translate(8.747)">
          <g id="Grupo_58178" data-name="Grupo 58178" transform="translate(0 28.63)">
            <path id="Trazado_106073" data-name="Trazado 106073" d="M216.125,272.023s-2.018-5.841-5.629-3.4c-4.071,2.754-.8,20.073,7.155,16.887Z" transform="translate(-208.741 -268.027)" fill="#debd87"/>
            <path id="Trazado_106074" data-name="Trazado 106074" d="M216.6,275.191s-4.036-4.248-4.673-.849.09-1.275,2.063.849-1.638,2.409-1,3.754,2.533.92,1,2.832,2.238,3.946,3.46,1.949S216.6,275.191,216.6,275.191Z" transform="translate(-209.739 -269.708)" fill="#c49f64"/>
          </g>
          <g id="Grupo_58179" data-name="Grupo 58179" transform="translate(47.839 28.63)">
            <path id="Trazado_106075" data-name="Trazado 106075" d="M282.366,272.023s2.018-5.841,5.629-3.4c4.07,2.754.8,20.073-7.155,16.887Z" transform="translate(-280.84 -268.027)" fill="#debd87"/>
            <path id="Trazado_106076" data-name="Trazado 106076" d="M283.3,275.191s4.036-4.248,4.673-.849-.09-1.275-2.063.849,1.638,2.409,1,3.754-2.533.92-1,2.832-2.238,3.946-3.46,1.949S283.3,275.191,283.3,275.191Z" transform="translate(-281.251 -269.708)" fill="#c49f64"/>
          </g>
          <path id="Trazado_106077" data-name="Trazado 106077" d="M262.931,263.484c0,15.528-11.893,30.24-23.182,30.24s-23.182-14.712-23.182-30.24,11.893-25.991,23.182-25.991S262.931,247.956,262.931,263.484Z" transform="translate(-211.374 -229.123)" fill="#f7d8a8"/>
          <path id="Trazado_106078" data-name="Trazado 106078" d="M249.078,286.587a20.36,20.36,0,0,0,2.393-.129c1.962-.366.762-3.288.762-3.288s2.349,2.242,1.409,3.651c-.8,1.2-3.537,1.549-4.341,1.525q-.223-.006-.447,0c-.8.024-3.541-.328-4.34-1.525-.94-1.409,1.409-3.651,1.409-3.651s-1.2,2.923.762,3.288A20.354,20.354,0,0,0,249.078,286.587Z" transform="translate(-220.703 -244.492)" fill="#debd87"/>
          <path id="Trazado_106079" data-name="Trazado 106079" d="M231.829,282.7c0,2.109-2.422,3.819-5.41,3.819s-5.41-1.709-5.41-3.819,2.423-3.818,5.41-3.818S231.829,280.59,231.829,282.7Z" transform="translate(-212.869 -243.049)" fill="#f7a285"/>
          <path id="Trazado_106080" data-name="Trazado 106080" d="M276.514,282.7c0,2.109-2.423,3.819-5.41,3.819s-5.411-1.709-5.411-3.819,2.422-3.818,5.411-3.818S276.514,280.59,276.514,282.7Z" transform="translate(-227.904 -243.049)" fill="#f7a285"/>
          <path id="Trazado_106081" data-name="Trazado 106081" d="M255.162,297.271a1.572,1.572,0,0,1,1.551,1.831,10.747,10.747,0,0,1-21.18,0,1.572,1.572,0,0,1,1.551-1.831Z" transform="translate(-217.749 -249.237)" fill="#ff5761"/>
          <ellipse id="Elipse_4219" data-name="Elipse 4219" cx="7.426" cy="2.991" rx="7.426" ry="2.991" transform="translate(20.949 52.797)" fill="#bf4149"/>
          <path id="Trazado_106082" data-name="Trazado 106082" d="M241.229,309.776a10.719,10.719,0,0,0,13.636,0Z" transform="translate(-219.673 -253.445)" fill="#fff"/>
          <path id="Trazado_106083" data-name="Trazado 106083" d="M235.671,299.736h20.9c.05-.21.1-.419.139-.634a1.572,1.572,0,0,0-1.551-1.831H237.084a1.572,1.572,0,0,0-1.551,1.831C235.571,299.317,235.622,299.526,235.671,299.736Z" transform="translate(-217.749 -249.237)" fill="#fff"/>
          <path id="Trazado_106084" data-name="Trazado 106084" d="M228.593,272.984v-1.667a3.3,3.3,0,0,1,3.288-3.288h0a3.3,3.3,0,0,1,3.288,3.288v1.667" transform="translate(-215.421 -239.397)" fill="none" stroke="#806842" stroke-linecap="round" stroke-linejoin="round" stroke-width="1"/>
          <path id="Trazado_106085" data-name="Trazado 106085" d="M271.082,272.984v-1.667a3.3,3.3,0,0,0-3.288-3.288h0a3.3,3.3,0,0,0-3.288,3.288v1.667" transform="translate(-227.505 -239.397)" fill="none" stroke="#806842" stroke-linecap="round" stroke-linejoin="round" stroke-width="1"/>
          <path id="Trazado_106086" data-name="Trazado 106086" d="M235.67,263.278a5.972,5.972,0,0,0-8.6,0" transform="translate(-214.907 -237.183)" fill="none" stroke="#fa0" stroke-miterlimit="10" stroke-width="2"/>
          <path id="Trazado_106087" data-name="Trazado 106087" d="M271.582,264.657a5.972,5.972,0,0,0-8.6,0" transform="translate(-226.99 -237.647)" fill="none" stroke="#fa0" stroke-miterlimit="10" stroke-width="2"/>
          <path id="Trazado_106088" data-name="Trazado 106088" d="M252.663,234.528c4.428-.289,6.187.965,6.187.965a3.808,3.808,0,0,0-3.185.772,8.834,8.834,0,0,1,6.092,1.833c-2.5-.193-3.1,1.544-3.1,1.544,3.86,1.255,4.632,3.184,4.632,3.184a4.3,4.3,0,0,0-2.269.483c3.135,1.737,3.225,3.86,3.225,3.86a3.194,3.194,0,0,0-2.488,0c3.68,2.7,3.558,5.887,3.558,5.887a5.416,5.416,0,0,0-3.088-2.084c1.544,6.215-1.728,13.956-1.728,13.956a43.21,43.21,0,0,0-1.456-11,3.554,3.554,0,0,1-2.509,2.061s2.279-6.5-3.493-9.588c0,0-4.97-1.159-7.591,1.544,0,0-.338-3.86,1.8-5.115,0,0-5.773-.385-7.51,3.281a7.7,7.7,0,0,1,.869-5.114s-5.307.289-5.6,2.895a5.413,5.413,0,0,1-.965-4.921s-3.451,1.93-3.028,7.045c0,0-4.632-.772-5.1-3.57,0,0-.628,3.474-2.911,4.825,0,0,1.028-2.316,0-3.667,0,0-1.317,4.686-3.73,6.107,0,0,1.135-2.07-.386-2.344,0,0-2.4,3.957-.524,7.528,0,0-1.717,1.2-2.371-.386,0,0-.34,4.485,1.6,5.79,0,0-1.412,1.886-2.18.415a16.289,16.289,0,0,0,0,5.434,23.966,23.966,0,0,1-1.93-16.086,3.936,3.936,0,0,0-2.606,1.83,11.1,11.1,0,0,1,3.609-6.455s-2.547-.1-3.609.965c0,0,.482-2.413,4.825-4.922a4.078,4.078,0,0,0-4.283-.965s.939-2.8,6.134-3.185a3.141,3.141,0,0,0-2.43-4.079,6.036,6.036,0,0,1,5.887,0s1.975-3.448.6-5.572c0,0,3.9.386,4.3,3.763,0,0,.575-4.149,3.288-5.5a4.3,4.3,0,0,0,1.014,3.86,7.3,7.3,0,0,1,5.945-4.922,4.476,4.476,0,0,0-.965,4.44s1.93-4.247,7.816-3.474c0,0-2.316.579-1.736,3.86a10.741,10.741,0,0,1,8.466-2.219s-2.936,1.448-3.288,4.247c0,0,2.156-2.992,9.49-1.159C255.954,230.572,252.266,232.406,252.663,234.528Z" transform="translate(-209.463 -224.878)" fill="#fa0"/>
        </g>
        <path id="Trazado_106089" data-name="Trazado 106089" d="M219.855,401.169c0-13.638-.608-24.693-1.359-24.693s-1.359,11.056-1.359,24.693c0,2.385.019,4.689.054,6.871h2.61C219.836,405.859,219.855,403.555,219.855,401.169Z" transform="translate(-202.819 -275.888)" fill="#79a683"/>
        <path id="Trazado_106090" data-name="Trazado 106090" d="M285.29,401.169c0-13.638-.608-24.693-1.359-24.693s-1.359,11.056-1.359,24.693c0,2.385.019,4.689.054,6.871h2.61C285.271,405.859,285.29,403.555,285.29,401.169Z" transform="translate(-224.836 -275.888)" fill="#79a683"/>
      </g>
      <g id="Grupo_58185" data-name="Grupo 58185" transform="translate(208.495 170.571)">
        <path id="Trazado_106091" data-name="Trazado 106091" d="M380.636,385.048s.529-19.034,0-32.961-2.476-26.273-16.743-27.684-11.626-16.26-11.626-16.26l-8.518,2.157-8.518-2.157s2.642,14.85-11.626,16.26-16.214,13.757-16.743,27.684,0,32.961,0,32.961Z" transform="translate(-306.628 -255.477)" fill="#ffc78f"/>
        <path id="Trazado_106092" data-name="Trazado 106092" d="M355.683,310.3l-8.518-2.157s1.706,9.621-5.072,14.109c4.3,3.874,9.307,4.389,13.59,4.389s9.285-.515,13.59-4.389c-6.777-4.488-5.072-14.109-5.072-14.109Z" transform="translate(-318.561 -255.477)" fill="#d6a778"/>
        <path id="Trazado_106093" data-name="Trazado 106093" d="M380.636,359.489c-.529-13.927-2.476-26.273-16.743-27.684a14.829,14.829,0,0,1-5.745-1.664c.4,1.241.143,2.941-2.733,4.569-3.791,2.145-11.666,2.145-11.666,2.145s-7.875,0-11.666-2.145c-2.876-1.628-3.131-3.328-2.733-4.569a14.826,14.826,0,0,1-5.745,1.664c-14.268,1.411-16.214,13.757-16.743,27.684s0,32.961,0,32.961h73.773S381.165,373.416,380.636,359.489Z" transform="translate(-306.628 -262.878)" fill="#ff5761"/>
        <path id="Trazado_106094" data-name="Trazado 106094" d="M349.682,365.318a12.325,12.325,0,0,1,5.216-10.069,11.994,11.994,0,1,0,0,20.138A12.326,12.326,0,0,1,349.682,365.318Z" transform="translate(-316.646 -270.679)" fill="#fff"/>
        <circle id="Elipse_4220" data-name="Elipse 4220" cx="9.617" cy="9.617" r="9.617" transform="translate(35.768 85.022)" fill="#fff"/>
        <path id="Trazado_106095" data-name="Trazado 106095" d="M306.863,403.779H322.3V370.213a20.319,20.319,0,0,0-14.985-6.394c-.23,2.255-.366,4.6-.457,7-.173,4.538-.232,9.616-.235,14.4,0,.269,0,.539,0,.807C306.635,395.593,306.863,403.779,306.863,403.779Z" transform="translate(-306.628 -274.207)" fill="#ad3b42"/>
        <path id="Trazado_106096" data-name="Trazado 106096" d="M322.3,373.662a22.108,22.108,0,0,0-15.227-5.53c-.093,1.356-.161,2.736-.214,4.134-.529,13.927,0,32.961,0,32.961H322.3Z" transform="translate(-306.628 -275.655)" fill="#ffc78f"/>
        <path id="Trazado_106097" data-name="Trazado 106097" d="M410.146,363.813a20.4,20.4,0,0,0-14.457,6.4V403.78H410.6s.227-8.187.235-17.75c0-.267,0-.538,0-.807,0-4.788-.062-9.867-.234-14.4C410.512,368.42,410.377,366.07,410.146,363.813Z" transform="translate(-336.595 -274.208)" fill="#ad3b42"/>
        <path id="Trazado_106098" data-name="Trazado 106098" d="M395.689,405.227H410.6s.529-19.034,0-32.961c-.054-1.4-.123-2.79-.216-4.152a22.172,22.172,0,0,0-14.7,5.548Z" transform="translate(-336.595 -275.655)" fill="#ffc78f"/>
        <path id="Trazado_106099" data-name="Trazado 106099" d="M337.723,331.033c-.362,1.393.045,3.234,3.168,5,4.316,2.442,13.284,2.442,13.284,2.442s8.967,0,13.284-2.442c3.123-1.767,3.531-3.608,3.169-5a12.8,12.8,0,0,1-2.054-.892c.4,1.241.143,2.941-2.733,4.569-3.791,2.145-11.666,2.145-11.666,2.145s-7.875,0-11.666-2.145c-2.876-1.628-3.131-3.328-2.733-4.569A12.786,12.786,0,0,1,337.723,331.033Z" transform="translate(-317.054 -262.878)" fill="#ad3b42"/>
        <g id="Grupo_58184" data-name="Grupo 58184" transform="translate(8.747)">
          <g id="Grupo_58182" data-name="Grupo 58182" transform="translate(0 26.049)">
            <path id="Trazado_106100" data-name="Trazado 106100" d="M327.195,272.023s-2.018-5.841-5.629-3.4c-4.07,2.754-.8,20.073,7.155,16.887Z" transform="translate(-319.811 -268.027)" fill="#d6a778"/>
            <path id="Trazado_106101" data-name="Trazado 106101" d="M327.672,275.191s-4.036-4.248-4.673-.849.09-1.275,2.063.849-1.638,2.409-1,3.754,2.533.92,1,2.832,2.238,3.946,3.46,1.949S327.672,275.191,327.672,275.191Z" transform="translate(-320.808 -269.708)" fill="#ad8761"/>
          </g>
          <g id="Grupo_58183" data-name="Grupo 58183" transform="translate(47.839 26.049)">
            <path id="Trazado_106102" data-name="Trazado 106102" d="M393.435,272.023s2.018-5.841,5.629-3.4c4.071,2.754.8,20.073-7.155,16.887Z" transform="translate(-391.909 -268.027)" fill="#d6a778"/>
            <path id="Trazado_106103" data-name="Trazado 106103" d="M394.366,275.191s4.036-4.248,4.673-.849-.09-1.275-2.063.849,1.638,2.409,1,3.754-2.533.92-1,2.832-2.238,3.946-3.46,1.949S394.366,275.191,394.366,275.191Z" transform="translate(-392.32 -269.708)" fill="#ad8761"/>
          </g>
          <path id="Trazado_106104" data-name="Trazado 106104" d="M374,263.484c0,15.528-11.893,30.24-23.182,30.24s-23.182-14.712-23.182-30.24,11.893-25.991,23.182-25.991S374,247.956,374,263.484Z" transform="translate(-322.444 -231.704)" fill="#ffc78f"/>
          <path id="Trazado_106105" data-name="Trazado 106105" d="M329.111,258.133s-2.744-12.754,3.616-17.88c0,0,2.721-11.7,18.951-11.482s25.583,14.2,25,26.415c0,0-11.47,4.961-38.66-10.085,0,0-8.092,6.248-7.724,15.392Z" transform="translate(-322.742 -228.769)" fill="#664f39"/>
          <path id="Trazado_106106" data-name="Trazado 106106" d="M342.9,282.7c0,2.109-2.423,3.819-5.411,3.819s-5.41-1.709-5.41-3.819,2.423-3.818,5.41-3.818S342.9,280.59,342.9,282.7Z" transform="translate(-323.938 -245.63)" fill="#faa371"/>
          <path id="Trazado_106107" data-name="Trazado 106107" d="M387.584,282.7c0,2.109-2.423,3.819-5.41,3.819s-5.41-1.709-5.41-3.819,2.422-3.818,5.41-3.818S387.584,280.59,387.584,282.7Z" transform="translate(-338.974 -245.63)" fill="#faa371"/>
          <path id="Trazado_106108" data-name="Trazado 106108" d="M373.172,267.383s3.022,7.262-1.465,24.041-13.809,18.249-21.061,18.249-16.573-1.47-21.061-18.249-1.465-24.041-1.465-24.041,1.79-.218,1.709,6.1,10.918,8.591,20.817,8.591,19.425-2.365,20.235-7.619S373.172,267.383,373.172,267.383Z" transform="translate(-322.272 -241.761)" fill="#664f39"/>
          <path id="Trazado_106109" data-name="Trazado 106109" d="M360.147,287.053a20.252,20.252,0,0,0,2.393-.13c1.962-.365.762-3.288.762-3.288s2.349,2.242,1.409,3.651c-.8,1.2-3.537,1.55-4.34,1.526q-.224-.007-.447,0c-.8.024-3.542-.328-4.341-1.526-.94-1.409,1.409-3.651,1.409-3.651s-1.2,2.923.762,3.288A20.259,20.259,0,0,0,360.147,287.053Z" transform="translate(-331.773 -247.23)" fill="#d6a778"/>
          <path id="Trazado_106110" data-name="Trazado 106110" d="M366.231,297.271a1.572,1.572,0,0,1,1.551,1.831,10.747,10.747,0,0,1-21.18,0,1.572,1.572,0,0,1,1.551-1.831Z" transform="translate(-328.818 -251.818)" fill="#ff5761"/>
          <path id="Trazado_106111" data-name="Trazado 106111" d="M358.808,310.432a10.7,10.7,0,0,0,7.426-2.991,10.716,10.716,0,0,0-14.852,0A10.7,10.7,0,0,0,358.808,310.432Z" transform="translate(-330.434 -254.234)" fill="#bf4149"/>
          <path id="Trazado_106112" data-name="Trazado 106112" d="M346.741,299.736h20.9c.049-.21.1-.419.138-.634a1.572,1.572,0,0,0-1.551-1.831H348.153A1.572,1.572,0,0,0,346.6,299.1C346.64,299.317,346.691,299.526,346.741,299.736Z" transform="translate(-328.818 -251.818)" fill="#fff"/>
          <path id="Trazado_106113" data-name="Trazado 106113" d="M346.738,263.278a5.972,5.972,0,0,0-8.6,0" transform="translate(-325.976 -239.765)" fill="none" stroke="#664f39" stroke-linecap="round" stroke-linejoin="round" stroke-width="2"/>
          <path id="Trazado_106114" data-name="Trazado 106114" d="M341.877,270.544c0,1.565.814,2.833,1.819,2.833s1.819-1.268,1.819-2.833-.815-2.833-1.819-2.833S341.877,268.98,341.877,270.544Z" transform="translate(-327.236 -241.872)" fill="#664f39"/>
          <path id="Trazado_106115" data-name="Trazado 106115" d="M343.278,270.586c0,.382.2.692.445.692s.445-.31.445-.692-.2-.693-.445-.693S343.278,270.2,343.278,270.586Z" transform="translate(-327.707 -242.606)" fill="#fff"/>
          <ellipse id="Elipse_4221" data-name="Elipse 4221" cx="1.819" cy="2.832" rx="1.819" ry="2.832" transform="translate(38.47 25.839)" fill="#664f39"/>
          <path id="Trazado_106116" data-name="Trazado 106116" d="M379.19,270.586c0,.382.2.692.445.692s.445-.31.445-.692-.2-.693-.445-.693S379.19,270.2,379.19,270.586Z" transform="translate(-339.791 -242.606)" fill="#fff"/>
        </g>
        <path id="Trazado_106117" data-name="Trazado 106117" d="M330.924,401.169c0-13.638-.608-24.693-1.359-24.693s-1.359,11.056-1.359,24.693c0,2.385.019,4.689.054,6.871h2.61C330.905,405.859,330.924,403.555,330.924,401.169Z" transform="translate(-313.888 -278.469)" fill="#ad3b42"/>
        <path id="Trazado_106118" data-name="Trazado 106118" d="M396.359,401.169c0-13.638-.608-24.693-1.359-24.693s-1.359,11.056-1.359,24.693c0,2.385.019,4.689.054,6.871h2.61C396.34,405.859,396.359,403.555,396.359,401.169Z" transform="translate(-335.906 -278.469)" fill="#ad3b42"/>
      </g>
      <g id="Grupo_58186" data-name="Grupo 58186" transform="translate(64.666 55.81)">
        <path id="Trazado_106119" data-name="Trazado 106119" d="M145.033,112.02l-15.9,12.568,22.527,16.658Z" transform="translate(-103.074 -74.723)" fill="#00bfbd"/>
        <circle id="Elipse_4222" data-name="Elipse 4222" cx="29.413" cy="29.413" r="29.413" fill="#00bfbd"/>
        <path id="Trazado_106134" data-name="Trazado 106134" d="M-17.358-4.84a.632.632,0,0,1-.46-.187.617.617,0,0,1-.19-.457.617.617,0,0,1,.19-.457.632.632,0,0,1,.46-.187.635.635,0,0,1,.457.188.612.612,0,0,1,.193.457.612.612,0,0,1-.193.457A.635.635,0,0,1-17.358-4.84Zm.516,7.219h-1.008l.111-6.035h.785ZM-8.235,0H-9.22V-3.832h-4.348V0h-.984V-8.4h.984v3.686H-9.22V-8.4h.984Zm5.59.141A3.688,3.688,0,0,1-5.508-1.037,4.368,4.368,0,0,1-6.583-4.1a4.628,4.628,0,0,1,1.1-3.234A3.827,3.827,0,0,1-2.5-8.543,3.605,3.605,0,0,1,.3-7.371,4.384,4.384,0,0,1,1.362-4.307,4.644,4.644,0,0,1,.272-1.055,3.756,3.756,0,0,1-2.646.141Zm.07-7.793a2.709,2.709,0,0,0-2.15.955,3.7,3.7,0,0,0-.826,2.508,3.723,3.723,0,0,0,.806,2.5,2.628,2.628,0,0,0,2.1.946,2.759,2.759,0,0,0,2.18-.9,3.688,3.688,0,0,0,.8-2.525A3.853,3.853,0,0,0-.442-6.744,2.652,2.652,0,0,0-2.575-7.652ZM7.374,0H3.015V-8.4H4V-.891H7.374Zm8.145,0h-1.09l-.891-2.355H9.976L9.138,0h-1.1l3.223-8.4h1.02Zm-2.3-3.24L11.9-6.82a3.428,3.428,0,0,1-.129-.562h-.023a3.138,3.138,0,0,1-.135.563L10.3-3.24ZM17.851-8.4l-.111,6.035h-.791L16.843-8.4ZM17.358.105a.632.632,0,0,1-.46-.187.617.617,0,0,1-.19-.457A.627.627,0,0,1,16.9-1a.627.627,0,0,1,.46-.19.63.63,0,0,1,.457.19.622.622,0,0,1,.193.46.612.612,0,0,1-.193.457A.635.635,0,0,1,17.358.105Z" transform="translate(28.357 34.555)" fill="#fff"/>
      </g>
      <g id="Grupo_58187" data-name="Grupo 58187" transform="translate(266.23 127.23)">
        <path id="Trazado_106120" data-name="Trazado 106120" d="M411.035,216.776,404.751,244.5l21.372-15.8Z" transform="translate(-397.379 -181.392)" fill="#ff5761"/>
        <circle id="Elipse_4223" data-name="Elipse 4223" cx="27.904" cy="27.904" r="27.904" fill="#ff5761"/>
        <path id="Trazado_106132" data-name="Trazado 106132" d="M-9.885-.41a5.749,5.749,0,0,1-2.707.574,4.366,4.366,0,0,1-3.35-1.347A4.969,4.969,0,0,1-17.2-4.717a5.208,5.208,0,0,1,1.415-3.8A4.8,4.8,0,0,1-12.2-9.967a5.754,5.754,0,0,1,2.311.4V-8.34a4.686,4.686,0,0,0-2.324-.588A3.566,3.566,0,0,0-14.947-7.8,4.249,4.249,0,0,0-16-4.785a4.043,4.043,0,0,0,.981,2.854A3.338,3.338,0,0,0-12.441-.868a4.828,4.828,0,0,0,2.557-.656ZM-6.74,0H-7.889V-9.8H-6.74ZM3.425,0H2.153L1.114-2.748H-3.042L-4.02,0H-5.3l3.76-9.8H-.349ZM.738-3.78-.8-7.957a4,4,0,0,1-.15-.656H-.978a3.661,3.661,0,0,1-.157.656L-2.659-3.78ZM8.545.164A4.3,4.3,0,0,1,5.206-1.21,5.1,5.1,0,0,1,3.951-4.785,5.4,5.4,0,0,1,5.229-8.559,4.465,4.465,0,0,1,8.709-9.967,4.206,4.206,0,0,1,11.98-8.6a5.115,5.115,0,0,1,1.241,3.575A5.417,5.417,0,0,1,11.949-1.23,4.382,4.382,0,0,1,8.545.164Zm.082-9.092A3.16,3.16,0,0,0,6.118-7.813a4.314,4.314,0,0,0-.964,2.926,4.344,4.344,0,0,0,.94,2.916,3.065,3.065,0,0,0,2.451,1.1,3.218,3.218,0,0,0,2.543-1.053,4.3,4.3,0,0,0,.93-2.946,4.5,4.5,0,0,0-.9-3A3.094,3.094,0,0,0,8.627-8.928Zm7.8-.875L16.3-2.762h-.923L15.251-9.8ZM15.853.123A.737.737,0,0,1,15.316-.1a.72.72,0,0,1-.222-.533.731.731,0,0,1,.222-.537.731.731,0,0,1,.537-.222.735.735,0,0,1,.533.222.726.726,0,0,1,.226.537.715.715,0,0,1-.226.533A.74.74,0,0,1,15.853.123Z" transform="translate(26.663 33.451)" fill="#fff"/>
      </g>
      <g id="Grupo_58188" data-name="Grupo 58188" transform="translate(14.983 142.697)">
        <path id="Trazado_106121" data-name="Trazado 106121" d="M77.836,218.795l-10.05,3.523S64.045,243.938,88.1,255C88.1,255,75.782,246.375,77.836,218.795Z" transform="translate(-32.679 -197.538)" fill="#a5d2af"/>
        <rect id="Rect치ngulo_12730" data-name="Rect치ngulo 12730" width="62.397" height="43.529" rx="13.913" transform="translate(0 0)" fill="#a5d2af"/>
        <path id="Trazado_106135" data-name="Trazado 106135" d="M-20.573,0V-6.3h1.793a1.96,1.96,0,0,1,1.3.4A1.292,1.292,0,0,1-17-4.86a1.533,1.533,0,0,1-.29.932,1.564,1.564,0,0,1-.8.563v.018a1.6,1.6,0,0,1,1.02.481,1.48,1.48,0,0,1,.382,1.057,1.648,1.648,0,0,1-.58,1.31,2.159,2.159,0,0,1-1.463.5Zm.738-5.634V-3.6h.756a1.435,1.435,0,0,0,.954-.292,1.018,1.018,0,0,0,.347-.824q0-.918-1.208-.918Zm0,2.7V-.668h1a1.5,1.5,0,0,0,1.009-.308,1.054,1.054,0,0,0,.358-.844q0-1.116-1.521-1.116ZM-12.874.105a2.766,2.766,0,0,1-2.147-.883,3.276,3.276,0,0,1-.806-2.3A3.471,3.471,0,0,1-15.005-5.5a2.87,2.87,0,0,1,2.237-.905,2.7,2.7,0,0,1,2.1.879,3.288,3.288,0,0,1,.8,2.3,3.483,3.483,0,0,1-.817,2.439A2.817,2.817,0,0,1-12.874.105Zm.053-5.845a2.032,2.032,0,0,0-1.613.716,2.773,2.773,0,0,0-.62,1.881,2.792,2.792,0,0,0,.6,1.874,1.971,1.971,0,0,0,1.575.71,2.069,2.069,0,0,0,1.635-.677,2.766,2.766,0,0,0,.6-1.894,2.89,2.89,0,0,0-.58-1.929A1.989,1.989,0,0,0-12.821-5.739ZM-3.549,0h-.905L-7.7-5.023a2.1,2.1,0,0,1-.2-.4h-.026a6.488,6.488,0,0,1,.035.866V0h-.738V-6.3h.958l3.155,4.944q.2.308.255.422h.018a6.667,6.667,0,0,1-.044-.927V-6.3h.738ZM-.283-2.259A2.817,2.817,0,0,1-.758-.516a1.517,1.517,0,0,1-1.27.622A1.5,1.5,0,0,1-2.635,0V-.729a1.026,1.026,0,0,0,.615.171q1,0,1-1.692V-6.3h.738ZM3.856.105A2.766,2.766,0,0,1,1.709-.778,3.276,3.276,0,0,1,.9-3.076,3.471,3.471,0,0,1,1.725-5.5a2.87,2.87,0,0,1,2.237-.905,2.7,2.7,0,0,1,2.1.879,3.288,3.288,0,0,1,.8,2.3A3.483,3.483,0,0,1,6.045-.791,2.817,2.817,0,0,1,3.856.105Zm.053-5.845A2.032,2.032,0,0,0,2.3-5.023a2.773,2.773,0,0,0-.62,1.881,2.792,2.792,0,0,0,.6,1.874,1.971,1.971,0,0,0,1.575.71,2.069,2.069,0,0,0,1.635-.677,2.766,2.766,0,0,0,.6-1.894,2.89,2.89,0,0,0-.58-1.929A1.989,1.989,0,0,0,3.909-5.739Zm8.8,3.19q0,2.654-2.4,2.654-2.294,0-2.294-2.553V-6.3H8.76V-2.5Q8.76-.558,10.4-.558q1.578,0,1.578-1.872V-6.3h.738ZM18.8,0h-.879L16.868-1.767a3.848,3.848,0,0,0-.281-.42,1.6,1.6,0,0,0-.279-.283A.967.967,0,0,0,16-2.63a1.265,1.265,0,0,0-.371-.051h-.606V0h-.738V-6.3h1.881a2.68,2.68,0,0,1,.762.1,1.706,1.706,0,0,1,.606.314,1.46,1.46,0,0,1,.4.525,1.741,1.741,0,0,1,.145.736,1.772,1.772,0,0,1-.1.6,1.578,1.578,0,0,1-.281.49,1.7,1.7,0,0,1-.439.367,2.243,2.243,0,0,1-.578.235v.018a1.329,1.329,0,0,1,.275.16,1.512,1.512,0,0,1,.222.213,2.823,2.823,0,0,1,.209.279q.1.156.231.363ZM15.023-5.634v2.285h1a1.52,1.52,0,0,0,.512-.083,1.185,1.185,0,0,0,.406-.24,1.086,1.086,0,0,0,.268-.382,1.28,1.28,0,0,0,.1-.508.988.988,0,0,0-.327-.789,1.406,1.406,0,0,0-.947-.283ZM20.49-6.3l-.083,4.526h-.593L19.734-6.3ZM20.12.079a.474.474,0,0,1-.345-.141A.463.463,0,0,1,19.633-.4a.47.47,0,0,1,.143-.345.47.47,0,0,1,.345-.143.472.472,0,0,1,.343.143.466.466,0,0,1,.145.345.459.459,0,0,1-.145.343A.476.476,0,0,1,20.12.079Z" transform="translate(29.321 24.793)" fill="#fff"/>
      </g>
      <g id="Grupo_58190" data-name="Grupo 58190" transform="translate(221.728 61.05)">
        <path id="Trazado_106122" data-name="Trazado 106122" d="M347.822,121.789s4.246,11.307-8.887,25.392c2.081-2.383,19.307-2.9,22.52-21.8Z" transform="translate(-330.732 -83.25)" fill="#ff7136"/>
        <rect id="Rect치ngulo_12731" data-name="Rect치ngulo 12731" width="67.872" height="46.482" rx="13.826" transform="translate(0)" fill="#ff7136"/>
        <g id="Grupo_58189" data-name="Grupo 58189" transform="translate(13.345 13.312)">
          <path id="Trazado_106123" data-name="Trazado 106123" d="M353.517,84.025l-1.444-.189c-.784,5.98-5.341,11.4-5.388,11.453l1.109.944a27.318,27.318,0,0,0,2.028-2.819v11.3h1.456V90.859A21.6,21.6,0,0,0,353.517,84.025Z" transform="translate(-346.685 -83.792)" fill="#fff"/>
          <path id="Trazado_106124" data-name="Trazado 106124" d="M362.137,84l-1.455-.072A14.251,14.251,0,0,1,357,93l.5.529.5.53a13.6,13.6,0,0,0,2.7-4.052h3.065l0,13.315c-.111.07-.617.3-2.222-.015l-.277,1.43a8.982,8.982,0,0,0,1.684.186,2.636,2.636,0,0,0,1.811-.533,1.282,1.282,0,0,0,.458-.985v-13.4h4.582a10.844,10.844,0,0,1-.792,2.736l1.249.749a15.117,15.117,0,0,0,1.125-4.108l.123-.833H361.271A16.689,16.689,0,0,0,362.137,84Z" transform="translate(-350.155 -83.821)" fill="#fff"/>
          <path id="Trazado_106125" data-name="Trazado 106125" d="M359.908,98.329c-.191,3.057-3.042,7.419-3.071,7.463l1.217.8c.125-.191,3.092-4.728,3.308-8.174Z" transform="translate(-350.101 -88.668)" fill="#fff"/>
          <path id="Trazado_106126" data-name="Trazado 106126" d="M372.153,98.577c.8,1.383,2.886,5.42,2.886,7.453H376.5c0-2.838-2.956-7.967-3.082-8.184Z" transform="translate(-355.254 -88.506)" fill="#fff"/>
          <path id="Trazado_106127" data-name="Trazado 106127" d="M387.8,98.764a20.81,20.81,0,0,0,2.014-9.583l-.041-.685H385.5c.5-2.374.871-4.26.907-4.449l-1.429-.279c-.01.048-.419,2.141-.969,4.728h-2.534v1.456H383.7a66.444,66.444,0,0,1-2.069,7.971l1.342.567c.114-.271.24-.63.372-1.053.825.522,1.713,1.117,2.548,1.72a12.347,12.347,0,0,1-4.369,4.353l.733,1.259a13.866,13.866,0,0,0,4.826-4.718,7.259,7.259,0,0,1,2.141,2.192l1.381-.461A8.719,8.719,0,0,0,387.8,98.764Zm-4.04-2.783c.468-1.739.979-3.966,1.427-6.028h3.179a19.984,19.984,0,0,1-1.784,7.9C385.478,97.065,384.417,96.388,383.761,95.981Z" transform="translate(-358.392 -83.769)" fill="#fff"/>
          <path id="Trazado_106128" data-name="Trazado 106128" d="M400.729,92.1a32.719,32.719,0,0,0,5.041-5.251l.918-1.176H394.806v1.457h8.856a21.289,21.289,0,0,1-4.021,3.936l-.368.21v3.2h-5.085v1.456h5.085v7.7l0,.141a6.38,6.38,0,0,1-2.9.282l-.057,1.456c.273.011.534.016.781.016,1.955,0,3.077-.338,3.5-1.048a1.213,1.213,0,0,0,.125-.982v-7.56h5.29V94.478h-5.29Z" transform="translate(-362.669 -84.409)" fill="#fff"/>
        </g>
      </g>
      <g id="Grupo_58191" data-name="Grupo 58191" transform="translate(145.139 62.935)">
        <path id="Trazado_106129" data-name="Trazado 106129" d="M254.166,169.893c-.3-1.07-7-44.9-7-44.9H262.5Z" transform="translate(-223.263 -86.214)" fill="#fa0"/>
        <ellipse id="Elipse_4224" data-name="Elipse 4224" cx="31.951" cy="23.387" rx="31.951" ry="23.387" transform="translate(0)" fill="#fa0"/>
        <path id="Trazado_106133" data-name="Trazado 106133" d="M-.3,0H-2.35V-7.983h-9.058V0h-2.051V-17.5h2.051v7.678H-2.35V-17.5H-.3ZM6.342,0H4.291V-17.5H6.342Zm6.885-17.5L12.994-4.932H11.346L11.127-17.5ZM12.2.22a1.316,1.316,0,0,1-.958-.391,1.286,1.286,0,0,1-.4-.952,1.306,1.306,0,0,1,.4-.958,1.306,1.306,0,0,1,.958-.4,1.312,1.312,0,0,1,.952.4,1.3,1.3,0,0,1,.4.958,1.276,1.276,0,0,1-.4.952A1.322,1.322,0,0,1,12.2.22Z" transform="translate(29.646 32.979)" fill="#fff"/>
      </g>
    </g>
  </g>
</svg>
