<svg xmlns="http://www.w3.org/2000/svg" width="55.502" height="53.83" viewBox="0 0 55.502 53.83">
  <g id="airport" transform="translate(0 -7.715)">
    <path id="Trazado_105958" data-name="Trazado 105958" d="M55.061,28.194a2.048,2.048,0,0,0-1.619-.787H49.37l2.14-8.824a2.218,2.218,0,0,0-2.155-2.74H41.64V13.989h1.053a.833.833,0,1,0,0-1.666H38.922a.833.833,0,0,0,0,1.666h1.053v1.854H31.883a2.218,2.218,0,0,0-2.155,2.74l2.14,8.824H27.786a2.06,2.06,0,0,0-2,2.546l2.209,9.11a2.054,2.054,0,0,0,1.8,1.564v4.63H7.053a3.084,3.084,0,0,0-2.194.924L.237,50.914A.842.842,0,0,0,0,51.5v9.73a4.433,4.433,0,0,0,4.428,4.428H48.992a2.582,2.582,0,0,0,2.579-2.579V55.726a.833.833,0,1,0-1.666,0v7.349a.915.915,0,0,1-.914.914H45.537V57.7a2.386,2.386,0,0,0-2.383-2.383h-5.07A2.386,2.386,0,0,0,35.7,57.7v6.291H31.458V40.638H49.905V51.9a.833.833,0,0,0,1.666,0V40.61a2.054,2.054,0,0,0,1.664-1.547l2.209-9.11a2.048,2.048,0,0,0-.383-1.759ZM37.366,57.7a.718.718,0,0,1,.718-.718h5.07a.718.718,0,0,1,.718.718v6.291H37.366ZM31.347,18.191a.552.552,0,0,1,.537-.682H49.354a.552.552,0,0,1,.537.682l-2.235,9.217H33.581ZM6.051,47.345a1.41,1.41,0,0,1,1-.422H29.792v3.74H2.81ZM1.666,61.225v-8.9H29.792V63.988H27.184V57.7A2.386,2.386,0,0,0,24.8,55.314h-5.07A2.386,2.386,0,0,0,17.347,57.7v6.291H4.428a2.765,2.765,0,0,1-2.762-2.762Zm17.347,2.762V57.7a.718.718,0,0,1,.718-.718H24.8a.718.718,0,0,1,.718.718v6.291ZM53.825,29.561c-2,7.589-1.821,9.785-3.087,9.412H30.625c-.34-.038-.822.154-1.014-.3L27.4,29.561c0-.173-.05-.378.384-.488H53.441c.169.038.38.04.384.488Z" transform="translate(0 -4.109)" fill="#5038a1"/>
    <path id="Trazado_105959" data-name="Trazado 105959" d="M316.914,186.263H302.332a.833.833,0,0,0-.833.833v4.023a.833.833,0,0,0,.833.833h14.582a.833.833,0,0,0,.833-.833V187.1A.833.833,0,0,0,316.914,186.263Zm-.833,4.023H303.165v-2.357h12.916Z" transform="translate(-268.816 -159.193)" fill="#5038a1"/>
    <path id="Trazado_105960" data-name="Trazado 105960" d="M50.75,408.909H42.579a.833.833,0,0,0,0,1.666H50.75a.833.833,0,0,0,0-1.666Z" transform="translate(-37.221 -357.704)" fill="#5038a1"/>
    <path id="Trazado_105961" data-name="Trazado 105961" d="M330.163,290.629a.833.833,0,0,0,0,1.666h8.171a.833.833,0,0,0,0-1.666Z" transform="translate(-293.629 -252.245)" fill="#5038a1"/>
    <path id="Trazado_105962" data-name="Trazado 105962" d="M345.625,97.7a.923.923,0,1,0,.923.923A.923.923,0,0,0,345.625,97.7Z" transform="translate(-307.335 -80.229)" fill="#5038a1"/>
    <path id="Trazado_105963" data-name="Trazado 105963" d="M387,97.7a.923.923,0,1,0,.923.923A.923.923,0,0,0,387,97.7Z" transform="translate(-344.222 -80.229)" fill="#5038a1"/>
    <path id="Trazado_105964" data-name="Trazado 105964" d="M6.494,19.841l1.983,1.677a5.663,5.663,0,0,0,6.388.471l16.99-10.745a.861.861,0,0,0,.222-1.2c-.939-1.256-3.329-3.256-5.654-1.84-1.926,1.173-5.238,3.4-6.337,4.15L14.06,10.033a.834.834,0,0,0-.627.012l-2.908,1.247A.847.847,0,0,0,10.3,12.68l3.645,3.238-2.2,1.992-3.272-.445a.833.833,0,0,0-.584.139l-1.329.914a.858.858,0,0,0-.066,1.322Zm2.074-.682c.655-.023,3.508.769,4.009.246l3.174-2.876a.861.861,0,0,0-.006-1.24l-3.358-2.984,1.392-.6,6.116,2.353a.833.833,0,0,0,.768-.089c.043-.03,4.379-2.98,6.628-4.35,1.036-.631,2.157.12,2.832.746L13.975,20.581a4.016,4.016,0,0,1-4.422-.335L8.4,19.273Z" transform="translate(-5.54 0)" fill="#5038a1"/>
    <path id="Trazado_105965" data-name="Trazado 105965" d="M45.428,232.77l-3.548,2.181a.833.833,0,1,0,.872,1.419l3.548-2.181a.833.833,0,0,0-.872-1.419Z" transform="translate(-36.986 -200.549)" fill="#5038a1"/>
    <path id="Trazado_105966" data-name="Trazado 105966" d="M76.73,143.745a.833.833,0,0,0-1.149-.257l-8.2,5.2a.833.833,0,1,0,.892,1.407l8.2-5.2A.833.833,0,0,0,76.73,143.745Z" transform="translate(-59.732 -120.939)" fill="#5038a1"/>
  </g>
</svg>
