<svg xmlns="http://www.w3.org/2000/svg" xmlns:xlink="http://www.w3.org/1999/xlink" width="505" height="236.282" viewBox="0 0 505 236.282">
  <defs>
    <clipPath id="clip-path">
      <path id="Trazado_103901" data-name="Trazado 103901" d="M23,336.884c4.252-13.142,27.045-22.234,43.4-27.177-3.5,5.549-6.757,10.309-7.416,12.416-1.537,4.92-1.23,7.073-1.23,7.073s7.381,9.225,11.686,10.763,47.357-26.754,61.195-43.052c0,0,15.375,3.69,21.321,19.681S166.5,387.931,166.5,387.931H13.135S16.233,357.8,23,336.884Z" transform="translate(-13.135 -296.907)" fill="none"/>
    </clipPath>
    <clipPath id="clip-path-2">
      <path id="Trazado_103912" data-name="Trazado 103912" d="M149.736,171.442s15.683,19.066,14.453,51.355-6.458,65.192-10.455,74.11L80.853,329.2s-1.23,7.688,0,14.146c0,0,7.227-3.537,11.224,1.23s1.077,21.064-17.374,22.755S39.8,345.648,38.57,327.043s11.686-36.132,13.838-41.206,6.81-12.043,6.557-27.317-3.048-59.1-3.048-59.1-7.2-2.3-5.046-15.212,19.6-27.562,39.976-31.059C111.451,149.609,131.439,151.146,149.736,171.442Z" transform="translate(-38.487 -151.656)" fill="none"/>
    </clipPath>
  </defs>
  <g id="Grupo_57348" data-name="Grupo 57348" transform="translate(-180 -5866.808)">
    <path id="Rectángulo_12318" data-name="Rectángulo 12318" d="M66,0H505a0,0,0,0,1,0,0V91a0,0,0,0,1,0,0H0a0,0,0,0,1,0,0V66A66,66,0,0,1,66,0Z" transform="translate(180 6012)" fill="#ffb74d"/>
    <g id="Grupo_57347" data-name="Grupo 57347" transform="translate(344 5866.808)">
      <path id="Trazado_103898" data-name="Trazado 103898" d="M22.331,336.884c4.252-13.142,27.045-22.234,43.4-27.177-3.5,5.549-6.757,10.309-7.416,12.416-1.537,4.92-1.23,7.073-1.23,7.073s7.381,9.225,11.686,10.763,47.357-26.754,61.195-43.052c0,0,15.375,3.69,21.321,19.681s14.555,71.343,14.555,71.343H13.135S15.566,357.8,22.331,336.884Z" transform="translate(-12.469 -151.649)" fill="#f24f71"/>
      <g id="Grupo_57279" data-name="Grupo 57279" transform="translate(0 145.258)">
        <g id="Grupo_57278" data-name="Grupo 57278" clip-path="url(#clip-path)">
          <g id="Grupo_57277" data-name="Grupo 57277" transform="translate(11.646 48.526)">
            <g id="Grupo_57275" data-name="Grupo 57275" transform="translate(98.814)">
              <path id="Trazado_103899" data-name="Trazado 103899" d="M55.572,400.288h0a.473.473,0,0,0,.468-.476c-.2-23.569-7.728-53.721-7.8-54.023a.472.472,0,1,0-.915.231c.075.3,7.571,30.345,7.775,53.8A.471.471,0,0,0,55.572,400.288Z" transform="translate(-47.31 -345.433)" fill="#bc3556"/>
            </g>
            <g id="Grupo_57276" data-name="Grupo 57276" transform="translate(0 12.596)">
              <path id="Trazado_103900" data-name="Trazado 103900" d="M152.564,399.473a.472.472,0,0,0,.388-.74c-.033-.049-3.336-5.009-3.336-18.183,0-13.224,5.121-21.719,5.172-21.8a.471.471,0,0,0-.8-.494c-.053.086-5.313,8.79-5.313,22.3,0,13.523,3.362,18.515,3.505,18.72A.469.469,0,0,0,152.564,399.473Z" transform="translate(-148.672 -358.029)" fill="#bc3556"/>
            </g>
          </g>
        </g>
      </g>
      <path id="Trazado_103902" data-name="Trazado 103902" d="M149.736,171.442s15.683,19.066,14.453,51.355-6.458,65.192-10.455,74.11L80.853,329.2s-1.23,7.688,0,14.146c0,0,7.227-3.537,11.224,1.23s1.077,21.064-17.374,22.755S39.8,345.648,38.57,327.043s11.686-36.132,13.838-41.206,6.81-12.043,6.557-27.317-3.048-59.1-3.048-59.1-7.2-2.3-5.046-15.212,19.6-27.562,39.976-31.059C111.451,149.609,131.439,151.146,149.736,171.442Z" transform="translate(-36.241 -151.649)" fill="#162655"/>
      <g id="Grupo_57291" data-name="Grupo 57291" transform="translate(2.247 0.007)">
        <g id="Grupo_57290" data-name="Grupo 57290" clip-path="url(#clip-path-2)">
          <g id="Grupo_57289" data-name="Grupo 57289" transform="translate(7.678 -0.472)">
            <g id="Grupo_57280" data-name="Grupo 57280" transform="translate(75.729 18.037)">
              <path id="Trazado_103903" data-name="Trazado 103903" d="M71.259,215.273a.473.473,0,0,0,.4-.222c.123-.2,12.284-20.032,8.439-45.428a.472.472,0,0,0-.933.141c3.791,25.039-8.185,44.593-8.307,44.787a.472.472,0,0,0,.4.722Z" transform="translate(-70.787 -169.221)" fill="#2c3f70"/>
            </g>
            <g id="Grupo_57281" data-name="Grupo 57281" transform="translate(58.82 8.626)">
              <path id="Trazado_103904" data-name="Trazado 103904" d="M79.455,202.067a.473.473,0,0,0,.311-.117c17.488-15.32,17.99-41.4,17.993-41.663a.471.471,0,0,0-.466-.477h-.006a.472.472,0,0,0-.472.466c0,.258-.5,25.926-17.671,40.964a.472.472,0,0,0,.311.827Z" transform="translate(-78.983 -159.81)" fill="#2c3f70"/>
            </g>
            <g id="Grupo_57282" data-name="Grupo 57282" transform="translate(36.502 3.786)">
              <path id="Trazado_103905" data-name="Trazado 103905" d="M84.642,192.277a.471.471,0,0,0,.45-.331c7.966-25.445,34.417-35.96,34.684-36.063a.472.472,0,0,0-.341-.881c-.271.1-27.139,10.775-35.243,36.662a.471.471,0,0,0,.309.591A.465.465,0,0,0,84.642,192.277Z" transform="translate(-84.17 -154.97)" fill="#2c3f70"/>
            </g>
            <g id="Grupo_57283" data-name="Grupo 57283" transform="translate(18.275)">
              <path id="Trazado_103906" data-name="Trazado 103906" d="M89.757,187.327a.473.473,0,0,0,.448-.323c11.394-34.3,47.269-34.874,47.63-34.876a.472.472,0,0,0,0-.944h0c-.368,0-36.916.586-48.521,35.522a.472.472,0,0,0,.3.6A.479.479,0,0,0,89.757,187.327Z" transform="translate(-89.285 -151.184)" fill="#2c3f70"/>
            </g>
            <g id="Grupo_57284" data-name="Grupo 57284" transform="translate(93.698 49.939)">
              <path id="Trazado_103907" data-name="Trazado 103907" d="M52.312,292.857a.471.471,0,0,0,.443-.31c16.185-44.514,8.133-90.576,8.05-91.036a.472.472,0,0,0-.929.168c.083.458,8.087,46.277-8.007,90.545a.471.471,0,0,0,.282.605A.479.479,0,0,0,52.312,292.857Z" transform="translate(-51.841 -201.123)" fill="#2c3f70"/>
            </g>
            <g id="Grupo_57285" data-name="Grupo 57285" transform="translate(81.222 96.461)">
              <path id="Trazado_103908" data-name="Trazado 103908" d="M68.391,287.2a.471.471,0,0,0,.452-.336,164.758,164.758,0,0,0,6.514-38.739.472.472,0,0,0-.462-.482.451.451,0,0,0-.482.461,163.763,163.763,0,0,1-6.474,38.489.472.472,0,0,0,.317.588A.489.489,0,0,0,68.391,287.2Z" transform="translate(-67.919 -247.645)" fill="#2c3f70"/>
            </g>
            <g id="Grupo_57286" data-name="Grupo 57286" transform="translate(18.172 116.503)">
              <path id="Trazado_103909" data-name="Trazado 103909" d="M132.818,367.8a.471.471,0,0,0,.343-.8c-6.255-6.641-11.528-18.819-9.207-31.057a214.442,214.442,0,0,1,5.868-21.653c2-6.535,4.26-13.942,6.221-21.794,4.294-17.189,1.45-24.233,1.327-24.524a.472.472,0,0,0-.87.366c.029.069,2.831,7.1-1.372,23.929-1.956,7.829-4.215,15.223-6.209,21.748a214.822,214.822,0,0,0-5.892,21.752c-2.384,12.565,3.028,25.065,9.448,31.88A.471.471,0,0,0,132.818,367.8Z" transform="translate(-122.453 -267.687)" fill="#2c3f70"/>
            </g>
            <g id="Grupo_57287" data-name="Grupo 57287" transform="translate(0 113.327)">
              <path id="Trazado_103910" data-name="Trazado 103910" d="M137.254,354.687a.48.48,0,0,0,.144-.022.473.473,0,0,0,.306-.594c-7.547-23.654.483-39.083,7.568-52.695,1.831-3.519,3.561-6.842,5.006-10.229,7.141-16.732,6.29-25.833,6.25-26.212a.465.465,0,0,0-.518-.42.472.472,0,0,0-.421.518c.01.09.852,9.27-6.179,25.744-1.431,3.353-3.153,6.661-4.975,10.163-7.171,13.775-15.3,29.389-7.631,53.419A.473.473,0,0,0,137.254,354.687Z" transform="translate(-133.71 -264.512)" fill="#2c3f70"/>
            </g>
            <g id="Grupo_57288" data-name="Grupo 57288" transform="translate(34.215 191.686)">
              <path id="Trazado_103911" data-name="Trazado 103911" d="M121.891,349.451a.472.472,0,0,0,.208-.9c-2.284-1.116-3.267-5.277-3.277-5.319a.472.472,0,1,0-.92.212c.044.188,1.093,4.641,3.782,5.956A.48.48,0,0,0,121.891,349.451Z" transform="translate(-117.89 -342.87)" fill="#2c3f70"/>
            </g>
          </g>
        </g>
      </g>
      <path id="Trazado_103913" data-name="Trazado 103913" d="M61.089,186.2s-7.381,12.3-10.763,31.981S47.865,263.7,80.769,268.616c13.223,2.153,16.3,0,16.3,0A126.166,126.166,0,0,1,98.6,287.682c0,10.148-15.683,29.521-17.221,34.441s-1.23,7.073-1.23,7.073,7.381,9.225,11.686,10.763S139.2,313.2,153.035,296.907c0,0-13.223-4-20.3-7.38s-11.071-4.613-11.686-14.761,1.538-23.678,1.538-23.678,8.61,1.23,15.683-7.073-1.538-17.836-8.3-17.221-9.225,13.043-9.225,13.043l-6.15-3.51s6.15-14.145,7.072-21.526C121.668,214.8,107.215,195.428,61.089,186.2Z" transform="translate(-35.542 -151.649)" fill="#ffb78c"/>
      <path id="Trazado_103914" data-name="Trazado 103914" d="M77.012,237.147a4.1,4.1,0,0,0-1.253-1.53,3.449,3.449,0,0,0-2.06-.713,3.6,3.6,0,0,0-2.164.77,6.4,6.4,0,0,0-1.447,1.516,12.547,12.547,0,0,0-2.1,7.338c.681-1.1,1.257-2.182,1.832-3.243a31.719,31.719,0,0,1,1.8-3,7.472,7.472,0,0,1,1.027-1.221,2.584,2.584,0,0,1,1.176-.7A4.741,4.741,0,0,1,77.012,237.147Z" transform="translate(21.517 -151.649)" fill="#ce734e"/>
      <path id="Trazado_103915" data-name="Trazado 103915" d="M107.055,206.088a8.761,8.761,0,0,0,3.28,2.358c2.05.82,2.87,3.075,4.715,3.28s3.178-3.587-1.435-6.765S106.44,203.526,107.055,206.088Z" transform="translate(-57.215 -151.649)" fill="#162655"/>
      <path id="Trazado_103916" data-name="Trazado 103916" d="M136.283,196.966a12.17,12.17,0,0,1,6.253,0c3.28.922,3.382,4.92,0,4.612s-3.69-1.025-6.253-.82S133.715,197.359,136.283,196.966Z" transform="translate(-112.889 -151.649)" fill="#162655"/>
      <path id="Trazado_103917" data-name="Trazado 103917" d="M146.461,212.239c-.8.929-1.59,1.826-2.42,2.664a19.55,19.55,0,0,1-2.609,2.249,10.5,10.5,0,0,1-3.011,1.382c-.558.187-1.115.375-1.665.543l-.815.229-.387.088-.17.029-.067.009s-.071,0,.05.01l-1.008.993a10.919,10.919,0,0,0,.7,2.335,9.55,9.55,0,0,0,1.249,2.054,6.457,6.457,0,0,0,1.84,1.537,5.254,5.254,0,0,0,2.224.638,7.374,7.374,0,0,1-1.789-1.24,6.951,6.951,0,0,1-1.244-1.649,9.263,9.263,0,0,1-.783-1.9,9.4,9.4,0,0,1-.408-1.973l-1.008.992a1.614,1.614,0,0,0,.276.009l.158-.011.276-.033c.172-.026.336-.056.5-.089.32-.065.627-.143.929-.23.6-.168,1.189-.364,1.766-.575a16.162,16.162,0,0,0,1.76-.729,9.69,9.69,0,0,0,1.634-1.122,13.025,13.025,0,0,0,2.441-2.881A13.9,13.9,0,0,0,146.461,212.239Z" transform="translate(-114.316 -151.649)" fill="#ce734e"/>
      <path id="Trazado_103918" data-name="Trazado 103918" d="M114.34,218.052c-1.216,2.959-.886,5.9.737,6.565s3.925-1.19,5.141-4.149.886-5.9-.737-6.564S115.556,215.094,114.34,218.052Z" transform="translate(-68.054 -151.649)" fill="#59313e"/>
      <path id="Trazado_103919" data-name="Trazado 103919" d="M140.018,209.174c-1.216,2.958-.886,5.9.737,6.564s3.925-1.19,5.141-4.148.886-5.9-.737-6.565S141.234,206.215,140.018,209.174Z" transform="translate(-119.41 -151.649)" fill="#59313e"/>
      <path id="Trazado_103920" data-name="Trazado 103920" d="M123.063,237.045s3.69,1.154,9.43-1.422,8.713-1.65,10.045,1.68S139.96,248,128.495,248.115s-10.455-8-9.738-9.738S121.1,236.792,123.063,237.045Z" transform="translate(-94.646 -151.649)" fill="#932047"/>
      <path id="Trazado_103921" data-name="Trazado 103921" d="M121.042,237.045s3.69,1.154,9.43-1.422c4.606-2.067,7.427-1.875,9.052,0-11.038,8.316-18.38,5.506-18.38,5.506L119.6,236.9C120.056,236.926,120.536,236.979,121.042,237.045Z" transform="translate(-92.625 -151.649)" fill="#fff"/>
      <path id="Trazado_103922" data-name="Trazado 103922" d="M118.363,247.86c2.092-7.891,10.874-10.557,10.874-10.557C130.438,240.3,127.362,246.558,118.363,247.86Z" transform="translate(-81.346 -151.649)" fill="#ed8470"/>
      <path id="Trazado_103923" data-name="Trazado 103923" d="M74.6,227.536s13.428-14.544,14.966-34.261-6.408-26.956-10.507-31.39-13.939-10.467-26.241-10.229c0,0,16.452,9.946,23.217,29.165S70.5,226.794,70.5,226.794A5.432,5.432,0,0,1,74.6,227.536Z" transform="translate(23.933 -151.649)" fill="#ffdc5e"/>
      <path id="Trazado_103924" data-name="Trazado 103924" d="M148.81,186.2a16.232,16.232,0,0,0-6.971.512c-3.485,1.128,4.488,4.35,4.488,4.35A31.063,31.063,0,0,1,148.81,186.2Z" transform="translate(-123.263 -151.649)" fill="#101d3d"/>
      <path id="Trazado_103925" data-name="Trazado 103925" d="M79.455,268.616a43.017,43.017,0,0,0,25.524-17.528s-1.082,7.042-1.343,12.023c0,0-3.066,14.529-22.695,21.292C80.941,284.4,81.3,279.686,79.455,268.616Z" transform="translate(-17.93 -151.649)" fill="#ff9360"/>
    </g>
  </g>
</svg>
