<svg xmlns="http://www.w3.org/2000/svg" xmlns:xlink="http://www.w3.org/1999/xlink" width="505" height="246.665" viewBox="0 0 505 246.665">
  <defs>
    <clipPath id="clip-path">
      <path id="Trazado_105091" data-name="Trazado 105091" d="M428.483,300.318s-33.735,19.694-40.883,29.7-11.865,30.572-11.865,68.1H551.608s-6.4-38.433-11.759-57.376-46.825-39.313-46.825-39.313Z" transform="translate(-375.736 -300.318)" fill="none"/>
    </clipPath>
  </defs>
  <g id="Grupo_57349" data-name="Grupo 57349" transform="translate(-180 -5570)">
    <path id="Rectángulo_12313" data-name="Rectángulo 12313" d="M0,0H439a66,66,0,0,1,66,66V91a0,0,0,0,1,0,0H0a0,0,0,0,1,0,0V0A0,0,0,0,1,0,0Z" transform="translate(180 5724)" fill="#ffb74d"/>
    <g id="Grupo_57814" data-name="Grupo 57814" transform="translate(-8.236 5403.142)">
      <path id="Trazado_105087" data-name="Trazado 105087" d="M551.279,398.971c-1.61-10.263-6.822-42.438-11.292-58.232-5.361-18.942-46.825-39.313-46.825-39.313l-64.54-1.109s-33.735,19.694-40.883,29.7c-6.8,9.521-11.98,34.255-12.468,68.953Z" transform="translate(-0.003 14.552)" fill="#4f5edb"/>
      <g id="Grupo_57813" data-name="Grupo 57813" transform="translate(375.871 314.87)">
        <g id="Grupo_57812" data-name="Grupo 57812" transform="translate(0)" clip-path="url(#clip-path)">
          <g id="Grupo_57811" data-name="Grupo 57811" transform="translate(11.316 20.646)">
            <g id="Grupo_57808" data-name="Grupo 57808" transform="translate(90.914)">
              <path id="Trazado_105088" data-name="Trazado 105088" d="M471.2,341.981a.549.549,0,0,1-.54-.458c-2.386-14.2-6.8-22.551-6.843-22.634a.548.548,0,1,1,.966-.518c.045.084,4.541,8.575,6.959,22.97a.548.548,0,0,1-.45.632A.5.5,0,0,1,471.2,341.981Z" transform="translate(-463.753 -318.082)" fill="#3446ad"/>
            </g>
            <g id="Grupo_57809" data-name="Grupo 57809" transform="translate(0 6.824)">
              <path id="Trazado_105089" data-name="Trazado 105089" d="M386.266,326.7c.163-.06,16.316-5.889,29.486,4.708,12.885,10.372,13.022,31.7,13.019,32.955l-7.094,30.776H422.8l7.05-30.589a.63.63,0,0,0,.015-.115c0-.228.2-22.91-13.428-33.882-13.664-11-30.389-4.943-30.558-4.882a.549.549,0,0,0,.384,1.029Z" transform="translate(-385.527 -323.953)" fill="#3446ad"/>
            </g>
            <g id="Grupo_57810" data-name="Grupo 57810" transform="translate(139.74 22.801)">
              <path id="Trazado_105090" data-name="Trazado 105090" d="M515.387,392.908h1.1c-1.319-36.92-9.59-54.709-9.678-54.893a.548.548,0,0,0-.99.471C505.9,338.668,514.075,356.246,515.387,392.908Z" transform="translate(-505.764 -337.701)" fill="#3446ad"/>
            </g>
          </g>
        </g>
      </g>
      <path id="Trazado_105092" data-name="Trazado 105092" d="M504.4,198.973s10.961,15.248,13.82,41.933-9.531,48.129-36.215,49.559H463.659s-.953,9.292,1.668,12.627,7.862,5.243,7.862,5.243,3.574,4.527,2.859,15.248c0,0,2.621-.238,4.527,3.1,0,0-2.144,10.961-10.96,11.914s-17.631-7.149-17.631-7.149l4.289-4.765s-18.108-8.815-21.682-24.3c0,0,.715-20.966-1.191-30.021a18.755,18.755,0,0,1-17.87-13.462c-4.527-13.938,11.2-17.512,15.726-13.7a14.126,14.126,0,0,1,5,8.578l6.195-.953-4.527-13.1s10.96-6.195,6.433-28.591C444.36,211.124,489.153,212.553,504.4,198.973Z" transform="translate(6.395 -1.887)" fill="#ffd2bb"/>
      <path id="Trazado_105093" data-name="Trazado 105093" d="M517.729,179.6s-6.672-1.191-10.246,2.144-9.768.477-22.157-5-50.988-10.008-56.468,24.3c0,0-14.534.715-18.346,11.436-3.468,9.754-1.2,23.465,6.772,40.389,3.527-5.218,11.822-6.059,14.91-3.459a14.126,14.126,0,0,1,5,8.578l6.195-.953-4.527-13.1s10.96-6.195,6.433-28.591c0,0,44.794,1.43,60.042-12.151,0,0,7.768,10.81,11.93,30.151h0s2.456-3.466,2.291-14.9a50.566,50.566,0,0,0-3.738-19.06s7.862-3.574,8.339-10.246S517.729,179.6,517.729,179.6Z" transform="translate(5.457 -6.105)" fill="#f2c34c"/>
      <path id="Trazado_105094" data-name="Trazado 105094" d="M481.02,228.494a38.282,38.282,0,0,0,5.887,5.117,21.986,21.986,0,0,0,3.244,1.9l.847.382.872.311a16.87,16.87,0,0,0,1.762.543l.82.264.021.705a9.717,9.717,0,0,1-.473,3.206,8.793,8.793,0,0,1-1.477,2.829,7.1,7.1,0,0,1-2.415,2.008,7.714,7.714,0,0,1-2.893.846,11.83,11.83,0,0,0,2.36-1.618,7.087,7.087,0,0,0,1.656-2.1,9.1,9.1,0,0,0,.9-2.463,10.9,10.9,0,0,0,.215-2.56l.843.97a14.956,14.956,0,0,1-3.984-1.406,16.811,16.811,0,0,1-3.445-2.35A19.729,19.729,0,0,1,483,232.036,15.283,15.283,0,0,1,481.02,228.494Z" transform="translate(17.149 2.902)" fill="#ffb78c"/>
      <path id="Trazado_105095" data-name="Trazado 105095" d="M467.626,220.493s-5.173,1.43-7.59,4.527-6.586-.358-3.012-4.527,7.982-5.123,10.6-3.812S467.626,220.493,467.626,220.493Z" transform="translate(13.031 0.897)" fill="#f2c34c"/>
      <path id="Trazado_105096" data-name="Trazado 105096" d="M497.911,218.341s-4.672-2.641-8.571-2.154-4.412-4.9,1.063-5.333,9.269,2.008,10.2,4.787S497.911,218.341,497.911,218.341Z" transform="translate(18.014 0.033)" fill="#f2c34c"/>
      <path id="Trazado_105097" data-name="Trazado 105097" d="M471.181,234.2c.652,3.56-.866,6.82-3.389,7.282s-5.1-2.048-5.751-5.608.865-6.82,3.389-7.282S470.529,230.643,471.181,234.2Z" transform="translate(14.046 2.909)" fill="#59313e"/>
      <path id="Trazado_105098" data-name="Trazado 105098" d="M499.455,227.217c.652,3.56-.866,6.82-3.389,7.282s-5.1-2.048-5.752-5.608.866-6.82,3.39-7.282S498.8,223.659,499.455,227.217Z" transform="translate(18.632 1.776)" fill="#59313e"/>
      <path id="Trazado_105099" data-name="Trazado 105099" d="M420.337,248.849a5.933,5.933,0,0,1,2.228-4.923,4.729,4.729,0,0,1,2.925-.91,6.612,6.612,0,0,1,1.493.173,7.823,7.823,0,0,1,1.418.543,6.608,6.608,0,0,1,2.243,1.969,9.09,9.09,0,0,1,1.206,2.552,10.538,10.538,0,0,1,.162,5.3,29.2,29.2,0,0,0-1.757-4.677,10.764,10.764,0,0,0-1.252-1.9,5.816,5.816,0,0,0-1.621-1.3,6.341,6.341,0,0,0-.947-.392,6.213,6.213,0,0,0-1.025-.2,3.456,3.456,0,0,0-1.948.291A7.881,7.881,0,0,0,420.337,248.849Z" transform="translate(7.306 5.256)" fill="#ffb78c"/>
      <path id="Trazado_105100" data-name="Trazado 105100" d="M461.052,280.223s-21.8-3.038-30.259-18.108a150.634,150.634,0,0,1,1.306,18.108s12.67,9.049,28.794,4.524Z" transform="translate(9.002 8.355)" fill="#ffb78c"/>
      <path id="Trazado_105101" data-name="Trazado 105101" d="M455.365,312.906s-18.108-8.815-21.682-24.3c0,0,.063-1.863.1-4.708,0,0-10.525.9-13.444,10.725,0,0-1.489,20.192,20.849,35.382C441.189,330,451.315,316.718,455.365,312.906Z" transform="translate(7.303 11.888)" fill="#a7b1e8"/>
      <path id="Trazado_105102" data-name="Trazado 105102" d="M475.316,289.633c-8.22-5.361-18.624-8.044-18.624-8.044v.007c.051,2.853.43,6.318,1.827,8.1,2.621,3.337,7.862,5.243,7.862,5.243s3.574,4.527,2.859,15.248c0,0,2.621-.238,4.527,3.1,5.957-.477,14.237,9.054,14.237,9.054C487.646,308.4,483.536,294.994,475.316,289.633Z" transform="translate(13.203 11.514)" fill="#a7b1e8"/>
      <path id="Trazado_105103" data-name="Trazado 105103" d="M489.1,252.364s-4.356,1.105-10.854-2.249-10.005-2.469-11.764,1.311S468.8,264,482.091,264.865s12.641-8.614,11.919-10.683S491.389,252.194,489.1,252.364Z" transform="translate(14.728 6.071)" fill="#932047"/>
      <path id="Trazado_105104" data-name="Trazado 105104" d="M488.87,252.363s-4.356,1.105-10.854-2.249c-5.214-2.692-8.5-2.647-10.5-.575,12.281,10.352,20.979,7.557,20.979,7.557l2.055-4.8C490.022,252.288,489.461,252.319,488.87,252.363Z" transform="translate(14.958 6.071)" fill="#fff"/>
      <path id="Trazado_105105" data-name="Trazado 105105" d="M478.43,263.893c-1.927-9.288-11.949-12.941-11.949-12.941C464.9,254.356,468.07,261.812,478.43,263.893Z" transform="translate(14.729 6.544)" fill="#ed8470"/>
    </g>
  </g>
</svg>
