<svg xmlns="http://www.w3.org/2000/svg" width="116.057" height="143" viewBox="0 0 116.057 143">
  <g id="traveller" transform="translate(-48.233)">
    <g id="Grupo_57816" data-name="Grupo 57816" transform="translate(58.226 73.07)">
      <path id="Trazado_105106" data-name="Trazado 105106" d="M117.368,268.652l-18.351-7.03-13.612,7.03a101.2,101.2,0,0,0-1.289,21.565c12.372-3.6,26.082-.334,33.251-13.188l2.74-3.3Z" transform="translate(-84.013 -261.622)" fill="#ccf49e" fill-rule="evenodd"/>
    </g>
    <g id="Grupo_57817" data-name="Grupo 57817" transform="translate(118.349 74.139)">
      <path id="Trazado_105107" data-name="Trazado 105107" d="M319.168,265.447l-17.3,5.962-2.594,3.434,2.594,4.942c11.125,10.407,22.812,10.562,33.268,13.2a105.748,105.748,0,0,0-1.3-21.581Z" transform="translate(-299.276 -265.447)" fill="#ccf49e" fill-rule="evenodd"/>
    </g>
    <g id="Grupo_57818" data-name="Grupo 57818" transform="translate(115.184 63.283)">
      <path id="Trazado_105108" data-name="Trazado 105108" d="M328.587,226.579H299.936c-.228.489-.465.971-.709,1.46a40.219,40.219,0,0,1-11.279,12.821V243.4h40.64a4.908,4.908,0,0,0,4.894-4.894v-7.031A4.908,4.908,0,0,0,328.587,226.579Z" transform="translate(-287.947 -226.579)" fill="#95d6a4" fill-rule="evenodd"/>
    </g>
    <g id="Grupo_57819" data-name="Grupo 57819" transform="translate(51.797 63.283)">
      <path id="Trazado_105109" data-name="Trazado 105109" d="M109.407,240.607a39.927,39.927,0,0,1-10.945-12.568c-.253-.489-.481-.971-.71-1.46H65.9a4.91,4.91,0,0,0-4.9,4.894v7.03a4.909,4.909,0,0,0,4.9,4.894h43.511Z" transform="translate(-60.994 -226.579)" fill="#95d6a4" fill-rule="evenodd"/>
    </g>
    <g id="Grupo_57820" data-name="Grupo 57820" transform="translate(51.797 68.176)">
      <path id="Trazado_105110" data-name="Trazado 105110" d="M96.015,248.994H65.9a4.91,4.91,0,0,1-4.9-4.894v7.03a4.909,4.909,0,0,0,4.9,4.894h34.883v-2.789A45.913,45.913,0,0,1,96.015,248.994Z" transform="translate(-60.994 -244.1)" fill="#78c2a4" fill-rule="evenodd"/>
    </g>
    <g id="Grupo_57821" data-name="Grupo 57821" transform="translate(120.942 68.176)">
      <path id="Trazado_105111" data-name="Trazado 105111" d="M335.11,248.994H313.644a45.7,45.7,0,0,1-5.081,4.494v2.537h34.883a4.908,4.908,0,0,0,4.894-4.894V244.1a4.908,4.908,0,0,1-4.894,4.894Z" transform="translate(-308.563 -244.1)" fill="#78c2a4" fill-rule="evenodd"/>
    </g>
    <g id="Grupo_57822" data-name="Grupo 57822" transform="translate(48.233 96.731)">
      <path id="Trazado_105112" data-name="Trazado 105112" d="M65.034,392.606V346.337c-11.182,6.566-16.8,16.655-16.8,27.535v18.734Z" transform="translate(-48.233 -346.337)" fill="#ffd772" fill-rule="evenodd"/>
    </g>
    <g id="Grupo_57823" data-name="Grupo 57823" transform="translate(147.391 96.674)">
      <path id="Trazado_105113" data-name="Trazado 105113" d="M420.161,373.724A30.294,30.294,0,0,0,410.08,351.14a38.614,38.614,0,0,0-6.72-4.951.6.6,0,0,0-.1-.057v46.326h16.9Z" transform="translate(-403.262 -346.132)" fill="#ffd772" fill-rule="evenodd"/>
    </g>
    <g id="Grupo_57824" data-name="Grupo 57824" transform="translate(147.391 96.674)">
      <path id="Trazado_105114" data-name="Trazado 105114" d="M420.161,373.724A30.294,30.294,0,0,0,410.08,351.14a38.614,38.614,0,0,0-6.72-4.951l-.1-.057v8.441c7.153,4.4,10.048,12.838,10.048,20.635v17.25h6.851Z" transform="translate(-403.262 -346.132)" fill="#fdb440" fill-rule="evenodd"/>
    </g>
    <g id="Grupo_57825" data-name="Grupo 57825" transform="translate(72.321 88.477)">
      <path id="Trazado_105115" data-name="Trazado 105115" d="M196.271,371.307l8.305-21.641-8.305-30.011c-.856-.228-1.745-.432-2.642-.62L183.1,316.784c-3.164,6.46-26.2,6.46-29.361,0l-10.529,2.251c-.938.2-1.851.408-2.74.644l-5.99,27.219,6.08,24.409h55.712Z" transform="translate(-134.478 -316.784)" fill="#ffd772" fill-rule="evenodd"/>
    </g>
    <g id="Grupo_57826" data-name="Grupo 57826" transform="translate(65.034 89.57)">
      <path id="Trazado_105116" data-name="Trazado 105116" d="M108.387,374.127h13.269V322.475a1.782,1.782,0,0,0-1.778-1.778h-9.714a1.782,1.782,0,0,0-1.778,1.778v51.652Z" transform="translate(-108.387 -320.697)" fill="#95d6a4" fill-rule="evenodd"/>
    </g>
    <g id="Grupo_57827" data-name="Grupo 57827" transform="translate(134.114 89.57)">
      <path id="Trazado_105117" data-name="Trazado 105117" d="M355.722,374.127H369V322.475a1.782,1.782,0,0,0-1.778-1.778H357.5a1.782,1.782,0,0,0-1.778,1.778Z" transform="translate(-355.722 -320.697)" fill="#95d6a4" fill-rule="evenodd"/>
    </g>
    <g id="Grupo_57828" data-name="Grupo 57828" transform="translate(117.011 88.477)">
      <path id="Trazado_105118" data-name="Trazado 105118" d="M308.947,319.035l-10.529-2.251a18.786,18.786,0,0,1-3.931,5.4c5.424,1.15,12.128,2.52,17.1,4.8v-7.332c-.856-.228-1.745-.432-2.642-.62Z" transform="translate(-294.487 -316.784)" fill="#fdb440" fill-rule="evenodd"/>
    </g>
    <g id="Grupo_57829" data-name="Grupo 57829" transform="translate(65.034 89.57)">
      <path id="Trazado_105119" data-name="Trazado 105119" d="M119.879,320.7h-9.714a1.782,1.782,0,0,0-1.778,1.778v7.846a1.782,1.782,0,0,1,1.778-1.778h9.714a1.782,1.782,0,0,1,1.778,1.778v-7.846A1.782,1.782,0,0,0,119.879,320.7Z" transform="translate(-108.387 -320.697)" fill="#78c2a4" fill-rule="evenodd"/>
    </g>
    <g id="Grupo_57830" data-name="Grupo 57830" transform="translate(134.114 89.57)">
      <path id="Trazado_105120" data-name="Trazado 105120" d="M367.222,320.7H357.5a1.782,1.782,0,0,0-1.778,1.778v7.846a1.782,1.782,0,0,1,1.778-1.778h9.722A1.782,1.782,0,0,1,369,330.321v-7.846A1.782,1.782,0,0,0,367.222,320.7Z" transform="translate(-355.722 -320.697)" fill="#78c2a4" fill-rule="evenodd"/>
    </g>
    <g id="Grupo_57831" data-name="Grupo 57831" transform="translate(91.581 77.311)">
      <path id="Trazado_105121" data-name="Trazado 105121" d="M203.438,276.806v11.166a15.8,15.8,0,0,0,29.361,0V277.059c-1.223.93-28.031.775-29.361-.253Z" transform="translate(-203.438 -276.806)" fill="#ffbc85" fill-rule="evenodd"/>
    </g>
    <g id="Grupo_57832" data-name="Grupo 57832" transform="translate(91.581 77.311)">
      <path id="Trazado_105122" data-name="Trazado 105122" d="M203.438,276.806v6.28c.905.571,1.827,1.1,2.74,1.59,4.3,2.3,8.621,3.686,12.12,3.515a18.532,18.532,0,0,0,6.655-1.109c3.523-1.183,2.724-.359,2.724,3.915v3.4a18.5,18.5,0,0,0,5.122-6.427V277.059c-1.223.93-28.031.775-29.361-.253Z" transform="translate(-203.438 -276.806)" fill="#f5a96c" fill-rule="evenodd"/>
    </g>
    <g id="Grupo_57833" data-name="Grupo 57833" transform="translate(135.363 20.088)">
      <path id="Trazado_105123" data-name="Trazado 105123" d="M384.31,76.589l-23.742-4.665c-.571,3.833-.946,7.993,2.463,12.055h21.213C388.372,83.979,390.729,77.854,384.31,76.589Z" transform="translate(-360.195 -71.924)" fill="#f9f6f6" fill-rule="evenodd"/>
    </g>
    <g id="Grupo_57834" data-name="Grupo 57834" transform="translate(134.15 39.745)">
      <path id="Trazado_105124" data-name="Trazado 105124" d="M357.5,156.991c9.208.677,13-14.689,5.464-14.689h-4.894C355.774,147.709,354.763,153.622,357.5,156.991Z" transform="translate(-355.851 -142.302)" fill="#f5a96c" fill-rule="evenodd"/>
    </g>
    <g id="Grupo_57835" data-name="Grupo 57835" transform="translate(67.575 39.745)">
      <path id="Trazado_105125" data-name="Trazado 105125" d="M126.387,142.3h-4.894c-7.528,0-3.743,15.366,5.473,14.689C134.3,149.642,131.15,145.328,126.387,142.3Z" transform="translate(-117.486 -142.302)" fill="#f5a96c" fill-rule="evenodd"/>
    </g>
    <g id="Grupo_57836" data-name="Grupo 57836" transform="translate(76.358 26.243)">
      <path id="Trazado_105126" data-name="Trazado 105126" d="M208.9,116.883c.342-5.359.041-11.533.041-17.022-17.445-7.887-42.427-7.846-59.888,0,.008,5.489-.3,11.655.049,17.022a28.406,28.406,0,0,0,.53,5.269A38.382,38.382,0,0,0,152.5,131c.22.489.457.971.7,1.46,2.912,5.726,8.931,11.7,15.007,15.358,3.825,2.3,7.675,3.678,10.79,3.515,3.116.163,6.965-1.215,10.782-3.515a40.791,40.791,0,0,0,3.735-2.537,40.288,40.288,0,0,0,11.271-12.821c.253-.489.489-.971.71-1.46a38.8,38.8,0,0,0,2.871-8.849A28.408,28.408,0,0,0,208.9,116.883Z" transform="translate(-148.932 -93.961)" fill="#fed1a3" fill-rule="evenodd"/>
    </g>
    <g id="Grupo_57837" data-name="Grupo 57837" transform="translate(73.418)">
      <path id="Trazado_105127" data-name="Trazado 105127" d="M200.725,20.088C195.521,7.944,182.921,0,170.8,0c-15.79,0-32.4,13.563-32.4,32.143h64.782A30.371,30.371,0,0,0,200.725,20.088Z" transform="translate(-138.406)" fill="#95d6a4" fill-rule="evenodd"/>
    </g>
    <g id="Grupo_57838" data-name="Grupo 57838" transform="translate(97.624 17.968)">
      <path id="Trazado_105128" data-name="Trazado 105128" d="M241.583,71.42a7.108,7.108,0,0,0-7.087-7.088h-2.333a7.108,7.108,0,0,0-7.087,7.088v7.088h16.507V71.42Z" transform="translate(-225.075 -64.332)" fill="#365e7d" fill-rule="evenodd"/>
    </g>
    <g id="Grupo_57839" data-name="Grupo 57839" transform="translate(76.412 32.143)">
      <path id="Trazado_105129" data-name="Trazado 105129" d="M205.636,146.226a38.8,38.8,0,0,0,2.871-8.849,28.406,28.406,0,0,0,.53-5.269c.2-2.977.188-6.2.139-9.42-.033-2.577-.1-5.163-.1-7.6H149.189c0,1.827-.033,3.727-.065,5.652h50.493c.057,3.474.082,6.973-.13,10.179a27.731,27.731,0,0,1-.53,5.269c-2.3,12.087-13.5,26.434-26.506,28.954a15.785,15.785,0,0,0,6.688,1.419c3.116.163,6.965-1.215,10.782-3.515a40.791,40.791,0,0,0,3.735-2.537,40.288,40.288,0,0,0,11.271-12.821c.252-.489.489-.971.709-1.46Z" transform="translate(-149.124 -115.086)" fill="#ffbc85" fill-rule="evenodd"/>
    </g>
    <g id="Grupo_57840" data-name="Grupo 57840" transform="translate(98.538 17.968)">
      <path id="Trazado_105130" data-name="Trazado 105130" d="M243.94,71.42a7.108,7.108,0,0,0-7.087-7.088H234.52a7.1,7.1,0,0,0-6.174,3.621,6.964,6.964,0,0,1,2.577-.489h2.333a7.117,7.117,0,0,1,6.835,5.228,7.01,7.01,0,0,1,.253,1.86v3.956h3.6V71.42Z" transform="translate(-228.346 -64.332)" fill="#2b4d66" fill-rule="evenodd"/>
    </g>
    <g id="Grupo_57841" data-name="Grupo 57841" transform="translate(137.955 24.713)">
      <path id="Trazado_105131" data-name="Trazado 105131" d="M386.783,92.006H369.476a30.726,30.726,0,0,1,.245,3.907h21.213c4.127,0,6.484-6.125.065-7.389l-.188-.041A4.038,4.038,0,0,1,386.783,92.006Z" transform="translate(-369.476 -88.483)" fill="#ecdaec" fill-rule="evenodd"/>
    </g>
    <g id="Grupo_57842" data-name="Grupo 57842" transform="translate(99.753)">
      <path id="Trazado_105132" data-name="Trazado 105132" d="M268.68,20.088C263.477,7.944,250.876,0,238.757,0a29.3,29.3,0,0,0-6.06.644,34.011,34.011,0,0,1,23.848,19.444,30.263,30.263,0,0,1,2.259,8.45,30.917,30.917,0,0,1,.212,3.6h12.128a30.376,30.376,0,0,0-2.463-12.054Z" transform="translate(-232.697)" fill="#78c2a4" fill-rule="evenodd"/>
    </g>
    <g id="Grupo_57843" data-name="Grupo 57843" transform="translate(90.712 42.382)">
      <path id="Trazado_105133" data-name="Trazado 105133" d="M202.483,159.611a2.158,2.158,0,0,1-2.158-2.158V153.9a2.158,2.158,0,1,1,4.316,0v3.548A2.158,2.158,0,0,1,202.483,159.611Z" transform="translate(-200.325 -151.747)" fill="#365e7d"/>
    </g>
    <g id="Grupo_57844" data-name="Grupo 57844" transform="translate(117.822 42.024)">
      <path id="Trazado_105134" data-name="Trazado 105134" d="M299.549,158.334a2.158,2.158,0,0,1-2.158-2.158V152.62a2.158,2.158,0,1,1,4.316,0v3.556A2.158,2.158,0,0,1,299.549,158.334Z" transform="translate(-297.391 -150.462)" fill="#365e7d"/>
    </g>
    <g id="Grupo_57845" data-name="Grupo 57845" transform="translate(97.163 65.048)">
      <path id="Trazado_105135" data-name="Trazado 105135" d="M232.515,239.874a13.27,13.27,0,0,1-8.269-3.122,2.158,2.158,0,0,1,2.668-3.393c3.755,2.953,7.446,2.935,11.615-.057a2.158,2.158,0,1,1,2.516,3.507,14.642,14.642,0,0,1-8.531,3.064Z" transform="translate(-223.423 -232.897)" fill="#f5a96c"/>
    </g>
  </g>
</svg>
