<svg xmlns="http://www.w3.org/2000/svg" width="144.173" height="143" viewBox="0 0 144.173 143">
  <g id="camping" transform="translate(0 -2.076)">
    <g id="Grupo_57846" data-name="Grupo 57846" transform="translate(21.444 116.47)">
      <path id="Trazado_105136" data-name="Trazado 105136" d="M91.559,407.125H75.93v26.424H89.681l2.832-26.424Z" transform="translate(-75.93 -407.125)" fill="#ce9874" fill-rule="evenodd"/>
    </g>
    <g id="Grupo_57847" data-name="Grupo 57847" transform="translate(44.743 19.956)">
      <path id="Trazado_105137" data-name="Trazado 105137" d="M200.324,84.019c.628-18.269-20.292-24.522-29.658-12.339a8.514,8.514,0,0,0-2.643-.421,8.662,8.662,0,0,0-8.218,5.938L158.426,90.61l12.1,7.615h29.893a7.105,7.105,0,1,0-.094-14.206Z" transform="translate(-158.426 -65.387)" fill="#f9f6f6" fill-rule="evenodd"/>
    </g>
    <g id="Grupo_57848" data-name="Grupo 57848" transform="translate(67.472 19.957)">
      <path id="Trazado_105138" data-name="Trazado 105138" d="M258.074,84.02c.446-12.868-9.8-19.772-19.169-18.476a32.592,32.592,0,0,1,5.9,19.1,34.056,34.056,0,0,1-2.758,13.586h16.125a7.1,7.1,0,1,0-.095-14.206Z" transform="translate(-238.905 -65.39)" fill="#ecdaec" fill-rule="evenodd"/>
    </g>
    <g id="Grupo_57849" data-name="Grupo 57849" transform="translate(0 13.698)">
      <path id="Trazado_105139" data-name="Trazado 105139" d="M35.807,149.635l23.522-47.648L53.563,90.674a.847.847,0,0,1,.755-1.232h4.767a.847.847,0,0,0,.755-1.232L37.156,43.689a.847.847,0,0,0-1.51,0L12.963,88.21a.847.847,0,0,0,.755,1.232h4.767a.847.847,0,0,1,.755,1.232L5.868,116.91a.847.847,0,0,0,.755,1.232h4.884a.847.847,0,0,1,.781,1.175L.067,148.46a.847.847,0,0,0,.781,1.175H35.807Z" transform="translate(0 -43.226)" fill="#ccf49e" fill-rule="evenodd"/>
    </g>
    <g id="Grupo_57850" data-name="Grupo 57850" transform="translate(28.217 13.699)">
      <path id="Trazado_105140" data-name="Trazado 105140" d="M107.5,149.638l4.03-37.423,19.491-10.225-6.393-12.546h7.532l-3.626-7.12-8.408-16.494L117.814,61.3l-8.966-17.6a.847.847,0,0,0-1.51,0l-2.912,5.719c1.817,8.408.578,55.956-4.518,100.226h7.59Z" transform="translate(-99.909 -43.23)" fill="#b3e59e" fill-rule="evenodd"/>
    </g>
    <g id="Grupo_57851" data-name="Grupo 57851" transform="translate(8.063 82.018)">
      <path id="Trazado_105141" data-name="Trazado 105141" d="M30.728,348.195a2.183,2.183,0,0,1-1.957-3.145l31.5-58.693a2.182,2.182,0,0,1,3.917,1.925l-31.5,58.694A2.182,2.182,0,0,1,30.728,348.195Z" transform="translate(-28.548 -285.136)" fill="#7e707d"/>
    </g>
    <path id="Trazado_105142" data-name="Trazado 105142" d="M172.459,303.316h25.46l-6.432-59.749a.873.873,0,0,0-.461-.679l-30.732-16.213-1.776-.938a.873.873,0,0,0-.813,0l-1.775.93-11.859,6.215-19.078,10.008a.872.872,0,0,0-.462.68l-3.983,36.961L118.1,303.316h25.67c-7.393-2.691-2.8-15.51-3.494-22.787l9.854-18.716,7.835-5.444,18.914,25.085C176.215,288.4,179.991,300.566,172.459,303.316Z" transform="translate(-84.743 -160.422)" fill="#ffd772" fill-rule="evenodd"/>
    <g id="Grupo_57852" data-name="Grupo 57852" transform="translate(102.325 81.793)">
      <path id="Trazado_105143" data-name="Trazado 105143" d="M396.286,347.624a2.182,2.182,0,0,1-1.96-1.22l-31.787-58.918a2.182,2.182,0,1,1,3.916-1.926l31.787,58.918a2.183,2.183,0,0,1-1.956,3.145Z" transform="translate(-362.315 -284.341)" fill="#7e707d"/>
    </g>
    <g id="Grupo_57853" data-name="Grupo 57853" transform="translate(95.495 2.078)">
      <path id="Trazado_105144" data-name="Trazado 105144" d="M379.9,19.713c.586-17.287-19.2-23.2-28.064-11.679a8.181,8.181,0,0,0-9.432,12.133,6.332,6.332,0,0,0-4.278,6.269,7,7,0,0,0,6.723,6.715H379.94a6.839,6.839,0,0,0,6.866-6.856A6.709,6.709,0,0,0,379.9,19.713Z" transform="translate(-338.129 -2.084)" fill="#f9f6f6" fill-rule="evenodd"/>
    </g>
    <g id="Grupo_57854" data-name="Grupo 57854" transform="translate(73.544 65.235)">
      <path id="Trazado_105145" data-name="Trazado 105145" d="M300.037,303.369h-5.813l-6.765-57-25.047-19.121L260.4,225.71a.814.814,0,0,1,.233.081l1.775.937,30.732,16.213a.873.873,0,0,1,.461.679Z" transform="translate(-260.405 -225.71)" fill="#fdb440" fill-rule="evenodd"/>
    </g>
    <g id="Grupo_57855" data-name="Grupo 57855" transform="translate(24.855 120.106)">
      <path id="Trazado_105146" data-name="Trazado 105146" d="M96.506,442.788,98.958,420h-7.59c-.818,11.389-1.7,16.51-3.361,22.787Z" transform="translate(-88.007 -420.001)" fill="#c6875e" fill-rule="evenodd"/>
    </g>
    <g id="Grupo_57856" data-name="Grupo 57856" transform="translate(73.831 95.841)">
      <path id="Trazado_105147" data-name="Trazado 105147" d="M288.19,356.819l-25.454-22.738h-1.313l13.883,47.053C282.839,378.384,287.53,363.757,288.19,356.819Z" transform="translate(-261.423 -334.081)" fill="#ce9874" fill-rule="evenodd"/>
    </g>
    <g id="Grupo_57857" data-name="Grupo 57857" transform="translate(46.139 95.841)">
      <path id="Trazado_105148" data-name="Trazado 105148" d="M186.064,347.857l4.063-13.776h-1.305l-6.211,5.55-19.243,17.188c.041.471.107.983.19,1.528,1.131,7.359,5.674,20.227,12.694,22.787l6.723-22.787Z" transform="translate(-163.368 -334.081)" fill="#ce9874" fill-rule="evenodd"/>
    </g>
    <g id="Grupo_57858" data-name="Grupo 57858" transform="translate(61.335 84.063)">
      <path id="Trazado_105149" data-name="Trazado 105149" d="M237.906,292.378H220.513a3.347,3.347,0,0,0-3.337,3.337v5.1a3.35,3.35,0,0,0,1.487,2.775,3.3,3.3,0,0,0,1.85.562h17.394a3.343,3.343,0,0,0,3.337-3.337v-5.1a3.347,3.347,0,0,0-3.337-3.337Z" transform="translate(-217.176 -292.378)" fill="#90d8f9"/>
    </g>
    <g id="Grupo_57859" data-name="Grupo 57859" transform="translate(76.276 84.063)">
      <path id="Trazado_105150" data-name="Trazado 105150" d="M279.2,295.715a3.347,3.347,0,0,0-3.337-3.337h-5.79a3.348,3.348,0,0,1,3.337,3.337v5.1a3.343,3.343,0,0,1-3.337,3.337h5.79a3.343,3.343,0,0,0,3.337-3.337Z" transform="translate(-270.078 -292.378)" fill="#75cef8" fill-rule="evenodd"/>
    </g>
    <g id="Grupo_57860" data-name="Grupo 57860" transform="translate(59.023 95.841)">
      <path id="Trazado_105151" data-name="Trazado 105151" d="M237.681,381.134,223.8,334.081h-.933L218.8,347.857l-3.089,10.489-6.723,22.787Z" transform="translate(-208.989 -334.081)" fill="#7e707d" fill-rule="evenodd"/>
    </g>
    <g id="Grupo_57861" data-name="Grupo 57861" transform="translate(70.734 95.841)">
      <path id="Trazado_105152" data-name="Trazado 105152" d="M267.437,381.134l-13.429-45.525-.454-1.528h-.933l-.116.413-2.048,6.921,11.72,39.719Z" transform="translate(-250.456 -334.081)" fill="#6a5d6a" fill-rule="evenodd"/>
    </g>
    <g id="Grupo_57862" data-name="Grupo 57862" transform="translate(0.704 140.712)">
      <path id="Trazado_105153" data-name="Trazado 105153" d="M143.144,497.326H4.765a2.243,2.243,0,0,1-2.273-2.115,2.182,2.182,0,0,1,2.181-2.249H143.053a2.243,2.243,0,0,1,2.273,2.115A2.182,2.182,0,0,1,143.144,497.326Z" transform="translate(-2.491 -492.962)" fill="#95d6a4"/>
    </g>
    <g id="Grupo_57863" data-name="Grupo 57863" transform="translate(118.29 2.076)">
      <path id="Trazado_105154" data-name="Trazado 105154" d="M437.821,19.707c.43-12.562-9.9-19.12-18.979-17.345a32.882,32.882,0,0,1,5.352,18.319,34.3,34.3,0,0,1-2.3,12.463h15.96a6.839,6.839,0,0,0,6.866-6.856,6.709,6.709,0,0,0-6.9-6.581Z" transform="translate(-418.842 -2.076)" fill="#ecdaec" fill-rule="evenodd"/>
    </g>
  </g>
</svg>
