<svg xmlns="http://www.w3.org/2000/svg" xmlns:xlink="http://www.w3.org/1999/xlink" width="438.449" height="1775" viewBox="0 0 438.449 1775">
  <defs>
    <clipPath id="clip-path">
      <rect id="Rectángulo_12786" data-name="Rectángulo 12786" width="436.617" height="443.638" fill="none"/>
    </clipPath>
  </defs>
  <g id="Grupo_58247" data-name="Grupo 58247" transform="translate(-483.782 226.791)">
    <rect id="Rectángulo_12786-5" data-name="Rectángulo 12786-5" width="436.617" height="1775" transform="translate(485.613 -226.791)" fill="#fff"/>
    <path id="Rectángulo_12786-6" data-name="Rectángulo 12786-6" d="M485.9-26.284,922.517,70.643V244H485.9Z" transform="translate(-0.287 -27.151)" fill="#8c6df2"/>
    <path id="Rectángulo_12786-7" data-name="Rectángulo 12786-7" d="M485.9,1000.938l436.617,96.927V1271.22H485.9Z" transform="translate(-0.287 -166.249)" fill="#cef6d6"/>
    <path id="Rectángulo_12786-8" data-name="Rectángulo 12786-8" d="M485.9,580l436.617-49.434V763.042H485.9Z" transform="translate(-0.287 -102.555)" fill="#88d6d6"/>
    <path id="Rectángulo_12786-9" data-name="Rectángulo 12786-9" d="M483.782,1631.413,920.4,1587.532V1793.89H483.782Z" transform="translate(0 -245.68)" fill="#ffdc72"/>
    <g id="Grupo_58213" data-name="Grupo 58213" transform="translate(485.613 216.847)">
      <g id="Grupo_58205" data-name="Grupo 58205">
        <g id="Grupo_58204" data-name="Grupo 58204" clip-path="url(#clip-path)">
          <g id="Grupo_58212" data-name="Grupo 58212" transform="translate(72.734 42.454)">
            <g id="Grupo_58211" data-name="Grupo 58211">
              <g id="Grupo_58209" data-name="Grupo 58209" transform="translate(0 115.767)">
                <path id="Trazado_106132" data-name="Trazado 106132" d="M921.474,941.313c-.37,6.657,31.112,19.78,32.406,10.174S922.41,924.46,921.474,941.313Z" transform="translate(-617.615 -532.288)" fill="#0a3d56"/>
                <g id="Grupo_58204-2" data-name="Grupo 58204" transform="translate(297.061 393.839)">
                  <path id="Trazado_106133" data-name="Trazado 106133" d="M947.232,945.838c.546,3.062,3.418,24.308,2.065,28.106a3.167,3.167,0,0,1-.166.428c-1.543,3.655-6.171,7.145-7.695,9.613-1.59,2.563-4.439,2.967-6.744,5.009-2.3,2.066-8.1,2.421-8.1,2.421s-9.115,6.694-9.376,3.038c-.309-4.558,5.033-8.522,5.033-8.522l4.059-10.278s-2.374-13.863-5.056-13.863c-2.68.023-1.686,5.744-3.039,10.3-.878,3.016-4.273,2.54-4.273,2.54l-.332-8.308s.546-11.917,2.089-14.171c1.519-2.256,9.186-10.161,9.186-10.161l3.205-17.139,22.978,1.377S946.662,942.777,947.232,945.838Z" transform="translate(-913.612 -924.853)" fill="#ff8b66"/>
                  <path id="Trazado_106134" data-name="Trazado 106134" d="M951.164,982.126c-1.543,3.655-6.171,7.145-7.695,9.613-1.59,2.563-4.439,2.967-6.744,5.009-2.3,2.066-8.1,2.421-8.1,2.421,2.184-1.734,6.125-11.419,7.122-12.012s1.591.783,3.372.783,2.563-3.56,4.344-2.967,3.561.807,4.938-1.567A3.017,3.017,0,0,1,951.164,982.126Z" transform="translate(-915.646 -932.607)" fill="#ef6e4b"/>
                </g>
                <path id="Trazado_106135" data-name="Trazado 106135" d="M625.844,690.62c-5.519-6.4-27.884,20.115-19.025,29.675s26.01-9.568,26.01-9.568S631.619,697.31,625.844,690.62Z" transform="translate(-574.73 -499.162)" fill="#0a3d56"/>
                <g id="Grupo_58205-2" data-name="Grupo 58205" transform="translate(0 155.826)">
                  <path id="Trazado_106136" data-name="Trazado 106136" d="M579.275,684.439c3.054.4,11.52,4.938,11.52,4.938,6.052,4.747,9.424,7.344,13.71,8.2,4.263.873,10.375,10.972,10.375,10.972s8.088-7.408,10.268-18.005c0,0-4.684-3.96-5.143-5.849-.938-3.759,2.131-8.9-.991-15.4-3.14-6.52-3.879-16.2-3.879-16.2s-3.631-1.612-4.471,2.053c-.837,3.706,1.371,9.165.495,10.689a4.37,4.37,0,0,1-.615.84.24.24,0,0,0-.045.078,4.111,4.111,0,0,1-3.1,1.561.527.527,0,0,1-.259,0c-4.241-.592-11.027-7.326-13.756-10.6-3.786-4.562-9.359-10.557-11.158-7.135s2.86,3.723,9.389,15.379l-.905,1.022c.425.865-7.292-4.15-13.233-10.008-4.1-4.022-5.522.046-4.944,1.942.557,1.916,5.274,5.36,8.2,8.305,1.957,1.925,4.007,3.916,5.232,5.094l-.605,1.7c-10.84-3.694-12.1-8.074-14.73-6.024-2.609,2.031,3.815,7.543,7.256,8.764a31.377,31.377,0,0,1,6.246,3.94c-8.84-1.21-10.682-4.285-12.415-2.2C569.94,680.66,576.221,684.043,579.275,684.439Z" transform="translate(-570.026 -649.563)" fill="#ff8b66"/>
                  <path id="Trazado_106137" data-name="Trazado 106137" d="M614.159,682.147c-2.113-5.394,1.545-11.917,2.015-12.709a4.111,4.111,0,0,1-3.1,1.561C609.934,677.9,614.159,682.147,614.159,682.147Z" transform="translate(-575.698 -652.254)" fill="#ef6e4b"/>
                </g>
                <path id="Trazado_106138" data-name="Trazado 106138" d="M734.849,605.186,673.684,717.219s-2.757-6.3-5.884-3.773-41.634-34.261-41.634-34.261,2.96,22.461-19.025,29.675c0,0,50.924,45.032,67.638,55.729s73.25-84.179,73.25-84.179Z" transform="translate(-575.052 -487.727)" fill="#0d527c"/>
                <g id="Grupo_58206" data-name="Grupo 58206" transform="translate(63.588 689.317)">
                  <path id="Trazado_106139" data-name="Trazado 106139" d="M643.574,1314.241a36.389,36.389,0,0,0,.283,4.713H723.8c0-1.58-.029-3.16-.113-4.713a146.8,146.8,0,0,0-7.505-39.054l-19.98-8.578c-1.721,10.3-6.152,16.874-11.711,21.164a28.436,28.436,0,0,1-4.571,2.934c-.734.4-1.47.762-2.229,1.1a38.566,38.566,0,0,1-5.108,1.891c-7.055,2.144-14.194,2.594-19.189,3.358C644.871,1298.382,643.574,1308.23,643.574,1314.241Z" transform="translate(-643.573 -1266.608)" fill="#0e3944"/>
                  <path id="Trazado_106140" data-name="Trazado 106140" d="M643.574,1321.7a36.389,36.389,0,0,0,.283,4.713H723.8c0-1.58-.029-3.16-.113-4.713Z" transform="translate(-643.573 -1274.068)" fill="#adbec4"/>
                  <path id="Trazado_106141" data-name="Trazado 106141" d="M685.613,1294.021l11.09,3.556,2.342-4.063-8.861-2.426A28.415,28.415,0,0,1,685.613,1294.021Z" transform="translate(-649.266 -1269.923)" fill="#adbec4"/>
                  <path id="Trazado_106142" data-name="Trazado 106142" d="M677.127,1297.642l7.478,4.966,4.6-1.806-6.969-5.051A38.584,38.584,0,0,1,677.127,1297.642Z" transform="translate(-648.117 -1270.554)" fill="#adbec4"/>
                </g>
                <g id="Grupo_58207" data-name="Grupo 58207" transform="translate(205.418 680.286)">
                  <path id="Trazado_106143" data-name="Trazado 106143" d="M807.7,1312.826a20.075,20.075,0,0,0,.9,4.713h53.249a24.04,24.04,0,0,0,1.5-4.713c5.248-25.481-30.138-56.664-30.138-56.664l-11.231,14.984s1.3,23.986-8.214,28.981C808.063,1303.12,807.329,1308.764,807.7,1312.826Z" transform="translate(-807.617 -1256.163)" fill="#0e3944"/>
                  <path id="Trazado_106144" data-name="Trazado 106144" d="M863.358,1321.7H807.71a20.076,20.076,0,0,0,.9,4.713h53.249A24.05,24.05,0,0,0,863.358,1321.7Z" transform="translate(-807.629 -1265.038)" fill="#adbec4"/>
                  <path id="Trazado_106145" data-name="Trazado 106145" d="M817.54,1303.914s22.435-5.115,32.664,1.508v-3.7S831.333,1292.547,817.54,1303.914Z" transform="translate(-808.961 -1261.858)" fill="#adbec4"/>
                  <path id="Trazado_106146" data-name="Trazado 106146" d="M822.681,1297.333s14.325-6.549,28.219,0l-1.587-3.735S832.718,1287.323,822.681,1297.333Z" transform="translate(-809.657 -1260.969)" fill="#adbec4"/>
                </g>
                <path id="Trazado_106147" data-name="Trazado 106147" d="M880.818,845.3c0,50.655-4.986,102.244-6.266,115.329s-14.83,159.275-16.737,215.826c-.976,28.969-10.276,64.033-10.276,64.033s-27.6-22.306-43.229-5.733l-3.917-22.6,7.326-17.8s-7.829-14.721-1.423-26.159,8.37-255.918,8.37-255.918l-12.328-.79-59.158,282.87v16.113s-12.857,20.521-12.969,33.621L690.9,1230.725l6.407-18.569-4.262-26.513,14.279-34.574s40.857-270.395,37.534-300.736Z" transform="translate(-586.394 -520.242)" fill="#8bbddb"/>
                <path id="Trazado_106148" data-name="Trazado 106148" d="M888.188,822.549s-21.335,30.051-83.809,20.16c-35.486-5.62-51.6-22.945-51.6-22.945s-11.4-201.157,1.146-217.472c9.125-11.852,27.062-16.933,50.45-18.168,8.819-.455,18.416-.373,28.61.1a96.51,96.51,0,0,1,21.386,3.426c26.175,7.307,44.518,24.474,47.3,37.945C905.173,642.5,888.188,822.549,888.188,822.549Z" transform="translate(-594.13 -484.834)" fill="#cfd8dc"/>
                <path id="Trazado_106149" data-name="Trazado 106149" d="M849.923,582.906s11.2,6.536,11.038,16.865c0,0,3.778-23.058-5.188-26.565S849.923,582.906,849.923,582.906Z" transform="translate(-607.856 -483.316)" fill="#0a3d56"/>
                <path id="Trazado_106150" data-name="Trazado 106150" d="M904.655,845.571s-27,17.983-60.225,12.652c0,0-11.209-210.986-8.179-230.764,0,0,10.558-11.747,19.521-18.448,7.855-5.863,10.046-17.843,10.477-20.756,26.175,7.307,45.139,13.1,47.924,26.567C917.67,631.721,904.655,845.571,904.655,845.571Z" transform="translate(-606.005 -485.434)" fill="#105e99"/>
                <path id="Trazado_106151" data-name="Trazado 106151" d="M803.983,584.172a87.069,87.069,0,0,0-12.191,36.617c-1.328,12.435-22.327,227.805-22.327,227.805-18.96-.109-23.283-10.947-23.283-10.947s-5.2-218.992,7.349-235.307C762.657,590.489,780.593,585.408,803.983,584.172Z" transform="translate(-593.735 -484.881)" fill="#105e99"/>
                <path id="Trazado_106152" data-name="Trazado 106152" d="M854.006,573.3s18.552.332,23.15,19.292-19.636,33.837-19.636,33.837-3.969-10.238-9.291-10.226-11.9,9.236-11.9,9.236,5.062-11.555,12.616-17.378S863.7,585.783,854.006,573.3Z" transform="translate(-606.087 -483.409)" fill="#0d527c"/>
                <path id="Trazado_106153" data-name="Trazado 106153" d="M811.7,572.806s-24.908,8.222-32.537,38.3c0,0,4.933-9.641,9.3-6.767s7.946,14.916,7.946,14.916,4.333-29.422,18.635-36.853Z" transform="translate(-598.345 -483.342)" fill="#0d527c"/>
                <path id="Trazado_106154" data-name="Trazado 106154" d="M920.315,611.82c-17.949,9.431-24.3,48.726-22.4,64.662l25.41,77.446s.635,9.011,3.813,10.281l-8.9,133.442c2.557-5.068,28.722-.938,32.406,10.174,0,0,17.81-128.819,15.26-164.175C965.4,736.635,920.315,611.82,920.315,611.82Z" transform="translate(-614.382 -488.625)" fill="#0d527c"/>
                <path id="Trazado_106155" data-name="Trazado 106155" d="M814.653,561.428l8.305,32.729s9.4,4.432,29.341-8.992c0,0-10.585-24.9-1.21-42.6,0,0-2.37.14-6.119.588C844.966,543.152,841.2,562.616,814.653,561.428Z" transform="translate(-603.151 -479.247)" fill="#ef6e4b"/>
                <g id="Grupo_58208" data-name="Grupo 58208" transform="translate(188.442)">
                  <path id="Trazado_106156" data-name="Trazado 106156" d="M853.59,517.691c.389,38.734-41.009,43.777-50.657,29.468-3.093-4.582-5.97-12.941-7.7-22.063-.4-2.068-.737-4.164-1-6.271-1.8-14.283-.4-28.745,7.579-32.571C829.568,472.921,853.2,478.959,853.59,517.691Z" transform="translate(-788.734 -470.753)" fill="#ff8b66"/>
                  <path id="Trazado_106157" data-name="Trazado 106157" d="M826.268,514.976c.2,2.143-.605,3.972-1.795,4.083s-2.319-1.537-2.519-3.681.605-3.972,1.795-4.083S826.068,512.831,826.268,514.976Z" transform="translate(-792.578 -475.012)" fill="#1a4850"/>
                  <path id="Trazado_106158" data-name="Trazado 106158" d="M803.758,518.969c.2,2.144-.605,3.972-1.795,4.083s-2.319-1.537-2.519-3.681.605-3.972,1.8-4.083S803.558,516.824,803.758,518.969Z" transform="translate(-789.53 -475.553)" fill="#1a4850"/>
                  <path id="Trazado_106159" data-name="Trazado 106159" d="M836.1,522.123c.686,1.631-.411,3.648-2.45,4.505s-4.249.232-4.934-1.4.411-3.648,2.45-4.505S835.415,520.492,836.1,522.123Z" transform="translate(-793.47 -476.238)" fill="#db614d"/>
                  <path id="Trazado_106160" data-name="Trazado 106160" d="M799.632,528.739c-.289,1.682-2.192,2.745-4.292,2.444-.4-2.068-.737-4.164-1-6.271a4.837,4.837,0,0,1,1.937-.044C798.453,525.264,799.955,527,799.632,528.739Z" transform="translate(-788.843 -476.841)" fill="#db614d"/>
                  <path id="Trazado_106161" data-name="Trazado 106161" d="M819.474,500.161s4.479-1.18,7.739.974" transform="translate(-792.246 -473.462)" fill="none" stroke="#8b383e" stroke-linecap="round" stroke-linejoin="round" stroke-width="1"/>
                  <path id="Trazado_106162" data-name="Trazado 106162" d="M800.087,504.809s-4.606.527-4.52,3.077" transform="translate(-789.009 -474.135)" fill="none" stroke="#8b383e" stroke-linecap="round" stroke-linejoin="round" stroke-width="1"/>
                  <path id="Trazado_106163" data-name="Trazado 106163" d="M807.218,512.166s.2,9.879-5.226,17.772c0,0-.216,4.173,7.29,2.615" transform="translate(-789.879 -475.131)" fill="none" stroke="#db614d" stroke-miterlimit="10" stroke-width="0.75"/>
                  <path id="Trazado_106164" data-name="Trazado 106164" d="M794.437,493.845s7.727-10.257,31.629-7.568c0,0,3.567,14.212,10.807,18.433S846.9,521.051,846.9,521.051s.675-6.019,3.764-6.681-.9,18.8-.9,18.8,11.765-1.78,12.345-34.271c.526-29.38-24.693-21.9-24.693-21.9s-6.066-12.109-33.962-5.879l2.017,1.073s-12.91,2.024-17.491,12.882l2.171-.22S787.685,490.592,794.437,493.845Z" transform="translate(-787.982 -469.331)" fill="#8b383e"/>
                  <path id="Trazado_106165" data-name="Trazado 106165" d="M853.407,522.512s5.594-7.914,11.808-3.949-2.3,18.356-8.615,18.428S853.407,522.512,853.407,522.512Z" transform="translate(-796.737 -475.847)" fill="#ff8b66"/>
                  <path id="Trazado_106166" data-name="Trazado 106166" d="M795.832,532.688s3.344,4.69,11.912,3.822c14.535-1.47,31.73-8.289,36.935-19.992l1.708,4.755s4.533,18.455,2.493,24.624l-1.339-.623s.447,7.695-10.4,13.521c-10.99,5.9-18.724,5.889-18.724,5.889l1.6,1.594S802.587,567.593,798,555.4l-.211,2.911S790.812,542.738,795.832,532.688Z" transform="translate(-788.799 -475.72)" fill="#8b383e"/>
                  <path id="Trazado_106167" data-name="Trazado 106167" d="M805.426,541.684s.857,1.231,7.55-.173a46.145,46.145,0,0,0,10.849-3.573s.127,13.686-10.04,14.563C805.349,553.232,805.426,541.684,805.426,541.684Z" transform="translate(-790.344 -478.621)" fill="#1a4850"/>
                </g>
              </g>
              <g id="Grupo_58210" data-name="Grupo 58210" transform="translate(9.88)">
                <ellipse id="Elipse_4258" data-name="Elipse 4258" cx="83.412" cy="73.276" rx="83.412" ry="73.276" fill="#105e99"/>
                <path id="Trazado_106168" data-name="Trazado 106168" d="M716.986,468.888,671.859,475.5s18.733,39.872,70.231,56.51C742.09,532.006,712.49,502.968,716.986,468.888Z" transform="translate(-593.695 -353.504)" fill="#105e99"/>
              </g>
            </g>
          </g>
        </g>
      </g>
    </g>
    <g id="Grupo_58224" data-name="Grupo 58224" transform="translate(485.613 -226.791)">
      <g id="Grupo_58207-2" data-name="Grupo 58207">
        <g id="Grupo_58206-2" data-name="Grupo 58206" clip-path="url(#clip-path)">
          <g id="Grupo_58223" data-name="Grupo 58223" transform="translate(116.767 44.871)">
            <g id="Grupo_58222" data-name="Grupo 58222">
              <g id="Grupo_58220" data-name="Grupo 58220" transform="translate(9.347 76.366)">
                <path id="Trazado_106169" data-name="Trazado 106169" d="M695.769,87.164c-2.065-3.838-18.985,16.645-14.194,29.216s14.194,10.462,14.194,10.462S701.767,98.317,695.769,87.164Z" transform="translate(-638.396 63.105)" fill="#c96f32"/>
                <g id="Grupo_58214" data-name="Grupo 58214" transform="translate(0 119.635)">
                  <path id="Trazado_106170" data-name="Trazado 106170" d="M667.876,51.806l9.338,11.12c9.376,11.109,7.021,12,5.255,19.637-1.643,7.144-15.022,5.58-20.346,3.426-4.512-1.789-16.535.974-19.861-1.517-1.345-1-.005-1.545,3.876-1.926a28.446,28.446,0,0,0,8.574-2.432c-2.866-4.217-19.189-.929-21.571-5.9-1.149-2.421,18.344,1.886,20.2-.616,0,0-.895-1.629-10.289-4.511-5.389-1.663-10.953-3.323-11.266-5.133-.55-3.293,10.133,2.137,23.685,3.349,0,0-5.471-2.808-10.715-5.069-4.8-2.042-9.492-3.454-8.379-5.5.907-1.683,8.3,1.713,13.1,3.7a58,58,0,0,0,20.105,4.545,20.523,20.523,0,0,0,2.843-.042C663.838,52.809,667.876,51.806,667.876,51.806Z" transform="translate(-631.766 -51.806)" fill="#ff8b66"/>
                  <path id="Trazado_106171" data-name="Trazado 106171" d="M678.307,66.988s-.9,6.34,2.517,9.837a7.907,7.907,0,0,1-5.36-9.795A20.4,20.4,0,0,0,678.307,66.988Z" transform="translate(-637.645 -53.862)" fill="#ef6e4b"/>
                </g>
                <path id="Trazado_106172" data-name="Trazado 106172" d="M690.732,77.524l9.044,21.94-8.968,20.969s-6.776-24.914-9.151-32.763S690.732,77.524,690.732,77.524Z" transform="translate(-638.478 64.347)" fill="#ff8b66"/>
                <path id="Trazado_106173" data-name="Trazado 106173" d="M793.643,38.226s-31.423,11.419-40.819,20.14l-25.531,79.075s-.872-5.526-2.616-3.277L695.9,80.6s-.482,29.216-14.194,29.216c0,0,28.147,77.616,43.845,81.977s42.733-64.118,42.733-64.118Z" transform="translate(-638.529 69.668)" fill="#f2a668"/>
                <path id="Trazado_106174" data-name="Trazado 106174" d="M720.568,249.735c12.984-13.747,121.352-4.3,133.169,8.127s-17.465-164-17.465-164-53.406-4.916-56.4,9.046C764.173,176.177,720.568,249.735,720.568,249.735Z" transform="translate(-643.791 62.248)" fill="#c96f32"/>
                <path id="Trazado_106175" data-name="Trazado 106175" d="M826.664,26.482s20.077-8.875,38-2.255l3.1,25.517s-42.631,15.545-56.417,10.97S793.854,45.228,826.664,26.482Z" transform="translate(-654.717 71.896)" fill="#c96f32"/>
                <path id="Trazado_106176" data-name="Trazado 106176" d="M660.737,684.435c4.9-3.957,17.465-20.91,20.052-29.43,3.653-12.037,7.976-28.582,12.391-46.611H712c-6.172,19.664-10.123,36.115-11.892,43.526a14.315,14.315,0,0,0,.692,3.476c.528,1.808,1.575,29.2,1.575,29.2H660.229c.164-.05.3-.086.378-.107A.407.407,0,0,0,660.737,684.435Z" transform="translate(-635.621 -7.54)" fill="#ef6e4b"/>
                <path id="Trazado_106177" data-name="Trazado 106177" d="M822.755,608.4H845c-4.155,22.919-7.409,42.382-7.409,42.382v33.817H813.352c2.334-10.123,9.078-40.463,9.078-53.259C822.428,623.822,822.549,616.144,822.755,608.4Z" transform="translate(-656.355 -7.54)" fill="#ff8b66"/>
                <path id="Trazado_106178" data-name="Trazado 106178" d="M692.292,573.675C705.52,522.791,721.884,445.761,724.01,433c1.375-8.244,2.6-34.411,5.849-66.537.847-36.633,5.068-120.388,25.643-167.932l48.437,1.132c-1.96,37.754,34.648,78.5-9.926,122.166-5.8,16.306-25.039,71.6-27.83,95.955-3.293,28.736-8.646,41.477-25.268,73.531-14.384,27.747-24.57,60.089-30.669,82.355Z" transform="translate(-639.962 47.96)" fill="#ef6e4b"/>
                <path id="Trazado_106179" data-name="Trazado 106179" d="M866.362,364.183h0c-3.1,16.081-7.506,26.845-9.929,40.376-3.528,19.706,6.508,48.256-3.615,79.993-4.792,15.021-13.741,64.626-18.517,92.059H815.922c.005-.259.014-.531.014-.778,0-66.77,9.211-146.375,7.844-176.646-.577-12.758-2.752-30.855-5.04-47.32-.013-.081-7.124-47.883-14.063-51.893C776.265,283.554,765.4,198.53,765.4,198.53l72.5,3.372s42.229,35.088,31.141,97.552c0,0,.046.641.1,1.763C870.912,330.624,869.174,349.6,866.362,364.183Z" transform="translate(-649.862 47.961)" fill="#ff8b66"/>
                <path id="Trazado_106180" data-name="Trazado 106180" d="M701.917,691.519s1.858-25.068-3.04-31.615c0,0-5.419,8.606-12.833,8.606-4.825,0-6.771-11.1-10.9-8.606-3.621,2.189-6.057,8.452-15.785,14.866s-17.632,4.589-18.243,16.749Z" transform="translate(-633.033 -14.465)" fill="#ce364c"/>
                <path id="Trazado_106181" data-name="Trazado 106181" d="M840.524,665.127s-.3-8.326-11.856-7.355-10.721,9.35-10.721,9.35a2.619,2.619,0,0,0-3.26,0c-1.52,1.35-.233,12.9-3.157,15.333s-2.011,8.819-2.011,8.819h33.742s1.824-8.208-1.52-11.247S846.907,666.039,840.524,665.127Z" transform="translate(-655.818 -14.215)" fill="#ce364c"/>
                <path id="Trazado_106182" data-name="Trazado 106182" d="M842.213,151.123c8.607,21.167,35.241,95.417,26.529,194.679,0,0-25.954,16.326-81.733,14.468-60.359-2.014-75.166-21.218-75.166-21.218,23.678-92.511,54.366-201.429,54.366-201.429C732.773,80.536,791.2,40.558,791.2,40.558s.418-.156,1.2-.418c7.666-2.564,50.181-15.567,77.94,2.2a43.84,43.84,0,0,1,5.258,3.9C905.5,71.873,842.213,151.123,842.213,151.123Z" transform="translate(-642.61 70.356)" fill="#ce364c"/>
                <g id="Grupo_58218" data-name="Grupo 58218" transform="translate(139.635)">
                  <path id="Trazado_106183" data-name="Trazado 106183" d="M880.591-60.476s12.8-13.124,25.152-1.787-.626,34.609-.025,38.889,10.629,5.325,8.231,10.689-8.832,6.236-8.231,8.853,6.7,6.819,4.089,9.515-8.342-.1-7.877,4.567,3.517,10.774-2.152,11.209c0,0,4.36-5.241.432-6.982s-6.946.173-8.706-5.36,6.354-7.716,2.734-10.768S882.621-4.7,886.4-9.5s5.11-9.169-1.889-13.208S880.591-60.476,880.591-60.476Z" transform="translate(-805.004 83.9)" fill="#8b383e"/>
                  <path id="Trazado_106184" data-name="Trazado 106184" d="M814.9-66.877c-14.407-.38-15.354,31.2,1.932,48S838.415-66.259,814.9-66.877Z" transform="translate(-794.721 83.9)" fill="#8b383e"/>
                  <path id="Trazado_106185" data-name="Trazado 106185" d="M864.814-70.947S821.851-85.333,813.2-55.084s-.8,62.154,19.373,60.02C860.95,1.933,898.186-53.933,864.814-70.947Z" transform="translate(-795.498 84.914)" fill="#ff8b66"/>
                  <path id="Trazado_106186" data-name="Trazado 106186" d="M847.129-21.721c.191,1.816-1.491,3.474-3.757,3.718s-4.258-1.038-4.449-2.853,1.491-3.474,3.757-3.713S846.937-23.529,847.129-21.721Z" transform="translate(-799.451 78.175)" fill="#db614d"/>
                  <g id="Grupo_58215" data-name="Grupo 58215" transform="translate(37.37 33.234)">
                    <path id="Trazado_106187" data-name="Trazado 106187" d="M843.466-43.456a.893.893,0,0,1-.7-.411,5.929,5.929,0,0,0-5.286-2.461.889.889,0,0,1-.98-.788v-.006a.893.893,0,0,1,.794-.982c.184-.021,4.6-.439,6.977,3.277A.892.892,0,0,1,844-43.595.881.881,0,0,1,843.466-43.456Z" transform="translate(-836.494 48.128)" fill="#8b383e"/>
                  </g>
                  <g id="Grupo_58216" data-name="Grupo 58216" transform="translate(16.984 30.14)">
                    <path id="Trazado_106188" data-name="Trazado 106188" d="M820.471-48.53a.893.893,0,0,1-.519-.2,5.875,5.875,0,0,0-5.788-.733.892.892,0,0,1-1.173-.462h0a.89.89,0,0,1,.457-1.172c.173-.077,4.249-1.823,7.644.993a.894.894,0,0,1,.118,1.257A.892.892,0,0,1,820.471-48.53Z" transform="translate(-812.916 51.706)" fill="#8b383e"/>
                  </g>
                  <path id="Trazado_106189" data-name="Trazado 106189" d="M816.61-11.362s6.484,4.179,17.817.519c0,0-3.406,13.434-10.611,11.727S816.61-11.362,816.61-11.362Z" transform="translate(-796.432 76.383)" fill="#1a4850"/>
                  <path id="Trazado_106190" data-name="Trazado 106190" d="M853.654-52.909s9.832,12.529,9.327,28.8c0,0,7.21-8.833,10.98-1.158S862.635-6.38,862.635-6.38s24.317,1.371,27.172-30.077C891.007-49.706,873.808-61.8,853.654-52.909Z" transform="translate(-801.448 82.422)" fill="#8b383e"/>
                  <path id="Trazado_106191" data-name="Trazado 106191" d="M858.283-6.462c-3.3,8.878-15.934,24.258-29.319,19.864,0,0,3.363,13.236-2.2,18.059,0,0-5.879,10.243,7.505,11.7,16.744,1.823,26.068-11.7,26.068-11.7-7.3-16.243,2.724-36.284,2.724-36.284C859.444-2.439,858.283-6.462,858.283-6.462Z" transform="translate(-797.632 75.719)" fill="#ef6e4b"/>
                  <g id="Grupo_58217" data-name="Grupo 58217" transform="translate(18.845 50.802)">
                    <path id="Trazado_106192" data-name="Trazado 106192" d="M818.537-18.085l.8-1.794c-.328-.148-3.164-1.522-2.025-4.291a2.586,2.586,0,0,1,1.421-1.587,3.172,3.172,0,0,1,2.263.275l.951-1.717a5.181,5.181,0,0,0-3.852-.412,4.423,4.423,0,0,0-2.594,2.695C813.983-21.24,816.824-18.84,818.537-18.085Z" transform="translate(-815.068 27.808)" fill="#db614d"/>
                  </g>
                  <path id="Trazado_106193" data-name="Trazado 106193" d="M840.421-30.791c-.126,1.933-1.222,3.435-2.446,3.355s-2.116-1.712-1.989-3.645,1.221-3.435,2.445-3.355S840.546-32.725,840.421-30.791Z" transform="translate(-799.054 79.508)" fill="#1a4850"/>
                  <path id="Trazado_106194" data-name="Trazado 106194" d="M840.941-31.661s-1.023-4.448-2.6-4.553-4.215,2.858-4.215,2.858l-2.895-2.109,2.788,1.094s2.407-3.387,4.6-2.7S840.941-31.661,840.941-31.661Z" transform="translate(-798.412 79.876)" fill="#1a4850"/>
                  <path id="Trazado_106195" data-name="Trazado 106195" d="M819.723-34c-.126,1.934-1.221,3.436-2.445,3.356s-2.116-1.712-1.989-3.645,1.221-3.435,2.446-3.355S819.849-35.931,819.723-34Z" transform="translate(-796.251 79.942)" fill="#1a4850"/>
                  <path id="Trazado_106196" data-name="Trazado 106196" d="M820.243-34.868s-1.022-4.448-2.6-4.553-4.214,2.853-4.214,2.853l-2.9-2.108,2.788,1.094s2.408-3.387,4.6-2.7S820.243-34.868,820.243-34.868Z" transform="translate(-795.609 80.311)" fill="#1a4850"/>
                  <path id="Trazado_106197" data-name="Trazado 106197" d="M834.6-65.8s-6.493,34.1,20.205,37.545c0,0,9.538-16.209,22.134-4.866,0,0,13.46-36.979-18.243-42.9,0,0-6.16-14.167-30.827-9.664-34.448,6.288-44.041,47.934-24.855,89.067C803.015,3.385,786.159-70.654,834.6-65.8Z" transform="translate(-793.271 86.566)" fill="#8b383e"/>
                </g>
                <path id="Trazado_106198" data-name="Trazado 106198" d="M881.765,42.339c-3.61,1.989-7.9,4.108-12.951,6.357-91.992,41.154-70.377,2.594-70.377,2.594a14.231,14.231,0,0,1,2.589-7.77,19.555,19.555,0,0,1,2.8-3.372c7.509-2.507,48.428-15.044,76.187,1.152C880.614,41.607,881.189,41.972,881.765,42.339Z" transform="translate(-654.036 70.354)" fill="#ef6e4b"/>
                <path id="Trazado_106199" data-name="Trazado 106199" d="M881.765,43.614c-3.61,1.989-7.9,4.108-12.951,6.357-91.992,41.154-70.377,2.594-70.377,2.594a14.231,14.231,0,0,1,2.589-7.77c3.349,1.569,10.178,4.657,12.428,5.18l1.466,5.652,7.849-5.076a205.507,205.507,0,0,0,57.244-7.979C880.614,42.881,881.189,43.247,881.765,43.614Z" transform="translate(-654.036 69.08)" fill="#ff8b66"/>
                <path id="Trazado_106200" data-name="Trazado 106200" d="M867.411,33.145s-26.77,18.542-42.469,55.44S853.066,280,853.066,280s28.125-7.349,49.71-21.082l-32.05-108.576s34.67-71.948,35.32-83.722C906.045,66.617,900.075,40.881,867.411,33.145Z" transform="translate(-657.465 70.356)" fill="#ffb878"/>
                <path id="Trazado_106201" data-name="Trazado 106201" d="M878.135,34.3s4.058,12.867,1.084,40c0,0-6.9-5.137-19.979-4.373,0,0-32.471,36.911-32.914,92.748,0,0-13.841-53.42-3.872-80.551s44.591-57.516,44.591-57.516Z" transform="translate(-657.099 71.512)" fill="#f2a668"/>
                <path id="Trazado_106202" data-name="Trazado 106202" d="M798.847,38.226S770,79.871,769.343,94.192s0,60.646,0,60.646l-48.4,99.532s-9.549-22.2,37.091-97.111c0,0-5.691-48.05-3.074-63.115S770.656,49.377,798.847,38.226Z" transform="translate(-643.734 69.668)" fill="#ffb878"/>
                <path id="Trazado_106203" data-name="Trazado 106203" d="M776.547,153.347s-.454-59.531,9.094-83.671,37.24-42.457,37.24-42.457-34.693,11.4-47.968,40.885a19.3,19.3,0,0,1,6.541-.654S767.064,81.285,776.547,153.347Z" transform="translate(-650.933 71.158)" fill="#f2a668"/>
                <path id="Trazado_106204" data-name="Trazado 106204" d="M914.055,71.859s28.416,109.23,19.768,118.387-19.185,25.914-34.812-9.264S880.7,116.693,880.7,116.693,895.741,72.513,914.055,71.859Z" transform="translate(-665.475 65.114)" fill="#f2a668"/>
                <path id="Trazado_106205" data-name="Trazado 106205" d="M895.534,131.056s19.934-.459,24.647-13.541C920.181,117.515,904.8,112.083,895.534,131.056Z" transform="translate(-667.484 59.029)" fill="#c96f32"/>
                <path id="Trazado_106206" data-name="Trazado 106206" d="M897.21,97.267l7.061,29s12.018-2.563,14.637-10.412l-5.234-18.589Z" transform="translate(-667.711 61.674)" fill="#ff8b66"/>
                <g id="Grupo_58219" data-name="Grupo 58219" transform="translate(228.872 124.041)">
                  <path id="Trazado_106207" data-name="Trazado 106207" d="M903.615,63.989l-4.632,13.764c-4.669,13.766-2.152,13.736,2.282,20.2,4.14,6.052,16.023-.294,20.192-4.244,3.545-3.314,15.748-5.135,17.934-8.669.885-1.425-.559-1.44-4.312-.376a28.421,28.421,0,0,1-8.87.865c1.124-4.971,17.523-7.874,17.924-13.372.186-2.673-16.387,8.457-19.029,6.808,0,0,.238-1.843,7.927-7.954,4.409-3.515,8.982-7.09,8.611-8.893-.692-3.266-8.652,5.692-20.824,11.771,0,0,4.064-4.613,8.122-8.633,3.718-3.653,7.574-6.683,5.793-8.183-1.459-1.236-7.1,4.627-10.842,8.227a57.975,57.975,0,0,1-17.054,11.576,20.421,20.421,0,0,1-2.662,1C907.74,63.447,903.615,63.989,903.615,63.989Z" transform="translate(-896.485 -56.902)" fill="#ff8b66"/>
                  <path id="Trazado_106208" data-name="Trazado 106208" d="M905.374,81s3.157,5.572,1.251,10.077A7.906,7.906,0,0,0,908.036,80,20.542,20.542,0,0,1,905.374,81Z" transform="translate(-897.688 -60.029)" fill="#ef6e4b"/>
                </g>
              </g>
              <g id="Grupo_58221" data-name="Grupo 58221">
                <ellipse id="Elipse_4259" data-name="Elipse 4259" cx="76.54" cy="67.239" rx="76.54" ry="67.239" fill="#ffb878"/>
                <path id="Trazado_106209" data-name="Trazado 106209" d="M745.322-52.432,703.908-46.37S721.1-9.782,768.353,5.486C768.357,5.486,741.2-21.16,745.322-52.432Z" transform="translate(-632.188 158.31)" fill="#ffb878"/>
              </g>
            </g>
          </g>
        </g>
      </g>
    </g>
    <g id="Grupo_58234" data-name="Grupo 58234" transform="translate(485.613 661.332)">
      <g id="Grupo_58209-2" data-name="Grupo 58209">
        <g id="Grupo_58208-2" data-name="Grupo 58208" clip-path="url(#clip-path)">
          <g id="Grupo_58233" data-name="Grupo 58233" transform="translate(76.683 20.969)">
            <g id="Grupo_58232" data-name="Grupo 58232">
              <g id="Grupo_58230" data-name="Grupo 58230" transform="translate(17.406 120.084)">
                <path id="Trazado_106210" data-name="Trazado 106210" d="M658.939,1767.958c5.111-4.128,18.223-21.815,20.923-30.7,3.81-12.558,8.321-29.821,12.927-48.63h19.635c-6.438,20.516-10.56,37.679-12.406,45.411a14.957,14.957,0,0,0,.725,3.626c.551,1.887,1.643,30.461,1.643,30.461H658.414c.173-.052.309-.087.394-.112A.412.412,0,0,0,658.939,1767.958Z" transform="translate(-603.35 -1061.754)" fill="#ef6e4b"/>
                <path id="Trazado_106211" data-name="Trazado 106211" d="M691.858,1652.4c13.8-53.086,30.874-133.452,33.092-146.763,1.433-8.6,2.716-35.9,6.1-69.418.884-38.215,5.288-125.6,26.754-175.2l50.533,1.181c-2.045,39.388,36.148,81.9-10.356,127.458-6.052,17.012-26.124,74.7-29.035,100.109-3.436,29.98-9.025,43.273-26.362,76.716-15.008,28.948-25.634,62.687-32,85.919Z" transform="translate(-607.878 -1003.852)" fill="#ef6e4b"/>
                <path id="Trazado_106212" data-name="Trazado 106212" d="M701.9,1775.348s1.938-26.153-3.171-32.983c0,0-5.654,8.979-13.389,8.979-5.034,0-7.064-11.586-11.372-8.979-3.777,2.283-6.319,8.819-16.468,15.509s-18.394,4.788-19.029,17.474Z" transform="translate(-600.649 -1068.98)" fill="#0e3944"/>
                <path id="Trazado_106213" data-name="Trazado 106213" d="M827.97,1688.625h23.213c-4.335,23.912-7.73,44.218-7.73,44.218v35.281H818.16c2.436-10.562,9.468-42.213,9.468-55.562C827.628,1704.723,827.755,1696.711,827.97,1688.625Z" transform="translate(-624.981 -1061.754)" fill="#ff8b66"/>
                <path id="Trazado_106214" data-name="Trazado 106214" d="M873.462,1433.842h0c-3.238,16.782-7.831,28.007-10.359,42.128-3.681,20.559,6.79,50.346-3.771,83.456-5,15.672-14.337,67.424-19.318,96.045H820.839c.005-.271.015-.554.015-.812,0-69.661,9.61-152.717,8.183-184.293-.605-13.315-2.872-32.191-5.258-49.368-.013-.086-7.435-49.955-14.671-54.139-29.642-17.133-40.974-105.838-40.974-105.838l75.637,3.519s44.059,36.608,32.49,101.776c0,0,.047.668.105,1.839C878.211,1398.83,876.4,1418.632,873.462,1433.842Z" transform="translate(-618.207 -1003.852)" fill="#ff8b66"/>
                <path id="Trazado_106215" data-name="Trazado 106215" d="M846.507,1747.813s-.317-8.687-12.369-7.673-11.187,9.754-11.187,9.754a2.733,2.733,0,0,0-3.4,0c-1.586,1.408-.243,13.459-3.293,15.995s-2.1,9.2-2.1,9.2h35.2s1.9-8.559-1.586-11.734S853.167,1748.764,846.507,1747.813Z" transform="translate(-624.42 -1068.719)" fill="#0e3944"/>
                <path id="Trazado_106216" data-name="Trazado 106216" d="M708.1,1589.662s13.62,5.978,28.988,3.248v-4.095s35.157-65.509,38.568-110.547c0,0,7.725-19.981,15.8-44.628,2.211-6.77,4.449-13.92,6.579-21.073,5.322-18.124,9.856-36.467,11.055-49.869,3.412-37.969-5.841-136.724-5.841-136.724l-34.529-.873-2.647-.054s-10.672,20.8-20.608,61.606c-8.707,35.73-16.9,86.827-16.9,152.773Z" transform="translate(-610.078 -998.981)" fill="#8b383e"/>
                <path id="Trazado_106217" data-name="Trazado 106217" d="M802.724,1364.381s13.757,113.059,17.661,236.927c0,0,21.182,3.494,33.928,0v-8.052s21.864-75.172,16.841-121.3c0,0,24.839-67.311,7.752-164.674a420.237,420.237,0,0,0-21.454-77.356l-14.576-1.338-47.985-4.395S756.622,1289.295,802.724,1364.381Z" transform="translate(-619.812 -998.865)" fill="#8b383e"/>
                <path id="Trazado_106218" data-name="Trazado 106218" d="M842.308,1232.28s14.006,61.524,45.037,75.691a420.248,420.248,0,0,0-21.454-77.356l-14.576-1.338A47.177,47.177,0,0,0,842.308,1232.28Z" transform="translate(-628.251 -999.553)" fill="#662c33"/>
                <path id="Trazado_106219" data-name="Trazado 106219" d="M751.321,1286.653a23.741,23.741,0,0,0,5.841-9.908c3.657-12.748,13.593-40.917,17.415-51.644l-2.647-.054S761.257,1245.846,751.321,1286.653Z" transform="translate(-615.93 -998.981)" fill="#662c33"/>
                <path id="Trazado_106220" data-name="Trazado 106220" d="M792.523,1403.479c4.8,7.725,7.506,18.807,8.953,30.353,2.211-6.77,4.449-13.92,6.579-21.073-1.064-5.486-5.787-32.076-7.916-77.6-2.4-51.4,5.62-107.709,5.62-107.709l-3.876-.982s-21.154,75.417-1.774,127.28c-.792-.846-13.4-14.9-16.946-27.242C783.161,1326.506,777.316,1379.023,792.523,1403.479Z" transform="translate(-620.092 -999.173)" fill="#662c33"/>
                <g id="Grupo_58225" data-name="Grupo 58225" transform="translate(0 225.596)">
                  <path id="Trazado_106221" data-name="Trazado 106221" d="M619.616,1224.5l14.5,4.392c14.525,4.363,12.976,6.484,15.786,14.163,2.636,7.176-9.943,13.439-15.822,14.592-4.962,1.01-13.892,10.276-18.219,10-1.746-.111-.885-1.347,2.289-3.891a29.651,29.651,0,0,0,6.106-7.014c-4.907-2.051-17.292,10.128-22.21,7.142-2.385-1.46,17.1-8.81,17.3-12.054,0,0-1.711-.912-11.56,1.923-5.656,1.62-11.464,3.341-12.769,1.938-2.359-2.564,10.073-3.909,22.6-10.576,0,0-6.382.666-12.251,1.679-5.355.951-10.263,2.392-10.462-.031-.168-1.989,8.231-3.237,13.552-4.237a60.509,60.509,0,0,0,20.158-7.49,21.453,21.453,0,0,0,2.461-1.657C616.659,1227.681,619.616,1224.5,619.616,1224.5Z" transform="translate(-594.725 -1224.503)" fill="#ff8b66"/>
                  <path id="Trazado_106222" data-name="Trazado 106222" d="M636.389,1234.767s2.826,6.052,7.806,7.161a8.249,8.249,0,0,1-10.267-5.5A21.447,21.447,0,0,0,636.389,1234.767Z" transform="translate(-600.034 -1225.893)" fill="#ef6e4b"/>
                </g>
                <path id="Trazado_106223" data-name="Trazado 106223" d="M787.3,1096.912c-24.174,6.433-28.272,20.867-53.518,101.338a89.925,89.925,0,0,0-28.66,6.293c-14.331,5.937-59.325,12.983-59.325,12.983l4.051,11.274s80.969.426,92.123-5.221,37.4-72.505,37.4-72.505Z" transform="translate(-601.641 -981.63)" fill="#ff8b66"/>
                <path id="Trazado_106224" data-name="Trazado 106224" d="M855.146,1211.561c-58.629,13.261-81.628-5.015-81.628-5.015-34.884-59.56,28.4-110.339,28.4-110.339s.438-.163,1.256-.432c8-2.676,52.353-16.241,81.314,2.292a45.859,45.859,0,0,1,5.486,4.064C921.173,1128.88,855.146,1211.561,855.146,1211.561Z" transform="translate(-617.515 -980.488)" fill="#8bbddb"/>
                <g id="Grupo_58229" data-name="Grupo 58229" transform="translate(175.06)">
                  <path id="Trazado_106225" data-name="Trazado 106225" d="M808.155,1058.595s41.241-11.489,74.759,5.477c0,0,38.063-92.815-27.9-91.833S802.241,1042.066,808.155,1058.595Z" transform="translate(-797.984 -964.746)" fill="#ffb878"/>
                  <path id="Trazado_106226" data-name="Trazado 106226" d="M871.849,979.871S827.027,964.864,818,996.422s-.83,64.844,20.211,62.619C867.815,1055.908,906.666,997.623,871.849,979.871Z" transform="translate(-799.528 -965.298)" fill="#ff8b66"/>
                  <path id="Trazado_106227" data-name="Trazado 106227" d="M853.4,1031.23c.2,1.89-1.556,3.624-3.919,3.874s-4.442-1.082-4.641-2.972,1.556-3.624,3.919-3.874S853.2,1029.34,853.4,1031.23Z" transform="translate(-803.651 -972.329)" fill="#db614d"/>
                  <g id="Grupo_58226" data-name="Grupo 58226" transform="translate(38.993 34.672)">
                    <path id="Trazado_106228" data-name="Trazado 106228" d="M849.577,1008.554a.934.934,0,0,1-.731-.432,6.183,6.183,0,0,0-5.514-2.568.932.932,0,0,1-.2-1.853c.192-.022,4.8-.459,7.279,3.419a.932.932,0,0,1-.839,1.431Z" transform="translate(-842.303 -1003.676)" fill="#ffb878"/>
                  </g>
                  <g id="Grupo_58227" data-name="Grupo 58227" transform="translate(17.74 31.447)">
                    <path id="Trazado_106229" data-name="Trazado 106229" d="M825.589,1003.26a.931.931,0,0,1-.537-.213,6.13,6.13,0,0,0-6.037-.764.931.931,0,0,1-.749-1.7c.181-.08,4.433-1.9,7.975,1.038a.931.931,0,0,1-.652,1.643Z" transform="translate(-817.722 -999.947)" fill="#ffb878"/>
                  </g>
                  <path id="Trazado_106230" data-name="Trazado 106230" d="M821.558,1042.038s6.765,4.36,18.589.54c0,0-3.554,14.016-11.067,12.235S821.558,1042.038,821.558,1042.038Z" transform="translate(-800.501 -974.199)" fill="#1a4850"/>
                  <path id="Trazado_106231" data-name="Trazado 106231" d="M860.206,998.691s10.261,13.071,9.731,30.043c0,0,7.522-9.216,11.455-1.21s-11.821,19.708-11.821,19.708,25.37,1.43,28.35-31.38C899.176,1002.033,881.234,989.411,860.206,998.691Z" transform="translate(-805.735 -967.898)" fill="#ffb878"/>
                  <path id="Trazado_106232" data-name="Trazado 106232" d="M865.034,1047.144c-3.439,9.262-16.623,25.307-30.587,20.723,0,0,3.508,13.81-2.3,18.841,0,0-6.139,10.686,7.83,12.208,17.469,1.9,27.2-12.208,27.2-12.208-7.608-16.946,2.842-37.854,2.842-37.854C866.246,1051.345,865.034,1047.144,865.034,1047.144Z" transform="translate(-801.753 -974.89)" fill="#ef6e4b"/>
                  <g id="Grupo_58228" data-name="Grupo 58228" transform="translate(19.663 53.005)">
                    <path id="Trazado_106233" data-name="Trazado 106233" d="M823.568,1035.025l.831-1.871c-.341-.155-3.3-1.587-2.113-4.478a2.7,2.7,0,0,1,1.483-1.655,3.309,3.309,0,0,1,2.361.287l.992-1.791a5.41,5.41,0,0,0-4.019-.432,4.619,4.619,0,0,0-2.71,2.812C818.817,1031.732,821.781,1034.236,823.568,1035.025Z" transform="translate(-819.946 -1024.881)" fill="#db614d"/>
                  </g>
                  <path id="Trazado_106234" data-name="Trazado 106234" d="M846.4,1021.767c-.131,2.017-1.274,3.584-2.551,3.5s-2.207-1.786-2.075-3.8,1.274-3.585,2.551-3.5S846.527,1019.75,846.4,1021.767Z" transform="translate(-803.237 -970.938)" fill="#1a4850"/>
                  <path id="Trazado_106235" data-name="Trazado 106235" d="M846.943,1020.859s-1.066-4.641-2.712-4.751-4.4,2.983-4.4,2.983l-3.021-2.2,2.909,1.141s2.512-3.534,4.8-2.813S846.943,1020.859,846.943,1020.859Z" transform="translate(-802.567 -970.554)" fill="#1a4850"/>
                  <path id="Trazado_106236" data-name="Trazado 106236" d="M824.806,1018.421c-.131,2.017-1.273,3.585-2.551,3.5s-2.208-1.786-2.075-3.8,1.274-3.585,2.551-3.5S824.937,1016.4,824.806,1018.421Z" transform="translate(-800.313 -970.486)" fill="#1a4850"/>
                  <path id="Trazado_106237" data-name="Trazado 106237" d="M825.349,1017.514s-1.067-4.641-2.712-4.75-4.4,2.981-4.4,2.981l-3.02-2.2,2.909,1.141s2.512-3.534,4.8-2.813S825.349,1017.514,825.349,1017.514Z" transform="translate(-799.643 -970.101)" fill="#1a4850"/>
                  <path id="Trazado_106238" data-name="Trazado 106238" d="M840.321,985.244s-6.774,35.576,21.08,39.166c0,0,9.951-16.911,23.09-5.076,0,0,14.043-38.581-19.029-44.754,0,0-6.427-14.785-32.163-10.083-35.939,6.56-45.948,50.009-25.931,92.924C807.374,1057.422,789.788,980.176,840.321,985.244Z" transform="translate(-797.203 -963.574)" fill="#ffb878"/>
                </g>
                <path id="Trazado_106239" data-name="Trazado 106239" d="M889.534,1098.061c-3.767,2.075-8.244,4.286-13.512,6.633-95.969,42.936-73.425,2.7-73.425,2.7a14.837,14.837,0,0,1,2.7-8.107,20.386,20.386,0,0,1,2.921-3.521c7.833-2.621,50.524-15.695,79.484,1.2C888.333,1097.3,888.933,1097.679,889.534,1098.061Z" transform="translate(-622.562 -980.487)" fill="#ef6e4b"/>
                <path id="Trazado_106240" data-name="Trazado 106240" d="M889.534,1099.392c-3.767,2.075-8.244,4.286-13.512,6.633-95.969,42.936-73.425,2.7-73.425,2.7a14.837,14.837,0,0,1,2.7-8.107c3.494,1.638,10.618,4.859,12.969,5.4l1.529,5.9,8.189-5.3a214.408,214.408,0,0,0,59.722-8.325C888.333,1098.629,888.933,1099.01,889.534,1099.392Z" transform="translate(-622.562 -981.818)" fill="#ff8b66"/>
                <path id="Trazado_106241" data-name="Trazado 106241" d="M795.747,1189.167l14.5,4.393c14.525,4.362,12.976,6.484,15.786,14.162,2.636,7.176-9.943,13.439-15.822,14.592-4.963,1.01-13.893,10.277-18.219,10-1.747-.111-.885-1.347,2.289-3.891a29.648,29.648,0,0,0,6.1-7.014c-4.907-2.051-17.292,10.128-22.21,7.142-2.385-1.461,17.1-8.81,17.3-12.053,0,0-1.71-.913-11.56,1.922-5.656,1.62-11.464,3.342-12.769,1.938-2.358-2.564,10.072-3.909,22.6-10.576,0,0-6.382.666-12.251,1.679-5.354.951-10.263,2.392-10.461-.031-.168-1.989,8.232-3.237,13.552-4.237a60.507,60.507,0,0,0,20.159-7.489,21.368,21.368,0,0,0,2.46-1.657C792.791,1192.345,795.747,1189.167,795.747,1189.167Z" transform="translate(-618.576 -994.122)" fill="#ff8b66"/>
                <path id="Trazado_106242" data-name="Trazado 106242" d="M901.021,1106.938c-15.017-9.77-26.587,21.169-24.584,41.587.9,9.206,24.584,76.156,24.584,76.156l-70.9-36.478-4.339,11.149s33.364,23.6,53.381,40.549,41.4,17.124,48.676,11.577-4.549-56.5-8.646-77.427S909.751,1112.616,901.021,1106.938Z" transform="translate(-626.014 -982.735)" fill="#ff8b66"/>
              </g>
              <g id="Grupo_58231" data-name="Grupo 58231">
                <ellipse id="Elipse_4260" data-name="Elipse 4260" cx="106.053" cy="75.376" rx="106.053" ry="75.376" fill="#8bbddb"/>
                <path id="Trazado_106243" data-name="Trazado 106243" d="M728.3,974.974l-46.421,6.8s19.27,41.014,72.243,58.129C754.125,1039.9,723.677,1010.03,728.3,974.974Z" transform="translate(-589.122 -845.034)" fill="#8bbddb"/>
              </g>
            </g>
          </g>
        </g>
      </g>
    </g>
    <g id="Grupo_58246" data-name="Grupo 58246" transform="translate(485.613 1104.569)">
      <g id="Grupo_58211-2" data-name="Grupo 58211">
        <g id="Grupo_58210-2" data-name="Grupo 58210" clip-path="url(#clip-path)">
          <g id="Grupo_58245" data-name="Grupo 58245" transform="translate(52.906 39.178)">
            <g id="Grupo_58244" data-name="Grupo 58244">
              <g id="Grupo_58242" data-name="Grupo 58242" transform="translate(20.891 60.939)">
                <path id="Trazado_106244" data-name="Trazado 106244" d="M633.633,1777.573c-8.929,1.15,1.5,36.619,15.209,34.36s6.778-28.755,6.778-28.755S642.976,1776.369,633.633,1777.573Z" transform="translate(-579.252 -1476.081)" fill="#a1b1b5"/>
                <g id="Grupo_58235" data-name="Grupo 58235" transform="translate(0 287.961)">
                  <path id="Trazado_106245" data-name="Trazado 106245" d="M600.36,1812.263c2.147-2.484,11.162-7.343,11.162-7.343,7.781-2.594,12.07-4.063,15.348-7.375,3.285-3.277,15.857-2.78,15.857-2.78s-1.834-11.547-9.977-19.713c0,0-6.274,1.839-8.224,1.136-3.9-1.375-6.663-7.126-14.277-8.169-7.645-1.037-16.691-6.075-16.691-6.075s-3.572,2.285-.8,5.182c2.8,2.923,8.957,4.167,9.8,5.843a4.665,4.665,0,0,1,.387,1.037.251.251,0,0,0,.042.086,4.38,4.38,0,0,1-.432,3.674.565.565,0,0,1-.15.233c-3.019,3.424-13,5.5-17.511,6-6.282.686-14.891,2.118-12.9,5.731s4.991-.355,19.194.687l.377,1.406c1.02.132-7.974,4.047-16.677,5.888-5.987,1.283-3.205,4.937-1.178,5.538,2.031.63,7.868-1.542,12.207-2.416,2.862-.605,5.839-1.262,7.608-1.658l1.154,1.541c-9.656,7.469-14.292,6.014-14.014,9.559.273,3.515,8.95,1.037,12.058-1.3a33.508,33.508,0,0,1,7.176-3.239c-6.269,7.153-10.088,6.982-9.251,9.751C591.514,1818.344,598.214,1814.745,600.36,1812.263Z" transform="translate(-571.255 -1761.945)" fill="#ff8b66"/>
                  <path id="Trazado_106246" data-name="Trazado 106246" d="M618,1785.258c-6.039-1.291-9.691-8.378-10.116-9.26a4.379,4.379,0,0,1-.432,3.673C611.735,1786.518,618,1785.258,618,1785.258Z" transform="translate(-576.156 -1763.848)" fill="#ef6e4b"/>
                </g>
                <path id="Trazado_106247" data-name="Trazado 106247" d="M737.845,1575.638c-20.893,27.246-38.951,150.179-38.951,150.179s-7.219-1.249-6.814,3.016-57.927,21.413-57.927,21.413,21.715,10.568,15.209,34.36c0,0,67.754-10.541,87.089-19.119s23.8-138.448,23.8-138.448Z" transform="translate(-579.772 -1448.756)" fill="#cfd8dc"/>
                <g id="Grupo_58236" data-name="Grupo 58236" transform="translate(136.848 736.461)">
                  <path id="Trazado_106248" data-name="Trazado 106248" d="M729.537,2331.465a38.737,38.737,0,0,0,.3,5.024h85.217c0-1.685-.03-3.372-.12-5.024a156.456,156.456,0,0,0-8-41.631l-21.3-9.144c-1.835,10.98-6.557,17.988-12.483,22.56a30.26,30.26,0,0,1-4.874,3.128c-.778.422-1.564.813-2.376,1.173a40.958,40.958,0,0,1-5.447,2.015c-7.522,2.287-15.13,2.767-20.454,3.58C730.921,2314.56,729.537,2325.058,729.537,2331.465Z" transform="translate(-729.536 -2280.69)" fill="#0e3944"/>
                  <path id="Trazado_106249" data-name="Trazado 106249" d="M729.537,2339.417a38.737,38.737,0,0,0,.3,5.024h85.217c0-1.685-.03-3.372-.12-5.024Z" transform="translate(-729.536 -2288.642)" fill="#adbec4"/>
                  <path id="Trazado_106250" data-name="Trazado 106250" d="M774.348,2309.911l11.821,3.791,2.5-4.332-9.445-2.587A30.242,30.242,0,0,1,774.348,2309.911Z" transform="translate(-735.604 -2284.223)" fill="#adbec4"/>
                  <path id="Trazado_106251" data-name="Trazado 106251" d="M765.3,2313.773l7.971,5.294,4.9-1.925-7.43-5.385A40.918,40.918,0,0,1,765.3,2313.773Z" transform="translate(-734.38 -2284.897)" fill="#adbec4"/>
                </g>
                <g id="Grupo_58237" data-name="Grupo 58237" transform="translate(271.767 726.835)">
                  <path id="Trazado_106252" data-name="Trazado 106252" d="M885.67,2329.957a21.444,21.444,0,0,0,.963,5.024h56.761a25.6,25.6,0,0,0,1.594-5.024c5.595-27.162-40.259-60.4-40.259-60.4l-3.839,15.973s1.383,25.568-8.753,30.892C886.061,2319.609,885.279,2325.626,885.67,2329.957Z" transform="translate(-885.586 -2269.556)" fill="#0e3944"/>
                  <path id="Trazado_106253" data-name="Trazado 106253" d="M945,2339.417H885.683a21.442,21.442,0,0,0,.963,5.024h56.761A25.612,25.612,0,0,0,945,2339.417Z" transform="translate(-885.599 -2279.016)" fill="#adbec4"/>
                  <path id="Trazado_106254" data-name="Trazado 106254" d="M896.164,2320.456s23.914-5.452,34.818,1.608v-3.949S910.865,2308.34,896.164,2320.456Z" transform="translate(-887.018 -2275.627)" fill="#adbec4"/>
                  <path id="Trazado_106255" data-name="Trazado 106255" d="M901.644,2313.441s15.27-6.981,30.08,0l-1.692-3.981S912.342,2302.771,901.644,2313.441Z" transform="translate(-887.76 -2274.679)" fill="#adbec4"/>
                </g>
                <path id="Trazado_106256" data-name="Trazado 106256" d="M897.368,1831.6c0,54,17.35,248.81,19.212,262.7,3.569,26.629,1.58,72.687,6.484,100.909a290.5,290.5,0,0,1,3.891,57.645s-29.419-23.776-46.083-6.112l-6.886-24.094,5.1-18.972-9.65-27.884c6.83-12.191-42.587-272.8-42.587-272.8l-5.009-.842,2.005,301.526v17.177s-5.572,21.874-5.692,35.839l-50.035-14.251,6.83-19.793-4.543-25.551,1.665-34.143s-16.09-293.651-19.632-325.993Z" transform="translate(-595.79 -1483.416)" fill="#8b383e"/>
                <path id="Trazado_106257" data-name="Trazado 106257" d="M898.927,1807.345s-13.793,11.931-81.2,10.645c-52.053-1-65.844-13.613-65.844-13.613s-12.156-214.425,1.223-231.817c9.727-12.633,28.845-18.05,53.777-19.367,9.4-.484,19.626-.4,30.5.112a102.742,102.742,0,0,1,22.795,3.652c27.9,7.789,47.455,26.087,50.424,40.448C914.322,1615.418,898.927,1807.345,898.927,1807.345Z" transform="translate(-595.029 -1445.673)" fill="#cfd8dc"/>
                <path id="Trazado_106258" data-name="Trazado 106258" d="M732.591,1702.97c-5.717,14.9-2.519,51.774,2.845,61.472,6.1,11,33.866,6.069,33.866,6.069s-.677-92.929,3.712-140.179,24.925-76.565,24.925-76.565-49.634,1.9-57.084,29.532c-4.849,17.99-3.387,32.508-1.761,40.423a47.175,47.175,0,0,0,1.761,6.611,2.272,2.272,0,0,0-.432.028c-1.6.3-7.044,2.736-10.864,22.514-4.525,23.354,5.879,45.354,5.879,45.354A12.948,12.948,0,0,0,732.591,1702.97Z" transform="translate(-592.537 -1445.795)" fill="#f24052"/>
                <path id="Trazado_106259" data-name="Trazado 106259" d="M786.251,1595.907s-8.533-28.4,1.672-41.92,21.279-15.779,21.279-15.779-13.737,13.1-15.567,21.674S786.251,1595.907,786.251,1595.907Z" transform="translate(-599.916 -1443.688)" fill="#ce364c"/>
                <path id="Trazado_106260" data-name="Trazado 106260" d="M809.843,1537.112c14.546-4.373,49.887-11.067,67.72-3.725,0,0,1.455,15.24-4.8,20.546s-67-25.638-84.719,35.215C788.04,1589.147,782.745,1545.259,809.843,1537.112Z" transform="translate(-600.554 -1442.592)" fill="#b72e48"/>
                <path id="Trazado_106261" data-name="Trazado 106261" d="M846.99,1679.269c.678,78.083,9.78,100.434,9.78,100.434s57.519,7.45,67.9-4.064,0-47.874,0-47.874a148.882,148.882,0,0,0,4.741-14.224l.028-.027c1.029-3.6,2.113-7.749,3.034-12.219.951-4.417,1.734-9.186,2.276-14.035a51.607,51.607,0,0,0-4.307-27.8,31.739,31.739,0,0,0-3.6-6.069s11-45.327,6.123-65.4a29.9,29.9,0,0,0-5.581-11.569c-14.6-18.83-48.551-18.83-48.551-18.83-9.536,2.6-24,27.717-29.531,75.753v.028A366.958,366.958,0,0,0,846.99,1679.269Z" transform="translate(-608.589 -1446.313)" fill="#f24052"/>
                <path id="Trazado_106262" data-name="Trazado 106262" d="M817.832,1529l8.853,34.887s10.024,4.724,31.276-9.582c0,0-11.283-26.543-1.3-45.413,0,0-2.526.15-6.522.627C850.144,1509.518,846.129,1530.265,817.832,1529Z" transform="translate(-604.644 -1439.718)" fill="#ef6e4b"/>
                <g id="Grupo_58240" data-name="Grupo 58240" transform="translate(183.013)">
                  <path id="Trazado_106263" data-name="Trazado 106263" d="M854.911,1481.792c.415,41.287-39.289,47.229-49.573,31.977-3.3-4.885-6.363-13.8-8.214-23.517-.426-2.2-.785-4.439-1.069-6.684-1.916-15.225-.425-30.641,8.079-34.719C833.73,1434.634,854.5,1440.506,854.911,1481.792Z" transform="translate(-784.608 -1430.643)" fill="#ff8b66"/>
                  <path id="Trazado_106264" data-name="Trazado 106264" d="M830.213,1479.483c.214,2.285-.643,4.237-1.913,4.352s-2.471-1.638-2.68-3.924.644-4.236,1.914-4.352S830,1477.2,830.213,1479.483Z" transform="translate(-788.707 -1435.203)" fill="#1a4850"/>
                  <path id="Trazado_106265" data-name="Trazado 106265" d="M806.219,1483.739c.213,2.286-.644,4.236-1.913,4.352s-2.472-1.643-2.68-3.923.644-4.237,1.913-4.352S806.006,1481.454,806.219,1483.739Z" transform="translate(-785.458 -1435.78)" fill="#1a4850"/>
                  <ellipse id="Elipse_4261" data-name="Elipse 4261" cx="4.27" cy="3.414" rx="4.27" ry="3.414" transform="matrix(0.922, -0.388, 0.388, 0.922, 41.841, 50.755)" fill="#db614d"/>
                  <path id="Trazado_106266" data-name="Trazado 106266" d="M801.819,1494.153c-.308,1.793-2.334,2.927-4.575,2.606-.426-2.2-.785-4.439-1.069-6.684a5.157,5.157,0,0,1,2.065-.047C800.564,1490.453,802.164,1492.306,801.819,1494.153Z" transform="translate(-784.725 -1437.152)" fill="#db614d"/>
                  <g id="Grupo_58238" data-name="Grupo 58238" transform="translate(33.267 28.441)">
                    <path id="Trazado_106267" data-name="Trazado 106267" d="M831.012,1465.872a1.355,1.355,0,0,1-.746-.225c-2.934-1.937-7.115-.869-7.16-.859a1.354,1.354,0,0,1-.687-2.62c.217-.06,5.4-1.383,9.338,1.218a1.355,1.355,0,0,1-.746,2.485Z" transform="translate(-821.408 -1461.779)" fill="#ffb878"/>
                  </g>
                  <g id="Grupo_58239" data-name="Grupo 58239" transform="translate(11.227 33.024)">
                    <path id="Trazado_106268" data-name="Trazado 106268" d="M797.273,1473.068a1.356,1.356,0,0,1-1.355-1.31c-.1-3.132,3.736-4.409,6.019-4.669a1.354,1.354,0,1,1,.31,2.691c-1.279.15-3.655.865-3.62,1.889a1.353,1.353,0,0,1-1.306,1.4h-.048Z" transform="translate(-795.917 -1467.081)" fill="#ffb878"/>
                  </g>
                  <path id="Trazado_106269" data-name="Trazado 106269" d="M809.906,1476.488s.214,10.53-5.571,18.945c0,0-.231,4.448,7.771,2.787" transform="translate(-785.829 -1435.33)" fill="none" stroke="#db614d" stroke-miterlimit="10" stroke-width="0.75"/>
                  <path id="Trazado_106270" data-name="Trazado 106270" d="M808,1507.954a73.642,73.642,0,0,1,8.5-2.045c7.135-1.5,11.108-1.947,11.108-1.947s-.27,9.03-11.108,9.966C807.508,1514.7,808,1507.954,808,1507.954Z" transform="translate(-786.324 -1439.05)" fill="#1a4850"/>
                  <path id="Trazado_106271" data-name="Trazado 106271" d="M796.043,1454.868s-9.5-1.451-13.112-8a18.976,18.976,0,0,0,6.556,0s-4.524-3.161-2.944-10.838c0,0,9.465,1.355,12.973,0l-5.134-3.838a68.361,68.361,0,0,0,17.386-1.806c10-2.258,30.946-3.161,43.387,6.1s20.635,52.364-6.49,71l1.647-9.424s4.641-8.519,2.835-14.389-5.035-1.129-5.035-1.129-9.413-15.209-9.413-25.215v-10.008S808.931,1440.516,796.043,1454.868Z" transform="translate(-782.931 -1428.884)" fill="#ffb878"/>
                  <path id="Trazado_106272" data-name="Trazado 106272" d="M859.145,1487.517s5.966-8.437,12.588-4.21-2.453,19.567-9.184,19.644S859.145,1487.517,859.145,1487.517Z" transform="translate(-793.14 -1436.093)" fill="#ff8b66"/>
                </g>
                <path id="Trazado_106273" data-name="Trazado 106273" d="M857.862,1589.586s-9.214-29.651-6.387-38.924,31.952-19.659,34.66-16.837,5.748,11.185,2.874,21.227C889.011,1555.053,870.9,1557.858,857.862,1589.586Z" transform="translate(-609.127 -1443.03)" fill="#ce364c"/>
                <path id="Trazado_106274" data-name="Trazado 106274" d="M849.627,1636.3l.028.028c8.646,11.216,60.011,11.758,60.011,11.758s33.866,49.689,9.482,65.023c-23.923,15.065-66.757,4.471-68.328,4.091,9.456,7.749,68.627,13.005,78.949-.7l.028-.027a7.614,7.614,0,0,0,1.083-2.005,40.948,40.948,0,0,0,1.951-10.213c1.138-13.113-.7-31.157-2.032-41.832a31.732,31.732,0,0,0-3.6-6.069s11-45.327,6.123-65.4a29.9,29.9,0,0,0-5.581-11.569c-30.426.732-32.972,56.923-32.972,56.923-8.453,3.062-43.891.108-45.11,0Z" transform="translate(-608.95 -1449.262)" fill="#ce364c"/>
                <path id="Trazado_106275" data-name="Trazado 106275" d="M931.7,1933.94c-.4,7.095,33.164,21.085,34.543,10.844S932.7,1915.974,931.7,1933.94Z" transform="translate(-620.063 -1496.257)" fill="#a1b1b5"/>
                <g id="Grupo_58241" data-name="Grupo 58241" transform="translate(304.4 421.495)">
                  <path id="Trazado_106276" data-name="Trazado 106276" d="M959.155,1938.763c.583,3.265,3.644,25.912,2.2,29.961a3.453,3.453,0,0,1-.173.455c-1.643,3.9-6.58,7.617-8.2,10.248-1.7,2.733-4.732,3.164-7.186,5.339-2.455,2.2-8.629,2.582-8.629,2.582s-9.717,7.135-10,3.239c-.329-4.858,5.365-9.084,5.365-9.084l4.327-10.956s-2.531-14.777-5.39-14.777c-2.859.025-1.8,6.124-3.24,10.98-.936,3.215-4.555,2.708-4.555,2.708l-.354-8.856s.582-12.7,2.226-15.107c1.619-2.4,9.793-10.83,9.793-10.83l3.415-18.27,24.495,1.47S958.548,1935.5,959.155,1938.763Z" transform="translate(-923.33 -1916.394)" fill="#ff8b66"/>
                  <path id="Trazado_106277" data-name="Trazado 106277" d="M963.347,1977.446c-1.643,3.9-6.58,7.617-8.2,10.248-1.7,2.733-4.732,3.164-7.186,5.339-2.455,2.2-8.629,2.582-8.629,2.582,2.327-1.848,6.529-12.172,7.591-12.8s1.7.834,3.593.834,2.732-3.795,4.631-3.163,3.795.86,5.263-1.67A3.219,3.219,0,0,1,963.347,1977.446Z" transform="translate(-925.497 -1924.661)" fill="#ef6e4b"/>
                </g>
                <path id="Trazado_106278" data-name="Trazado 106278" d="M930.467,1582.715c-19.133,10.053-25.906,51.939-23.874,68.927l27.086,82.553s.678,9.6,4.064,10.959L928.25,1887.4c2.726-5.4,30.616-1,34.543,10.844,0,0,18.983-137.316,16.266-175C978.521,1715.763,930.467,1582.715,930.467,1582.715Z" transform="translate(-616.617 -1449.714)" fill="#cfd8dc"/>
                <path id="Trazado_106279" data-name="Trazado 106279" d="M771.651,1641.293s-17.339-.488-30.886-6.611a47.176,47.176,0,0,0,1.761,6.611S761.275,1643.7,771.651,1641.293Z" transform="translate(-594.209 -1456.751)" fill="#ce364c"/>
                <path id="Trazado_106280" data-name="Trazado 106280" d="M733.244,1725.6c12.6,1.383,30.588-1.491,30.588-1.491s-19.832.217-27.743-3.251A12.949,12.949,0,0,0,733.244,1725.6Z" transform="translate(-593.19 -1468.42)" fill="#ce364c"/>
              </g>
              <g id="Grupo_58243" data-name="Grupo 58243">
                <ellipse id="Elipse_4262" data-name="Elipse 4262" cx="88.913" cy="78.109" rx="88.913" ry="78.109" fill="#ffbc5b"/>
                <path id="Trazado_106281" data-name="Trazado 106281" d="M707.462,1477.953l-33.49,35.241s41.951,21.1,96.082,1.158C770.054,1514.353,726.122,1509.488,707.462,1477.953Z" transform="translate(-564.273 -1374.589)" fill="#ffbc5b"/>
              </g>
            </g>
          </g>
        </g>
      </g>
    </g>
  </g>
</svg>
