<svg xmlns="http://www.w3.org/2000/svg" xmlns:xlink="http://www.w3.org/1999/xlink" width="85" height="85" viewBox="0 0 85 85">
  <defs>
    <clipPath id="clip-path">
      <rect id="Rectángulo_12185" data-name="Rectángulo 12185" width="85" height="85" transform="translate(390 5566)" fill="#fff" stroke="#707070" stroke-width="1"/>
    </clipPath>
  </defs>
  <g id="Enmascarar_grupo_53" data-name="Enmascarar grupo 53" transform="translate(-390 -5566)" clip-path="url(#clip-path)">
    <g id="customer" transform="translate(387.167 5563.167)">
      <path id="Trazado_103764" data-name="Trazado 103764" d="M32.583,49.583a5.667,5.667,0,0,0-5.667-5.667h-4.25L21.25,41.083H15.583l1.542,4.625A5.667,5.667,0,0,0,22.5,49.583h1.582l8.5,22.667h8.5Z" fill="#f7cca9"/>
      <path id="Trazado_103765" data-name="Trazado 103765" d="M79.333,35.417V21.25a17,17,0,1,0-34,0V35.417a5.667,5.667,0,0,0-5.667,5.667v2.833a5.667,5.667,0,0,0,5.667,5.667h34A5.667,5.667,0,0,0,85,43.917V41.083A5.667,5.667,0,0,0,79.333,35.417Z" fill="#ad6643"/>
      <path id="Trazado_103766" data-name="Trazado 103766" d="M77.917,46.75H48.942a5.667,5.667,0,0,0-5.136,3.271l-8.39,16.563L42.5,72.25l7.083-8.5V86.417h34v-34A5.667,5.667,0,0,0,77.917,46.75Z" fill="#f7b030"/>
      <path id="Trazado_103767" data-name="Trazado 103767" d="M75.083,69.417h8.5v17h-8.5Z" fill="#f7cca9"/>
      <g id="Grupo_57221" data-name="Grupo 57221">
        <path id="Trazado_103768" data-name="Trazado 103768" d="M51,32.583A5.667,5.667,0,1,1,51,21.25h1.417V32.583Z" fill="#edc4a2"/>
        <path id="Trazado_103769" data-name="Trazado 103769" d="M73.667,21.25a5.667,5.667,0,0,1,0,11.333H72.25V21.25Z" fill="#edc4a2"/>
        <path id="Trazado_103770" data-name="Trazado 103770" d="M58.083,38.25h8.5v8.5a2.833,2.833,0,0,1-2.833,2.833H60.917a2.833,2.833,0,0,1-2.833-2.833Z" fill="#edc4a2"/>
      </g>
      <path id="Trazado_103771" data-name="Trazado 103771" d="M68,15.583,51,21.25v8.5a11.333,11.333,0,0,0,22.667,0v-8.5Z" fill="#f7cca9"/>
      <path id="Trazado_103772" data-name="Trazado 103772" d="M41.083,58.083h-25.5L12.75,86.417H43.917Z" fill="#c7312e"/>
      <path id="Trazado_103773" data-name="Trazado 103773" d="M34,58.083H8.5L5.667,86.417H36.833Z" fill="#eb423f"/>
      <path id="Trazado_103774" data-name="Trazado 103774" d="M80.75,34.142V21.25a18.417,18.417,0,0,0-36.833,0V34.142a7.1,7.1,0,0,0-5.667,6.942v2.833a7.135,7.135,0,0,0,3.866,6.308l-3.263,6.442h-2.1l-2.758-7.354A7.092,7.092,0,0,0,26.917,42.5H23.542l-1.025-2.05a1.417,1.417,0,0,0-1.267-.783H15.583a1.417,1.417,0,0,0-1.344,1.865l.912,2.737c-.112.1-.222.2-.328.306a7.038,7.038,0,0,0-2.074,5.009v7.083H8.5a1.417,1.417,0,0,0-1.41,1.275L4.257,86.275a1.417,1.417,0,0,0,1.41,1.558h38.25a1.417,1.417,0,0,0,1.41-1.558L43.969,72.7l4.2-5.036V86.417a1.417,1.417,0,0,0,1.417,1.417h34A1.417,1.417,0,0,0,85,86.417v-34a7.037,7.037,0,0,0-.832-3.329,7.128,7.128,0,0,0,2.249-5.171V41.083a7.1,7.1,0,0,0-5.667-6.942Zm2.833,6.942v2.833A4.215,4.215,0,0,1,82.358,46.9a7.049,7.049,0,0,0-4.441-1.571H68V41.167a12.816,12.816,0,0,0,6.364-7.2,7.045,7.045,0,0,0,3.553-1.385v2.837a1.417,1.417,0,0,0,1.417,1.417,4.255,4.255,0,0,1,4.25,4.25Zm-21.25-1.417a9.928,9.928,0,0,1-9.917-9.917V22.271l15.2-5.067,4.633,4.633V29.75a9.928,9.928,0,0,1-9.917,9.917ZM59.5,42.179a12.656,12.656,0,0,0,5.667,0V46.75a1.418,1.418,0,0,1-1.417,1.417H60.917A1.418,1.418,0,0,1,59.5,46.75ZM75.083,29.75V22.91a4.249,4.249,0,0,1-.058,8.032c.036-.393.058-.79.058-1.192ZM62.333,5.667A15.6,15.6,0,0,1,77.917,21.25v0a7.046,7.046,0,0,0-3.635-1.392L69,14.582a1.417,1.417,0,0,0-1.45-.342l-16.8,5.6a7.044,7.044,0,0,0-4,1.414v0A15.6,15.6,0,0,1,62.333,5.667ZM49.641,30.942a4.249,4.249,0,0,1-.058-8.032v6.84C49.583,30.152,49.6,30.55,49.641,30.942ZM41.083,41.083a4.255,4.255,0,0,1,4.25-4.25,1.417,1.417,0,0,0,1.417-1.417V32.579A7.045,7.045,0,0,0,50.3,33.965a12.816,12.816,0,0,0,6.364,7.2v4.166H48.942a7.11,7.11,0,0,0-5.356,2.454,4.278,4.278,0,0,1-2.5-3.871Zm-9.917,8.5a1.417,1.417,0,0,0,.09.5l2.47,6.586H29.75V49.583a7.034,7.034,0,0,0-1.177-3.914,4.256,4.256,0,0,1,2.593,3.914ZM20.375,42.5,21.4,44.55a1.417,1.417,0,0,0,1.267.783,4.249,4.249,0,0,1,4.25,4.25V53.1L25.41,49.086a1.417,1.417,0,0,0-1.327-.919H22.5a4.245,4.245,0,0,1-4.031-2.906L17.549,42.5Zm-4.791,7.083a4.222,4.222,0,0,1,.681-2.309A7.073,7.073,0,0,0,22.5,51h.6l2.125,5.667H15.583ZM7.232,85l2.55-25.5H32.718L35.268,85Zm30.883,0-2.55-25.5H39.8L42.351,85ZM51,58.083a1.417,1.417,0,0,0-2.833,0v5.153l-4.593,5.512-1.08-10.806a1.413,1.413,0,0,0-.6-1.017l3.174-6.265.02-.041a4.265,4.265,0,0,1,3.851-2.452h7.969A4.257,4.257,0,0,0,60.917,51H63.75a4.257,4.257,0,0,0,4.006-2.833h10.16a4.255,4.255,0,0,1,4.25,4.25V68H76.5V58.083a1.417,1.417,0,1,0-2.833,0V85H51ZM76.5,85V70.833h5.667V85Z" fill="#12263f"/>
      <circle id="Elipse_4066" data-name="Elipse 4066" cx="1.417" cy="1.417" r="1.417" transform="translate(55.25 25.5)" fill="#12263f"/>
      <circle id="Elipse_4067" data-name="Elipse 4067" cx="1.417" cy="1.417" r="1.417" transform="translate(66.583 25.5)" fill="#12263f"/>
    </g>
  </g>
</svg>
