<svg xmlns="http://www.w3.org/2000/svg" width="55" height="55" viewBox="0 0 55 55">
  <g id="Outline" transform="translate(-16 -16)">
    <path id="Trazado_105967" data-name="Trazado 105967" d="M91.667,336a3.667,3.667,0,1,0,3.667,3.667A3.667,3.667,0,0,0,91.667,336Zm0,5.5a1.833,1.833,0,1,1,1.833-1.833,1.833,1.833,0,0,1-1.833,1.833Z" transform="translate(-63.75 -283.333)" fill="#5038a1"/>
    <path id="Trazado_105968" data-name="Trazado 105968" d="M363.667,336a3.667,3.667,0,1,0,3.667,3.667A3.667,3.667,0,0,0,363.667,336Zm0,5.5a1.833,1.833,0,1,1,1.833-1.833A1.833,1.833,0,0,1,363.667,341.5Z" transform="translate(-304.583 -283.333)" fill="#5038a1"/>
    <path id="Trazado_105969" data-name="Trazado 105969" d="M168,344h20.167v1.833H168Z" transform="translate(-134.583 -290.417)" fill="#5038a1"/>
    <path id="Trazado_105970" data-name="Trazado 105970" d="M168,376h20.167v1.833H168Z" transform="translate(-134.583 -318.75)" fill="#5038a1"/>
    <path id="Trazado_105971" data-name="Trazado 105971" d="M69.167,32.5h-2.75V22.417A6.424,6.424,0,0,0,60,16H27a6.424,6.424,0,0,0-6.417,6.417v3.667h22v22H35.292l3.625-4.028V46.25H40.75V37.083H38.917v4.232l-6.092,6.768H22.417V27.917H20.583V32.5h-2.75A1.836,1.836,0,0,0,16,34.333V43.5a1.836,1.836,0,0,0,1.833,1.833h2.75V60.917a2.754,2.754,0,0,0,1.833,2.592v5.658A1.836,1.836,0,0,0,24.25,71h5.5a1.836,1.836,0,0,0,1.833-1.833v-5.5H62.75v5.5h-5.5V65.5H55.417v3.667A1.836,1.836,0,0,0,57.25,71h5.5a1.836,1.836,0,0,0,1.833-1.833V63.509a2.754,2.754,0,0,0,1.833-2.592V45.333h2.75A1.836,1.836,0,0,0,71,43.5V34.333A1.836,1.836,0,0,0,69.167,32.5ZM22.417,22.417A4.588,4.588,0,0,1,27,17.833H60a4.589,4.589,0,0,1,4.583,4.583V24.25H22.417Zm22,3.667H64.583v22H54.175l-6.092-6.768V37.083H46.25V46.25h1.833V44.055l3.625,4.028H44.417ZM17.833,43.5V34.333h2.75V43.5ZM29.75,69.167h-5.5v-5.5h5.5Zm33.917-7.333H23.333a.918.918,0,0,1-.917-.917v-11h8.758l-.273.3,1.363,1.226,1.377-1.529H53.358l1.377,1.53L56.1,50.221l-.273-.3h8.758v11a.918.918,0,0,1-.917.917Zm5.5-18.333h-2.75V34.333h2.75V43.5Z" fill="#5038a1"/>
    <path id="Trazado_105972" data-name="Trazado 105972" d="M248,48h1.833v1.833H248Z" transform="translate(-205.417 -28.333)" fill="#5038a1"/>
    <path id="Trazado_105973" data-name="Trazado 105973" d="M280,48h1.833v1.833H280Z" transform="translate(-233.75 -28.333)" fill="#5038a1"/>
    <path id="Trazado_105974" data-name="Trazado 105974" d="M216,48h1.833v1.833H216Z" transform="translate(-177.083 -28.333)" fill="#5038a1"/>
    <path id="Trazado_105975" data-name="Trazado 105975" d="M104,48h1.833v1.833H104Z" transform="translate(-77.917 -28.333)" fill="#5038a1"/>
    <path id="Trazado_105976" data-name="Trazado 105976" d="M392,48h1.833v1.833H392Z" transform="translate(-332.917 -28.333)" fill="#5038a1"/>
  </g>
</svg>
