<svg xmlns="http://www.w3.org/2000/svg" width="61.271" height="64.879" viewBox="0 0 61.271 64.879">
  <g id="viajar" transform="translate(-26.274 -12.999)">
    <path id="Trazado_105935" data-name="Trazado 105935" d="M238.836,42.68a.9.9,0,0,0,.655.231,29.291,29.291,0,0,1,4.111.1q.044,0,.087,0a.916.916,0,0,0,.085-1.827,31.086,31.086,0,0,0-4.368-.1.917.917,0,0,0-.569,1.6Z" transform="translate(-183.952 -24.309)" fill="#5038a1"/>
    <path id="Trazado_105936" data-name="Trazado 105936" d="M167.211,50.39a.911.911,0,0,0,.34-.067,28.673,28.673,0,0,1,3.914-1.25.916.916,0,0,0-.43-1.78,30.484,30.484,0,0,0-4.165,1.33.916.916,0,0,0,.341,1.766Z" transform="translate(-121.347 -29.699)" fill="#5038a1"/>
    <path id="Trazado_105937" data-name="Trazado 105937" d="M108.01,78.074a.916.916,0,1,0-.992-1.54,30.865,30.865,0,0,0-3.5,2.621.916.916,0,0,0,1.2,1.384,29.037,29.037,0,0,1,3.288-2.465Z" transform="translate(-66.672 -54.936)" fill="#5038a1"/>
    <path id="Trazado_105938" data-name="Trazado 105938" d="M328,44.047h0a.948.948,0,1,0,.171,1.33.948.948,0,0,0-.171-1.33Z" transform="translate(-260.169 -26.737)" fill="#5038a1"/>
    <path id="Trazado_105939" data-name="Trazado 105939" d="M345.541,57.6h0a.948.948,0,1,0,.361.63.948.948,0,0,0-.361-.63Z" transform="translate(-275.366 -38.48)" fill="#5038a1"/>
    <path id="Trazado_105940" data-name="Trazado 105940" d="M363.09,71.15h0a.948.948,0,1,0,.361.63.948.948,0,0,0-.361-.63Z" transform="translate(-290.575 -50.225)" fill="#5038a1"/>
    <path id="Trazado_105941" data-name="Trazado 105941" d="M380.636,84.7h0a.948.948,0,1,0,.171,1.33.948.948,0,0,0-.171-1.33Z" transform="translate(-305.781 -61.971)" fill="#5038a1"/>
    <path id="Trazado_105942" data-name="Trazado 105942" d="M275.206,480.549a28.785,28.785,0,0,1-4.054.677.916.916,0,0,0,.085,1.828q.043,0,.087,0a30.727,30.727,0,0,0,4.312-.72.916.916,0,1,0-.43-1.781Z" transform="translate(-211.503 -405.177)" fill="#5038a1"/>
    <path id="Trazado_105943" data-name="Trazado 105943" d="M201.767,481.234a28.843,28.843,0,0,1-4.054-.677.916.916,0,1,0-.43,1.781,30.7,30.7,0,0,0,4.312.72c.029,0,.058,0,.087,0a.916.916,0,0,0,.085-1.827Z" transform="translate(-147.595 -405.184)" fill="#5038a1"/>
    <path id="Trazado_105944" data-name="Trazado 105944" d="M431.766,134.662a.916.916,0,0,0-.9,1.435,28.914,28.914,0,0,1,2.142,3.507.916.916,0,1,0,1.627-.84,30.737,30.737,0,0,0-2.277-3.729A.91.91,0,0,0,431.766,134.662Z" transform="translate(-350.492 -105.428)" fill="#5038a1"/>
    <path id="Trazado_105945" data-name="Trazado 105945" d="M345.864,451.562a28.782,28.782,0,0,1-3.6,1.971.916.916,0,0,0,.762,1.666,30.661,30.661,0,0,0,3.834-2.1.916.916,0,1,0-.992-1.54Z" transform="translate(-273.383 -379.951)" fill="#5038a1"/>
    <path id="Trazado_105946" data-name="Trazado 105946" d="M407.245,401.873a.916.916,0,0,0-1.286.153,29.06,29.06,0,0,1-2.767,3.041.916.916,0,0,0,1.264,1.326,30.893,30.893,0,0,0,2.941-3.234.917.917,0,0,0-.153-1.286Z" transform="translate(-326.407 -336.845)" fill="#5038a1"/>
    <path id="Trazado_105947" data-name="Trazado 105947" d="M463.929,206.3a.92.92,0,0,0,.906.787.962.962,0,0,0,.13-.009.917.917,0,0,0,.777-1.036,30.57,30.57,0,0,0-.925-4.273.916.916,0,1,0-1.758.515A28.75,28.75,0,0,1,463.929,206.3Z" transform="translate(-378.504 -163.027)" fill="#5038a1"/>
    <path id="Trazado_105948" data-name="Trazado 105948" d="M450.064,336.852a.916.916,0,0,0-1.165.566,28.693,28.693,0,0,1-1.62,3.779.916.916,0,1,0,1.627.84,30.557,30.557,0,0,0,1.724-4.021.916.916,0,0,0-.566-1.165Z" transform="translate(-364.762 -280.621)" fill="#5038a1"/>
    <path id="Trazado_105949" data-name="Trazado 105949" d="M31.005,196.9a.915.915,0,0,0,1.072-.727,28.71,28.71,0,0,1,1.061-3.97.916.916,0,1,0-1.731-.6,30.537,30.537,0,0,0-1.129,4.224.916.916,0,0,0,.727,1.072Z" transform="translate(-3.455 -154.251)" fill="#5038a1"/>
    <path id="Trazado_105950" data-name="Trazado 105950" d="M133.647,453.519a28.862,28.862,0,0,1-3.607-1.974.916.916,0,1,0-.992,1.54,30.688,30.688,0,0,0,3.837,2.1.906.906,0,0,0,.38.083.916.916,0,0,0,.382-1.749Z" transform="translate(-88.704 -379.937)" fill="#5038a1"/>
    <path id="Trazado_105951" data-name="Trazado 105951" d="M28.4,268.912a29.164,29.164,0,0,1-.289-4.1.916.916,0,1,0-1.832,0,31,31,0,0,0,.308,4.359.92.92,0,0,0,.905.786.964.964,0,0,0,.13-.009A.917.917,0,0,0,28.4,268.912Z" transform="translate(0 -217.438)" fill="#5038a1"/>
    <path id="Trazado_105952" data-name="Trazado 105952" d="M470.965,263.9a.917.917,0,0,0-.916.916,29.194,29.194,0,0,1-.289,4.1.916.916,0,0,0,.778,1.035.958.958,0,0,0,.13.009.92.92,0,0,0,.906-.787,31.039,31.039,0,0,0,.308-4.359A.917.917,0,0,0,470.965,263.9Z" transform="translate(-384.335 -217.442)" fill="#5038a1"/>
    <path id="Trazado_105953" data-name="Trazado 105953" d="M40.249,337.412a.916.916,0,1,0-1.731.6,30.566,30.566,0,0,0,1.723,4.019.916.916,0,1,0,1.627-.84,28.736,28.736,0,0,1-1.619-3.777Z" transform="translate(-10.567 -280.616)" fill="#5038a1"/>
    <path id="Trazado_105954" data-name="Trazado 105954" d="M75.571,402.008a.916.916,0,1,0-1.439,1.134,30.909,30.909,0,0,0,2.941,3.233.916.916,0,1,0,1.264-1.326,29.056,29.056,0,0,1-2.766-3.041Z" transform="translate(-41.305 -336.829)" fill="#5038a1"/>
    <path id="Trazado_105955" data-name="Trazado 105955" d="M59.968,126.328a.917.917,0,0,0-1.286.153,30.8,30.8,0,0,0-2.454,3.619.916.916,0,1,0,1.585.917,28.917,28.917,0,0,1,2.307-3.4A.917.917,0,0,0,59.968,126.328Z" transform="translate(-25.852 -98.046)" fill="#5038a1"/>
    <path id="Trazado_105956" data-name="Trazado 105956" d="M305.941,33.023a1.362,1.362,0,0,0,1.438-.483.8.8,0,0,0,.129-.244l1.329-4.14,3.678-2.343a.8.8,0,0,0,.2-.186,1.366,1.366,0,0,0-1.128-2.2l-4.275-.572L305.177,21.2l2.938-3.8a1.293,1.293,0,0,0-.233-1.814l-.92-.711a1.791,1.791,0,0,0-2.264.066l-3.589,3.121-5.674-4.383a3.264,3.264,0,1,0-3.99,5.166l5.674,4.383-2.112,4.261a1.79,1.79,0,0,0,.508,2.206l.92.711a1.283,1.283,0,0,0,.788.27,1.313,1.313,0,0,0,.167-.011,1.285,1.285,0,0,0,.858-.492l2.938-3.8,2.139,1.652L304.966,32A1.362,1.362,0,0,0,305.941,33.023Zm-1.217-5.808a.8.8,0,0,0-.251-.328l-4.112-3.175a.8.8,0,0,0-.978,1.267l.537.414-2.75,3.561-.677-.523a.186.186,0,0,1-.053-.229l2.4-4.85a.8.8,0,0,0-.228-.989l-6.193-4.784a1.664,1.664,0,0,1,2.034-2.633l6.193,4.784a.8.8,0,0,0,1.014-.029l4.084-3.551a.186.186,0,0,1,.236-.007l.677.523-2.75,3.561-.537-.414a.8.8,0,0,0-.978,1.267l4.112,3.176a.8.8,0,0,0,.383.16l4,.535-3.159,2.012a.8.8,0,0,0-.332.43l-1.142,3.555Z" transform="translate(-228.709)" fill="#5038a1"/>
    <path id="Trazado_105957" data-name="Trazado 105957" d="M131.238,126.809a19.2,19.2,0,1,0,19.2,19.2A19.22,19.22,0,0,0,131.238,126.809Zm-17.6,19.2a17.618,17.618,0,0,1,16.921-17.583l.819,4.98a1.179,1.179,0,0,1-.517,1.176l-3.09,2.024a2.769,2.769,0,0,0-1.207,2.845l.415,2.175a2.789,2.789,0,0,0,1.523,1.982l2.171,1.045a1.181,1.181,0,0,1,.648,1.27l-.791,4.393a1.178,1.178,0,0,1-2.227.288l-.8-1.713a2.787,2.787,0,0,0-2.519-1.607h-3.218a2.764,2.764,0,0,0-1.6.5l-2.164,1.519a1.176,1.176,0,0,1-.949.182l-3.215-.763a17.65,17.65,0,0,1-.21-2.717Zm26.62,9.58.564,5.17a17.589,17.589,0,0,1-26.615-10.3l2.486.59a2.78,2.78,0,0,0,2.238-.429L121.1,149.1a1.172,1.172,0,0,1,.677-.213h3.218a1.182,1.182,0,0,1,1.068.681l.8,1.713a2.755,2.755,0,0,0,2.232,1.592,2.856,2.856,0,0,0,.3.015,2.753,2.753,0,0,0,2.217-1.114,2.791,2.791,0,0,0,.509-1.172l.791-4.393a2.786,2.786,0,0,0-1.529-3l-2.171-1.045a1.182,1.182,0,0,1-.646-.84l-.415-2.175a1.174,1.174,0,0,1,.512-1.206l3.09-2.024a2.78,2.78,0,0,0,1.219-2.775l-.774-4.709a17.576,17.576,0,0,1,12.608,6.361l-1.36.969a4.057,4.057,0,0,0-1.575,2.3l-.432,1.688a4.052,4.052,0,0,0,1.431,4.2,2.463,2.463,0,0,1,.883,2.468l-.873,3.894a2.447,2.447,0,0,1-.667,1.206l-.761.754a4.031,4.031,0,0,0-1.177,3.32Zm8.575-9.58a17.572,17.572,0,0,1-6.521,13.664l-.463-4.258a2.439,2.439,0,0,1,.712-2.008l.761-.754a4.045,4.045,0,0,0,1.1-1.992l.873-3.894a4.07,4.07,0,0,0-1.459-4.079,2.452,2.452,0,0,1-.866-2.54l.432-1.688a2.454,2.454,0,0,1,.953-1.389l1.4-.994a17.5,17.5,0,0,1,3.079,9.932Z" transform="translate(-74.328 -98.633)" fill="#5038a1"/>
  </g>
</svg>
