<svg xmlns="http://www.w3.org/2000/svg" xmlns:xlink="http://www.w3.org/1999/xlink" width="190" height="427" viewBox="0 0 190 427">
  <defs>
    <clipPath id="clip-path">
      <rect id="Rectángulo_12167" data-name="Rectángulo 12167" width="190" height="427" transform="translate(180 1241)" fill="#fff" stroke="#707070" stroke-width="1"/>
    </clipPath>
    <linearGradient id="linear-gradient" x1="0.379" y1="0.559" x2="1.027" y2="0.73" gradientUnits="objectBoundingBox">
      <stop offset="0" stop-color="#f6bc9f"/>
      <stop offset="1" stop-color="#e25526"/>
    </linearGradient>
  </defs>
  <g id="Enmascarar_grupo_44" data-name="Enmascarar grupo 44" transform="translate(-180 -1241)" clip-path="url(#clip-path)">
    <g id="Grupo_57096" data-name="Grupo 57096" transform="translate(-86.23)">
      <g id="Grupo_57095" data-name="Grupo 57095" transform="translate(147.799 1085.901)">
        <path id="Trazado_103291" data-name="Trazado 103291" d="M201.611,410.821c-.7,1.483,18.692,32.1,54.222,28.519l2.616-9.416s-31.948,4.269-52.075-21.66Z" transform="translate(41.873 53.963)" fill="#f6bc9f"/>
        <path id="Trazado_103292" data-name="Trazado 103292" d="M135.981,384.012,230.715,505.88l-25.669,22.492-54.651-72.179Z" transform="translate(21.75 46.525)" fill="#e9946f"/>
        <path id="Trazado_103293" data-name="Trazado 103293" d="M137.753,384.791l44.57,58.453-22.285,21.6S127.061,429.226,137.753,384.791Z" transform="translate(21.639 46.764)" fill="#514e78"/>
        <path id="Trazado_103294" data-name="Trazado 103294" d="M156.648,384.75l43.568,102.07H167.868L186.545,537.3l-113.167.042s-17.089-75.721,43.558-159.1Z" transform="translate(1.867 44.755)" fill="#52668a"/>
        <path id="Trazado_103295" data-name="Trazado 103295" d="M146.661,386.049l13.629,31.928s-41.513,18.02-56.57-33.9l3.228-10.075Z" transform="translate(11.855 43.456)" fill="#f6bc9f"/>
        <path id="Trazado_103296" data-name="Trazado 103296" d="M150.174,279.6l-4.757,153.428-39.227-22.2,8.094-138.84Z" transform="translate(12.612 12.167)" fill="#f6bc9f"/>
        <path id="Trazado_103297" data-name="Trazado 103297" d="M144.76,365.387s-19.122-12.674-22.683-29.41l-6.544,35.229,27.845,15.533Z" transform="translate(15.478 31.792)" fill="#e67f69"/>
        <path id="Trazado_103298" data-name="Trazado 103298" d="M194.194,539.474,171.361,383.717s48.312,2.016,44.48-35.9l8.105,2.944s-1.415,28.752-22,36.455c0,0,21.375,5.506,27.933-28.69l10.43,6.326s-5.761,26.921-36.414,27.217c0,0,30.2-1.982,38.821-21.226l6.324,8.733s-24.922,29.171-55.333,22.219l33.211,130.88Z" transform="translate(32.601 35.423)" fill="#e9946f"/>
        <path id="Trazado_103299" data-name="Trazado 103299" d="M166.134,535.574,203.8,400.75s44.082,19.876,54.656-16.738l6.425,5.75s-12.028,26.156-34,25.631c0,0,17.782,13.075,36.613-16.215l7.322,9.76s-15.38,22.833-43.934,11.687c0,0,28.766,9.415,43.934-5.232l2.617,10.46s-34,17.784-59.629,0L198.88,535.574Z" transform="translate(30.998 46.525)" fill="#f6bc9f"/>
        <path id="Trazado_103300" data-name="Trazado 103300" d="M113.987,398.685l111.075,132.39h-45.1l-99.2-94.6Z" transform="translate(4.815 51.025)" fill="#f6bc9f"/>
        <path id="Trazado_103301" data-name="Trazado 103301" d="M111.573,394.266l47.211,51.708L127.442,493,78.115,446.217S93.613,404.373,111.573,394.266Z" transform="translate(4.001 49.67)" fill="#52668a"/>
        <path id="Trazado_103302" data-name="Trazado 103302" d="M160.574,237.542s61.5-5.092,29.745,74.97C190.319,312.512,136.31,260.1,160.574,237.542Z" transform="translate(27.37 1.582)" fill="#3c2a34"/>
        <path id="Trazado_103303" data-name="Trazado 103303" d="M177.254,243.384l38.219,98.834-20.419-3.745,3.058,16.386s-30.768,13.174-38.828-10.269c0,0-3.984,41.991,43.924,31.19l4.077,21.286s-83.112,24.124-90.246-42.207-4.547-74.1-4.547-74.1L167.9,248.51Z" transform="translate(14.405 3.393)" fill="#f6bc9f"/>
        <path id="Trazado_103304" data-name="Trazado 103304" d="M156.136,333.5s6.4-15.137,8.661-14.685,4.077,10.42,4.077,10.42,1.359-13.157,4.982-10.43,5.82,14.719,5.82,14.719S165.642,338.264,156.136,333.5Z" transform="translate(27.931 26.412)" fill="#e86f52"/>
        <path id="Trazado_103305" data-name="Trazado 103305" d="M181.338,345.886s5.616,9.708-5.186,8.8a16.752,16.752,0,0,1-14.205-9.922S171.689,347.582,181.338,345.886Z" transform="translate(29.713 34.488)" fill="#e86f52"/>
        <path id="Trazado_103306" data-name="Trazado 103306" d="M160.837,280.594s16.514,26.4.566,26.294c-5.824-.038-14.354-20.986-14.354-20.986s11.6,14.834,14.354,14.325C166.515,299.288,160.837,280.594,160.837,280.594Z" transform="translate(25.144 14.806)" fill="#3c2a34"/>
        <path id="Trazado_103307" data-name="Trazado 103307" d="M149.626,311.981a9.5,9.5,0,1,1-9.5-9.495A9.5,9.5,0,0,1,149.626,311.981Z" transform="translate(20.109 21.52)" fill="#e67f69"/>
        <path id="Trazado_103308" data-name="Trazado 103308" d="M139.721,341.151l5.9,112.892L67.994,430.537S34.091,187.71,197.132,239.59C197.132,239.59,139.721,282.253,139.721,341.151Z" transform="translate(0 0)" fill="#3c2a34"/>
        <path id="Trazado_103309" data-name="Trazado 103309" d="M108.982,402l37.787,44.862A152.233,152.233,0,0,1,108.982,402Z" transform="translate(13.469 52.042)" fill="#514e78"/>
        <path id="Trazado_103310" data-name="Trazado 103310" d="M86.994,436.333l43.836,37.919S108.85,469.872,86.994,436.333Z" transform="translate(6.725 62.572)" fill="#514e78"/>
        <path id="Trazado_103311" data-name="Trazado 103311" d="M123.02,459.091" transform="translate(17.774 69.552)" fill="#f6bc9f"/>
        <path id="Trazado_103312" data-name="Trazado 103312" d="M144.881,437.267l-15.644,34.759,39.157,47.215-49.9-46.073Z" transform="translate(16.387 62.858)" fill="#e9946f"/>
        <path id="Trazado_103313" data-name="Trazado 103313" d="M176.516,243.485s-14.355,55.016-54.1,89.61C122.412,333.095,83.805,235.831,176.516,243.485Z" transform="translate(15.143 3.292)" fill="#3c2a34"/>
        <path id="Trazado_103314" data-name="Trazado 103314" d="M131.471,321.986a12.64,12.64,0,1,1-12.64-12.638A12.641,12.641,0,0,1,131.471,321.986Z" transform="translate(12.612 23.625)" fill="#f6bc9f"/>
        <path id="Trazado_103315" data-name="Trazado 103315" d="M162.811,275.13s-9.344-8.338-15.8,7.632Z" transform="translate(25.133 12.462)" fill="#3c2a34"/>
        <path id="Trazado_103316" data-name="Trazado 103316" d="M136.006,236.718s-32.717,9.116-55.237,77.019C80.769,313.737,87.449,248.712,136.006,236.718Z" transform="translate(4.815 1.349)" fill="#6d584f"/>
        <path id="Trazado_103317" data-name="Trazado 103317" d="M174.5,275.851l21.813,56.41L175.9,328.516Z" transform="translate(33.564 13.351)" opacity="0.5" fill="url(#linear-gradient)"/>
        <path id="Trazado_103318" data-name="Trazado 103318" d="M126.449,325.687s.154-12.748-18.613-6.2C107.836,319.487,123.34,319.554,126.449,325.687Z" transform="translate(13.117 26.161)" fill="#e67f69"/>
        <path id="Trazado_103319" data-name="Trazado 103319" d="M171.361,243.384s19.437,20.125,15.009,46.759C186.37,290.143,201.712,256.3,171.361,243.384Z" transform="translate(32.601 3.393)" fill="#6d584f"/>
        <path id="Trazado_103320" data-name="Trazado 103320" d="M126.659,300.716l1.767,36.8S113.3,311.089,126.659,300.716Z" transform="translate(17.2 20.977)" fill="#3c2a34"/>
      </g>
      <path id="Trazado_103321" data-name="Trazado 103321" d="M52.871,90.93c0-22.658-11.248-37.927-63.158-34.211C-37.4,58.659-51.608,71.14-51.608,88.93s12.674,32.04,41.321,32.212c14.442.087,25.912-.648,34.9-2.311a34.223,34.223,0,0,1-8.664,21.136s9.2-1.532,19.123-17.159a26.156,26.156,0,0,0,3.321-8.087C48.831,109.875,52.871,102.128,52.871,90.93Z" transform="translate(403.359 1201.369)" fill="#ffcc05"/>
    </g>
  </g>
</svg>
