<svg xmlns="http://www.w3.org/2000/svg" width="820" height="619" viewBox="0 0 820 619">
  <g id="Grupo_57586" data-name="Grupo 57586" transform="translate(-97 -50.229)">
    <ellipse id="Elipse_4130" data-name="Elipse 4130" cx="173.504" cy="201.132" rx="173.504" ry="201.132" transform="translate(175.464 157.427)" fill="none" stroke="#12263f" stroke-miterlimit="10" stroke-width="15"/>
    <path id="Trazado_104382" data-name="Trazado 104382" d="M480.337,414.33a116.517,116.517,0,0,1-58.594,15.914c-72.651,0-131.554-68.274-131.554-152.507s58.9-152.507,131.554-152.507a116.517,116.517,0,0,1,58.594,15.914" transform="translate(233.807 90.769)" fill="none" stroke="#12263f" stroke-miterlimit="10" stroke-width="15"/>
    <ellipse id="Elipse_4124" data-name="Elipse 4124" cx="133" cy="132.5" rx="133" ry="132.5" transform="translate(375 227.23)" fill="#ffdc72"/>
    <circle id="Elipse_4125" data-name="Elipse 4125" cx="88.5" cy="88.5" r="88.5" transform="translate(97 271.23)" fill="#ffb74d"/>
    <circle id="Elipse_4126" data-name="Elipse 4126" cx="88.5" cy="88.5" r="88.5" transform="translate(258 492.23)" fill="#ffb74d"/>
    <circle id="Elipse_4127" data-name="Elipse 4127" cx="88.5" cy="88.5" r="88.5" transform="translate(258 50.23)" fill="#ffb74d"/>
    <ellipse id="Elipse_4128" data-name="Elipse 4128" cx="88.5" cy="89" rx="88.5" ry="89" transform="translate(740 200.23)" fill="#ffdc72"/>
    <circle id="Elipse_4129" data-name="Elipse 4129" cx="88.5" cy="88.5" r="88.5" transform="translate(740 388.23)" fill="#8c6df2"/>
    <path id="Trazado_104383" data-name="Trazado 104383" d="M396.143,125.072l14.119,39.767-42.138-2.261Z" transform="translate(328.126 90.577)" fill="#12263f"/>
    <path id="Trazado_104384" data-name="Trazado 104384" d="M365.845,250.4l42,4.093-19.93,37.194Z" transform="translate(325.368 242.258)" fill="#12263f"/>
    <path id="Trazado_106136" data-name="Trazado 106136" d="M-24.229-2.637A8.267,8.267,0,0,1-27.7-.513a14.974,14.974,0,0,1-5.01.806A8.933,8.933,0,0,1-39.4-2.271,10.377,10.377,0,0,1-42.085-9.4L-42.1-11.25a12.728,12.728,0,0,1,1.113-5.5A8.267,8.267,0,0,1-37.8-20.369,9.012,9.012,0,0,1-33-21.636a9.448,9.448,0,0,1,6.189,1.824,7.728,7.728,0,0,1,2.571,5.442h-4.951a4.044,4.044,0,0,0-1.143-2.549,3.687,3.687,0,0,0-2.49-.762,3.355,3.355,0,0,0-2.988,1.641,8.76,8.76,0,0,0-1.069,4.688v1.289a8.576,8.576,0,0,0,1.091,4.8,3.86,3.86,0,0,0,3.435,1.6,4.32,4.32,0,0,0,2.988-.894V-7.866h-3.574V-11.4h8.716ZM-16.26,0h-4.951V-22.5h4.951Zm2.417-8.071A9.355,9.355,0,0,1-12.92-12.3a6.6,6.6,0,0,1,2.651-2.849,7.985,7.985,0,0,1,4.058-1,7.288,7.288,0,0,1,5.61,2.2,8.46,8.46,0,0,1,2.051,6v.176A8.208,8.208,0,0,1-.608-1.882,7.307,7.307,0,0,1-6.182.293a7.39,7.39,0,0,1-5.435-2.029,7.935,7.935,0,0,1-2.212-5.5Zm4.937.308a5.9,5.9,0,0,0,.688,3.223A2.294,2.294,0,0,0-6.182-3.516q2.637,0,2.7-4.058v-.5q0-4.263-2.725-4.263-2.476,0-2.681,3.677ZM18.34-7.793A9.66,9.66,0,0,1,16.729-1.8,5.4,5.4,0,0,1,12.188.293a4.684,4.684,0,0,1-3.9-1.919L8.086,0H3.662V-22.5H8.6v7.925a4.519,4.519,0,0,1,3.56-1.567,5.4,5.4,0,0,1,4.57,2.124A9.71,9.71,0,0,1,18.34-8.042Zm-4.951-.315a6.444,6.444,0,0,0-.608-3.254,2.049,2.049,0,0,0-1.868-.973A2.364,2.364,0,0,0,8.6-11.062v6.288a2.377,2.377,0,0,0,2.344,1.258,2.1,2.1,0,0,0,2.212-1.7A12.182,12.182,0,0,0,13.389-8.108ZM29.443,0a5.574,5.574,0,0,1-.469-1.421A4.59,4.59,0,0,1,25.166.293a5.623,5.623,0,0,1-3.809-1.355A4.313,4.313,0,0,1,19.79-4.468a4.433,4.433,0,0,1,1.9-3.9,9.7,9.7,0,0,1,5.537-1.318h1.523v-.839q0-2.193-1.89-2.193a1.545,1.545,0,0,0-1.758,1.737H20.171a4.425,4.425,0,0,1,1.956-3.731,8.218,8.218,0,0,1,4.988-1.434,7.205,7.205,0,0,1,4.79,1.479,5.144,5.144,0,0,1,1.8,4.058v7.017a7.186,7.186,0,0,0,.674,3.34V0ZM26.353-3.223a2.754,2.754,0,0,0,1.531-.4,2.479,2.479,0,0,0,.872-.894V-7.046H27.319q-2.578,0-2.578,2.314A1.413,1.413,0,0,0,25.2-3.64,1.643,1.643,0,0,0,26.353-3.223ZM41.646,0H36.694V-22.5h4.951ZM-77.908,35V13.672h6.87a10.106,10.106,0,0,1,5.083,1.282,9.009,9.009,0,0,1,3.523,3.618,10.924,10.924,0,0,1,1.282,5.237v.981a10.987,10.987,0,0,1-1.238,5.251,9.048,9.048,0,0,1-3.486,3.633A9.884,9.884,0,0,1-70.891,35Zm5.142-17.358v13.4h1.787a4,4,0,0,0,3.4-1.575,7.717,7.717,0,0,0,1.187-4.68v-.923a7.653,7.653,0,0,0-1.187-4.658,4.069,4.069,0,0,0-3.457-1.567ZM-53.533,35h-4.951V19.15h4.951Zm-5.244-19.951a2.223,2.223,0,0,1,.762-1.739,2.863,2.863,0,0,1,1.978-.678,2.863,2.863,0,0,1,1.978.678,2.223,2.223,0,0,1,.762,1.739,2.223,2.223,0,0,1-.762,1.739,2.863,2.863,0,0,1-1.978.678,2.863,2.863,0,0,1-1.978-.678A2.223,2.223,0,0,1-58.777,15.049Zm16.582,15.5a1.14,1.14,0,0,0-.659-1.011,10.027,10.027,0,0,0-2.5-.791,11.422,11.422,0,0,1-3.047-1.077,5.1,5.1,0,0,1-1.831-1.619,3.865,3.865,0,0,1-.63-2.183,4.381,4.381,0,0,1,1.8-3.6,7.422,7.422,0,0,1,4.717-1.414,8.223,8.223,0,0,1,5.039,1.421,4.443,4.443,0,0,1,1.9,3.735h-4.951q0-1.9-2.007-1.9a1.989,1.989,0,0,0-1.3.432,1.338,1.338,0,0,0-.527,1.077,1.228,1.228,0,0,0,.645,1.069,6.09,6.09,0,0,0,2.058.674,17.785,17.785,0,0,1,2.483.63q3.574,1.23,3.574,4.409a4.151,4.151,0,0,1-1.926,3.53,8.447,8.447,0,0,1-4.988,1.362,8.62,8.62,0,0,1-3.633-.732,6.075,6.075,0,0,1-2.49-1.992,4.511,4.511,0,0,1-.894-2.651h4.614a1.908,1.908,0,0,0,.732,1.6,3.013,3.013,0,0,0,1.8.505,2.37,2.37,0,0,0,1.516-.41A1.312,1.312,0,0,0-42.195,30.547ZM-29.377,15.21v3.94h2.607v3.428h-2.607v7.251a1.851,1.851,0,0,0,.322,1.245,1.729,1.729,0,0,0,1.274.352,7.242,7.242,0,0,0,1.23-.088v3.53a9.11,9.11,0,0,1-2.783.425,5.171,5.171,0,0,1-3.765-1.2,4.923,4.923,0,0,1-1.216-3.647V22.578h-2.021V19.15h2.021V15.21Zm14.136,8.408-1.626-.117q-2.329,0-2.988,1.465V35h-4.937V19.15h4.629L-20,21.187a3.823,3.823,0,0,1,3.472-2.329,4.814,4.814,0,0,1,1.377.176ZM-8.254,35h-4.951V19.15h4.951ZM-13.5,15.049a2.223,2.223,0,0,1,.762-1.739,2.863,2.863,0,0,1,1.978-.678,2.863,2.863,0,0,1,1.978.678,2.223,2.223,0,0,1,.762,1.739,2.223,2.223,0,0,1-.762,1.739,2.863,2.863,0,0,1-1.978.678,2.863,2.863,0,0,1-1.978-.678A2.223,2.223,0,0,1-13.5,15.049Zm23,12.158A9.66,9.66,0,0,1,7.888,33.2a5.4,5.4,0,0,1-4.541,2.095,4.684,4.684,0,0,1-3.9-1.919L-.754,35H-5.178V12.5H-.242v7.925a4.519,4.519,0,0,1,3.56-1.567,5.4,5.4,0,0,1,4.57,2.124A9.71,9.71,0,0,1,9.5,26.958Zm-4.951-.315a6.443,6.443,0,0,0-.608-3.254,2.049,2.049,0,0,0-1.868-.973A2.364,2.364,0,0,0-.242,23.938v6.288A2.377,2.377,0,0,0,2.1,31.484a2.1,2.1,0,0,0,2.212-1.7A12.182,12.182,0,0,0,4.548,26.892Zm16.567,6.394a5.09,5.09,0,0,1-4.233,2.007,4.992,4.992,0,0,1-3.948-1.516,6.376,6.376,0,0,1-1.34-4.358V19.15h4.937v10.3a1.774,1.774,0,0,0,1.978,2.036,2.58,2.58,0,0,0,2.417-1.216V19.15h4.966V35H21.262ZM34.343,15.21v3.94h2.607v3.428H34.343v7.251a1.851,1.851,0,0,0,.322,1.245,1.729,1.729,0,0,0,1.274.352,7.242,7.242,0,0,0,1.23-.088v3.53a9.11,9.11,0,0,1-2.783.425,5.171,5.171,0,0,1-3.765-1.2,4.923,4.923,0,0,1-1.216-3.647V22.578H27.385V19.15h2.021V15.21ZM44.1,35H39.148V19.15H44.1ZM38.855,15.049a2.223,2.223,0,0,1,.762-1.739,3.223,3.223,0,0,1,3.955,0,2.366,2.366,0,0,1,0,3.478,3.223,3.223,0,0,1-3.955,0A2.223,2.223,0,0,1,38.855,15.049Zm7.661,11.88a9.355,9.355,0,0,1,.923-4.226,6.6,6.6,0,0,1,2.651-2.849,7.985,7.985,0,0,1,4.058-1,7.288,7.288,0,0,1,5.61,2.2,8.46,8.46,0,0,1,2.051,6v.176a8.208,8.208,0,0,1-2.058,5.881,7.307,7.307,0,0,1-5.574,2.175,7.39,7.39,0,0,1-5.435-2.029,7.935,7.935,0,0,1-2.212-5.5Zm4.937.308a5.9,5.9,0,0,0,.688,3.223,2.294,2.294,0,0,0,2.036,1.025q2.637,0,2.7-4.058v-.5q0-4.263-2.725-4.263-2.476,0-2.681,3.677ZM68.518,19.15l.161,1.86a5.375,5.375,0,0,1,4.526-2.153,4.522,4.522,0,0,1,3.7,1.479,7.044,7.044,0,0,1,1.267,4.453V35H73.22V25a2.675,2.675,0,0,0-.483-1.765,2.236,2.236,0,0,0-1.758-.564,2.354,2.354,0,0,0-2.153,1.143V35H63.889V19.15ZM-38.467,64.331a2.113,2.113,0,0,0-.8-1.758,9.923,9.923,0,0,0-2.805-1.3,26.912,26.912,0,0,1-3.281-1.3Q-49.5,57.93-49.5,54.37a5.018,5.018,0,0,1,1.033-3.127,6.68,6.68,0,0,1,2.922-2.109,11.372,11.372,0,0,1,4.248-.754,9.948,9.948,0,0,1,4.124.82,6.529,6.529,0,0,1,2.834,2.336A6.1,6.1,0,0,1-33.325,55h-5.127a2.578,2.578,0,0,0-.8-2.021,3.112,3.112,0,0,0-2.161-.718,3.509,3.509,0,0,0-2.175.608,1.865,1.865,0,0,0-.8,1.545,1.878,1.878,0,0,0,.879,1.487,11.084,11.084,0,0,0,3.091,1.377,18.934,18.934,0,0,1,3.633,1.531A6.1,6.1,0,0,1-33.325,64.3,5.208,5.208,0,0,1-35.435,68.7a9.382,9.382,0,0,1-5.786,1.6,11.48,11.48,0,0,1-4.695-.93,7.078,7.078,0,0,1-3.164-2.549,6.641,6.641,0,0,1-1.062-3.728h5.156a3.271,3.271,0,0,0,.886,2.527,4.189,4.189,0,0,0,2.878.813,3.309,3.309,0,0,0,2.014-.549A1.813,1.813,0,0,0-38.467,64.331Zm13.887-1.245,2.637-8.936h5.288l-6.46,18.5-.278.674A4.907,4.907,0,0,1-28.257,76.4a7.737,7.737,0,0,1-2.036-.292V72.593h.645a3.376,3.376,0,0,0,1.589-.3,1.824,1.824,0,0,0,.813-1.078l.4-1.055L-32.358,54.15h5.273Zm17.5,2.461a1.14,1.14,0,0,0-.659-1.011,10.027,10.027,0,0,0-2.5-.791,11.422,11.422,0,0,1-3.047-1.077,5.1,5.1,0,0,1-1.831-1.619,3.865,3.865,0,0,1-.63-2.183,4.381,4.381,0,0,1,1.8-3.6,7.422,7.422,0,0,1,4.717-1.414,8.223,8.223,0,0,1,5.039,1.421,4.443,4.443,0,0,1,1.9,3.735H-7.236q0-1.9-2.007-1.9a1.989,1.989,0,0,0-1.3.432,1.338,1.338,0,0,0-.527,1.077,1.228,1.228,0,0,0,.645,1.069,6.09,6.09,0,0,0,2.058.674,17.785,17.785,0,0,1,2.483.63q3.574,1.23,3.574,4.409a4.151,4.151,0,0,1-1.926,3.53,8.447,8.447,0,0,1-4.988,1.362,8.62,8.62,0,0,1-3.633-.732,6.075,6.075,0,0,1-2.49-1.992,4.511,4.511,0,0,1-.894-2.651h4.614a1.908,1.908,0,0,0,.732,1.6,3.013,3.013,0,0,0,1.8.505,2.37,2.37,0,0,0,1.516-.41A1.312,1.312,0,0,0-7.075,65.547ZM5.742,50.21v3.94H8.35v3.428H5.742v7.251a1.851,1.851,0,0,0,.322,1.245,1.729,1.729,0,0,0,1.274.352,7.242,7.242,0,0,0,1.23-.088v3.53a9.11,9.11,0,0,1-2.783.425,5.171,5.171,0,0,1-3.765-1.2A4.923,4.923,0,0,1,.806,65.444V57.578H-1.216V54.15H.806V50.21ZM17.959,70.293a8.148,8.148,0,0,1-5.9-2.175A7.512,7.512,0,0,1,9.8,62.456v-.41a9.734,9.734,0,0,1,.9-4.292,6.592,6.592,0,0,1,2.629-2.878,7.938,7.938,0,0,1,4.1-1.018,6.861,6.861,0,0,1,5.273,2.073,8.145,8.145,0,0,1,1.934,5.779v1.919H14.824a3.558,3.558,0,0,0,1.157,2.095,3.443,3.443,0,0,0,2.314.762,4.437,4.437,0,0,0,3.662-1.641l2.256,2.666A6.306,6.306,0,0,1,21.6,69.539,8.836,8.836,0,0,1,17.959,70.293ZM17.4,57.666q-2.168,0-2.578,2.871H19.8v-.381a2.445,2.445,0,0,0-.6-1.838A2.39,2.39,0,0,0,17.4,57.666ZM31.289,54.15l.161,1.86a5.45,5.45,0,0,1,4.526-2.153,4.012,4.012,0,0,1,4.058,2.388,5.275,5.275,0,0,1,4.658-2.388q4.819,0,4.951,5.83V70H44.692V60a3.022,3.022,0,0,0-.41-1.772,1.746,1.746,0,0,0-1.494-.557,2.339,2.339,0,0,0-2.183,1.3l.015.205V70H35.669V60.024a3.176,3.176,0,0,0-.4-1.8,1.741,1.741,0,0,0-1.509-.557,2.367,2.367,0,0,0-2.168,1.3V70H26.66V54.15Z" transform="translate(507 341.799)" fill="#12263f"/>
    <g id="Grupo_57548" data-name="Grupo 57548" transform="translate(136.216 310.431)">
      <path id="Trazado_104385" data-name="Trazado 104385" d="M175.229,233.126l-33.507-33.507,15.162-15.162L179,229.527a.373.373,0,0,1-.071.429l-3.167,3.167A.374.374,0,0,1,175.229,233.126Z" transform="translate(-82.091 -147.984)" fill="#3d4fc3"/>
      <path id="Trazado_104386" data-name="Trazado 104386" d="M120.715,221.822l-1.879-1.879a1.254,1.254,0,0,1,0-1.768l20.182-20.182a1.251,1.251,0,0,1,1.766,0l1.881,1.881a1.251,1.251,0,0,1,0,1.766l-20.182,20.182A1.254,1.254,0,0,1,120.715,221.822Z" transform="translate(-110.229 -132.042)" fill="#ffe07d"/>
      <path id="Trazado_104387" data-name="Trazado 104387" d="M150.94,202.388l-7.466-7.468,3.108-3.11a.943.943,0,0,1,1.328,0l6.14,6.142a.936.936,0,0,1,0,1.326Z" transform="translate(-79.971 -139.416)" fill="#407093"/>
      <path id="Trazado_104388" data-name="Trazado 104388" d="M148.473,199.92l7.349,7.349,3.11-3.11a.939.939,0,0,0,0-1.328l-6.021-6.021a.939.939,0,0,0-1.328,0Z" transform="translate(-73.921 -133.365)" fill="#407093"/>
      <path id="Trazado_104389" data-name="Trazado 104389" d="M155.8,201.211l5.057-5.057a1.546,1.546,0,0,0,0-2.186l-3-3a1.546,1.546,0,0,0-2.186,0l-3.284,3.284Z" transform="translate(-69.187 -140.65)" fill="#ffd064"/>
      <path id="Trazado_104390" data-name="Trazado 104390" d="M148.853,197.093l-1.4,1.4a3.667,3.667,0,1,0,5.185,5.185l1.4-1.4Z" transform="translate(-76.454 -132.691)" fill="#ffd064"/>
      <path id="Trazado_104391" data-name="Trazado 104391" d="M120.8,172.414l33.507,33.507,15.16-15.16-45.071-22.116a.373.373,0,0,0-.429.071l-3.167,3.17A.37.37,0,0,0,120.8,172.414Z" transform="translate(-107.549 -167.165)" fill="#5766cb"/>
      <path id="Trazado_104392" data-name="Trazado 104392" d="M130.766,182.213l7.468,7.468,3.11-3.11a.939.939,0,0,0,0-1.328L135.2,179.1a.936.936,0,0,0-1.326,0Z" transform="translate(-95.351 -154.795)" fill="#3d4fc3"/>
      <path id="Trazado_104393" data-name="Trazado 104393" d="M133.169,184.617l-7.349-7.349,3.11-3.11a.939.939,0,0,1,1.328,0l6.021,6.021a.939.939,0,0,1,0,1.328Z" transform="translate(-101.337 -160.781)" fill="#3d4fc3"/>
      <path id="Trazado_104394" data-name="Trazado 104394" d="M131.858,176.3l5.055-5.057a1.546,1.546,0,0,1,2.186,0l3,3a1.543,1.543,0,0,1,0,2.184l-3.284,3.284Z" transform="translate(-94.029 -164.523)" fill="#ffe07d"/>
      <path id="Trazado_104395" data-name="Trazado 104395" d="M134.312,182.552l-1.4,1.4a3.667,3.667,0,1,1-5.185-5.185l1.4-1.4Z" transform="translate(-100.327 -156.564)" fill="#ffe07d"/>
      <path id="Trazado_104396" data-name="Trazado 104396" d="M137.1,201.911l.245-.391-17.879-7.8a.773.773,0,0,0-.858.161l-2.986,2.986a.775.775,0,0,0,0,1.1l14.753,14.753Z" transform="translate(-113.953 -136.85)" fill="#5766cb"/>
      <path id="Trazado_104397" data-name="Trazado 104397" d="M136.163,201.877c-.141.088-.281.177-.424.265l-10.808,6.724L139.762,223.7a.775.775,0,0,0,1.1,0l2.986-2.986a.777.777,0,0,0,.161-.858Z" transform="translate(-102.412 -126.901)" fill="#3d4fc3"/>
      <path id="Trazado_104398" data-name="Trazado 104398" d="M193.916,170.8a32.985,32.985,0,0,0-15.609,8.748L141.12,216.73a72.788,72.788,0,0,0-10.333,13.018l-9.776,15.715a3.018,3.018,0,0,0-.4,1l15.819-15.819a1.247,1.247,0,0,1,1.766,0l1.881,1.879a1.251,1.251,0,0,1,0,1.766L124.256,250.1a3,3,0,0,0,1-.4l15.715-9.776A72.687,72.687,0,0,0,153.986,229.6l37.185-37.187a32.985,32.985,0,0,0,8.748-15.609,4.976,4.976,0,0,0-6-6Z" transform="translate(-107.641 -164.688)" fill="#f1f4f6"/>
      <path id="Trazado_104399" data-name="Trazado 104399" d="M122.786,204.719l-1.775,2.856a3.018,3.018,0,0,0-.4,1l6.611-6.611Z" transform="translate(-107.641 -126.799)" fill="#dfeaef"/>
      <path id="Trazado_104400" data-name="Trazado 104400" d="M191.92,170.8c-.53.128-1.056.267-1.578.422a5.006,5.006,0,0,1-.111,1.735,33,33,0,0,1-8.748,15.609L144.3,225.75a72.371,72.371,0,0,1-6.9,6.08l.69.69a1.251,1.251,0,0,1,0,1.766L122.26,250.1a3,3,0,0,0,1-.4l15.715-9.776A72.687,72.687,0,0,0,151.99,229.6l37.185-37.187a32.966,32.966,0,0,0,8.748-15.609,4.976,4.976,0,0,0-6-6Z" transform="translate(-105.645 -164.688)" fill="#dfeaef"/>
      <path id="Trazado_104401" data-name="Trazado 104401" d="M129.335,244.034l-2.447,3.934a4.474,4.474,0,0,0-.469,1.012l-4.089,4.089a2.693,2.693,0,0,0,0,3.806l1.879,1.879a2.693,2.693,0,0,0,3.806,0l4.089-4.089a4.474,4.474,0,0,0,1.012-.469l3.934-2.447,14.02,14.022a2.223,2.223,0,0,0,3.136,0l2.986-2.988a2.2,2.2,0,0,0,.464-2.453l-7.351-16.851a74.239,74.239,0,0,0,11.8-9.6l12.26-12.26L185.1,232.357l-.38.378a5.109,5.109,0,0,0,7.225,7.225l.38-.378,14.532,14.532a1.817,1.817,0,0,0,2.571,0l3.167-3.167a1.817,1.817,0,0,0,.347-2.086l-9.84-20.056,4.325-4.328a2.985,2.985,0,0,0,0-4.224l-3-3a2.994,2.994,0,0,0-4.226,0l-1.857,1.859-1.6-3.256a1.443,1.443,0,0,0-2.59,1.271c5.289,10.782,11.2,22.823,15.858,32.32l-1.872,1.872-9.462-9.46,2.091-2.091a2.383,2.383,0,0,0,0-3.366l-6.023-6.021a2.377,2.377,0,0,0-3.366,0l-2.091,2.089-1.543-1.543,2.091-2.089a2.385,2.385,0,0,0,0-3.368l-6.14-6.14a2.38,2.38,0,0,0-3.368,0l-2.089,2.089-1.839-1.837,12.718-12.718,1.987,4.049a1.443,1.443,0,0,0,2.59-1.271l-2.422-4.933,8.014-8.012a34.454,34.454,0,0,0,9.131-16.292,6.419,6.419,0,0,0-7.745-7.742,34.417,34.417,0,0,0-16.292,9.13l-8.012,8.012-14.4-7.066,1.859-1.859a2.988,2.988,0,0,0,0-4.226l-3-3a2.986,2.986,0,0,0-4.224,0l-4.328,4.325-20.056-9.84a1.817,1.817,0,0,0-2.086.347l-3.167,3.167a1.817,1.817,0,0,0,0,2.571L141.5,188.758l-.38.38a5.109,5.109,0,0,0,7.225,7.225l.378-.38,10.735,10.735-4.387,4.387a1.443,1.443,0,0,0,2.04,2.04l29.312-29.314a31.561,31.561,0,0,1,14.928-8.366,3.535,3.535,0,0,1,4.264,4.264,31.551,31.551,0,0,1-8.366,14.928l-37.187,37.185a71.337,71.337,0,0,1-12.757,10.13l-6.642,4.131,7.53-7.53a2.693,2.693,0,0,0,0-3.806l-1.879-1.879a2.689,2.689,0,0,0-3.806,0l-7.53,7.53,4.131-6.642a71.493,71.493,0,0,1,10.13-12.758l3.013-3.013a1.443,1.443,0,1,0-2.04-2.04l-3.013,3.013a74.288,74.288,0,0,0-9.619,11.834l-4.94-2.155a1.442,1.442,0,1,0-1.154,2.643l4.535,1.978-5.126,8.24-13-13,2.193-2.193,5.09,2.221a1.442,1.442,0,1,0,1.152-2.643l-5.506-2.4a2.206,2.206,0,0,0-2.456.464l-2.986,2.986a2.218,2.218,0,0,0,0,3.134Zm72.909-24.741a.108.108,0,0,1,.073-.029.1.1,0,0,1,.073.029l3,3a.089.089,0,0,1,.031.073.1.1,0,0,1-.031.073l-3.629,3.629-2.071-4.222ZM189.909,237.92a2.225,2.225,0,1,1-3.147-3.145l.38-.378,3.145,3.145Zm3.158-5.145,5.311,5.311-1.735,1.733-5.309-5.309Zm-11.049-11.049,5.428,5.428-1.733,1.733-5.428-5.428ZM158.648,175.7a.089.089,0,0,1,.073-.031.087.087,0,0,1,.071.031l3,3a.1.1,0,0,1,0,.146l-2.555,2.555-4.222-2.071ZM157.626,200.8l-5.428-5.428,1.733-1.735,5.428,5.428ZM146.575,189.75l-5.309-5.309L143,182.709l5.311,5.309Zm-.265,4.573a2.224,2.224,0,1,1-3.145-3.145l.378-.38c2.54,2.54,1.907,1.907,2.014,2.011.13.133-.444-.444,1.134,1.134Zm13.357,8.518,2.089-2.091a2.377,2.377,0,0,0,0-3.366l-6.14-6.142a2.385,2.385,0,0,0-3.368,0l-2.089,2.091-1.543-1.543,2.091-2.091a2.383,2.383,0,0,0,0-3.366l-6.023-6.021a2.377,2.377,0,0,0-3.366,0l-2.091,2.089-9.46-9.462,1.872-1.872,42.583,20.893L161.5,204.678Zm-7.026,60.417-13.074-13.074,8.273-5.148,6.993,16.029Zm-8.224-28.194,1.6,1.6c-3.963,3.965-16.086,16.088-19.908,19.91l-1.6-1.607c23.623-23.623,17.724-17.726,19.908-19.908Z" transform="translate(-114.743 -167.955)"/>
      <path id="Trazado_104402" data-name="Trazado 104402" d="M154.41,184.652a1.442,1.442,0,0,0,1.96-.564,5.9,5.9,0,0,0-8-8.039l-.015.009a1.442,1.442,0,1,0,1.379,2.533l.018-.011a3.021,3.021,0,0,1,4.1,4.111,1.443,1.443,0,0,0,.564,1.96Z" transform="translate(-74.978 -159.068)"/>
      <circle id="Elipse_4131" data-name="Elipse 4131" cx="1.442" cy="1.442" r="1.442" transform="translate(60.474 28.923)"/>
      <circle id="Elipse_4132" data-name="Elipse 4132" cx="1.442" cy="1.442" r="1.442" transform="translate(56.126 33.27)"/>
      <circle id="Elipse_4133" data-name="Elipse 4133" cx="1.442" cy="1.442" r="1.442" transform="translate(51.779 37.618)"/>
      <circle id="Elipse_4134" data-name="Elipse 4134" cx="1.442" cy="1.442" r="1.442" transform="translate(47.432 41.965)"/>
      <circle id="Elipse_4135" data-name="Elipse 4135" cx="1.442" cy="1.442" r="1.442" transform="translate(43.084 46.313)"/>
      <circle id="Elipse_4136" data-name="Elipse 4136" cx="1.442" cy="1.442" r="1.442" transform="translate(38.737 50.66)"/>
      <circle id="Elipse_4137" data-name="Elipse 4137" cx="1.442" cy="1.442" r="1.442" transform="translate(66.581 35.029)"/>
      <circle id="Elipse_4138" data-name="Elipse 4138" cx="1.442" cy="1.442" r="1.442" transform="translate(62.233 39.377)"/>
      <circle id="Elipse_4139" data-name="Elipse 4139" cx="1.442" cy="1.442" r="1.442" transform="translate(57.886 43.724)"/>
      <circle id="Elipse_4140" data-name="Elipse 4140" cx="1.442" cy="1.442" r="1.442" transform="translate(53.538 48.072)"/>
      <circle id="Elipse_4141" data-name="Elipse 4141" cx="1.442" cy="1.442" r="1.442" transform="translate(49.191 52.419)"/>
      <circle id="Elipse_4142" data-name="Elipse 4142" cx="1.442" cy="1.442" r="1.442" transform="translate(44.843 56.767)"/>
    </g>
    <g id="Grupo_57566" data-name="Grupo 57566" transform="translate(296.183 83.786)">
      <g id="Grupo_57564" data-name="Grupo 57564" transform="translate(3.105 1.607)">
        <path id="Trazado_104403" data-name="Trazado 104403" d="M194.18,84.994l-1.7,1.452v63.368h13.6l1.156-1.607V84.994Z" transform="translate(-183.736 -43.32)" fill="#dbedff"/>
        <path id="Trazado_104404" data-name="Trazado 104404" d="M198.538,84.994h-7.608l-1.7,1.452v63.368h7.605V86.446Z" transform="translate(-187.666 -43.32)" fill="#b5dcff"/>
        <path id="Trazado_104405" data-name="Trazado 104405" d="M210.866,82.315h-20.79a1.554,1.554,0,0,0-1.554,1.554v4.266a1.555,1.555,0,0,0,1.554,1.554h20.79l.486-.219V82.879Z" transform="translate(-188.523 -46.562)" fill="#ffaa5b"/>
        <path id="Trazado_104406" data-name="Trazado 104406" d="M241.607,84.994H220.822v64.141l1.207.679h20.779V86.446Z" transform="translate(-149.433 -43.32)" fill="#dbedff"/>
        <path id="Trazado_104407" data-name="Trazado 104407" d="M229.223,84.994h-8.4v64.141l1.207.679h7.194Z" transform="translate(-149.433 -43.32)" fill="#b5dcff"/>
        <path id="Trazado_104408" data-name="Trazado 104408" d="M242.682,82.315h-20.79l-.957.533v6.284l.957.557h20.79a1.555,1.555,0,0,0,1.554-1.554V83.869A1.555,1.555,0,0,0,242.682,82.315Z" transform="translate(-149.297 -46.562)" fill="#ffaa5b"/>
        <path id="Trazado_104409" data-name="Trazado 104409" d="M229.086,82.315h-7.194l-.957.533v6.284l.957.557h7.194Z" transform="translate(-149.297 -46.562)" fill="#ff9838"/>
        <path id="Trazado_104410" data-name="Trazado 104410" d="M229.338,66.139H207.786l-1.118.776v11.92l1.439.809h21.232a2.187,2.187,0,0,0,2.186-2.186V68.323a2.185,2.185,0,0,0-2.186-2.184Z" transform="translate(-166.563 -66.139)" fill="#ffe02f"/>
        <path id="Trazado_104411" data-name="Trazado 104411" d="M212.359,77.458V68.323a2.185,2.185,0,0,1,2.186-2.184H204.272a2.185,2.185,0,0,0-2.186,2.184v9.135a2.187,2.187,0,0,0,2.186,2.186h10.273A2.187,2.187,0,0,1,212.359,77.458Z" transform="translate(-172.108 -66.139)" fill="#fbc700"/>
        <path id="Trazado_104412" data-name="Trazado 104412" d="M247.677,78.79H200.013l-1.381,1.45v77.082h50.252V80.24Z" transform="translate(-176.289 -50.828)" fill="#dbedff"/>
        <path id="Trazado_104413" data-name="Trazado 104413" d="M208.227,78.79h-8.213l-1.381,1.45v77.082h8.213V80.24Z" transform="translate(-176.289 -50.828)" fill="#b5dcff"/>
        <path id="Trazado_104414" data-name="Trazado 104414" d="M209.771,106.032H223.4v18.321H209.771Z" transform="translate(-162.808 -17.859)" fill="#8479c2"/>
        <g id="Grupo_57549" data-name="Grupo 57549" transform="translate(29.978 37.764)">
          <path id="Trazado_104415" data-name="Trazado 104415" d="M205.853,83.225H204.8l-1.209.924v6.014l1.2.88h1.065a1.631,1.631,0,0,0,1.631-1.631V84.856a1.633,1.633,0,0,0-1.631-1.631Z" transform="translate(-200.266 -83.225)" fill="#8479c2"/>
          <path id="Trazado_104416" data-name="Trazado 104416" d="M205.7,89.411V84.856a1.631,1.631,0,0,1,1.631-1.631h-3.609a1.633,1.633,0,0,0-1.631,1.631v4.555a1.631,1.631,0,0,0,1.631,1.631h3.609A1.63,1.63,0,0,1,205.7,89.411Z" transform="translate(-202.086 -83.225)" fill="#6e60b8"/>
        </g>
        <g id="Grupo_57550" data-name="Grupo 57550" transform="translate(43.86 37.764)">
          <path id="Trazado_104417" data-name="Trazado 104417" d="M212.134,83.225H211.08l-1.209.924v6.014l1.2.88h1.065a1.631,1.631,0,0,0,1.631-1.631V84.856a1.633,1.633,0,0,0-1.631-1.631Z" transform="translate(-206.547 -83.225)" fill="#8479c2"/>
          <path id="Trazado_104418" data-name="Trazado 104418" d="M211.976,89.411V84.856a1.631,1.631,0,0,1,1.631-1.631H210a1.633,1.633,0,0,0-1.631,1.631v4.555A1.631,1.631,0,0,0,210,91.043h3.609A1.63,1.63,0,0,1,211.976,89.411Z" transform="translate(-208.367 -83.225)" fill="#6e60b8"/>
        </g>
        <g id="Grupo_57551" data-name="Grupo 57551" transform="translate(57.743 37.764)">
          <path id="Trazado_104419" data-name="Trazado 104419" d="M218.415,83.225h-1.054l-1.209.924v6.014l1.2.88h1.065a1.631,1.631,0,0,0,1.631-1.631V84.856a1.633,1.633,0,0,0-1.631-1.631Z" transform="translate(-212.828 -83.225)" fill="#8479c2"/>
          <path id="Trazado_104420" data-name="Trazado 104420" d="M218.257,89.411V84.856a1.631,1.631,0,0,1,1.631-1.631h-3.609a1.633,1.633,0,0,0-1.631,1.631v4.555a1.631,1.631,0,0,0,1.631,1.631h3.609A1.63,1.63,0,0,1,218.257,89.411Z" transform="translate(-214.648 -83.225)" fill="#6e60b8"/>
        </g>
        <g id="Grupo_57552" data-name="Grupo 57552" transform="translate(29.978 52.113)">
          <path id="Trazado_104421" data-name="Trazado 104421" d="M205.853,89.718H204.8l-1.209.924v6.012l1.2.882h1.065a1.633,1.633,0,0,0,1.631-1.631V91.349a1.631,1.631,0,0,0-1.631-1.631Z" transform="translate(-200.266 -89.716)" fill="#8479c2"/>
          <path id="Trazado_104422" data-name="Trazado 104422" d="M205.7,95.906V91.35a1.632,1.632,0,0,1,1.631-1.633h-3.609a1.633,1.633,0,0,0-1.631,1.633v4.555a1.633,1.633,0,0,0,1.631,1.631h3.609A1.631,1.631,0,0,1,205.7,95.906Z" transform="translate(-202.086 -89.717)" fill="#6e60b8"/>
        </g>
        <g id="Grupo_57553" data-name="Grupo 57553" transform="translate(43.86 52.113)">
          <path id="Trazado_104423" data-name="Trazado 104423" d="M212.134,89.718H211.08l-1.209.924v6.012l1.2.882h1.065a1.633,1.633,0,0,0,1.631-1.631V91.349a1.631,1.631,0,0,0-1.631-1.631Z" transform="translate(-206.547 -89.716)" fill="#8479c2"/>
          <path id="Trazado_104424" data-name="Trazado 104424" d="M211.976,95.906V91.35a1.632,1.632,0,0,1,1.631-1.633H210a1.633,1.633,0,0,0-1.631,1.633v4.555A1.633,1.633,0,0,0,210,97.537h3.609A1.631,1.631,0,0,1,211.976,95.906Z" transform="translate(-208.367 -89.717)" fill="#6e60b8"/>
        </g>
        <g id="Grupo_57554" data-name="Grupo 57554" transform="translate(57.743 52.113)">
          <path id="Trazado_104425" data-name="Trazado 104425" d="M218.415,89.718h-1.054l-1.209.924v6.012l1.2.882h1.065a1.633,1.633,0,0,0,1.631-1.631V91.349a1.631,1.631,0,0,0-1.631-1.631Z" transform="translate(-212.828 -89.716)" fill="#8479c2"/>
          <path id="Trazado_104426" data-name="Trazado 104426" d="M218.257,95.906V91.35a1.632,1.632,0,0,1,1.631-1.633h-3.609a1.633,1.633,0,0,0-1.631,1.633v4.555a1.633,1.633,0,0,0,1.631,1.631h3.609A1.631,1.631,0,0,1,218.257,95.906Z" transform="translate(-214.648 -89.717)" fill="#6e60b8"/>
        </g>
        <g id="Grupo_57555" data-name="Grupo 57555" transform="translate(29.978 66.464)">
          <path id="Trazado_104427" data-name="Trazado 104427" d="M205.853,96.21H204.8l-1.209.924v6.014l1.2.88h1.065a1.633,1.633,0,0,0,1.631-1.631V97.841a1.631,1.631,0,0,0-1.631-1.631Z" transform="translate(-200.266 -96.21)" fill="#8479c2"/>
          <path id="Trazado_104428" data-name="Trazado 104428" d="M205.7,102.4V97.841a1.63,1.63,0,0,1,1.631-1.631h-3.609a1.631,1.631,0,0,0-1.631,1.631V102.4a1.631,1.631,0,0,0,1.631,1.631h3.609A1.63,1.63,0,0,1,205.7,102.4Z" transform="translate(-202.086 -96.21)" fill="#6e60b8"/>
        </g>
        <g id="Grupo_57556" data-name="Grupo 57556" transform="translate(43.86 66.464)">
          <path id="Trazado_104429" data-name="Trazado 104429" d="M212.134,96.21H211.08l-1.209.924v6.014l1.2.88h1.065a1.633,1.633,0,0,0,1.631-1.631V97.841a1.631,1.631,0,0,0-1.631-1.631Z" transform="translate(-206.547 -96.21)" fill="#8479c2"/>
          <path id="Trazado_104430" data-name="Trazado 104430" d="M211.976,102.4V97.841a1.63,1.63,0,0,1,1.631-1.631H210a1.631,1.631,0,0,0-1.631,1.631V102.4A1.631,1.631,0,0,0,210,104.028h3.609A1.63,1.63,0,0,1,211.976,102.4Z" transform="translate(-208.367 -96.21)" fill="#6e60b8"/>
        </g>
        <g id="Grupo_57557" data-name="Grupo 57557" transform="translate(57.743 66.464)">
          <path id="Trazado_104431" data-name="Trazado 104431" d="M218.415,96.21h-1.054l-1.209.924v6.014l1.2.88h1.065a1.633,1.633,0,0,0,1.631-1.631V97.841a1.631,1.631,0,0,0-1.631-1.631Z" transform="translate(-212.828 -96.21)" fill="#8479c2"/>
          <path id="Trazado_104432" data-name="Trazado 104432" d="M218.257,102.4V97.841a1.63,1.63,0,0,1,1.631-1.631h-3.609a1.631,1.631,0,0,0-1.631,1.631V102.4a1.631,1.631,0,0,0,1.631,1.631h3.609A1.63,1.63,0,0,1,218.257,102.4Z" transform="translate(-214.648 -96.21)" fill="#6e60b8"/>
        </g>
        <path id="Trazado_104433" data-name="Trazado 104433" d="M204.061,106.032h13.127v18.321H204.061Z" transform="translate(-169.718 -17.859)" fill="#6e60b8"/>
        <path id="Trazado_104434" data-name="Trazado 104434" d="M204.061,106.032h6.562v18.321h-6.562Z" transform="translate(-169.718 -17.859)" fill="#6353b2"/>
        <path id="Trazado_104435" data-name="Trazado 104435" d="M226.314,103.029H209.253l-1,.6v6.014l1.114.763h16.944a1.555,1.555,0,0,0,1.554-1.554v-4.266A1.555,1.555,0,0,0,226.314,103.029Z" transform="translate(-164.641 -21.493)" fill="#ffe02f"/>
        <path id="Trazado_104436" data-name="Trazado 104436" d="M215.019,108.849v-4.266a1.555,1.555,0,0,1,1.554-1.554H204.425a1.555,1.555,0,0,0-1.554,1.554v4.266a1.555,1.555,0,0,0,1.554,1.554h12.148A1.555,1.555,0,0,1,215.019,108.849Z" transform="translate(-171.158 -21.493)" fill="#fbc700"/>
        <path id="Trazado_104437" data-name="Trazado 104437" d="M249.751,76.111H199.477a1.551,1.551,0,0,0-1.552,1.552v4.268a1.551,1.551,0,0,0,1.552,1.552h50.274a1.552,1.552,0,0,0,1.552-1.552V77.663A1.551,1.551,0,0,0,249.751,76.111Z" transform="translate(-177.144 -54.07)" fill="#ffaa5b"/>
        <path id="Trazado_104438" data-name="Trazado 104438" d="M206.1,81.931V77.663a1.551,1.551,0,0,1,1.552-1.552h-8.178a1.551,1.551,0,0,0-1.552,1.552v4.268a1.551,1.551,0,0,0,1.552,1.552h8.178A1.551,1.551,0,0,1,206.1,81.931Z" transform="translate(-177.144 -54.07)" fill="#ff9838"/>
        <path id="Trazado_104439" data-name="Trazado 104439" d="M196.7,88.135V83.869a1.554,1.554,0,0,1,1.554-1.554h-8.178a1.554,1.554,0,0,0-1.554,1.554v4.266a1.555,1.555,0,0,0,1.554,1.554h8.178A1.555,1.555,0,0,1,196.7,88.135Z" transform="translate(-188.523 -46.562)" fill="#ff9838"/>
        <g id="Grupo_57558" data-name="Grupo 57558" transform="translate(79.376 52.113)">
          <path id="Trazado_104440" data-name="Trazado 104440" d="M228.2,89.718h-1.052l-1.209.924v6.012l1.2.882H228.2a1.631,1.631,0,0,0,1.631-1.631V91.349a1.63,1.63,0,0,0-1.631-1.631Z" transform="translate(-222.616 -89.716)" fill="#8479c2"/>
          <path id="Trazado_104441" data-name="Trazado 104441" d="M228.043,95.906V91.35a1.633,1.633,0,0,1,1.631-1.633h-3.607a1.632,1.632,0,0,0-1.631,1.633v4.555a1.631,1.631,0,0,0,1.631,1.631h3.607A1.633,1.633,0,0,1,228.043,95.906Z" transform="translate(-224.436 -89.717)" fill="#6e60b8"/>
        </g>
        <g id="Grupo_57559" data-name="Grupo 57559" transform="translate(79.376 66.464)">
          <path id="Trazado_104442" data-name="Trazado 104442" d="M228.2,96.21h-1.052l-1.209.924v6.014l1.2.88H228.2a1.631,1.631,0,0,0,1.631-1.631V97.841A1.63,1.63,0,0,0,228.2,96.21Z" transform="translate(-222.616 -96.21)" fill="#8479c2"/>
          <path id="Trazado_104443" data-name="Trazado 104443" d="M228.043,102.4V97.841a1.631,1.631,0,0,1,1.631-1.631h-3.607a1.63,1.63,0,0,0-1.631,1.631V102.4a1.63,1.63,0,0,0,1.631,1.631h3.607A1.631,1.631,0,0,1,228.043,102.4Z" transform="translate(-224.436 -96.21)" fill="#6e60b8"/>
        </g>
        <g id="Grupo_57560" data-name="Grupo 57560" transform="translate(79.376 80.813)">
          <path id="Trazado_104444" data-name="Trazado 104444" d="M228.2,102.7h-1.052l-1.209.924v6.014l1.2.88H228.2a1.63,1.63,0,0,0,1.631-1.631v-4.555A1.631,1.631,0,0,0,228.2,102.7Z" transform="translate(-222.616 -102.702)" fill="#8479c2"/>
          <path id="Trazado_104445" data-name="Trazado 104445" d="M228.043,108.888v-4.555a1.633,1.633,0,0,1,1.631-1.631h-3.607a1.631,1.631,0,0,0-1.631,1.631v4.555a1.63,1.63,0,0,0,1.631,1.631h3.607A1.631,1.631,0,0,1,228.043,108.888Z" transform="translate(-224.436 -102.702)" fill="#6e60b8"/>
        </g>
        <g id="Grupo_57561" data-name="Grupo 57561" transform="translate(8.346 52.113)">
          <path id="Trazado_104446" data-name="Trazado 104446" d="M196.064,89.718h-1.052l-1.209.924v6.012l1.2.882h1.063A1.631,1.631,0,0,0,197.7,95.9V91.349a1.63,1.63,0,0,0-1.631-1.631Z" transform="translate(-190.479 -89.716)" fill="#8479c2"/>
          <path id="Trazado_104447" data-name="Trazado 104447" d="M195.906,95.906V91.35a1.634,1.634,0,0,1,1.633-1.633H193.93A1.632,1.632,0,0,0,192.3,91.35v4.555a1.631,1.631,0,0,0,1.631,1.631h3.609A1.633,1.633,0,0,1,195.906,95.906Z" transform="translate(-192.299 -89.717)" fill="#6e60b8"/>
        </g>
        <g id="Grupo_57562" data-name="Grupo 57562" transform="translate(8.346 66.464)">
          <path id="Trazado_104448" data-name="Trazado 104448" d="M196.064,96.21h-1.052l-1.209.924v6.014l1.2.88h1.063A1.631,1.631,0,0,0,197.7,102.4V97.841a1.63,1.63,0,0,0-1.631-1.631Z" transform="translate(-190.479 -96.21)" fill="#8479c2"/>
          <path id="Trazado_104449" data-name="Trazado 104449" d="M195.906,102.4V97.841a1.632,1.632,0,0,1,1.633-1.631H193.93a1.63,1.63,0,0,0-1.631,1.631V102.4a1.63,1.63,0,0,0,1.631,1.631h3.609A1.632,1.632,0,0,1,195.906,102.4Z" transform="translate(-192.299 -96.21)" fill="#6e60b8"/>
        </g>
        <g id="Grupo_57563" data-name="Grupo 57563" transform="translate(8.346 80.813)">
          <path id="Trazado_104450" data-name="Trazado 104450" d="M196.064,102.7h-1.052l-1.209.924v6.014l1.2.88h1.063a1.63,1.63,0,0,0,1.631-1.631v-4.555a1.631,1.631,0,0,0-1.631-1.631Z" transform="translate(-190.479 -102.702)" fill="#8479c2"/>
          <path id="Trazado_104451" data-name="Trazado 104451" d="M195.906,108.888v-4.555a1.633,1.633,0,0,1,1.633-1.631H193.93a1.631,1.631,0,0,0-1.631,1.631v4.555a1.63,1.63,0,0,0,1.631,1.631h3.609A1.632,1.632,0,0,1,195.906,108.888Z" transform="translate(-192.299 -102.702)" fill="#6e60b8"/>
        </g>
      </g>
      <g id="Grupo_57565" data-name="Grupo 57565" transform="translate(0)">
        <path id="Trazado_104452" data-name="Trazado 104452" d="M188.725,175.12h97.936a1.607,1.607,0,0,0,0-3.214H285.2V141.142a1.607,1.607,0,1,0-3.214,0v30.764H264.426V111.752h17.565v21.89a1.607,1.607,0,1,0,3.214,0V111.314a3.158,3.158,0,0,0,1.565-2.723v-4.266a3.164,3.164,0,0,0-3.161-3.161H264.426V97.6a3.157,3.157,0,0,0,1.563-2.721V90.611a3.162,3.162,0,0,0-3.158-3.158h-9.648V82.121a3.8,3.8,0,0,0,3.609-3.784V69.2A3.8,3.8,0,0,0,253,65.412H241.444a1.607,1.607,0,1,0,0,3.214H253a.58.58,0,0,1,.579.579v9.133a.58.58,0,0,1-.579.579H222.387a.58.58,0,0,1-.579-.579V69.2a.58.58,0,0,1,.579-.579h11.555a1.607,1.607,0,1,0,0-3.214H222.387a3.8,3.8,0,0,0-3.793,3.793v9.133a3.8,3.8,0,0,0,3.609,3.784v5.331h-9.648a3.162,3.162,0,0,0-3.158,3.158v4.268A3.157,3.157,0,0,0,210.96,97.6v3.565H191.777a3.166,3.166,0,0,0-3.161,3.161v4.266a3.158,3.158,0,0,0,1.565,2.723v60.592h-1.457a1.607,1.607,0,1,0,0,3.214Zm34.818-20.8v-4.16h28.3v4.16Zm2.63,3.214h9.913v14.371h-9.913ZM239.3,171.906V157.535h9.913v14.371Zm13.127,0v-14.42a3.165,3.165,0,0,0,2.63-3.112v-4.266a3.166,3.166,0,0,0-3.161-3.161H223.49a3.166,3.166,0,0,0-3.161,3.161v4.266a3.165,3.165,0,0,0,2.63,3.112v14.42h-8.786V98.037h47.038v73.869Zm12-67.527h19.13v4.16h-19.13ZM225.417,82.13h24.551v5.322H225.417Zm-12.806,8.536h50.164v4.157H212.611ZM191.83,104.379h19.13v4.16H191.83Zm1.565,7.373H210.96v60.154H193.4Z" transform="translate(-187.118 -65.412)"/>
        <path id="Trazado_104453" data-name="Trazado 104453" d="M208.553,82.5H204.6a3.241,3.241,0,0,0-3.238,3.238v4.555a3.243,3.243,0,0,0,3.238,3.24h3.956a3.243,3.243,0,0,0,3.238-3.24V85.736A3.241,3.241,0,0,0,208.553,82.5Zm.024,7.793a.025.025,0,0,1-.024.024H204.6a.025.025,0,0,1-.024-.024V85.736a.025.025,0,0,1,.024-.024h3.956a.025.025,0,0,1,.024.024Z" transform="translate(-169.883 -44.734)"/>
        <path id="Trazado_104454" data-name="Trazado 104454" d="M214.834,82.5h-3.956a3.243,3.243,0,0,0-3.238,3.238v4.555a3.244,3.244,0,0,0,3.238,3.24h3.956a3.243,3.243,0,0,0,3.238-3.24V85.736A3.241,3.241,0,0,0,214.834,82.5Zm.024,7.793a.025.025,0,0,1-.024.024h-3.956a.025.025,0,0,1-.024-.024V85.736a.025.025,0,0,1,.024-.024h3.956a.025.025,0,0,1,.024.024Z" transform="translate(-162.281 -44.734)"/>
        <path id="Trazado_104455" data-name="Trazado 104455" d="M221.115,82.5h-3.956a3.241,3.241,0,0,0-3.238,3.238v4.555a3.243,3.243,0,0,0,3.238,3.24h3.956a3.244,3.244,0,0,0,3.238-3.24V85.736A3.243,3.243,0,0,0,221.115,82.5Zm.024,7.793a.025.025,0,0,1-.024.024h-3.956a.025.025,0,0,1-.024-.024V85.736a.025.025,0,0,1,.024-.024h3.956a.024.024,0,0,1,.024.024Z" transform="translate(-154.68 -44.734)"/>
        <path id="Trazado_104456" data-name="Trazado 104456" d="M208.553,88.99H204.6a3.243,3.243,0,0,0-3.238,3.24v4.555a3.241,3.241,0,0,0,3.238,3.238h3.956a3.241,3.241,0,0,0,3.238-3.238V92.23a3.243,3.243,0,0,0-3.238-3.24Zm.024,7.8a.025.025,0,0,1-.024.024H204.6a.025.025,0,0,1-.024-.024V92.23a.025.025,0,0,1,.024-.024h3.956a.025.025,0,0,1,.024.024Z" transform="translate(-169.883 -36.877)"/>
        <path id="Trazado_104457" data-name="Trazado 104457" d="M214.834,88.99h-3.956a3.244,3.244,0,0,0-3.238,3.24v4.555a3.243,3.243,0,0,0,3.238,3.238h3.956a3.241,3.241,0,0,0,3.238-3.238V92.23a3.243,3.243,0,0,0-3.238-3.24Zm.024,7.8a.025.025,0,0,1-.024.024h-3.956a.025.025,0,0,1-.024-.024V92.23a.025.025,0,0,1,.024-.024h3.956a.025.025,0,0,1,.024.024Z" transform="translate(-162.281 -36.877)"/>
        <path id="Trazado_104458" data-name="Trazado 104458" d="M221.115,88.99h-3.956a3.243,3.243,0,0,0-3.238,3.24v4.555a3.241,3.241,0,0,0,3.238,3.238h3.956a3.243,3.243,0,0,0,3.238-3.238V92.23a3.244,3.244,0,0,0-3.238-3.24Zm.024,7.8a.025.025,0,0,1-.024.024h-3.956a.025.025,0,0,1-.024-.024V92.23a.025.025,0,0,1,.024-.024h3.956a.024.024,0,0,1,.024.024Z" transform="translate(-154.68 -36.877)"/>
        <path id="Trazado_104459" data-name="Trazado 104459" d="M208.553,95.483H204.6a3.241,3.241,0,0,0-3.238,3.238v4.555a3.241,3.241,0,0,0,3.238,3.238h3.956a3.241,3.241,0,0,0,3.238-3.238V98.721A3.241,3.241,0,0,0,208.553,95.483Zm.024,7.793a.025.025,0,0,1-.024.024H204.6a.025.025,0,0,1-.024-.024V98.721a.025.025,0,0,1,.024-.024h3.956a.025.025,0,0,1,.024.024Z" transform="translate(-169.883 -29.019)"/>
        <path id="Trazado_104460" data-name="Trazado 104460" d="M214.834,95.483h-3.956a3.243,3.243,0,0,0-3.238,3.238v4.555a3.243,3.243,0,0,0,3.238,3.238h3.956a3.241,3.241,0,0,0,3.238-3.238V98.721A3.241,3.241,0,0,0,214.834,95.483Zm.024,7.793a.025.025,0,0,1-.024.024h-3.956a.025.025,0,0,1-.024-.024V98.721a.025.025,0,0,1,.024-.024h3.956a.025.025,0,0,1,.024.024Z" transform="translate(-162.281 -29.019)"/>
        <path id="Trazado_104461" data-name="Trazado 104461" d="M221.115,95.483h-3.956a3.241,3.241,0,0,0-3.238,3.238v4.555a3.241,3.241,0,0,0,3.238,3.238h3.956a3.243,3.243,0,0,0,3.238-3.238V98.721A3.243,3.243,0,0,0,221.115,95.483Zm.024,7.793a.024.024,0,0,1-.024.024h-3.956a.025.025,0,0,1-.024-.024V98.721a.025.025,0,0,1,.024-.024h3.956a.024.024,0,0,1,.024.024Z" transform="translate(-154.68 -29.019)"/>
        <path id="Trazado_104462" data-name="Trazado 104462" d="M234.139,92.23a3.243,3.243,0,0,0-3.238-3.24h-3.954a3.243,3.243,0,0,0-3.238,3.24v4.555a3.241,3.241,0,0,0,3.238,3.238H230.9a3.241,3.241,0,0,0,3.238-3.238Zm-3.214,4.555a.025.025,0,0,1-.024.024h-3.954a.025.025,0,0,1-.024-.024V92.23a.025.025,0,0,1,.024-.024H230.9a.025.025,0,0,1,.024.024Z" transform="translate(-142.834 -36.877)"/>
        <path id="Trazado_104463" data-name="Trazado 104463" d="M234.139,98.721a3.241,3.241,0,0,0-3.238-3.238h-3.954a3.241,3.241,0,0,0-3.238,3.238v4.555a3.241,3.241,0,0,0,3.238,3.238H230.9a3.241,3.241,0,0,0,3.238-3.238Zm-3.214,4.555a.025.025,0,0,1-.024.024h-3.954a.025.025,0,0,1-.024-.024V98.721a.025.025,0,0,1,.024-.024H230.9a.025.025,0,0,1,.024.024Z" transform="translate(-142.834 -29.019)"/>
        <path id="Trazado_104464" data-name="Trazado 104464" d="M230.9,101.975h-3.954a3.241,3.241,0,0,0-3.238,3.238v4.555a3.241,3.241,0,0,0,3.238,3.238H230.9a3.241,3.241,0,0,0,3.238-3.238v-4.555A3.241,3.241,0,0,0,230.9,101.975Zm.024,7.793a.025.025,0,0,1-.024.024h-3.954a.025.025,0,0,1-.024-.024v-4.555a.025.025,0,0,1,.024-.024H230.9a.025.025,0,0,1,.024.024Z" transform="translate(-142.834 -21.162)"/>
        <path id="Trazado_104465" data-name="Trazado 104465" d="M198.764,88.99H194.81a3.243,3.243,0,0,0-3.238,3.24v4.555a3.241,3.241,0,0,0,3.238,3.238h3.954A3.241,3.241,0,0,0,202,96.786V92.23a3.243,3.243,0,0,0-3.238-3.24Zm.024,7.8a.025.025,0,0,1-.024.024H194.81a.025.025,0,0,1-.024-.024V92.23a.025.025,0,0,1,.024-.024h3.954a.025.025,0,0,1,.024.024v4.555Z" transform="translate(-181.728 -36.877)"/>
        <path id="Trazado_104466" data-name="Trazado 104466" d="M198.764,95.483H194.81a3.241,3.241,0,0,0-3.238,3.238v4.555a3.241,3.241,0,0,0,3.238,3.238h3.954A3.241,3.241,0,0,0,202,103.276V98.721A3.241,3.241,0,0,0,198.764,95.483Zm.024,7.793a.025.025,0,0,1-.024.024H194.81a.025.025,0,0,1-.024-.024V98.721a.025.025,0,0,1,.024-.024h3.954a.025.025,0,0,1,.024.024v4.555Z" transform="translate(-181.728 -29.019)"/>
        <path id="Trazado_104467" data-name="Trazado 104467" d="M198.764,101.975H194.81a3.241,3.241,0,0,0-3.238,3.238v4.555a3.241,3.241,0,0,0,3.238,3.238h3.954A3.241,3.241,0,0,0,202,109.768v-4.555A3.241,3.241,0,0,0,198.764,101.975Zm.024,7.793a.025.025,0,0,1-.024.024H194.81a.025.025,0,0,1-.024-.024v-4.555a.025.025,0,0,1,.024-.024h3.954a.025.025,0,0,1,.024.024v4.555Z" transform="translate(-181.728 -21.162)"/>
      </g>
    </g>
    <g id="Grupo_57584" data-name="Grupo 57584" transform="translate(283.766 536.736)">
      <g id="Grupo_57582" data-name="Grupo 57582" transform="translate(1.846 1.846)">
        <path id="Trazado_104468" data-name="Trazado 104468" d="M197.957,306.76v-8.308H184.574l3.872,8.638a2.459,2.459,0,0,0,2.246,1.454h6.03A9.472,9.472,0,0,1,197.957,306.76Z" transform="translate(-179.625 -238.172)" fill="#8d9ca8"/>
        <path id="Trazado_104469" data-name="Trazado 104469" d="M190.629,298.452v8.308a9.415,9.415,0,0,1,16.493,6.211c0,.175-.007.351-.015.524h6.914c-.009-.172-.016-.349-.016-.524a9.417,9.417,0,1,1,18.833,0c0,.175-.007.351-.015.524h30.554c-.009-.172-.015-.349-.015-.524a9.417,9.417,0,1,1,18.833,0c0,.175-.007.351-.015.524h9.951a2.459,2.459,0,0,0,2.46-2.46V298.452Z" transform="translate(-172.297 -238.172)" fill="#9facba"/>
        <g id="Grupo_57567" data-name="Grupo 57567" transform="translate(87.488 22.237)">
          <path id="Trazado_104470" data-name="Trazado 104470" d="M221.918,281.24v38.043h34.8V299.912a6.13,6.13,0,0,0-.7-2.845l-6.536-12.523a6.15,6.15,0,0,0-5.453-3.3Z" transform="translate(-221.918 -281.24)" fill="#faea5e"/>
        </g>
        <g id="Grupo_57568" data-name="Grupo 57568" transform="translate(99.532 28.388)">
          <path id="Trazado_104471" data-name="Trazado 104471" d="M243.6,295.826l-5.815-11.142a1.233,1.233,0,0,0-1.09-.661H227.86a.493.493,0,0,0-.493.493v9.568a2.462,2.462,0,0,0,2.46,2.462h13.337a.493.493,0,0,0,.438-.721Z" transform="translate(-227.367 -284.023)" fill="#fff"/>
        </g>
        <g id="Grupo_57569" data-name="Grupo 57569" transform="translate(99.532 28.388)">
          <path id="Trazado_104472" data-name="Trazado 104472" d="M232.535,294.084v-9.568a.493.493,0,0,1,.493-.493H227.86a.493.493,0,0,0-.493.493v9.568a2.462,2.462,0,0,0,2.46,2.462h5.168A2.461,2.461,0,0,1,232.535,294.084Z" transform="translate(-227.367 -284.023)" fill="#f2fbff"/>
        </g>
        <g id="Grupo_57570" data-name="Grupo 57570" transform="translate(91.064 65.382)">
          <circle id="Elipse_4143" data-name="Elipse 4143" cx="9.416" cy="9.416" r="9.416" fill="#596c76"/>
        </g>
        <g id="Grupo_57571" data-name="Grupo 57571" transform="translate(91.064 65.381)">
          <path id="Trazado_104473" data-name="Trazado 104473" d="M228.673,310.178a9.421,9.421,0,0,1,6.847-9.06,9.417,9.417,0,1,0,0,18.117A9.42,9.42,0,0,1,228.673,310.178Z" transform="translate(-223.536 -300.76)" fill="#465a61"/>
        </g>
        <path id="Trazado_104474" data-name="Trazado 104474" d="M229.584,310.074a3.266,3.266,0,1,1,3.264-3.264A3.269,3.269,0,0,1,229.584,310.074Z" transform="translate(-129.104 -232.011)" fill="#fff"/>
        <g id="Grupo_57572" data-name="Grupo 57572" transform="translate(41.707 65.382)">
          <circle id="Elipse_4144" data-name="Elipse 4144" cx="9.416" cy="9.416" r="9.416" fill="#596c76"/>
        </g>
        <g id="Grupo_57573" data-name="Grupo 57573" transform="translate(41.707 65.381)">
          <path id="Trazado_104475" data-name="Trazado 104475" d="M206.373,310.178a9.418,9.418,0,0,1,6.832-9.055,9.417,9.417,0,1,0,0,18.108A9.417,9.417,0,0,1,206.373,310.178Z" transform="translate(-201.205 -300.76)" fill="#465a61"/>
        </g>
        <circle id="Elipse_4145" data-name="Elipse 4145" cx="3.265" cy="3.265" r="3.265" transform="translate(47.859 71.533)" fill="#fff"/>
        <g id="Grupo_57574" data-name="Grupo 57574" transform="translate(15.991 65.382)">
          <circle id="Elipse_4146" data-name="Elipse 4146" cx="9.416" cy="9.416" r="9.416" fill="#596c76"/>
        </g>
        <g id="Grupo_57575" data-name="Grupo 57575" transform="translate(15.991 65.381)">
          <path id="Trazado_104476" data-name="Trazado 104476" d="M194.731,310.178a9.417,9.417,0,0,1,6.836-9.055,9.416,9.416,0,1,0,0,18.111A9.421,9.421,0,0,1,194.731,310.178Z" transform="translate(-189.57 -300.76)" fill="#465a61"/>
        </g>
        <circle id="Elipse_4147" data-name="Elipse 4147" cx="3.265" cy="3.265" r="3.265" transform="translate(22.143 71.533)" fill="#fff"/>
        <g id="Grupo_57576" data-name="Grupo 57576">
          <path id="Trazado_104477" data-name="Trazado 104477" d="M269.823,331.459H183.566a1.23,1.23,0,0,1-1.231-1.229V272.408a1.23,1.23,0,0,1,1.231-1.229h85.026a1.23,1.23,0,0,1,1.231,1.229Z" transform="translate(-182.335 -271.179)" fill="#01c0fa"/>
        </g>
        <g id="Grupo_57577" data-name="Grupo 57577">
          <path id="Trazado_104478" data-name="Trazado 104478" d="M192.657,330.23V272.408a1.229,1.229,0,0,1,1.229-1.229h-10.32a1.23,1.23,0,0,0-1.231,1.229V330.23a1.23,1.23,0,0,0,1.231,1.229h10.32A1.229,1.229,0,0,1,192.657,330.23Z" transform="translate(-182.335 -271.179)" fill="#08a9f1"/>
        </g>
        <g id="Grupo_57578" data-name="Grupo 57578" transform="translate(0 9.595)">
          <path id="Trazado_104479" data-name="Trazado 104479" d="M182.335,275.52h87.488v41.091H182.335Z" transform="translate(-182.335 -275.52)" fill="#08a9f1"/>
        </g>
        <g id="Grupo_57579" data-name="Grupo 57579" transform="translate(0 9.595)">
          <path id="Trazado_104480" data-name="Trazado 104480" d="M182.335,275.52h10.322v41.091H182.335Z" transform="translate(-182.335 -275.52)" fill="#0290cf"/>
        </g>
        <g id="Grupo_57580" data-name="Grupo 57580" transform="translate(29.213 26.941)">
          <path id="Trazado_104481" data-name="Trazado 104481" d="M223.876,289.767H196.29a.738.738,0,0,1-.738-.738v-4.922a.738.738,0,0,1,.738-.738h27.586a.738.738,0,0,1,.738.738v4.922a.738.738,0,0,1-.738.738Z" transform="translate(-195.552 -283.368)" fill="#fff"/>
        </g>
        <g id="Grupo_57581" data-name="Grupo 57581" transform="translate(29.213 26.941)">
          <path id="Trazado_104482" data-name="Trazado 104482" d="M203.343,289.028v-4.922a.74.74,0,0,1,.738-.738H196.29a.738.738,0,0,0-.738.738v4.922a.738.738,0,0,0,.738.738h7.791A.74.74,0,0,1,203.343,289.028Z" transform="translate(-195.552 -283.368)" fill="#f2fbff"/>
        </g>
      </g>
      <g id="Grupo_57583" data-name="Grupo 57583">
        <path id="Trazado_104483" data-name="Trazado 104483" d="M230.594,302.708a5.111,5.111,0,1,0,5.11,5.112A5.117,5.117,0,0,0,230.594,302.708Zm0,6.531a1.42,1.42,0,1,1,1.421-1.419A1.421,1.421,0,0,1,230.594,309.239Z" transform="translate(-128.269 -231.176)"/>
        <path id="Trazado_104484" data-name="Trazado 104484" d="M208.263,312.93a5.111,5.111,0,1,0-5.11-5.11A5.117,5.117,0,0,0,208.263,312.93Zm0-6.531a1.42,1.42,0,1,1-1.419,1.421A1.422,1.422,0,0,1,208.263,306.4Z" transform="translate(-155.295 -231.176)"/>
        <path id="Trazado_104485" data-name="Trazado 104485" d="M196.628,312.93a5.111,5.111,0,1,0-5.11-5.11A5.117,5.117,0,0,0,196.628,312.93Zm0-6.531a1.42,1.42,0,1,1-1.419,1.421A1.422,1.422,0,0,1,196.628,306.4Z" transform="translate(-169.376 -231.176)"/>
        <path id="Trazado_104486" data-name="Trazado 104486" d="M197.3,292.623h27.586a2.587,2.587,0,0,0,2.584-2.584v-4.922a2.587,2.587,0,0,0-2.584-2.584H197.3a2.587,2.587,0,0,0-2.584,2.584v4.922A2.587,2.587,0,0,0,197.3,292.623Zm1.107-6.4h25.371v2.708H198.408Z" transform="translate(-165.504 -255.592)"/>
        <path id="Trazado_104487" data-name="Trazado 104487" d="M240.432,284.841a3.068,3.068,0,0,0-2.727-1.653H228.87a2.342,2.342,0,0,0-2.338,2.338v9.568a4.313,4.313,0,0,0,4.306,4.308h13.337a2.339,2.339,0,0,0,2.073-3.421Zm-9.595,10.87a.616.616,0,0,1-.614-.617v-8.216h7.11l4.608,8.832Z" transform="translate(-127 -254.8)"/>
        <path id="Trazado_104488" data-name="Trazado 104488" d="M306.575,309.4l-6.536-12.521a7.973,7.973,0,0,0-7.088-4.3H272.679V273.418a3.078,3.078,0,0,0-3.077-3.074H184.577a3.078,3.078,0,0,0-3.077,3.074v57.822a3.078,3.078,0,0,0,3.077,3.074H187.1l3.382,7.548a4.315,4.315,0,0,0,3.93,2.544h3.382a11.26,11.26,0,1,0,21.968,4.951h3.7a11.26,11.26,0,0,0,22.016,0h4.675a1.846,1.846,0,0,0,0-3.691h-4.5a11.259,11.259,0,0,0-22.363,0h-3.353a11.251,11.251,0,0,0-16.411-8.649v-2.7h100.27v10.737a.616.616,0,0,1-.614.614h-8.171a11.259,11.259,0,0,0-22.363,0h-13.88a1.846,1.846,0,1,0,0,3.691h14.055a11.26,11.26,0,0,0,22.016,0h8.344a4.311,4.311,0,0,0,4.306-4.306V313.1a8.027,8.027,0,0,0-.908-3.7Zm-72.107,30.017a7.571,7.571,0,1,1-7.57,7.572A7.581,7.581,0,0,1,234.468,339.416Zm-25.716,0a7.571,7.571,0,1,1-7.57,7.572A7.581,7.581,0,0,1,208.752,339.416Zm-8.921.709c-.148.192-.292.389-.429.59h-4.991a.617.617,0,0,1-.561-.362l-2.705-6.038h8.686Zm69.156-9.5h-83.8v-5.9h83.8Zm0-50.685H208.074a1.846,1.846,0,1,0,0,3.691h60.914v37.4h-83.8v-37.4h14.272a1.846,1.846,0,0,0,0-3.691H185.191v-5.9h83.8Zm14.837,74.62a7.571,7.571,0,1,1,7.572-7.57A7.58,7.58,0,0,1,283.825,354.559Zm-11.146-58.286h2.94v8.52h-2.94Zm31.114,34.352H279.31v-4.518a1.846,1.846,0,0,0-3.691,0v4.518h-2.94V308.482h2.94V317.5a1.846,1.846,0,0,0,3.691,0V296.272h13.642a4.292,4.292,0,0,1,3.817,2.314l6.536,12.521a4.315,4.315,0,0,1,.488,1.994Z" transform="translate(-181.5 -270.344)"/>
        <path id="Trazado_104489" data-name="Trazado 104489" d="M228.378,291.385a1.845,1.845,0,0,0-1.846,1.846v5.658a1.846,1.846,0,0,0,3.691,0V293.23A1.845,1.845,0,0,0,228.378,291.385Z" transform="translate(-127 -244.879)"/>
      </g>
    </g>
    <g id="Filled_outline" data-name="Filled outline" transform="translate(774.451 232.926)">
      <path id="Trazado_104490" data-name="Trazado 104490" d="M451.021,159.786v46.671a7.469,7.469,0,0,1-7.468,7.468H411.816a7.462,7.462,0,0,1-7.466-7.457V159.786a7.467,7.467,0,0,1,7.466-7.468h31.737a7.435,7.435,0,0,1,3.76,1.012,7.522,7.522,0,0,1,2.425,2.265A7.434,7.434,0,0,1,451.021,159.786Z" transform="translate(-402.482 -109.374)" fill="#d6d6d4"/>
      <path id="Trazado_104491" data-name="Trazado 104491" d="M450.741,159.232V205.9a7.469,7.469,0,0,1-7.468,7.468H411.535a7.486,7.486,0,0,1-6.953-4.743c14.548-11.984,30.448-29.827,42.45-55.853a7.522,7.522,0,0,1,2.425,2.265A7.434,7.434,0,0,1,450.741,159.232Z" transform="translate(-402.201 -108.82)" fill="#c7c7c5"/>
      <circle id="Elipse_4148" data-name="Elipse 4148" cx="7.468" cy="7.468" r="7.468" transform="translate(7.467 95.217)" fill="#44546c"/>
      <path id="Trazado_104492" data-name="Trazado 104492" d="M422.442,186.637a3.733,3.733,0,0,1-3.733-3.733v-1.868h7.466V182.9A3.733,3.733,0,0,1,422.442,186.637Z" transform="translate(-385.104 -74.618)" fill="#44546c"/>
      <path id="Trazado_104493" data-name="Trazado 104493" d="M413.151,133.735h14.935a3.734,3.734,0,0,1,3.733,3.735h0a3.733,3.733,0,0,1-3.733,3.733H413.151a3.733,3.733,0,0,1-3.733-3.733h0A3.734,3.734,0,0,1,413.151,133.735Z" transform="translate(-396.349 -131.864)" fill="#e0e0de"/>
      <path id="Trazado_104494" data-name="Trazado 104494" d="M450.36,153.561v-9.69H437.291v46.674H450.36l1.923-4.489a16.147,16.147,0,0,0,.913-9.9,102.975,102.975,0,0,1-2.836-22.591Z" transform="translate(-362.616 -119.597)" fill="#8f4d2e"/>
      <path id="Trazado_104495" data-name="Trazado 104495" d="M426.388,161.831a16.148,16.148,0,0,0-1.923,16.046l1.923,4.489h13.069V158.1l-3.733-7.466Z" transform="translate(-379.717 -111.418)" fill="#8f4d2e"/>
      <path id="Trazado_104496" data-name="Trazado 104496" d="M467.914,171.478h-11.2V156.541H441.778v14.937h-11.2a9.333,9.333,0,0,0-9.334,9.334v35.47h56.008v-35.47A9.334,9.334,0,0,0,467.914,171.478Z" transform="translate(-382.038 -104.263)" fill="#fec9a3"/>
      <path id="Trazado_104497" data-name="Trazado 104497" d="M445.469,164.109v-7.568H430.534v7.568A16.661,16.661,0,0,0,445.469,164.109Z" transform="translate(-370.793 -104.263)" fill="#feb784"/>
      <path id="Trazado_104498" data-name="Trazado 104498" d="M459.916,153.74v13.067a16.8,16.8,0,0,1-33.6,0h0V153.74A14.936,14.936,0,0,1,441.246,138.8h3.733a14.927,14.927,0,0,1,14.937,14.915Z" transform="translate(-375.904 -125.73)" fill="#fec9a3"/>
      <path id="Trazado_104499" data-name="Trazado 104499" d="M426.311,148.095H456.18v5.6H426.311Z" transform="translate(-375.904 -114.485)" fill="#fec093"/>
      <path id="Trazado_104500" data-name="Trazado 104500" d="M452.67,153.4v13.067A16.816,16.816,0,0,1,432.3,182.891a16.809,16.809,0,0,0,12.273-16.183v-18.67a16.727,16.727,0,0,0-2.584-8.956A14.939,14.939,0,0,1,452.67,153.4Z" transform="translate(-368.658 -125.393)" fill="#fec093"/>
      <path id="Trazado_104501" data-name="Trazado 104501" d="M443.291,136.269a18.67,18.67,0,0,0-18.67,18.67V179.21l5.915-7.1a14.761,14.761,0,0,0,3.421-9.449,14.757,14.757,0,0,1,8.764-13.487l8.039-3.572.632,1.583a21.957,21.957,0,0,0,10.569,11.484h3.733v-3.733a18.67,18.67,0,0,0-18.67-18.67Z" transform="translate(-377.949 -128.797)" fill="#95573a"/>
      <path id="Trazado_104502" data-name="Trazado 104502" d="M441.515,146.4h1.865a5.6,5.6,0,0,1,0,11.2h-1.865V146.4Z" transform="translate(-357.504 -116.53)" fill="#feb784"/>
      <path id="Trazado_104503" data-name="Trazado 104503" d="M477.251,208.1v-35.47a9.334,9.334,0,0,0-9.336-9.334l-1.253,1.881a20.931,20.931,0,0,1-34.831,0l-1.253-1.881a9.333,9.333,0,0,0-9.334,9.334V208.1" transform="translate(-382.038 -96.084)" fill="#e0e0de"/>
      <path id="Trazado_104504" data-name="Trazado 104504" d="M477.251,172.633V208.1H421.243v-35.47a9.333,9.333,0,0,1,9.334-9.334h7.468l11.2,29.869,11.2-29.869h7.466a9.33,9.33,0,0,1,9.336,9.323Z" transform="translate(-382.038 -96.084)" fill="#348fd9"/>
      <path id="Trazado_104505" data-name="Trazado 104505" d="M469.1,170.036v35.47H427.979c15.045-8.823,30.636-21.727,39.913-40.061a9.3,9.3,0,0,1,1.207,4.591Z" transform="translate(-373.885 -93.487)" fill="#3086cd"/>
      <path id="Trazado_104506" data-name="Trazado 104506" d="M439.335,137.075a18.716,18.716,0,0,0-3.733-.763v10.07l1.868-.829.632,1.583a21.651,21.651,0,0,0,1.014,2.151h.219Z" transform="translate(-364.66 -128.745)" fill="#82462a"/>
      <path id="Trazado_104507" data-name="Trazado 104507" d="M425.509,140.493h59.741a9.333,9.333,0,0,1,9.334,9.334h0a9.332,9.332,0,0,1-9.334,9.334H425.509a9.333,9.333,0,0,1-9.334-9.334h0A9.335,9.335,0,0,1,425.509,140.493Z" transform="translate(-388.171 -123.685)" fill="#ffa912"/>
      <path id="Trazado_104508" data-name="Trazado 104508" d="M465.694,154.273v3.733H424.621v-3.733a20.511,20.511,0,0,1,19.892-20.524c.214-.009.429-.013.645-.013a20.516,20.516,0,0,1,20.535,20.491Z" transform="translate(-377.949 -131.864)" fill="#ffb531"/>
      <path id="Trazado_104509" data-name="Trazado 104509" d="M454.8,154.273v3.733H445.03c-2.887-12.267-6.277-19.408-11.409-24.257.214-.009.429-.013.645-.013A20.537,20.537,0,0,1,454.8,154.273Z" transform="translate(-367.057 -131.864)" fill="#ffa912"/>
      <path id="Trazado_104510" data-name="Trazado 104510" d="M465.694,145.072v3.733H424.621v-3.733a20.969,20.969,0,0,1,.338-3.735h40.4A20.759,20.759,0,0,1,465.694,145.072Z" transform="translate(-377.949 -122.664)" fill="#f98500"/>
      <path id="Trazado_104511" data-name="Trazado 104511" d="M450.185,145.072v3.733h-11.2c-.5-2.8-1.008-5.274-1.547-7.468h12.41A20.759,20.759,0,0,1,450.185,145.072Z" transform="translate(-362.44 -122.664)" fill="#e67007"/>
      <path id="Trazado_104512" data-name="Trazado 104512" d="M416.175,155.7h3.733v46.671h-3.733Z" transform="translate(-388.171 -105.285)"/>
      <path id="Trazado_104513" data-name="Trazado 104513" d="M436.98,157.919a5.609,5.609,0,0,0,5.6-5.6h-3.735a1.867,1.867,0,1,1-3.733,0h-3.733A5.606,5.606,0,0,0,436.98,157.919Z" transform="translate(-369.771 -109.374)"/>
      <path id="Trazado_104514" data-name="Trazado 104514" d="M442.8,174.9c2.621,4.44,1.943,10.328-1.689,14.652a1.866,1.866,0,0,0-.438,1.2v5.6H444.4v-4.94a16.473,16.473,0,0,0,1.609-18.411Z" transform="translate(-358.526 -84.338)"/>
      <path id="Trazado_104515" data-name="Trazado 104515" d="M429.1,174.9l-3.214-1.9a16.472,16.472,0,0,0,1.607,18.411v4.94h3.733v-5.6a1.866,1.866,0,0,0-.438-1.2C427.161,185.232,426.482,179.344,429.1,174.9Z" transform="translate(-378.957 -84.338)"/>
      <path id="Trazado_104516" data-name="Trazado 104516" d="M500.583,147.829h-8.748a22.4,22.4,0,0,0-42.244,0h-8.748a11.172,11.172,0,0,0-5.6,1.5V144.1a5.6,5.6,0,0,0,0-11.2H420.307a5.6,5.6,0,1,0,0,11.2v29.869h-7.468a9.346,9.346,0,0,0-9.334,9.336v46.672a9.289,9.289,0,0,0,6.16,8.783,9.333,9.333,0,0,0,17.328.55h8.249a5.606,5.606,0,0,0,5.6,5.6h3.733v-35.47a7.477,7.477,0,0,1,7.468-7.468h6.173l10.629,28.342v14.6h3.733v-14.6l10.629-28.342h6.173a7.477,7.477,0,0,1,7.468,7.468v35.47h3.733v-35.47a11.207,11.207,0,0,0-5.563-9.674,18.01,18.01,0,0,0,.886-10.735,112.349,112.349,0,0,1-2.389-14.44,7.686,7.686,0,0,0,1.145-.946,7.435,7.435,0,0,0,1.952-3.41h3.97a11.2,11.2,0,1,0,0-22.4ZM452.044,155.3a17.6,17.6,0,0,1,.1-1.868h37.137a17.6,17.6,0,0,1,.1,1.868v1.865H452.044Zm18.67-18.67A18.7,18.7,0,0,1,488.522,149.7H452.9A18.7,18.7,0,0,1,470.714,136.627Zm14.935,37.338a14.944,14.944,0,0,1-29.14,4.653,23.033,23.033,0,0,0,2.948-4.1A16.517,16.517,0,0,0,461,170.232h24.644Zm-29.5-1.189a20.5,20.5,0,0,1-2.586,3.539c-.19.225-.933,1.116-1.523,1.828v-7.91h5.115a12.991,12.991,0,0,1-1.006,2.544Zm-7.842,1.976a9.328,9.328,0,0,0-3.735-.787h-9.334V168.72a11.225,11.225,0,0,0,5.6,1.512h7.468ZM418.44,138.495a1.872,1.872,0,0,1,1.868-1.868h14.935a1.867,1.867,0,1,1,0,3.733H420.307A1.869,1.869,0,0,1,418.44,138.495Zm5.6,5.6h7.468v8.742a11.207,11.207,0,0,0,0,12.386v8.742H424.04Zm-5.6,97.078a5.6,5.6,0,1,1,5.6-5.6A5.6,5.6,0,0,1,418.44,241.174Zm20.535-1.868h1.868v1.868A1.87,1.87,0,0,1,438.975,239.306Zm1.868-56.005v52.272H427.773a9.279,9.279,0,0,0-1.872-5.6h.007V183.3h-3.735V227.02a9.322,9.322,0,0,0-5.6-.592V183.3h-3.735v44.81a9.334,9.334,0,0,0-3.636,6.129,5.585,5.585,0,0,1-1.965-4.268V183.3a5.607,5.607,0,0,1,5.6-5.6h31.737a5.583,5.583,0,0,1,3.735,1.437V182.7a18.044,18.044,0,0,0-1.907,17.067,11.233,11.233,0,0,0-1.828,1.331V183.3Zm9.055,15.145a14.3,14.3,0,0,1,1.75-13.993l1.571-1.883.575-.692a18.6,18.6,0,0,0,7.583,8.251v8.107h-9.334a11.107,11.107,0,0,0-2.146.21Zm16.343,14.283a22.83,22.83,0,0,0,8.947,0l-4.474,11.929Zm10.554-4.286a19.084,19.084,0,0,1-12.161,0l-2.427-6.474h1.039a1.868,1.868,0,0,0,1.868-1.865v-8.333a18.592,18.592,0,0,0,11.2,0V200.1a1.866,1.866,0,0,0,1.865,1.865h1.041Zm12.587-10.207h-9.334v-8.107a18.532,18.532,0,0,0,9.241-14.3h.093c.17,0,.336-.007.5-.018a117.3,117.3,0,0,0,2.38,14.033,14.3,14.3,0,0,1-.736,8.6,11.282,11.282,0,0,0-2.146-.208ZM492.019,171a3.6,3.6,0,0,1-1.068.758c-.053.018-.106.038-.157.06a3.6,3.6,0,0,1-1.412.281v-1.868h3.229A3.775,3.775,0,0,1,492.019,171Zm13.86-6.69a7.5,7.5,0,0,1-5.3,2.188H440.843a7.468,7.468,0,0,1-5.981-11.94l.016-.022a6.879,6.879,0,0,1,.67-.787,7.493,7.493,0,0,1,5.3-2.188h7.78c-.2,1.213-.312,7.468-.312,7.468a1.866,1.866,0,0,0,1.865,1.868h41.073a1.868,1.868,0,0,0,1.868-1.868s-.108-6.253-.314-7.468h7.78a7.48,7.48,0,0,1,5.3,12.751Z" transform="translate(-403.505 -132.888)"/>
      <path id="Trazado_104517" data-name="Trazado 104517" d="M429.689,177.658h3.735v3.733h-3.735Z" transform="translate(-371.816 -78.706)"/>
    </g>
    <g id="filled_outline-2" data-name="filled outline" transform="translate(770.843 423.872)">
      <path id="Trazado_104518" data-name="Trazado 104518" d="M463.12,255.767a10.847,10.847,0,0,1-2.168-6.509V239.4a19.249,19.249,0,0,0-38.5,0v9.858a10.835,10.835,0,0,1-2.17,6.509,18.022,18.022,0,0,0,1.675,23.559l.5.5h38.5l.5-.5a18.028,18.028,0,0,0,1.673-23.561Z" transform="translate(-383.955 -218.226)" fill="#f3af3e"/>
      <path id="Trazado_104519" data-name="Trazado 104519" d="M474.334,247.024a4.234,4.234,0,0,1-3.4,4.151l-6.222,1.244-3.8,15.217a10.4,10.4,0,0,1-18.555,3.525l-3.2-4.474-3.318-4.646V248.569h.044a12.384,12.384,0,0,1,11.078,6.845l1.07,2.137,3.207,6.416,4.838-17.744a4.658,4.658,0,0,1,4.489-3.43h9.542a4.23,4.23,0,0,1,4.228,4.23Z" transform="translate(-360.767 -190.822)" fill="#fdc9a6"/>
      <path id="Trazado_104520" data-name="Trazado 104520" d="M472.255,252.252a12.384,12.384,0,0,0-11.078-6.845H425.042a10.105,10.105,0,0,0-10.105,10.105v24.542h46.2v-5.775l1.572-2.621a10.456,10.456,0,0,0,.427-9.977l1.32,1.846.533-.8,7.7-7.7.643-.641Z" transform="translate(-386.062 -187.66)" fill="#428dc5"/>
      <path id="Trazado_104521" data-name="Trazado 104521" d="M428.046,239.171H422.27a3.849,3.849,0,1,1,0-7.7h5.775Z" transform="translate(-381.847 -204.524)" fill="#f7c4a2"/>
      <path id="Trazado_104522" data-name="Trazado 104522" d="M423.918,272.632H402.744V263.97a2.888,2.888,0,0,1,2.889-2.887H511.5a2.887,2.887,0,0,1,2.887,2.887v8.662Z" transform="translate(-400.819 -168.688)" fill="#8f563b"/>
      <path id="Trazado_104523" data-name="Trazado 104523" d="M439.044,246.826v-5.773H427.5v5.773a3.85,3.85,0,0,1-3.85,3.85l9.626,19.249,9.623-19.249A3.85,3.85,0,0,1,439.044,246.826Z" transform="translate(-375.524 -192.929)" fill="#f7c4a2"/>
      <path id="Trazado_104524" data-name="Trazado 104524" d="M445.184,265.3H420.162v-7.7h21.654a3.369,3.369,0,0,1,3.368,3.368Z" transform="translate(-379.739 -172.905)" fill="#fdc9a6"/>
      <path id="Trazado_104525" data-name="Trazado 104525" d="M443.676,220.151h21.172v28.875H443.676Z" transform="translate(-351.281 -218.226)" fill="#fbb540"/>
      <path id="Trazado_104526" data-name="Trazado 104526" d="M452.934,232.887a1.909,1.909,0,0,1-1.362-.564l-3.85-3.85c-.751-.751-.751-.608,0-1.359s1.972-2.113,2.723-1.362l3.85,3.848a1.925,1.925,0,0,1-1.362,3.287Z" transform="translate(-347.066 -211.713)" fill="#f55648"/>
      <path id="Trazado_104527" data-name="Trazado 104527" d="M443.676,233.215h21.172v9.623h-5.773a5.445,5.445,0,0,0-7.7,0h-7.7Z" transform="translate(-351.281 -202.415)" fill="#da922a"/>
      <path id="Trazado_104528" data-name="Trazado 104528" d="M421.407,252.492l-7.112,5.928-7.115-5.928a12.332,12.332,0,0,1-4.436-9.471,11.55,11.55,0,0,1,23.1,0A12.325,12.325,0,0,1,421.407,252.492Z" transform="translate(-400.819 -204.524)" fill="#baf6e4"/>
      <circle id="Elipse_4149" data-name="Elipse 4149" cx="3.85" cy="3.85" r="3.85" transform="translate(9.625 34.649)" fill="#a1d6c6"/>
      <path id="Trazado_104529" data-name="Trazado 104529" d="M407.1,246.278h3.848v3.85H407.1Z" transform="translate(-395.548 -186.606)" fill="#c0f5f9"/>
      <path id="Trazado_104530" data-name="Trazado 104530" d="M407.1,249.761h3.848v7.7H407.1Z" transform="translate(-395.548 -182.391)" fill="#c0f5f9"/>
      <path id="Trazado_104531" data-name="Trazado 104531" d="M425.387,248.89h11.549l-5.773,11.551Z" transform="translate(-373.415 -183.445)" fill="#3775a4"/>
      <path id="Trazado_104532" data-name="Trazado 104532" d="M437.623,245.407l1.925,9.623L428,264.656Z" transform="translate(-370.253 -187.66)" fill="#ebebeb"/>
      <path id="Trazado_104533" data-name="Trazado 104533" d="M424.7,245.407l-1.923,9.623,11.548,9.626Z" transform="translate(-376.577 -187.66)" fill="#ebebeb"/>
      <path id="Trazado_104534" data-name="Trazado 104534" d="M435.378,259.841A13.473,13.473,0,0,1,421.9,246.367v-9.623l.709-.473a17.733,17.733,0,0,0,6.989-9.153l5.634,4.7a21.266,21.266,0,0,0,13.615,4.929v9.623A13.473,13.473,0,0,1,435.378,259.841Z" transform="translate(-377.631 -209.794)" fill="#fdc9a6"/>
      <g id="Grupo_57585" data-name="Grupo 57585" transform="translate(48.122 28.393)">
        <circle id="Elipse_4150" data-name="Elipse 4150" cx="2.406" cy="2.406" r="2.406" fill="#a45e14"/>
        <circle id="Elipse_4151" data-name="Elipse 4151" cx="2.406" cy="2.406" r="2.406" transform="translate(13.474)" fill="#a45e14"/>
        <path id="Trazado_104535" data-name="Trazado 104535" d="M432.033,241.968h-3.85a1.925,1.925,0,0,1-1.925-1.925,1.9,1.9,0,0,1,.1-.608l1.925-5.775a1.924,1.924,0,1,1,3.651,1.218l-1.081,3.24h1.18a1.925,1.925,0,0,1,0,3.85Z" transform="translate(-420.484 -231.863)" fill="#a45e14"/>
        <path id="Trazado_104536" data-name="Trazado 104536" d="M431.163,241.911a10.524,10.524,0,0,1-4.71-1.107,1.925,1.925,0,0,1,1.72-3.444,6.708,6.708,0,0,0,5.979,0,1.925,1.925,0,1,1,1.722,3.444h0A10.531,10.531,0,0,1,431.163,241.911Z" transform="translate(-421.538 -226.037)" fill="#a45e14"/>
      </g>
      <path id="Trazado_104537" data-name="Trazado 104537" d="M446.832,271.623H412.186l-7.7-19.249h36.573Z" transform="translate(-398.711 -179.228)" fill="#cbcbcb"/>
      <path id="Trazado_104538" data-name="Trazado 104538" d="M456.968,230.279h-9.626a1.924,1.924,0,1,1,0-3.848h7.7a1.925,1.925,0,1,1,3.85,0v1.925A1.923,1.923,0,0,1,456.968,230.279Z" transform="translate(-349.174 -212.955)" fill="#f55648"/>
      <path id="Trazado_104539" data-name="Trazado 104539" d="M402.744,264.566H514.386v3.85H402.744Z" transform="translate(-400.819 -164.473)" fill="#744630"/>
      <circle id="Elipse_4152" data-name="Elipse 4152" cx="2.406" cy="2.406" r="2.406" transform="translate(48.122 28.393)"/>
      <circle id="Elipse_4153" data-name="Elipse 4153" cx="2.406" cy="2.406" r="2.406" transform="translate(61.596 28.393)"/>
      <path id="Trazado_104540" data-name="Trazado 104540" d="M428.183,241.968h3.85a1.925,1.925,0,0,0,0-3.85h-1.18l1.081-3.24a1.924,1.924,0,1,0-3.651-1.218l-1.925,5.775a1.925,1.925,0,0,0,1.826,2.533Z" transform="translate(-372.361 -203.47)"/>
      <path id="Trazado_104541" data-name="Trazado 104541" d="M434.151,237.362a6.723,6.723,0,0,1-5.979,0,1.925,1.925,0,1,0-1.72,3.444,10.585,10.585,0,0,0,9.42,0,1.925,1.925,0,1,0-1.722-3.444Z" transform="translate(-373.415 -197.643)"/>
      <path id="Trazado_104542" data-name="Trazado 104542" d="M465.9,219.28H444.73a1.925,1.925,0,0,0-1.925,1.925v38.5a1.925,1.925,0,0,0,1.925,1.925h7.7a1.927,1.927,0,0,0,1.362-.564,3.523,3.523,0,0,1,4.977,0,1.927,1.927,0,0,0,1.362.564H465.9a1.925,1.925,0,0,0,1.925-1.925v-38.5A1.925,1.925,0,0,0,465.9,219.28Zm-19.247,3.85h17.322v25.024H446.655Zm17.322,34.648h-3.119a7.385,7.385,0,0,0-9.159,0h-5.044V252h17.322Z" transform="translate(-352.335 -219.28)"/>
      <path id="Trazado_104543" data-name="Trazado 104543" d="M456.968,224.506a1.925,1.925,0,0,0-1.925,1.925h-7.7a1.924,1.924,0,1,0,0,3.848h3.052l3.287,3.287a1.925,1.925,0,0,0,2.723-2.723l-.564-.564h1.127a1.923,1.923,0,0,0,1.925-1.923v-1.925a1.925,1.925,0,0,0-1.925-1.925Z" transform="translate(-349.174 -212.955)"/>
      <path id="Trazado_104544" data-name="Trazado 104544" d="M407,255.025l7.112,5.928a1.926,1.926,0,0,0,2.464,0l7.113-5.928a14.209,14.209,0,0,0,5.13-10.95,13.475,13.475,0,0,0-26.95,0A14.216,14.216,0,0,0,407,255.025Zm8.346-20.573a9.634,9.634,0,0,1,9.623,9.623,10.369,10.369,0,0,1-3.744,7.992l-5.879,4.9-5.881-4.9a10.369,10.369,0,0,1-3.744-7.992A9.634,9.634,0,0,1,415.349,234.452Z" transform="translate(-401.873 -205.578)"/>
      <path id="Trazado_104545" data-name="Trazado 104545" d="M407.657,244.474a5.736,5.736,0,0,0,3.461,1.163,5.932,5.932,0,0,0,.818-.057,5.776,5.776,0,1,0-4.279-1.107Zm1.936-5.771a1.9,1.9,0,0,1,1.269-.747,1.878,1.878,0,0,1,.272-.02,1.924,1.924,0,1,1-1.541.767Z" transform="translate(-397.656 -201.363)"/>
      <path id="Trazado_104546" data-name="Trazado 104546" d="M407.1,246.278h3.848v3.85H407.1Z" transform="translate(-395.548 -186.606)"/>
      <path id="Trazado_104547" data-name="Trazado 104547" d="M480.166,304.267a12.375,12.375,0,0,0,1.507-3.835l.217.3a12.326,12.326,0,0,0,21.99-4.175l3.508-14.035,5.033-1.006a6.157,6.157,0,0,0-1.209-12.194H501.67a6.6,6.6,0,0,0-6.346,4.847l-3.512,12.884-.955-1.91-1.07-2.137a14.275,14.275,0,0,0-5.576-5.965,19.945,19.945,0,0,0-1.633-21.38,8.96,8.96,0,0,1-1.784-5.353v-9.858a21.174,21.174,0,0,0-42.348,0h0v5.324a5.763,5.763,0,0,0-.661,7.9,8.817,8.817,0,0,1-1.125,1.987,19.957,19.957,0,0,0-2.471,19.6c.2.486.429.966.67,1.439a12.032,12.032,0,0,0-6.036,10.424V290.5H417.272v-3.85h-3.848v3.85h-5.775a1.925,1.925,0,0,0-1.788,2.639l6.644,16.61h-5.817a4.819,4.819,0,0,0-4.814,4.812v8.662a1.925,1.925,0,0,0,1.925,1.925H515.44a1.925,1.925,0,0,0,1.925-1.925V314.56a4.815,4.815,0,0,0-4.812-4.812H478.869v-3.318Zm8.441-15.01,2.013,4.027a1.924,1.924,0,0,0,3.578-.354l4.838-17.744a2.741,2.741,0,0,1,2.632-2.011h9.542a2.307,2.307,0,0,1,.449,4.569l-6.222,1.244a1.925,1.925,0,0,0-1.49,1.419l-3.8,15.22a8.478,8.478,0,0,1-15.122,2.873l-2.358-3.3Zm-46.311-48.8a17.324,17.324,0,0,1,34.648,0v9.858a12.823,12.823,0,0,0,2.555,7.663,16.1,16.1,0,0,1,1.129,17.591,14.547,14.547,0,0,0-3.64-.464h-7.745a1.923,1.923,0,0,1-1.925-1.914v-4.007a15.405,15.405,0,0,0,7.7-13.328v-9.623a1.925,1.925,0,0,0-1.925-1.925,19.374,19.374,0,0,1-12.382-4.482l-5.634-4.7a1.926,1.926,0,0,0-3.059.871,15.889,15.889,0,0,1-6.233,8.158l-.223.15H442.3Zm17.324,51.516-2.661-5.32h5.32Zm0-24.567a11.562,11.562,0,0,1-11.548-11.551v-8.6a19.8,19.8,0,0,0,6.547-7.5l3.629,3.024a23.233,23.233,0,0,0,12.921,5.294v7.78A11.564,11.564,0,0,1,459.62,267.4Zm0,3.848a15.3,15.3,0,0,0,3.85-.486v2.411a5.746,5.746,0,0,0,1.691,4.087,5.817,5.817,0,0,0,1.32.988L464.2,282.8h-9.17l-2.277-4.555a5.781,5.781,0,0,0,3.013-5.07v-2.411a15.285,15.285,0,0,0,3.85.486ZM450.781,282.9l3,6-3.6-3Zm17.675,0,.6,3-3.6,3Zm-28.086-32.827a1.927,1.927,0,0,1,1.925-1.925h1.925V252H442.3A1.926,1.926,0,0,1,440.371,250.078ZM437.745,273.8a16.1,16.1,0,0,1,2-15.821,12.764,12.764,0,0,0,1.348-2.252,5.666,5.666,0,0,0,1.207.128h1.925a15.4,15.4,0,0,0,7.7,13.328v4a1.925,1.925,0,0,1-1.925,1.925h-9.142a12.122,12.122,0,0,0-2.365.234,15.4,15.4,0,0,1-.743-1.538ZM410.491,294.35h32.3l4.619,15.4H416.651Zm54.9,15.4H451.427l-1.154-3.85H463.95a1.444,1.444,0,0,1,1.443,1.443Zm48.121,4.812V321.3H405.723V314.56a.963.963,0,0,1,.964-.961H512.553A.961.961,0,0,1,513.515,314.56Zm-44.271-4.812v-2.407a5.3,5.3,0,0,0-5.294-5.293H449.117l-3.052-10.176a1.926,1.926,0,0,0-1.843-1.372H432.671v-3.368a8.192,8.192,0,0,1,8.182-8.18h6.794l-1.463,7.323a1.92,1.92,0,0,0,.654,1.854l11.548,9.626a1.927,1.927,0,0,0,2.429.029l.035-.031,11.549-9.623a1.93,1.93,0,0,0,.656-1.857l-1.156-5.778,0-.013-.3-1.529h5.4a10.4,10.4,0,0,1,9.356,5.78l.449.9-6.4,6.4a1.924,1.924,0,0,0-3.176,2.113,8.507,8.507,0,0,1-.347,8.143l-1.574,2.624a1.917,1.917,0,0,0-.274.988v3.85Z" transform="translate(-401.873 -219.279)"/>
    </g>
  </g>
</svg>
